<svg width="200" height="200" viewBox="0 0 200 200" fill="none" xmlns="http://www.w3.org/2000/svg">
<path d="M197.059 85.4261C191.638 49.7446 169.412 5.90735 125.503 1.31973C125.503 1.31973 92.1644 -2.75808 59.3003 3.42231C39.7955 7.09029 22.6925 18.0092 11.8706 33.7025C1.04842 49.3957 -2.56649 68.5314 1.82068 86.775C4.6701 98.6244 6.59559 110.888 6.06717 123.064C5.14748 144.255 5.67661 164.035 26.1273 176.673C44.3875 187.957 67.3681 197.909 89.292 199.652C104.191 200.837 120.9 198.92 135.26 195.019C208.443 175.14 202.48 121.108 197.059 85.4261Z" fill="#F4F7FA"/>
<path d="M157.554 72.5059C156.697 72.4473 155.875 72.4063 155.125 72.3616C152.8 72.2229 147.56 72.8242 146.189 70.2561C143.929 66.0197 152.185 60.7523 154.462 58.159C157.279 54.9511 160.699 51.4242 161.832 47.1654C163.556 40.6882 160.466 31.0668 155.468 26.7489C148.574 20.793 137.398 22.3299 129.805 25.8998C118.806 31.0715 110.075 41.0944 105.417 52.2706C100.396 64.3171 102.577 77.9562 99.3772 90.4654C94.3483 110.127 70.2012 80.2331 67.4681 133.599C66.8648 145.38 66.8566 158.371 71.7734 169.33C73.8124 173.875 78.2823 180.45 83.6843 180.968C91.3434 181.702 92.6967 170.857 95.8313 166.248C99.4954 160.861 105.016 157.021 110.889 154.425C118.359 151.124 126.838 148.456 130.831 140.618C133.423 135.529 131.655 129.584 128.937 124.875C127.44 122.279 123.892 119.02 125.017 115.724C125.951 112.99 130.204 111.548 132.485 110.39C139.501 106.83 146.398 102.888 152.85 98.3688C158.64 94.3127 168.299 88.2988 168.847 80.3025C169.289 73.8667 162.762 72.8615 157.554 72.5059Z" fill="#BFC8D6"/>
<mask id="mask0_824_5953" style="mask-type:luminance" maskUnits="userSpaceOnUse" x="67" y="22" width="102" height="160">
<path d="M157.554 72.5059C156.697 72.4473 155.875 72.4063 155.125 72.3616C152.8 72.2229 147.56 72.8242 146.189 70.2561C143.929 66.0197 152.185 60.7523 154.462 58.159C157.279 54.9511 160.699 51.4242 161.832 47.1654C163.556 40.6882 160.466 31.0668 155.468 26.7489C148.574 20.793 137.398 22.3299 129.805 25.8998C118.806 31.0715 110.075 41.0944 105.417 52.2706C100.396 64.3171 102.577 77.9562 99.3772 90.4654C94.3483 110.127 70.2012 80.2331 67.4681 133.599C66.8648 145.38 66.8566 158.371 71.7734 169.33C73.8124 173.875 78.2823 180.45 83.6843 180.968C91.3434 181.702 92.6967 170.857 95.8313 166.248C99.4954 160.861 105.016 157.021 110.889 154.425C118.359 151.124 126.838 148.456 130.831 140.618C133.423 135.529 131.655 129.584 128.937 124.875C127.44 122.279 123.892 119.02 125.017 115.724C125.951 112.99 130.204 111.548 132.485 110.39C139.501 106.83 146.398 102.888 152.85 98.3688C158.64 94.3127 168.299 88.2988 168.847 80.3025C169.289 73.8667 162.762 72.8615 157.554 72.5059Z" fill="white"/>
</mask>
<g mask="url(#mask0_824_5953)">
<g opacity="0.8">
<path d="M96.5879 197.068C96.5104 197.056 96.4361 197.02 96.3758 196.961C84.8862 185.607 81.0193 170.441 84.5541 150.595C87.6357 133.294 95.6489 115.261 103.398 97.8227C109.501 84.0898 115.265 71.1185 117.634 60.3415C119.532 51.7068 123.248 44.1907 128.679 38.0022C133.021 33.0532 138.463 28.94 144.851 25.7769C155.717 20.3966 165.71 19.6235 165.81 19.6163C166.025 19.6005 166.211 19.7633 166.226 19.9791C166.242 20.1951 166.08 20.3825 165.866 20.3981C165.767 20.4052 155.903 21.1719 145.17 26.4923C135.29 31.3901 122.625 41.2678 118.395 60.5107C116.009 71.3656 110.229 84.3721 104.11 98.1423C88.86 132.459 71.5754 171.355 96.9221 196.402C97.0755 196.553 97.0777 196.801 96.9268 196.956C96.8352 197.05 96.7081 197.087 96.5879 197.068Z" fill="white"/>
<path d="M118.786 57.5069C118.746 57.5007 118.708 57.4884 118.67 57.4694C118.572 57.4193 116.237 56.2024 114.046 52.5513C112.049 49.2219 109.799 43.1301 110.424 33.017C110.437 32.8009 110.622 32.6367 110.837 32.6502C111.05 32.6624 111.215 32.8496 111.202 33.0656C110.591 42.934 112.756 48.8573 114.679 52.0886C116.754 55.5749 119 56.7589 119.023 56.7703C119.214 56.8688 119.291 57.1046 119.193 57.2972C119.115 57.4523 118.948 57.5327 118.786 57.5069Z" fill="white"/>
<path d="M111.123 81.226C110.928 81.1951 110.785 81.0201 110.796 80.8176C110.807 80.6015 110.991 80.436 111.206 80.4477C111.273 80.4513 117.989 80.7843 127.247 78.316C135.782 76.0401 148.288 70.8475 159.395 59.0348C159.543 58.8776 159.79 58.8704 159.946 59.0193C160.103 59.168 160.11 59.4161 159.962 59.5733C148.719 71.5302 136.058 76.7817 127.416 79.0818C118.046 81.5753 111.231 81.234 111.163 81.2302C111.15 81.2296 111.136 81.2281 111.123 81.226Z" fill="white"/>
<path d="M87.9178 138.385C87.8753 138.378 87.8332 138.364 87.7933 138.342C87.5401 138.205 81.5437 134.89 77.3042 127.594C74.8134 123.308 73.4669 118.541 73.3023 113.425C73.097 107.049 74.7381 100.117 78.1801 92.8188C78.2722 92.6231 78.5042 92.54 78.6992 92.6326C78.8937 92.7254 78.9765 92.9591 78.8844 93.1546C71.232 109.379 74.1573 120.606 77.9588 127.167C82.0835 134.286 88.1037 137.62 88.1641 137.653C88.3533 137.756 88.4237 137.994 88.3213 138.184C88.2405 138.334 88.0765 138.41 87.9178 138.385Z" fill="white"/>
<path d="M92.2055 125.675C92.0153 125.645 91.8721 125.477 91.8771 125.278C91.8826 125.061 92.0615 124.89 92.2766 124.896C92.5908 124.904 123.805 125.575 133.117 115.134C133.261 114.973 133.507 114.96 133.667 115.104C133.827 115.249 133.841 115.496 133.697 115.657C129.675 120.167 121.469 123.223 109.307 124.743C100.29 125.869 92.336 125.681 92.2568 125.68C92.2393 125.679 92.2223 125.677 92.2055 125.675Z" fill="white"/>
</g>
</g>
<path d="M196.735 97.5708C195.589 87.5313 188.328 78.9139 179.108 74.8745C173.495 72.4149 166.43 70.7642 160.296 70.8626C151.669 71.001 143.874 75.41 137.47 80.9377C129.946 87.4325 127.894 96.6347 124.177 105.509C123.448 107.249 118.95 116.753 117.644 110.558C115.823 101.919 108.687 102.26 108.686 102.26C103.102 102.528 98.3204 105.861 95.5335 110.569C88.0889 123.143 87.0058 140.838 85.9293 155.085C85.423 161.786 85.2093 168.498 85.1564 175.212C85.1434 176.873 86.0927 178.388 87.5888 179.09C89.085 179.791 90.8508 179.55 92.1069 178.473C93.413 177.352 94.7551 176.346 95.9889 175.469C107.855 167.032 124.197 168.097 137.883 169.649C145.873 170.556 152.491 171.085 160.077 167.897C163.23 166.572 166.695 164.88 168.537 161.838C170.204 159.085 171.229 154.082 169.843 151.056C168.118 147.289 163.065 146.708 160.471 143.723C156.279 138.9 169.349 138.078 172.021 137.659C176.282 136.991 179.48 134.166 182.96 131.827C185.618 130.041 188.167 128.043 190.274 125.612C196.71 118.186 197.813 107.023 196.735 97.5708Z" fill="#D8DEE8"/>
<mask id="mask1_824_5953" style="mask-type:luminance" maskUnits="userSpaceOnUse" x="85" y="70" width="113" height="110">
<path d="M196.735 97.5708C195.589 87.5313 188.328 78.9139 179.108 74.8745C173.495 72.4149 166.43 70.7642 160.296 70.8626C151.669 71.001 143.874 75.41 137.47 80.9377C129.946 87.4325 127.894 96.6347 124.177 105.509C123.448 107.249 118.95 116.753 117.644 110.558C115.823 101.919 108.687 102.26 108.686 102.26C103.102 102.528 98.3204 105.861 95.5335 110.569C88.0889 123.143 87.0058 140.838 85.9293 155.085C85.423 161.786 85.2093 168.498 85.1564 175.212C85.1434 176.873 86.0927 178.388 87.5888 179.09C89.085 179.791 90.8508 179.55 92.1069 178.473C93.413 177.352 94.7551 176.346 95.9889 175.469C107.855 167.032 124.197 168.097 137.883 169.649C145.873 170.556 152.491 171.085 160.077 167.897C163.23 166.572 166.695 164.88 168.537 161.838C170.204 159.085 171.229 154.082 169.843 151.056C168.118 147.289 163.065 146.708 160.471 143.723C156.279 138.9 169.349 138.078 172.021 137.659C176.282 136.991 179.48 134.166 182.96 131.827C185.618 130.041 188.167 128.043 190.274 125.612C196.71 118.186 197.813 107.023 196.735 97.5708Z" fill="white"/>
</mask>
<g mask="url(#mask1_824_5953)">
<g opacity="0.8">
<path d="M82.487 181.822C82.432 181.813 82.378 181.792 82.3289 181.758C82.1509 181.637 82.1047 181.393 82.2256 181.214C82.3946 180.964 99.3773 155.917 121.308 130.963C134.195 116.3 146.245 104.535 157.125 95.9948C170.767 85.2871 182.614 79.6375 192.339 79.203C192.554 79.1935 192.736 79.3609 192.745 79.5771C192.755 79.7934 192.588 79.9764 192.373 79.986C182.814 80.4131 171.116 86.007 157.605 96.6126C146.763 105.123 134.747 116.855 121.892 131.482C99.9936 156.399 83.0388 181.405 82.8701 181.655C82.7827 181.784 82.6314 181.844 82.487 181.822Z" fill="white"/>
<path d="M140.414 111.623C140.393 111.62 140.373 111.615 140.353 111.609C140.148 111.542 140.037 111.321 140.103 111.115C140.218 110.759 151.568 75.4498 146.894 68.4467C146.774 68.267 146.822 68.0236 147.001 67.9029C147.179 67.7822 147.422 67.8305 147.541 68.01C152.425 75.3272 141.32 109.89 140.845 111.357C140.784 111.543 140.599 111.653 140.414 111.623Z" fill="white"/>
<path d="M210.664 103.55C210.595 103.539 210.527 103.509 210.47 103.459C196.858 91.5738 164.668 91.5489 164.344 91.55C164.128 91.5504 163.954 91.3758 163.953 91.1594C163.952 90.9429 164.126 90.7669 164.342 90.7661C164.423 90.7659 172.61 90.7545 182.387 92.2283C191.433 93.5898 203.741 96.5448 210.981 102.867C211.144 103.009 211.161 103.256 211.02 103.42C210.928 103.526 210.793 103.57 210.664 103.55Z" fill="white"/>
<path d="M99.0354 159.11C99.0066 159.105 98.9779 159.097 98.9498 159.086C98.7504 159.005 98.6539 158.776 98.7344 158.576C105.664 141.32 94.3053 112.758 94.1898 112.472C94.1089 112.271 94.2049 112.043 94.4044 111.961C94.6043 111.88 94.8313 111.977 94.9121 112.177C94.9413 112.249 97.8513 119.515 99.855 128.84C101.709 137.469 103.146 149.684 99.4571 158.869C99.3878 159.042 99.2105 159.138 99.0354 159.11Z" fill="white"/>
<path d="M115.307 138.851C115.146 138.825 115.012 138.698 114.984 138.527C114.949 138.313 115.093 138.112 115.305 138.077C115.451 138.053 130.03 135.68 147.338 135.03C163.341 134.429 185.023 135.223 197.433 142.416C197.619 142.524 197.683 142.764 197.576 142.951C197.468 143.139 197.23 143.203 197.043 143.095C184.794 135.994 163.268 135.216 147.367 135.813C130.107 136.461 115.576 138.827 115.431 138.85C115.389 138.858 115.347 138.857 115.307 138.851Z" fill="white"/>
</g>
</g>
<path d="M115.099 18.6537L20.7867 15.2226L19.7193 11.6323L14.6393 11.7694C12.1433 11.6586 10.2094 13.1934 10.2094 15.2291V162.195C10.2094 162.195 9.7987 167.919 19.7686 167.899C20.4941 167.17 19.2479 166.182 17.4863 165.233L43.5686 162.291V183.135L34.1143 184.429C33.0127 184.579 32.1777 185.514 32.1777 186.526V189.349C32.1777 189.555 32.1988 189.843 32.264 189.843H32.2453C32.2453 189.843 32.2369 189.885 32.237 189.886C32.3707 190.245 32.6241 190.553 32.9667 190.727C33.8614 191.509 35.7135 192.659 39.2761 193.229C39.2761 192.023 39.2388 191.013 39.188 190.173L97.5399 181.833L97.4437 182.617C97.4437 182.617 102.847 180.682 104.692 178.155C101.256 176.407 99.4685 175.884 98.7239 175.741C98.588 175.704 98.4443 175.661 98.2963 175.661C98.2932 175.661 98.2916 175.661 98.2916 175.661C98.2059 175.661 98.0682 175.686 97.98 175.698L89.4036 176.882V157.123L114.431 154.31C116.434 154.084 118.152 152.258 118.152 150.446V19.6299C118.152 17.818 117.102 18.7428 115.099 18.6537Z" fill="#005A4C"/>
<path d="M95.0997 178.276L49.2646 184.296V157.964L95.0997 153.212V178.276Z" fill="url(#paint0_linear_824_5953)"/>
<path d="M120.199 16.1464L20.3458 11.6381C17.8498 11.5255 15.9053 13.0847 15.9053 15.1526V164.449C15.9053 166.517 17.8714 168.152 20.3674 167.867L120.232 156.439C122.236 156.21 123.848 154.355 123.848 152.514V19.6231C123.848 17.7825 122.202 16.2368 120.199 16.1464Z" fill="url(#paint1_linear_824_5953)"/>
<path d="M118.424 24.533V147.982C118.424 149.436 117.352 150.728 115.937 151.338C115.549 151.506 115.103 151.58 114.667 151.628L27.2591 161.085C24.7988 161.351 22.957 160.01 22.957 157.958V21.1444C22.957 19.0918 24.7786 17.5547 27.2389 17.6513L114.735 21.0837C116.763 21.1633 118.424 22.6809 118.424 24.533Z" fill="url(#paint2_linear_824_5953)"/>
<path opacity="0.5" d="M115.873 151.343C115.486 151.511 115.067 151.584 114.631 151.631L27.2389 161.086C24.7786 161.353 22.957 160.01 22.957 157.958V21.1444C22.957 19.0918 24.7786 17.5547 27.2389 17.6513L32.7058 17.8674C34.1848 19.6241 35.4338 22.4017 36.2558 25.8814C38.0524 33.4954 35.3311 40.8331 35.79 48.3457C36.3489 57.4886 46.9846 60.1479 53.6458 64.7334C58.5782 68.127 63.7146 73.3921 65.9841 78.7172C68.4694 84.549 65.8417 94.8062 64.4833 100.836C63.3945 105.672 61.4054 111.398 64.6168 115.638C69.7397 122.401 81.747 123.616 89.5897 124.794C94.3238 125.504 99.3611 126.38 103.333 128.779C109.105 132.268 112.311 138.201 114.306 144.432C114.494 145.019 115.148 147.996 115.873 151.343Z" fill="white"/>
<path d="M105.948 182.117C105.948 183.058 104.862 183.944 103.904 184.081L39.9068 193.218C38.8051 193.375 37.873 192.669 37.873 191.658V188.835C37.873 187.823 38.7457 186.888 39.8472 186.737L103.959 178.029C104.917 177.898 105.948 178.552 105.948 179.492L105.948 182.117Z" fill="url(#paint3_linear_824_5953)"/>
<path d="M114.775 20.8783L27.3037 17.4341C27.0222 17.423 26.7632 17.436 26.5003 17.466L113.141 20.8783C115.169 20.9582 116.786 22.4809 116.786 24.3394V148.21C116.786 149.669 115.764 150.966 114.349 151.577C113.961 151.746 113.541 151.821 113.105 151.868L25.9561 161.33C26.3859 161.397 26.8547 161.41 27.3428 161.357L114.754 151.868C115.19 151.821 115.587 151.746 115.974 151.577C117.39 150.966 118.413 149.669 118.413 148.21V24.3393C118.413 22.4809 116.803 20.9582 114.775 20.8783Z" fill="url(#paint4_linear_824_5953)"/>
<g opacity="0.8">
<path d="M84.837 71.0697L29.6751 71.4703C28.135 71.4815 26.8184 70.2257 26.8184 68.671V26.2293C26.8184 24.6746 28.1138 23.4576 29.654 23.5162L84.8129 25.6138C86.1928 25.6663 87.3792 26.9021 87.3792 28.3683V68.3928C87.3791 69.8588 86.2169 71.0597 84.837 71.0697ZM29.6773 24.699C28.786 24.666 28.0442 25.3694 28.0442 26.2686V68.6639C28.0442 69.5631 28.786 70.2909 29.6773 70.2854L84.8648 69.9467C85.6643 69.9418 86.3983 69.2467 86.3983 68.397V28.3301C86.3983 27.4804 85.6643 26.7648 84.8648 26.7352L29.6773 24.699Z" fill="#F4F7FA"/>
<path d="M111.002 26.8842L96.4777 26.3363C95.4092 26.2959 94.4893 27.1951 94.4893 28.346V68.0793C94.4893 69.2302 95.4074 70.1583 96.4759 70.1514L110.977 70.0587C112.012 70.052 112.878 69.1312 112.878 68.0015V29.0004C112.878 27.8707 112.037 26.9233 111.002 26.8842Z" fill="#F4F7FA"/>
<path d="M50.4327 80.0261L29.8803 80.3454C28.6633 80.3644 27.5527 81.3749 27.5527 82.6033V108.403C27.5527 109.632 28.6548 110.584 29.8717 110.53L50.376 109.628C51.5437 109.576 52.5616 108.562 52.5616 107.362V82.1658C52.5616 80.9661 51.6004 80.0078 50.4327 80.0261Z" fill="#F4F7FA"/>
<path d="M81.5436 79.5364L62.4077 79.8366C61.2642 79.8545 60.4082 80.8335 60.4082 82.0242V107.032C60.4082 108.223 61.302 109.147 62.4454 109.097L81.5613 108.247C82.6599 108.199 83.4557 107.216 83.4557 106.052V81.6116C83.4557 80.4479 82.6421 79.5191 81.5436 79.5364Z" fill="#F4F7FA"/>
<path d="M111.002 79.0769L92.9582 79.3614C91.8819 79.3783 91.0566 80.3295 91.0566 81.4845V105.745C91.0566 106.9 91.8801 107.797 92.9564 107.75L111.027 106.95C112.062 106.904 112.878 105.951 112.878 104.821V81.0932C112.878 79.9634 112.037 79.0607 111.002 79.0769Z" fill="#F4F7FA"/>
<path d="M50.4327 119.785L29.8803 120.888C28.6633 120.954 27.5527 122.003 27.5527 123.231V149.031C27.5527 150.26 28.6548 151.174 29.8717 151.073L50.376 149.387C51.5437 149.29 52.5616 148.24 52.5616 147.04V121.844C52.5616 120.644 51.6004 119.722 50.4327 119.785Z" fill="#F4F7FA"/>
<path d="M81.5436 118.099L62.4077 119.137C61.2642 119.198 60.4082 120.213 60.4082 121.404V146.412C60.4082 147.602 61.302 148.491 62.4454 148.396L81.5613 146.811C82.6599 146.72 83.4557 145.703 83.4557 144.54V120.099C83.4557 118.935 82.6421 118.04 81.5436 118.099Z" fill="#F4F7FA"/>
<path d="M111.002 116.513L92.9582 117.491C91.8819 117.549 91.0566 118.533 91.0566 119.688V143.949C91.0566 145.104 91.8801 145.968 92.9564 145.879L111.027 144.386C112.062 144.3 112.878 143.315 112.878 142.186V118.458C112.878 117.328 112.037 116.457 111.002 116.513Z" fill="#F4F7FA"/>
<path d="M69.5193 56.6525L51.4923 56.5263C50.9168 56.5222 50.4022 56.1541 50.2055 55.5954L42.3863 33.4414C42.2344 33.0103 41.8326 32.7568 41.3868 32.7435L35.0547 32.5557C34.2748 32.5325 33.6416 31.8301 33.6416 31.0392C33.6416 30.2484 34.2748 29.5852 35.0547 29.6106L41.3868 29.8162C42.9988 29.8685 44.4475 30.9033 44.9957 32.4623L52.4495 53.6366L69.5192 53.8039C70.2478 53.811 70.8378 54.4764 70.8378 55.2392C70.8378 56.0022 70.2479 56.6576 69.5193 56.6525Z" fill="#F4F7FA"/>
<path d="M57.328 61.9602C57.328 63.9171 55.7935 65.506 53.8942 65.5091C51.988 65.5123 50.4375 63.918 50.4375 61.9479C50.4375 59.9779 51.988 58.3891 53.8942 58.399C55.7935 58.4089 57.328 60.0033 57.328 61.9602Z" fill="#F4F7FA"/>
<path d="M71.6595 61.9856C71.6595 63.9152 70.1674 65.482 68.3207 65.4851C66.4674 65.4882 64.96 63.9161 64.96 61.9737C64.96 60.0313 66.4674 58.4645 68.3207 58.4742C70.1674 58.4838 71.6595 60.0559 71.6595 61.9856Z" fill="#F4F7FA"/>
<path d="M72.3907 38.36C71.9546 37.7233 71.26 37.3262 70.5196 37.307L45.1865 36.6475L50.0085 50.999L67.8116 51.2184C68.8286 51.2309 69.7271 50.4994 70.0334 49.4901L72.7297 40.5703C72.9522 39.8367 72.8265 38.9961 72.3907 38.36Z" fill="#F4F7FA"/>
</g>
<path d="M156.383 90.1343C156.96 90.3536 165.757 93.8716 167.565 103.105C167.712 103.851 169.125 111.783 163.775 117.387C157.777 123.671 146.226 123.515 141.641 118.262C140.571 117.037 140.007 115.679 139.691 114.538L140.899 111.311C142.373 109.521 144.381 109.097 145.452 108.832C148.095 108.177 150.09 109.36 151.603 108.079C152.441 107.37 152.607 106.35 152.756 105.438C153.262 102.333 151.519 100.422 151.392 98.5077C151.297 97.0765 150.799 93.9404 152.657 91.8953C153.833 90.6003 155.463 90.2476 156.383 90.1343Z" fill="#009281"/>
<path d="M159.811 193.033C159.914 192.465 161.739 191.95 162.643 192.711C163.092 193.089 163.401 193.856 163.141 194.202C163.047 194.328 163.434 194.549 163.063 194.553C161.833 194.568 159.709 193.598 159.811 193.033Z" fill="url(#paint5_linear_824_5953)"/>
<path d="M161.724 193.24L163.602 192.973C162.732 191.92 162.893 188.566 162.893 188.566L160.896 189.014C160.896 189.014 161.124 189.935 161.511 191.293C161.643 191.758 161.703 192.485 161.724 193.24Z" fill="url(#paint6_linear_824_5953)"/>
<path d="M161.558 193.007C161.558 193.007 163.818 192.483 164.062 192.934C164.307 193.385 164.497 194.592 163.063 194.553C161.629 194.514 161.43 193.389 161.558 193.007Z" fill="url(#paint7_linear_824_5953)"/>
<path d="M134.053 195.164C134.233 194.616 136.112 194.364 136.901 195.244C137.293 195.682 137.492 196.484 137.187 196.79C137.076 196.902 137.428 197.175 137.061 197.128C135.841 196.969 133.873 195.709 134.053 195.164Z" fill="url(#paint8_linear_824_5953)"/>
<path d="M135.918 195.639H137.814C137.1 194.473 137.726 191.176 137.726 191.176L135.687 191.338C135.687 191.338 135.784 192.282 135.978 193.681C136.044 194.16 136.002 194.888 135.918 195.639Z" fill="url(#paint9_linear_824_5953)"/>
<path d="M131.005 123.539C130.127 126.456 128.872 131.163 128.065 137.069C125.762 153.915 130.657 154.452 129.743 173.12C129.451 179.078 134.876 192.818 135.354 193.122C135.586 193.144 135.837 193.159 136.105 193.151C136.576 193.137 137.242 193.064 138.015 192.831C138.875 192.682 141.973 184.243 141.255 179.225C140.747 175.673 140.894 171.862 141.189 164.239C141.237 163.004 144.379 140.209 144.379 140.209C145.335 148.647 146.434 155.816 147.387 161.374C150.449 179.232 160.405 190.041 160.925 190.214C161.027 190.256 161.961 190.597 162.725 190.091C163.065 189.866 163.181 189.575 163.181 189.575C163.447 189.365 163.102 171.746 160.066 158.485C155.658 139.238 157.577 134.735 156.181 126.138C154.973 118.699 131.005 123.539 131.005 123.539Z" fill="#003234"/>
<path d="M129.824 126.447C132.471 127.813 139.288 130.261 147.413 129.045C151.015 128.506 153.916 127.322 155.995 126.236C156.058 126.205 156.122 126.173 156.182 126.141C154.071 119.722 155.725 116.288 156.506 113.122C157.62 108.609 157.636 108.951 158.553 105.364C160.063 99.4465 160.311 93.4017 159.273 92.1666C156.474 88.8314 151.428 88.7101 148.809 88.6303C145.883 88.5442 139.155 87.5069 135.451 90.858C135.388 90.9154 136.146 91.324 135.772 91.7644C135.426 92.1729 134.236 93.6059 133.156 95.54C132.376 96.9411 131.668 98.5751 130.957 101.007C129.703 105.3 129.342 108.957 129.221 110.55C129.183 111.076 129.148 111.587 129.116 112.079C128.624 119.987 129.249 123.804 129.824 126.447Z" fill="#009281"/>
<path d="M135.786 195.385C135.786 195.385 138.097 195.184 138.276 195.665C138.456 196.146 138.476 197.368 137.061 197.127C135.647 196.887 135.607 195.745 135.786 195.385Z" fill="url(#paint10_linear_824_5953)"/>
<path d="M140.387 84.8696C139.59 83.2686 140.115 81.5407 140.232 81.1676C140.723 79.6054 140.881 79.3743 141.197 79.0588L141.643 78.647C141.643 78.647 141.67 78.6295 141.698 78.6125C142.001 78.4333 143.1 78.1849 143.333 78.1895C144.078 78.2042 145.403 80.988 145.982 85.1749C146.042 85.327 146.101 85.4808 146.159 85.636C146.523 86.6023 146.827 87.5488 147.081 88.4686C152.069 89.248 152.725 89.8889 152.723 90.2323C152.72 90.9553 149.803 91.586 147.631 91.7515C142.894 92.1122 138.16 90.5297 138.243 89.652C138.279 89.2699 139.246 88.8365 143.258 88.5924C143.211 87.9244 143.164 87.2564 143.117 86.5883C142.799 86.4935 140.974 86.0492 140.387 84.8696Z" fill="url(#paint11_linear_824_5953)"/>
<path d="M139.934 77.7576C140.184 79.0409 141.049 80.2953 141.398 80.4562C141.443 80.477 141.7 80.6108 141.958 80.8744C141.993 80.9103 142.027 80.9539 142.06 81.012C142.495 81.7669 141.399 82.9676 141.715 83.2819C141.945 83.51 142.747 82.9897 142.894 83.1965C143.032 83.3912 142.394 83.9738 142.554 84.2082C142.675 84.3851 143.086 84.122 143.423 84.3635C143.591 84.4837 143.572 84.6084 143.807 85.0301C143.94 85.2687 144.11 85.5247 144.231 85.6621C144.817 86.3303 146.12 86.363 146.302 86.0146C146.353 85.9176 146.282 85.8581 146.296 85.5627C146.296 85.5627 146.309 85.2888 146.432 84.9513C146.608 84.4691 147.173 84.0391 147.715 83.4607C148.719 82.3898 148.898 81.6084 148.946 81.3467C148.963 81.2536 148.972 81.1841 148.978 81.134C149.099 80.1287 148.834 78.7382 148.247 77.9654C147.263 76.6709 145.794 77.6613 144.213 76.4964C142.389 75.1525 142.858 72.7399 141.991 72.6518C141.036 72.5547 139.47 75.3848 139.934 77.7576Z" fill="#26264F"/>
<path d="M142.116 82.891C142.346 82.3978 142.974 82.6974 143.084 83.2563C143.195 83.8151 142.768 84.5015 142.224 84.4926C141.679 84.4836 141.807 83.5549 142.116 82.891Z" fill="url(#paint12_linear_824_5953)"/>
<path d="M155.249 122.165C155.255 122.165 155.261 122.165 155.267 122.164C155.361 122.154 155.428 122.069 155.417 121.975C155.074 118.861 155.716 116.596 156.283 114.597C156.422 114.107 156.557 113.632 156.672 113.163C157.302 110.607 157.578 109.619 157.871 108.573C158.063 107.887 158.259 107.183 158.565 106.001C158.589 105.909 158.534 105.816 158.444 105.792C158.352 105.766 158.259 105.823 158.236 105.914C157.93 107.094 157.734 107.796 157.543 108.48C157.249 109.529 156.973 110.519 156.342 113.081C156.227 113.546 156.093 114.017 155.955 114.503C155.38 116.532 154.728 118.831 155.08 122.013C155.089 122.1 155.163 122.165 155.249 122.165Z" fill="url(#paint13_linear_824_5953)"/>
<path opacity="0.4" d="M129.824 126.447C132.471 127.813 139.288 130.261 147.413 129.045C151.015 128.506 153.916 127.322 155.995 126.236C155.052 125.499 153.89 124.264 151.97 122.164C149.644 119.624 146.918 120.571 145.315 121.529C144.16 122.215 142.728 122.234 141.557 121.583C140.383 120.929 139.64 119.7 139.605 118.353C139.586 117.734 139.615 117.029 139.691 116.231C140.24 110.451 132.277 109.96 132.277 109.96C131.154 109.372 130.087 110.32 129.116 112.079C128.624 119.987 129.249 123.805 129.824 126.447Z" fill="url(#paint14_linear_824_5953)"/>
<path d="M101.797 90.1615C102.096 90.2826 102.375 90.7063 102.593 90.9331C102.902 91.2557 103.215 91.5751 103.535 91.8863C104.153 92.487 104.844 93.0018 105.684 93.2353C105.696 93.1085 105.69 92.9761 105.677 92.8474C105.634 92.4721 105.532 92.1286 105.673 92.0619C105.875 91.964 106.489 92.473 106.953 93.29C107.142 93.6165 107.301 93.9971 107.404 94.4064C107.567 95.0713 107.42 95.3645 107.57 95.8788C107.872 96.3718 108.156 96.5451 108.156 96.5451L108.121 96.6634L108.032 96.7949C108.316 97.1861 108.683 97.4764 108.976 97.6824C108.358 97.6664 107.752 97.6574 107.137 97.6453L106.546 98.191C106.546 98.191 104.522 97.0939 103.454 95.9124C102.955 95.3585 102.881 94.8356 102.943 94.4387C102.982 94.1734 103.083 93.9662 103.157 93.8368C103.213 93.7448 103.256 93.6915 103.256 93.6915C103.256 93.6915 101.697 92.4199 101.468 90.6052C101.433 90.3309 101.507 90.0435 101.797 90.1615Z" fill="url(#paint15_linear_824_5953)"/>
<path d="M108.307 95.8635C107.082 96.2753 106.253 97.083 105.788 97.6178C106.015 99.6009 106.744 103.374 109.537 106.827C114.115 112.488 122.495 115.129 129.687 112.371C138.279 109.075 142.49 99.1013 140.849 93.8042C140.66 93.1945 140.039 91.1897 138.367 90.4827C137.311 90.0361 135.691 90.0462 132.528 92.1114C125.939 96.4149 126.607 100.527 123.22 101.351C118.141 102.587 113.643 94.0697 108.307 95.8635Z" fill="#009281"/>
<path d="M108.315 33.6821C108.315 48.5914 122.75 60.7136 140.822 60.7587C159.197 60.8044 174.319 48.3874 174.319 33.0237C174.319 17.6599 159.197 5.54464 140.822 5.957C122.75 6.36256 108.315 18.7729 108.315 33.6821Z" fill="url(#paint16_linear_824_5953)"/>
<path d="M108.315 33.6821C108.315 48.5914 122.75 60.7136 140.822 60.7587C159.197 60.8044 174.319 48.3874 174.319 33.0237C174.319 17.6599 159.197 5.54464 140.822 5.957C122.75 6.36256 108.315 18.7729 108.315 33.6821Z" fill="url(#paint17_linear_824_5953)"/>
<path d="M126.9 56.5563C124.337 57.4345 121.746 58.3475 119.128 59.2967C115.316 60.6787 111.596 62.0837 107.968 63.5052C108.022 61.1323 108.445 56.6686 111.015 51.8853C112.981 48.2275 115.436 45.8084 117.105 44.4087L126.9 56.5563Z" fill="url(#paint18_linear_824_5953)"/>
<path d="M105.992 31.2035C105.992 46.1128 120.426 58.2351 138.499 58.2801C156.874 58.3258 171.996 45.9087 171.996 30.5451C171.996 15.1816 156.874 3.06612 138.499 3.47848C120.426 3.8839 105.992 16.2942 105.992 31.2035Z" fill="url(#paint19_linear_824_5953)"/>
<path d="M105.992 31.2035C105.992 46.1128 120.426 58.2351 138.499 58.2801C156.874 58.3258 171.996 45.9087 171.996 30.5451C171.996 15.1816 156.874 3.06612 138.499 3.47848C120.426 3.8839 105.992 16.2942 105.992 31.2035Z" fill="url(#paint20_linear_824_5953)"/>
<path d="M124.576 54.0774C121.688 55.5311 118.688 56.9796 115.577 58.4111C112.997 59.5984 110.459 60.7195 107.968 61.7787C108.058 59.2179 108.456 55.6534 109.801 51.6267C111.238 47.3226 113.228 44.0757 114.781 41.9297L124.576 54.0774Z" fill="url(#paint21_linear_824_5953)"/>
<path d="M133.241 25.0128L132.104 28.9488C132.104 28.9488 137.491 27.4252 137.491 28.3563C137.491 28.9352 135.409 37.6924 133.834 44.2356C133.447 45.8426 133.907 47.5367 135.052 48.7232C136.198 49.9097 137.869 50.4245 139.477 50.0822C142.36 49.4688 145.064 48.7143 145.404 47.9938C145.993 45.2006 146.582 44.1001 146.582 44.1001C146.582 44.1001 140.69 46.1316 140.69 44.7773C140.69 43.9458 142.657 35.552 144.176 29.1955C144.561 27.5845 144.095 25.8877 142.943 24.703C141.792 23.5184 140.114 23.0104 138.504 23.3628C136.186 23.8701 134.026 24.4581 133.241 25.0128Z" fill="white"/>
<path d="M141.798 20.1456C144.44 20.1456 146.582 17.9918 146.582 15.335C146.582 12.6782 144.44 10.5244 141.798 10.5244C139.156 10.5244 137.015 12.6782 137.015 15.335C137.015 17.9918 139.156 20.1456 141.798 20.1456Z" fill="white"/>
<g opacity="0.3">
<path d="M130.517 51.3058C134.476 43.2261 130.474 35.7068 135.83 30.4418C141.297 25.0666 148.443 29.9377 156.185 25.4972C159.193 23.772 162.547 20.4933 165.047 13.79C169.401 18.389 171.997 24.1987 171.997 30.5449C171.997 45.9085 156.874 58.3255 138.499 58.2798C134.333 58.2694 130.362 57.6177 126.719 56.4414C128.514 54.7295 129.703 52.9672 130.517 51.3058Z" fill="url(#paint22_linear_824_5953)"/>
</g>
<path d="M2.81855 172.558L2.86599 175.781C2.87995 176.726 3.66841 177.42 4.62654 177.329L6.36773 177.165C6.60876 178.687 7.01429 180.139 7.56718 181.506L6.13642 182.468C5.31464 183.02 5.04604 184.093 5.53673 184.865L7.2078 187.492C7.69756 188.263 9.89942 188.626 10.7188 188.073L10.9319 186.97C11.9221 188.097 13.0419 189.102 14.2689 189.967L13.5276 191.348C13.0642 192.211 13.3617 193.225 14.1917 193.612L17.0166 194.93C17.844 195.316 20.4663 195.253 20.9274 194.392L20.0592 192.741C21.5131 193.162 23.04 193.422 24.619 193.505L24.6401 194.933C24.6538 195.87 25.4281 196.55 26.3686 196.453L29.5692 196.123C30.5065 196.026 31.2546 195.19 31.2409 194.256L31.2199 192.832C32.7808 192.43 34.2808 191.864 35.7005 191.155L36.437 192.326C36.9148 193.086 39.6352 193.355 40.4342 192.807L41.4689 190.843C42.2655 190.296 42.5254 189.239 42.0499 188.481L41.2883 187.266C42.4575 186.174 43.5161 184.967 44.4436 183.668L45.7797 184.305C46.587 184.69 48.9275 184.792 49.3771 183.943L49.5866 180.573C50.0354 179.726 49.7469 178.726 48.9419 178.34L47.5375 177.666C48.0308 176.223 48.3794 174.725 48.5677 173.191L50.2445 173.033C51.165 172.946 51.8996 172.126 51.886 171.2L51.8395 168.044C51.8259 167.118 51.0691 166.436 50.1485 166.52L48.373 166.682C48.0995 165.229 47.674 163.842 47.113 162.536L48.6934 161.469C49.4848 160.934 49.7431 159.884 49.2706 159.122L49.4282 155.976C48.9548 155.212 46.158 155.572 45.3643 156.106L43.701 157.224C42.7582 156.185 41.7025 155.254 40.552 154.445L41.5218 152.633C41.9737 151.788 41.6834 150.782 40.8729 150.384L39.616 148.734C38.8031 148.335 36.2654 148.991 35.8113 149.837L34.8143 151.695C33.4693 151.304 32.0605 151.048 30.603 150.944L30.5725 148.876C30.5588 147.941 29.7881 147.247 28.8505 147.324L25.6489 147.587C24.708 147.664 23.956 148.487 23.9697 149.424L24.0003 151.498C22.5393 151.847 21.1283 152.342 19.7823 152.963L20.3134 150.746C19.8282 149.973 17.1809 150.301 16.3671 150.839L13.5887 152.677C12.7724 153.216 12.5055 154.283 12.993 155.058L14.0379 156.719C12.8869 157.736 11.8345 158.863 10.8991 160.08L10.9183 158.982C10.0849 158.582 7.26964 159.215 6.80385 160.074L5.21464 163.004C4.74799 163.864 5.04748 164.885 5.88323 165.283L7.54846 166.077C7.00874 167.505 6.61092 168.992 6.37212 170.519L4.52856 170.687C3.57064 170.775 2.80465 171.612 2.81855 172.558ZM14.7284 173.392C14.6239 166.301 20.327 160.047 27.4273 159.426C34.4845 158.809 40.258 163.997 40.3612 171.01C40.4645 178.024 34.8595 184.269 27.8034 184.963C20.7043 185.661 14.8329 180.483 14.7284 173.392Z" fill="url(#paint23_linear_824_5953)"/>
<path d="M4.96601 172.425L5.01353 175.648C5.02742 176.593 5.81594 177.287 6.77408 177.196L8.51534 177.032C8.75636 178.554 9.16189 180.006 9.71472 181.373L8.28403 182.335C7.46224 182.887 7.19364 183.96 7.68427 184.732L9.35534 187.359C9.84509 188.13 10.9066 188.305 11.7259 187.751L13.0795 186.837C14.0696 187.964 15.1894 188.969 16.4164 189.834L15.675 191.215C15.2117 192.078 15.5092 193.092 16.3392 193.479L19.164 194.797C19.9914 195.183 21.0357 194.797 21.4967 193.935L22.2066 192.608C23.6606 193.029 25.1874 193.288 26.7665 193.372L26.7875 194.8C26.8013 195.737 27.5755 196.417 28.5161 196.32L31.7167 195.99C32.654 195.893 33.402 195.057 33.3883 194.123L33.3673 192.699C34.9282 192.297 36.4283 191.731 37.848 191.022L38.5845 192.193C39.0623 192.953 40.0977 193.124 40.8967 192.576L43.6163 190.71C44.4128 190.163 44.6728 189.106 44.1972 188.347L43.4357 187.133C44.6048 186.041 45.6635 184.834 46.591 183.535L47.9271 184.172C48.7344 184.557 49.753 184.18 50.2026 183.331L51.734 180.44C52.1828 179.593 51.8943 178.593 51.0893 178.207L49.6849 177.533C50.1782 176.09 50.5269 174.592 50.7151 173.058L52.3919 172.9C53.3124 172.813 54.0471 171.992 54.0335 171.067L53.987 167.911C53.9734 166.985 53.2166 166.302 52.2959 166.386L50.5204 166.549C50.247 165.096 49.8214 163.709 49.2604 162.403L50.8408 161.335C51.6322 160.801 51.8905 159.75 51.4179 158.989L49.8057 156.389C49.3324 155.626 48.3054 155.439 47.5117 155.973L45.8484 157.09C44.9055 156.052 43.8499 155.121 42.6994 154.312L43.6692 152.499C44.1212 151.655 43.8308 150.648 43.0203 150.251L40.2533 148.894C39.4403 148.496 38.4128 148.858 37.9587 149.704L36.9616 151.561C35.6166 151.17 34.2079 150.915 32.7503 150.811L32.7198 148.742C32.7061 147.808 31.9354 147.113 30.9979 147.19L27.7963 147.454C26.8554 147.531 26.1033 148.353 26.1171 149.29L26.1477 151.365C24.6867 151.714 23.2757 152.209 21.9297 152.829L20.8661 151.133C20.381 150.359 19.3283 150.168 18.5145 150.706L15.736 152.543C14.9197 153.083 14.6528 154.15 15.1404 154.925L16.1852 156.586C15.0342 157.603 13.9818 158.73 13.0465 159.947L11.3039 159.11C10.4705 158.71 9.41703 159.082 8.95124 159.94L7.36203 162.87C6.89538 163.731 7.19487 164.752 8.03062 165.15L9.69592 165.944C9.15613 167.372 8.75838 168.859 8.51959 170.386L6.67602 170.554C5.71803 170.642 4.95204 171.479 4.96601 172.425ZM16.8758 173.259C16.7713 166.168 22.4744 159.914 29.5747 159.293C36.6319 158.676 42.4054 163.864 42.5087 170.877C42.612 177.891 37.0069 184.135 29.9509 184.83C22.8517 185.528 16.9802 180.35 16.8758 173.259Z" fill="url(#paint24_linear_824_5953)"/>
<defs>
<linearGradient id="paint0_linear_824_5953" x1="78.7461" y1="80.0248" x2="72.0522" y2="168.865" gradientUnits="userSpaceOnUse">
<stop stop-color="#00C2A8"/>
<stop offset="0.9964" stop-color="#004C42"/>
</linearGradient>
<linearGradient id="paint1_linear_824_5953" x1="49.7288" y1="110.088" x2="-70.6836" y2="264.861" gradientUnits="userSpaceOnUse">
<stop stop-color="#009FA6"/>
<stop offset="0.9964" stop-color="#00463E"/>
</linearGradient>
<linearGradient id="paint2_linear_824_5953" x1="63.374" y1="-33.4608" x2="79.831" y2="243.927" gradientUnits="userSpaceOnUse">
<stop stop-color="#263238"/>
<stop offset="1" stop-color="#007565"/>
</linearGradient>
<linearGradient id="paint3_linear_824_5953" x1="82.8715" y1="157.87" x2="49.2154" y2="241.541" gradientUnits="userSpaceOnUse">
<stop stop-color="#00B8A2"/>
<stop offset="0.9964" stop-color="#6165D7"/>
</linearGradient>
<linearGradient id="paint4_linear_824_5953" x1="37.2315" y1="89.7789" x2="139.845" y2="93.4089" gradientUnits="userSpaceOnUse">
<stop stop-color="#009FA6"/>
<stop offset="0.9964" stop-color="#00B8A2"/>
</linearGradient>
<linearGradient id="paint5_linear_824_5953" x1="158.797" y1="191.392" x2="162.83" y2="194.058" gradientUnits="userSpaceOnUse">
<stop stop-color="#444B8C"/>
<stop offset="0.9964" stop-color="#26264F"/>
</linearGradient>
<linearGradient id="paint6_linear_824_5953" x1="162.686" y1="194.103" x2="161.797" y2="187.85" gradientUnits="userSpaceOnUse">
<stop stop-color="#FFC444"/>
<stop offset="0.9964" stop-color="#F36F56"/>
</linearGradient>
<linearGradient id="paint7_linear_824_5953" x1="159.099" y1="190.935" x2="163.132" y2="193.6" gradientUnits="userSpaceOnUse">
<stop stop-color="#444B8C"/>
<stop offset="0.9964" stop-color="#26264F"/>
</linearGradient>
<linearGradient id="paint8_linear_824_5953" x1="133.277" y1="193.397" x2="136.901" y2="196.602" gradientUnits="userSpaceOnUse">
<stop stop-color="#444B8C"/>
<stop offset="0.9964" stop-color="#26264F"/>
</linearGradient>
<linearGradient id="paint9_linear_824_5953" x1="136.75" y1="196.629" x2="136.75" y2="190.312" gradientUnits="userSpaceOnUse">
<stop stop-color="#FFC444"/>
<stop offset="0.9964" stop-color="#F36F56"/>
</linearGradient>
<linearGradient id="paint10_linear_824_5953" x1="133.64" y1="192.987" x2="137.264" y2="196.193" gradientUnits="userSpaceOnUse">
<stop stop-color="#444B8C"/>
<stop offset="0.9964" stop-color="#26264F"/>
</linearGradient>
<linearGradient id="paint11_linear_824_5953" x1="137.126" y1="77.7195" x2="155.028" y2="103.639" gradientUnits="userSpaceOnUse">
<stop stop-color="#FFC444"/>
<stop offset="0.9964" stop-color="#F36F56"/>
</linearGradient>
<linearGradient id="paint12_linear_824_5953" x1="137.993" y1="77.1205" x2="155.894" y2="103.04" gradientUnits="userSpaceOnUse">
<stop stop-color="#FFC444"/>
<stop offset="0.9964" stop-color="#F36F56"/>
</linearGradient>
<linearGradient id="paint13_linear_824_5953" x1="158.571" y1="113.975" x2="154.98" y2="113.975" gradientUnits="userSpaceOnUse">
<stop offset="0.0036" stop-color="#6165D7"/>
<stop offset="1" stop-color="#AA80F9"/>
</linearGradient>
<linearGradient id="paint14_linear_824_5953" x1="155.995" y1="119.58" x2="128.938" y2="119.58" gradientUnits="userSpaceOnUse">
<stop stop-color="#AA80F9"/>
<stop offset="0.9964" stop-color="#6165D7"/>
</linearGradient>
<linearGradient id="paint15_linear_824_5953" x1="107.463" y1="92.3813" x2="100.336" y2="97.3473" gradientUnits="userSpaceOnUse">
<stop stop-color="#FFC444"/>
<stop offset="0.9964" stop-color="#F36F56"/>
</linearGradient>
<linearGradient id="paint16_linear_824_5953" x1="153.516" y1="10.6189" x2="108.061" y2="94.4548" gradientUnits="userSpaceOnUse">
<stop stop-color="#00B8A2"/>
<stop offset="1" stop-color="#007565"/>
</linearGradient>
<linearGradient id="paint17_linear_824_5953" x1="143.602" y1="39.1192" x2="177.833" y2="124.807" gradientUnits="userSpaceOnUse">
<stop stop-color="#263238"/>
<stop offset="1" stop-color="#007565"/>
</linearGradient>
<linearGradient id="paint18_linear_824_5953" x1="113.866" y1="50.9991" x2="148.097" y2="136.688" gradientUnits="userSpaceOnUse">
<stop stop-color="#263238"/>
<stop offset="1" stop-color="#007565"/>
</linearGradient>
<linearGradient id="paint19_linear_824_5953" x1="151.193" y1="8.14029" x2="105.737" y2="91.9761" gradientUnits="userSpaceOnUse">
<stop stop-color="#FF9085"/>
<stop offset="1" stop-color="#FB6FBB"/>
</linearGradient>
<linearGradient id="paint20_linear_824_5953" x1="151.193" y1="8.14029" x2="105.737" y2="91.9761" gradientUnits="userSpaceOnUse">
<stop stop-color="#00B8A2"/>
<stop offset="0.3138" stop-color="#00A37C"/>
<stop offset="0.9964" stop-color="#007565"/>
</linearGradient>
<linearGradient id="paint21_linear_824_5953" x1="155.141" y1="1.0952" x2="87.6683" y2="89.3528" gradientUnits="userSpaceOnUse">
<stop stop-color="#007565"/>
<stop offset="0.3138" stop-color="#00B8A2"/>
<stop offset="0.9964" stop-color="#00A37C"/>
</linearGradient>
<linearGradient id="paint22_linear_824_5953" x1="163.678" y1="12.932" x2="118.943" y2="102.204" gradientUnits="userSpaceOnUse">
<stop stop-color="#00A37C"/>
<stop offset="0.3138" stop-color="#00B8A2"/>
<stop offset="0.9964" stop-color="#FEFCE4"/>
</linearGradient>
<linearGradient id="paint23_linear_824_5953" x1="53.5574" y1="127.062" x2="-4.18694" y2="227.842" gradientUnits="userSpaceOnUse">
<stop stop-color="#00B8A2"/>
<stop offset="1" stop-color="#00B8A2"/>
<stop offset="1.0001" stop-color="#00B8A2"/>
</linearGradient>
<linearGradient id="paint24_linear_824_5953" x1="4.96581" y1="171.757" x2="54.0338" y2="171.757" gradientUnits="userSpaceOnUse">
<stop stop-color="#00B8A2"/>
<stop offset="0.3138" stop-color="#00C69C"/>
<stop offset="0.9964" stop-color="#0A5265"/>
</linearGradient>
</defs>
</svg>
