<svg width="202" height="129" viewBox="0 0 202 129" fill="none" xmlns="http://www.w3.org/2000/svg">
<g clip-path="url(#clip0_824_4577)">
<path d="M157.69 127.01C157.759 126.891 157.834 126.775 157.9 126.653C158.515 126.775 159.146 126.838 159.796 126.838C160.038 126.838 160.274 126.825 160.512 126.81C160.569 126.878 160.625 126.944 160.682 127.01H170.214C171.196 125.896 171.796 124.438 171.796 122.839C171.796 120.865 170.889 119.103 169.47 117.945C169.492 117.689 169.504 117.429 169.504 117.169C169.504 115.752 169.197 114.41 168.647 113.196C170.019 111.691 170.854 109.691 170.854 107.498C170.854 104.579 169.375 102.007 167.124 100.48C167.269 100.017 167.344 99.5253 167.344 99.0152C167.344 96.2618 165.106 94.0277 162.339 94.0277C161.699 94.0277 161.093 94.1529 160.531 94.3688C159.197 92.8418 157.231 91.875 155.037 91.875C151.012 91.875 147.749 95.126 147.749 99.1373C147.749 99.7318 147.822 100.311 147.96 100.864C144.538 102.517 142.18 106.012 142.18 110.054C142.18 111.202 142.374 112.304 142.723 113.336C140.095 115.214 138.384 118.28 138.384 121.747C138.384 123.671 138.914 125.474 139.831 127.016H157.69V127.01Z" fill="#00C69C"/>
<path d="M102.328 98.4301C102.328 90.5264 95.8976 84.1183 87.9668 84.1183C87.7533 84.1183 87.5398 84.1246 87.3263 84.134C87.2541 82.5413 86.8459 81.0363 86.1709 79.6846C89.2226 77.9981 91.2885 74.7565 91.2885 71.0299C91.2885 65.5668 86.8428 61.1362 81.3609 61.1362C75.879 61.1362 71.4333 65.5668 71.4333 71.0299C71.4333 72.1939 71.6373 73.3109 72.0078 74.3497C67.9357 76.0018 65.0629 79.9818 65.0629 84.6315C65.0629 86.731 65.65 88.6897 66.6641 90.3637C58.4068 91.7154 52.1055 98.8556 52.1055 107.47C52.1055 114.898 56.793 121.231 63.38 123.699C63.7693 124.951 64.2999 126.143 64.9499 127.254H94.5852C96.0671 124.726 96.9211 121.788 96.9211 118.649C96.9211 115.852 96.2429 113.214 95.0467 110.883C99.3952 108.421 102.328 103.768 102.328 98.4301Z" fill="#00C69C"/>
<path d="M202 128.374C202 128.718 201.718 129 201.372 129H0.640629C0.295265 129 0.0126953 128.718 0.0126953 128.374V126.459C0.0126953 126.115 0.295265 125.833 0.640629 125.833H201.372C201.718 125.833 202 126.115 202 126.459V128.374Z" fill="#0A5265"/>
<path d="M199.529 61.8688C199.529 59.544 197.639 57.6572 195.303 57.6572C195.074 57.6572 194.851 57.6791 194.634 57.7167C194.276 56.3869 193.061 55.4044 191.614 55.4044C191.159 55.4044 190.732 55.5014 190.342 55.6766C189.545 54.4814 188.182 53.6929 186.634 53.6929C184.301 53.6929 182.386 55.4858 182.201 57.7605C181.903 57.6948 181.595 57.6572 181.275 57.6572C178.942 57.6572 177.049 59.5409 177.049 61.8688C177.049 64.1936 178.939 66.0803 181.275 66.0803H195.871V66.0365C197.937 65.7581 199.529 64.0027 199.529 61.8688Z" fill="#FEFCE4"/>
<path d="M90.8082 3.99584C90.8082 2.99458 89.9918 2.18106 88.9871 2.18106C88.8898 2.18106 88.7925 2.19045 88.6983 2.20609C88.5445 1.63349 88.0201 1.21109 87.3953 1.21109C87.2007 1.21109 87.0154 1.25489 86.8459 1.32686C86.5037 0.810582 85.9166 0.472656 85.2478 0.472656C84.2431 0.472656 83.4174 1.2455 83.3389 2.22799C83.2102 2.19983 83.0783 2.18419 82.9402 2.18419C81.9355 2.18419 81.1191 2.99771 81.1191 3.99897C81.1191 5.00023 81.9355 5.81376 82.9402 5.81376H89.232V5.79499C90.1206 5.67296 90.8082 4.91575 90.8082 3.99584Z" fill="#FEFCE4"/>
<path d="M17.3372 26.6366C17.3372 24.8437 15.8773 23.3887 14.0783 23.3887C13.9025 23.3887 13.7298 23.4075 13.5602 23.4325C13.2839 22.4062 12.3452 21.649 11.2306 21.649C10.879 21.649 10.5493 21.7241 10.2479 21.8587C9.6325 20.9388 8.58071 20.3286 7.38764 20.3286C5.58861 20.3286 4.11297 21.7116 3.96854 23.4669C3.73935 23.4169 3.50073 23.3856 3.25584 23.3856C1.45995 23.3887 0 24.8437 0 26.6366C0 28.4294 1.45995 29.8844 3.25898 29.8844H14.5178V29.8531C16.1065 29.6372 17.3372 28.2824 17.3372 26.6366Z" fill="#1F98D7"/>
<path d="M57.9771 17.5223C57.9771 19.2432 56.5643 20.6513 54.8374 20.6513H41.0166C39.2898 20.6513 37.877 19.2432 37.877 17.5223V7.97904C37.877 6.25812 39.2898 4.8501 41.0166 4.8501H54.8374C56.5643 4.8501 57.9771 6.25812 57.9771 7.97904V17.5223Z" fill="#1F98D7"/>
<path d="M57.9768 25.0318V17.2095L53.6221 20.6513L57.9768 25.0318Z" fill="#1F98D7"/>
<path d="M55.801 9.17432H40.0713V10.1505H55.801V9.17432Z" fill="#FEFCE4"/>
<path d="M55.801 11.1582H40.0713V12.1344H55.801V11.1582Z" fill="#FEFCE4"/>
<path d="M55.801 13.145H40.0713V14.1213H55.801V13.145Z" fill="#FEFCE4"/>
<path d="M48.922 15.1289H40.0713V16.1051H48.922V15.1289Z" fill="#FEFCE4"/>
<path d="M145.866 3.45459C147.935 3.70491 149.945 5.52595 149.251 6.88078" stroke="#FEFCE4" stroke-width="2" stroke-miterlimit="10" stroke-linecap="round"/>
<path d="M154.02 7.59419C152.601 6.07352 149.942 5.52283 149.251 6.87766" stroke="#FEFCE4" stroke-width="2" stroke-miterlimit="10" stroke-linecap="round"/>
<path d="M1.50098 53.5611C3.3785 50.7795 7.48519 49.2401 8.92943 51.227" stroke="#1F98D7" stroke-width="2" stroke-miterlimit="10" stroke-linecap="round"/>
<path d="M13.4691 44.9189C10.2321 45.8326 7.48493 49.24 8.93232 51.2269" stroke="#1F98D7" stroke-width="2" stroke-miterlimit="10" stroke-linecap="round"/>
<path d="M141.86 123.318C141.86 125.039 140.447 126.447 138.72 126.447H86.8057C85.0789 126.447 83.666 125.039 83.666 123.318V17.8662C83.666 16.1453 85.0789 14.7373 86.8057 14.7373H138.72C140.447 14.7373 141.86 16.1453 141.86 17.8662V123.318Z" fill="#0A5265"/>
<path d="M141.392 122.645C141.392 124.366 139.979 125.774 138.252 125.774H86.3379C84.6111 125.774 83.1982 124.366 83.1982 122.645V17.1905C83.1982 15.4695 84.6111 14.0615 86.3379 14.0615H138.252C139.979 14.0615 141.392 15.4695 141.392 17.1905V122.645Z" fill="#EFE5D0"/>
<path d="M141.392 122.645C141.392 124.366 139.979 125.774 138.252 125.774H86.3379C84.6111 125.774 83.1982 124.366 83.1982 122.645V17.1905C83.1982 15.4695 84.6111 14.0615 86.3379 14.0615H138.252C139.979 14.0615 141.392 15.4695 141.392 17.1905V122.645Z" stroke="#FEFCE4" stroke-miterlimit="10"/>
<path d="M141.392 110.383C141.392 110.727 141.109 111.009 140.764 111.009H83.8262C83.4808 111.009 83.1982 110.727 83.1982 110.383V21.4022C83.1982 21.058 83.4808 20.7764 83.8262 20.7764H140.764C141.109 20.7764 141.392 21.058 141.392 21.4022V110.383Z" fill="#FFFEFF"/>
<path d="M116.975 17.1748C116.975 17.519 116.692 17.8006 116.347 17.8006H108.24C107.895 17.8006 107.612 17.519 107.612 17.1748V17.0184C107.612 16.6742 107.895 16.3926 108.24 16.3926H116.347C116.692 16.3926 116.975 16.6742 116.975 17.0184V17.1748Z" fill="#0A5265"/>
<path d="M112.762 122.708C115.3 122.708 117.358 120.657 117.358 118.127C117.358 115.597 115.3 113.546 112.762 113.546C110.223 113.546 108.165 115.597 108.165 118.127C108.165 120.657 110.223 122.708 112.762 122.708Z" fill="#0A5265"/>
<path d="M89.4304 17.0995C89.4304 17.4875 89.1133 17.8035 88.724 17.8035C88.3347 17.8035 88.0176 17.4875 88.0176 17.0995C88.0176 16.7115 88.3347 16.3955 88.724 16.3955C89.1165 16.3955 89.4304 16.7084 89.4304 17.0995Z" fill="#0A5265"/>
<path d="M91.2644 17.0995C91.2644 17.4875 90.9473 17.8035 90.558 17.8035C90.1687 17.8035 89.8516 17.4875 89.8516 17.0995C89.8516 16.7115 90.1687 16.3955 90.558 16.3955C90.9473 16.3955 91.2644 16.7084 91.2644 17.0995Z" fill="#0A5265"/>
<path d="M137.888 17.0995C137.888 17.4875 137.571 17.8035 137.182 17.8035C136.793 17.8035 136.476 17.4875 136.476 17.0995C136.476 16.7115 136.793 16.3955 137.182 16.3955C137.571 16.3955 137.888 16.7084 137.888 17.0995Z" fill="#0A5265"/>
<path d="M108.497 34.9751C108.497 40.4257 104.064 44.8438 98.5949 44.8438C93.1256 44.8438 88.6924 40.4257 88.6924 34.9751C88.6924 29.5245 93.1256 25.1064 98.5949 25.1064C104.064 25.1064 108.497 29.5245 108.497 34.9751Z" fill="#1DC9D6"/>
<mask id="mask0_824_4577" style="mask-type:luminance" maskUnits="userSpaceOnUse" x="88" y="25" width="21" height="20">
<path d="M108.497 34.9751C108.497 40.4257 104.064 44.8438 98.5949 44.8438C93.1256 44.8438 88.6924 40.4257 88.6924 34.9751C88.6924 29.5245 93.1256 25.1064 98.5949 25.1064C104.064 25.1064 108.497 29.5245 108.497 34.9751Z" fill="white"/>
</mask>
<g mask="url(#mask0_824_4577)">
<path d="M87.7539 45.6294C90.4634 40.8734 93.9893 38.7426 97.0693 38.3389C97.4429 38.2889 98.3628 38.2857 98.7019 38.2857C99.198 38.2857 99.6752 38.2263 100.215 38.317C103.097 38.7989 106.57 40.8108 109.653 45.6294H87.7539Z" fill="#FF8C00"/>
<path d="M96.9873 38.3297C96.9873 38.3297 97.5744 39.4749 98.6199 39.4749C99.6654 39.4749 100.133 38.3078 100.133 38.3078C100.133 38.3078 99.4457 38.2046 98.598 38.2046C98.0799 38.2046 97.5022 38.2828 96.9873 38.3297Z" fill="#FFC48A"/>
<path d="M97.4111 36.4679C97.8601 36.9247 97.7502 37.8915 97.5116 38.2952C97.2698 38.6988 99.8224 38.6675 99.6874 38.267C99.5524 37.8696 99.2227 37.0561 99.6497 36.3896" fill="#FFC48A"/>
<path d="M97.6748 36.9873C97.6748 36.9873 97.9291 37.5662 98.6355 37.5662C99.1316 37.5662 99.4424 37.0342 99.4424 37.0342L97.6748 36.9873Z" fill="#D8CAB2"/>
<path d="M100.413 35.3444C100.413 35.5728 100.25 35.8607 100.049 35.8607C99.8478 35.8607 99.6846 35.6761 99.6846 35.4477C99.6846 35.2193 99.8478 35.0347 100.049 35.0347C100.253 35.0347 100.413 35.116 100.413 35.3444Z" fill="#FFC48A"/>
<path d="M100.263 35.3445C100.263 35.4759 100.168 35.6856 100.052 35.6856C99.936 35.6856 99.8418 35.5792 99.8418 35.4478C99.8418 35.3163 99.936 35.21 100.052 35.21C100.168 35.21 100.263 35.2131 100.263 35.3445Z" fill="#FFA77B"/>
<path d="M96.7832 35.3444C96.7832 35.5728 96.9465 35.8607 97.1474 35.8607C97.3483 35.8607 97.5116 35.6761 97.5116 35.4477C97.5116 35.2193 97.3483 35.0347 97.1474 35.0347C96.9465 35.0347 96.7832 35.116 96.7832 35.3444Z" fill="#FFC48A"/>
<path d="M96.9375 35.3445C96.9375 35.4759 97.0317 35.6856 97.1479 35.6856C97.264 35.6856 97.3582 35.5792 97.3582 35.4478C97.3582 35.3163 97.264 35.21 97.1479 35.21C97.0317 35.21 96.9375 35.2131 96.9375 35.3445Z" fill="#FFA77B"/>
<path d="M100.042 34.6939C100.042 35.4918 99.3955 36.1363 98.5948 36.1363C97.7942 36.1363 97.1475 35.4918 97.1475 34.6939C97.1475 33.896 97.7974 33.2515 98.5948 33.2515C99.3955 33.2515 100.042 33.896 100.042 34.6939Z" fill="#FFC48A"/>
<path d="M100.042 34.6938C100.042 35.57 99.9386 35.9673 99.9386 36.2927C99.9386 36.662 99.474 37.2721 98.5948 37.2721C97.7157 37.2721 97.2511 36.662 97.2511 36.2927C97.2511 35.9673 97.1475 35.57 97.1475 34.6938" fill="#FFC48A"/>
<path d="M97.1699 35.3476C97.1699 35.3476 96.9627 32.9634 96.9376 32.5191C96.9156 32.0748 100.382 32.0623 100.354 32.5347C100.325 33.0072 100.024 35.3132 100.024 35.3132C100.024 35.3132 100.065 34.0992 99.4619 34.0554C98.8591 34.0116 98.3034 33.9928 97.7885 34.0773C97.2735 34.1618 97.1699 35.3476 97.1699 35.3476Z" fill="#633500"/>
<path d="M98.0713 36.5648C98.3099 36.9747 98.9975 36.8777 99.1702 36.4615C99.2173 36.3364 99.1984 36.1956 99.1984 36.061C99.1984 36.061 98.244 36.5085 98.0713 36.5648Z" fill="#FEFCE4"/>
<path d="M98.4381 35.4479C98.4381 35.7014 98.2309 35.911 97.9735 35.911C97.716 35.911 97.5088 35.7045 97.5088 35.4479C97.5088 35.1945 97.716 34.9849 97.9735 34.9849C98.2309 34.9849 98.4381 35.1914 98.4381 35.4479Z" stroke="#0A5265" stroke-width="0.5" stroke-miterlimit="10"/>
<path d="M99.6938 35.4479C99.6938 35.7014 99.4866 35.911 99.2291 35.911C98.9748 35.911 98.7676 35.7045 98.7676 35.4479C98.7676 35.1945 98.9748 34.9849 99.2291 34.9849C99.4834 34.9849 99.6938 35.1914 99.6938 35.4479Z" stroke="#0A5265" stroke-width="0.5" stroke-miterlimit="10"/>
<path d="M98.3281 35.1475H98.865" stroke="#0A5265" stroke-width="0.5" stroke-miterlimit="10"/>
<path d="M99.6875 35.2506L100.052 35.0347" stroke="#0A5265" stroke-width="0.5" stroke-miterlimit="10" stroke-linecap="round"/>
<path d="M97.1758 35.0347L97.54 35.2506" stroke="#0A5265" stroke-width="0.5" stroke-miterlimit="10" stroke-linecap="round"/>
</g>
<path d="M108.497 66.7339C108.497 72.1845 104.064 76.6026 98.5949 76.6026C93.1256 76.6026 88.6924 72.1845 88.6924 66.7339C88.6924 61.2833 93.1256 56.8652 98.5949 56.8652C104.064 56.8652 108.497 61.2833 108.497 66.7339Z" fill="#FFC6B6"/>
<mask id="mask1_824_4577" style="mask-type:luminance" maskUnits="userSpaceOnUse" x="88" y="56" width="21" height="21">
<path d="M108.497 66.7339C108.497 72.1845 104.064 76.6026 98.5949 76.6026C93.1256 76.6026 88.6924 72.1845 88.6924 66.7339C88.6924 61.2833 93.1256 56.8652 98.5949 56.8652C104.064 56.8652 108.497 61.2833 108.497 66.7339Z" fill="white"/>
</mask>
<g mask="url(#mask1_824_4577)">
<path d="M97.5929 64.8691C96.7829 65.3917 96.4815 66.6933 96.403 67.6727C96.3779 68.0231 96.3496 68.3767 96.3496 68.7146C98.0764 67.7884 99.7373 68.8366 100.419 69.6408C100.733 67.9981 100.588 66.1614 99.9979 65.1038" fill="#1F98D7"/>
<path d="M89.3643 77.3256C91.6751 72.5697 94.686 70.4388 97.3108 70.0352C97.631 69.9851 98.4128 69.982 98.7048 69.982C99.1286 69.982 99.5336 69.9226 99.9952 70.0133C102.454 70.4952 105.417 72.5071 108.045 77.3256H89.3643Z" fill="#00C69C"/>
<path d="M96.9873 70.0883C96.9873 70.0883 97.5744 71.2335 98.6199 71.2335C99.6654 71.2335 100.143 70.0445 100.143 70.0445C100.143 70.0445 99.5775 69.8786 98.5948 69.9162C98.0799 69.9381 97.3798 70.0257 96.9873 70.0883Z" fill="#FFC48A"/>
<path d="M97.5113 68.3359C97.8441 68.8585 97.753 69.6501 97.5113 70.0537C97.2695 70.4574 99.8221 70.4261 99.6871 70.0287C99.5521 69.6313 99.3731 69.0306 99.6871 68.3672" fill="#FFC48A"/>
<path d="M97.5938 68.4423C97.5938 68.4423 97.9988 69.2652 98.7052 69.2652C99.2013 69.2652 99.6879 68.3672 99.6879 68.3672L97.5938 68.4423Z" fill="#D8CAB2"/>
<path d="M100.413 67.1032C100.413 67.3316 100.25 67.6195 100.049 67.6195C99.8478 67.6195 99.6846 67.4349 99.6846 67.2065C99.6846 66.9781 99.8478 66.7935 100.049 66.7935C100.253 66.7935 100.413 66.8748 100.413 67.1032Z" fill="#FFC48A"/>
<path d="M100.263 67.1033C100.263 67.2347 100.168 67.4444 100.052 67.4444C99.936 67.4444 99.8418 67.338 99.8418 67.2065C99.8418 67.0751 99.936 66.9688 100.052 66.9688C100.168 66.9687 100.263 66.9719 100.263 67.1033Z" fill="#FFA77B"/>
<path d="M96.7832 67.1032C96.7832 67.3316 96.9465 67.6195 97.1474 67.6195C97.3483 67.6195 97.5116 67.4349 97.5116 67.2065C97.5116 66.9781 97.3483 66.7935 97.1474 66.7935C96.9465 66.7935 96.7832 66.8748 96.7832 67.1032Z" fill="#FFC48A"/>
<path d="M96.9375 67.1033C96.9375 67.2347 97.0317 67.4444 97.1479 67.4444C97.264 67.4444 97.3582 67.338 97.3582 67.2065C97.3582 67.0751 97.264 66.9688 97.1479 66.9688C97.0317 66.9687 96.9375 66.9719 96.9375 67.1033Z" fill="#FFA77B"/>
<path d="M100.042 66.4527C100.042 67.2506 99.3955 67.8951 98.5948 67.8951C97.7942 67.8951 97.1475 67.2506 97.1475 66.4527C97.1475 65.6548 97.7974 65.0103 98.5948 65.0103C99.3955 65.0103 100.042 65.6548 100.042 66.4527Z" fill="#FFC48A"/>
<path d="M100.042 66.4524C100.042 67.3285 99.942 67.7696 99.8384 68.0763C99.6908 68.5206 99.0943 69.0275 98.5919 69.0275C98.0896 69.0275 97.4585 68.4205 97.3549 68.0356C97.2701 67.7227 97.1445 67.3253 97.1445 66.4492" fill="#FFC48A"/>
<path d="M98.6417 65.6797C98.8364 66.318 99.323 66.7498 99.8442 66.7373C100.224 66.7247 100.237 66.1772 100.224 65.8893C100.212 65.4982 100.08 65.0695 99.7406 64.8317C99.3733 64.5845 99.0185 64.5971 98.7045 64.8693C98.3686 64.5188 97.7658 64.6878 97.4769 64.9725C97.1881 65.2604 96.9808 65.7548 97.006 66.1584C97.0185 66.368 97.0593 66.562 97.163 66.7466C97.1881 66.4588 97.2823 66.0958 97.4644 65.8612C97.6465 65.6265 98.0546 65.2354 98.3811 65.3793C98.4848 65.4168 98.6292 65.5483 98.6417 65.6797Z" fill="#1F98D7"/>
<path d="M97.9482 67.8825C98.2402 68.0702 98.9404 68.0608 99.2167 67.8574C99.1256 68.2485 98.865 68.4457 98.5919 68.4457C98.3721 68.4425 98.0487 68.2329 97.9482 67.8825Z" fill="#FEFCE4"/>
</g>
<path d="M108.497 98.418C108.497 103.869 104.064 108.287 98.5949 108.287C93.1256 108.287 88.6924 103.869 88.6924 98.418C88.6924 92.9674 93.1256 88.5493 98.5949 88.5493C104.064 88.5493 108.497 92.9674 108.497 98.418Z" fill="#FF8C00"/>
<mask id="mask2_824_4577" style="mask-type:luminance" maskUnits="userSpaceOnUse" x="88" y="88" width="21" height="21">
<path d="M108.497 98.418C108.497 103.869 104.064 108.287 98.5949 108.287C93.1256 108.287 88.6924 103.869 88.6924 98.418C88.6924 92.9674 93.1256 88.5493 98.5949 88.5493C104.064 88.5493 108.497 92.9674 108.497 98.418Z" fill="white"/>
</mask>
<g mask="url(#mask2_824_4577)">
<path d="M89.3643 109.01C91.6751 104.254 94.686 102.123 97.3108 101.719C97.631 101.669 98.4128 101.666 98.7048 101.666C99.1286 101.666 99.5336 101.607 99.9952 101.697C102.454 102.182 105.417 104.191 108.045 109.01H89.3643Z" fill="#1F98D7"/>
<path d="M96.9873 101.772C96.9873 101.772 97.5744 102.918 98.6199 102.918C99.6654 102.918 100.143 101.729 100.143 101.729C100.143 101.729 99.5775 101.563 98.5948 101.6C98.0799 101.622 97.3798 101.71 96.9873 101.772Z" fill="#633500"/>
<path d="M97.5113 100.02C97.8441 100.543 97.753 101.334 97.5113 101.738C97.2695 102.141 99.8221 102.11 99.6871 101.713C99.5521 101.315 99.3731 100.715 99.6871 100.051" fill="#633500"/>
<path d="M97.5938 100.126C97.5938 100.126 97.9988 100.949 98.7052 100.949C99.2013 100.949 99.6879 100.051 99.6879 100.051L97.5938 100.126Z" fill="#D8CAB2"/>
<path d="M100.541 98.6965C100.541 98.9656 100.35 99.3035 100.114 99.3035C99.879 99.3035 99.6875 99.0876 99.6875 98.8186C99.6875 98.5495 99.879 98.3336 100.114 98.3336C100.35 98.3304 100.541 98.4274 100.541 98.6965Z" fill="#633500"/>
<path d="M100.362 98.6967C100.362 98.8531 100.252 99.1003 100.114 99.1003C99.9792 99.1003 99.8662 98.9752 99.8662 98.8187C99.8662 98.6623 99.9761 98.5371 100.114 98.5371C100.252 98.5371 100.362 98.5402 100.362 98.6967Z" fill="#FFA77B"/>
<path d="M96.6543 98.6965C96.6543 98.9656 96.8458 99.3035 97.0844 99.3035C97.3199 99.3035 97.5146 99.0845 97.5146 98.8186C97.5146 98.5495 97.323 98.3336 97.0844 98.3336C96.8458 98.3304 96.6543 98.4274 96.6543 98.6965Z" fill="#633500"/>
<path d="M96.834 98.6967C96.834 98.8531 96.9439 99.1003 97.082 99.1003C97.2202 99.1003 97.33 98.9752 97.33 98.8187C97.33 98.6623 97.2202 98.5371 97.082 98.5371C96.947 98.5371 96.834 98.5402 96.834 98.6967Z" fill="#FFA77B"/>
<path d="M100.042 98.1368C100.042 98.9347 99.3955 99.5792 98.5948 99.5792C97.7942 99.5792 97.1475 98.9347 97.1475 98.1368C97.1475 97.3389 97.7974 96.6943 98.5948 96.6943C99.3955 96.6943 100.042 97.342 100.042 98.1368Z" fill="#633500"/>
<path d="M100.042 98.1367C100.042 99.0128 100.145 99.6261 100.042 99.9327C99.8943 100.377 99.0999 101.022 98.5976 101.022C98.0952 101.022 97.2507 100.318 97.1471 99.9327C97.0623 99.6198 97.1471 99.0097 97.1471 98.1367" fill="#633500"/>
<path d="M99.2449 99.8921C99.0942 100.239 98.8211 100.474 98.4098 100.352C98.1994 100.289 98.0487 100.105 97.9482 99.9046L99.2449 99.8921Z" fill="#FFFEFF"/>
<path d="M97.141 98.584C97.141 98.534 96.8899 97.3512 97.5963 96.7755C98.1238 96.3437 99.0876 96.3437 99.5868 96.7755C100.086 97.2073 100.114 97.8612 100.052 98.584C100.052 98.584 100.073 97.0571 98.601 97.0571C97.1253 97.0602 97.141 98.5371 97.141 98.584Z" fill="#0A5265"/>
</g>
<path d="M126.977 26.8901H111.926V29.4965H126.977V26.8901Z" fill="#D8CAB2"/>
<path d="M132.786 30.645H111.926V33.2514H132.786V30.645Z" fill="#D8CAB2"/>
<path d="M135.926 38.6738H112.294V40.0349H135.926V38.6738Z" fill="#D8CAB2"/>
<path d="M135.926 41.6963H112.294V43.0574H135.926V41.6963Z" fill="#D8CAB2"/>
<path d="M135.926 44.7222H112.294V46.0833H135.926V44.7222Z" fill="#D8CAB2"/>
<path d="M135.926 47.7476H88.8525V49.1086H135.926V47.7476Z" fill="#D8CAB2"/>
<path d="M135.926 50.7705H88.8525V52.1316H135.926V50.7705Z" fill="#D8CAB2"/>
<path d="M135.925 35.9141H111.926" stroke="#00A6BA" stroke-width="2" stroke-miterlimit="10"/>
<path d="M120.437 58.8052H111.926V61.4116H120.437V58.8052Z" fill="#D8CAB2"/>
<path d="M132.782 58.8052H121.552V61.4116H132.782V58.8052Z" fill="#D8CAB2"/>
<path d="M134.984 62.5601H111.926V65.1665H134.984V62.5601Z" fill="#D8CAB2"/>
<path d="M135.925 70.5889H112.293V71.95H135.925V70.5889Z" fill="#D8CAB2"/>
<path d="M135.925 73.6113H112.293V74.9724H135.925V73.6113Z" fill="#D8CAB2"/>
<path d="M135.925 76.6372H112.293V77.9983H135.925V76.6372Z" fill="#D8CAB2"/>
<path d="M135.926 79.6626H88.8525V81.0237H135.926V79.6626Z" fill="#D8CAB2"/>
<path d="M135.926 82.6851H88.8525V84.0461H135.926V82.6851Z" fill="#D8CAB2"/>
<path d="M135.925 67.8291H111.926" stroke="#00A6BA" stroke-width="2" stroke-miterlimit="10"/>
<path d="M120.437 90.9272H111.926V93.5337H120.437V90.9272Z" fill="#D8CAB2"/>
<path d="M132.782 90.9272H121.552V93.5337H132.782V90.9272Z" fill="#D8CAB2"/>
<path d="M134.984 94.6821H111.926V97.2885H134.984V94.6821Z" fill="#D8CAB2"/>
<path d="M135.925 102.711H112.293V104.072H135.925V102.711Z" fill="#D8CAB2"/>
<path d="M135.925 105.736H112.293V107.097H135.925V105.736Z" fill="#D8CAB2"/>
<path d="M135.925 108.762H112.293V110.123H135.925V108.762Z" fill="#D8CAB2"/>
<path d="M135.925 99.9541H111.926" stroke="#00A6BA" stroke-width="2" stroke-miterlimit="10"/>
<path d="M146.063 117.958C146.424 119.472 145.84 121.957 145.526 123.481C145.366 124.103 145.04 124.895 145.388 125.508C145.793 126.178 146.697 126.218 147.376 126.265C148.11 126.309 151.109 126.772 151.149 125.758C151.193 124.97 149.602 124.15 149.2 123.65C148.625 122.983 148.616 122.364 148.886 121.572" fill="#FFC48A"/>
<path d="M148.999 123.38C149.058 123.468 149.124 123.559 149.2 123.646C149.602 124.147 151.197 124.967 151.149 125.755C151.109 126.769 148.11 126.306 147.376 126.262C146.697 126.215 145.793 126.175 145.388 125.505C145.04 124.892 145.366 124.1 145.526 123.477C145.539 123.421 145.551 123.358 145.564 123.299C145.564 123.299 146.465 123.8 147.394 123.868C148.33 123.944 148.509 122.899 148.999 123.38Z" fill="#0A5265"/>
<path d="M159.093 116.913C158.735 118.427 157.099 120.389 156.132 121.612C155.708 122.097 155.062 122.66 155.099 123.364C155.162 124.144 155.95 124.585 156.537 124.929C157.175 125.295 159.649 127.047 160.138 126.159C160.531 125.473 159.476 124.031 159.341 123.402C159.127 122.548 159.394 121.991 159.994 121.406" fill="#FFC48A"/>
<path d="M159.281 123.074C159.294 123.18 159.312 123.29 159.341 123.402C159.476 124.028 160.531 125.474 160.138 126.159C159.648 127.047 157.171 125.295 156.537 124.929C155.95 124.585 155.162 124.144 155.099 123.365C155.064 122.661 155.711 122.097 156.132 121.612C156.166 121.566 156.207 121.519 156.245 121.472C156.245 121.472 156.826 122.32 157.626 122.798C158.43 123.277 159.061 122.423 159.281 123.074Z" fill="#0A5265"/>
<path d="M142.49 67.0781C142.49 67.0781 144.321 91.8406 143.903 95.0321C143.486 98.2236 141.778 116.891 141.706 118.79C141.549 122.936 154.421 123.562 154.421 119.103C154.421 117.063 152.993 99.253 153.479 96.3369C153.966 93.4207 157.661 68.6457 157.661 68.6457" fill="#007565"/>
<path d="M142.49 67.078C143.432 58.4203 140.607 52.6348 142.49 45.285C143.903 39.7718 149.683 34.0458 155.837 37.9851C162.694 42.7443 159.354 57.7819 157.661 64.0993" fill="#FFC6B6"/>
<path d="M142.491 67.0782C142.491 67.0782 145.763 64.1621 151.625 62.8604C157.486 61.5556 158.146 62.2159 158.146 62.2159C158.146 62.2159 176.597 90.6485 177.508 93.2581C178.415 95.8676 168.218 122.629 167.244 124.663C166.271 126.697 155.116 118.875 156.155 116.45C157.191 114.025 166.375 96.1774 166.375 93.8338C166.375 92.2756 156.532 83.0765 148.174 77.1503C142.491 73.1233 142.708 67.9137 142.491 67.0782Z" fill="#007565"/>
<path d="M175.442 34.459C175.241 34.3401 174.842 34.2588 174.603 34.3808C173.925 34.7406 174.525 35.2162 174.883 35.4947" fill="#FFC48A"/>
<path d="M174.296 37.8603L175.95 31.5054" stroke="#263238" stroke-width="2" stroke-miterlimit="10" stroke-linecap="round" stroke-linejoin="round"/>
<path d="M174.402 40.8671C174.801 40.3883 175.162 39.7532 175.281 39.1555C175.482 38.001 174.205 37.3251 174.484 36.2112C174.562 35.6949 174.845 34.2212 175.482 34.3026C176.522 34.3808 177.159 36.571 177.319 37.3658C177.718 39.0366 177.438 40.1505 176.522 41.5836" fill="#FFC48A"/>
<path d="M178.452 41.696C171.576 56.8244 156.826 53.3919 150.566 43.154C149.162 40.8574 155.451 37.9756 156.239 39.7748C158.814 45.6415 163.9 48.8925 169.542 45.5195C171.573 44.3368 173.109 41.7304 174.299 39.8155C175.021 38.6578 179.014 40.4663 178.452 41.696Z" fill="#FFC6B6"/>
<path d="M157.662 64.1899H156.459L153.373 71.9059" stroke="#FEFCE4" stroke-width="0.5" stroke-miterlimit="10" stroke-linecap="round" stroke-linejoin="round"/>
<path d="M150.365 44.8749C150.365 44.8749 143.383 52.2279 147.072 63.5703C147.072 63.5703 143.697 61.6335 143.461 61.6648C143.226 61.693 141.835 55.7167 141.392 55.6166C140.949 55.5164 142.387 50.9231 142.491 50.2473C142.598 49.5714 145.266 45.5852 145.266 45.5852L146.679 44.4087L150.365 44.8749Z" fill="#D8CAB2"/>
<path d="M154.371 65.8389C154.66 65.9954 155.627 65.9954 155.809 65.7075L154.569 68.9116H151.988" fill="#FFC48A"/>
<path d="M149.527 38.4575C144.503 40.022 139.809 44.7561 137.888 49.5152C134.984 56.7055 138.123 65.4728 144.506 68.4985C146.381 69.434 148.422 69.894 150.481 70.0911C152.356 70.2695 156.23 65.4697 154.764 65.4728C152.462 65.4759 150.315 65.1286 148.117 64.1899C139.43 60.5385 143.351 48.0039 150.365 44.875" fill="#FFC6B6"/>
<path d="M153.193 36.8963C152.879 36.427 152.722 35.8012 152.879 35.1754C154.449 35.4101 154.449 33.298 154.371 32.2029C154.057 28.4482 148.562 28.6829 149.112 32.2811C149.269 33.6109 150.603 34.1585 150.211 35.723C150.132 36.3488 149.872 36.5052 149.558 37.0528C149.558 37.0528 154.396 38.8519 153.193 36.8963Z" fill="#FFC48A"/>
<path d="M151.599 32.6597C151.454 32.4626 151.153 32.1372 150.867 32.3718C150.544 32.6347 150.789 33.5452 151.338 33.3762C150.657 33.808 150.528 34.4964 150.343 35.1222C150.186 34.0802 149.14 33.323 148.616 32.4376C148.092 31.5771 147.753 29.9094 148.773 29.1772C149.112 28.9425 149.636 28.9425 150.004 29.099C149.768 27.9788 151.627 27.6659 152.359 27.716C153.536 27.8005 155.09 29.149 154.713 30.8199C154.676 30.992 154.528 31.5708 154.217 31.4175C154.013 30.9044 153.68 30.3318 153.486 30.3787C152.726 30.5352 151.445 30.5602 150.908 30.2348C150.905 30.2348 151.793 30.9513 151.599 32.6597Z" fill="#263238"/>
<path d="M159.979 49.1055C159.979 49.1055 162.18 51.8026 163.48 51.8777L159.929 51.0392" fill="#D8CAB2"/>
<path d="M147.282 76.4712C147.282 76.4712 154.783 83.9932 154.56 89.328L155.81 83.092L147.282 76.4712Z" fill="#00C69C"/>
<path d="M41.0486 118.674C41.4096 120.189 40.8256 122.673 40.5117 124.197C40.3516 124.82 40.025 125.611 40.3735 126.224C40.7785 126.894 41.6828 126.935 42.3609 126.982C43.0956 127.025 46.094 127.489 46.1348 126.475C46.1788 125.686 44.587 124.866 44.1851 124.366C43.6105 123.699 43.6011 123.08 43.8711 122.288" fill="#633500"/>
<path d="M43.9841 124.097C44.0438 124.184 44.1097 124.275 44.1851 124.363C44.587 124.863 46.1819 125.683 46.1348 126.472C46.094 127.485 43.0956 127.022 42.3609 126.978C41.6828 126.932 40.7785 126.891 40.3735 126.221C40.025 125.608 40.3516 124.816 40.5117 124.194C40.5242 124.137 40.5368 124.075 40.5493 124.015C40.5493 124.015 41.4504 124.516 42.3798 124.585C43.3154 124.66 43.4944 123.615 43.9841 124.097Z" fill="#0A5265"/>
<path d="M58.169 118.781C58.596 120.276 58.1251 122.783 57.877 124.319C57.7452 124.948 57.4532 125.752 57.8268 126.35C58.2601 127 59.1674 127.004 59.8456 127.019C60.5803 127.032 63.5975 127.36 63.5944 126.347C63.6038 125.558 61.9775 124.807 61.5536 124.325C60.9508 123.684 60.9131 123.067 61.1486 122.263" fill="#633500"/>
<path d="M61.3399 124.072C61.4027 124.159 61.4718 124.244 61.5534 124.331C61.9773 124.813 63.6068 125.561 63.5942 126.353C63.5973 127.366 60.5832 127.038 59.8454 127.025C59.1673 127.01 58.2599 127.007 57.8266 126.356C57.453 125.758 57.7418 124.954 57.8769 124.325C57.8863 124.269 57.8957 124.206 57.9051 124.147C57.9051 124.147 58.825 124.607 59.7607 124.635C60.6963 124.663 60.8313 123.612 61.3399 124.072Z" fill="#0A5265"/>
<path d="M81.208 25.4757C81.5345 24.4088 81.6726 23.2479 81.7668 22.1371C81.7668 21.6741 82.0934 19.5839 82.6051 19.537C83.1138 19.4901 82.6554 23.8643 82.7433 24.5871C82.9599 26.3643 82.8437 28.9582 80.7119 29.487" fill="#633500"/>
<path d="M60.9316 62.5442C60.9316 62.5442 66.5548 90.0445 66.6835 93.017C66.8122 95.9895 68.6521 118.305 68.3978 121.071C68.1434 123.837 55.3713 123.155 55.2425 121.071C55.1138 118.987 57.1515 96.7717 56.8972 94.425C56.6428 92.0783 52.6209 78.8054 52.1092 77.5444C51.6005 76.2834 49.2489 92.2285 49.1202 95.2041C48.9915 98.1798 50.3761 119.065 50.3761 121.293C50.3761 123.524 36.4579 123.13 36.2036 121.293C35.9493 119.457 39.7608 95.6578 39.6321 93.3987C39.5034 91.1396 41.4186 66.5806 41.7985 64.8127C42.1815 63.0449 60.6271 60.9235 60.9316 62.5442Z" fill="#FFC6B6"/>
<path d="M60.9318 62.5441C60.3761 59.3557 60.0276 56.3519 59.8894 52.885C59.61 49.6966 59.9522 46.1453 57.9428 43.3167C55.1265 39.3523 46.7279 39.3523 44.3072 42.3467C38.6056 49.3962 43.3339 57.1842 41.8018 64.8125C41.8018 64.8125 46.392 66.5397 51.472 66.1298C59.1924 65.5072 60.9318 62.5441 60.9318 62.5441Z" fill="#007565"/>
<path d="M81.3394 32.7538C76.6551 40.0724 63.8798 46.8966 52.376 46.324L47.9805 40.2163C57.7072 40.2163 78.0899 33.5141 81.5749 23.6892C81.9925 22.5127 83.0977 30.0066 81.3394 32.7538Z" fill="#007565"/>
<path d="M41.6228 59.0431C42.0153 59.1214 42.5899 58.8085 42.9823 58.7052C43.4784 58.602 44.4203 58.1827 44.841 58.652C45.2868 59.1464 45.2083 60.2415 45.2083 60.8673C45.2617 61.9092 44.7123 62.1971 43.7421 62.1189C42.9321 62.0407 42.1472 62.1189 41.334 62.0657" fill="#FFDAAF"/>
<path d="M43.4281 46.0049C41.5662 45.8046 39.0608 46.2333 36.1911 47.1782C30.3388 49.1056 28.0814 52.851 30.5554 55.1507C32.8034 57.2409 37.6071 58.4455 41.6761 58.7647C43.5568 58.9117 43.0733 63.5175 41.8959 63.5269C36.8693 63.5645 31.3592 62.4725 27.984 60.2822C22.9794 57.0344 22.7188 51.4649 26.3169 47.0218C30.5805 41.7557 40.3826 40.3352 47.9806 40.2163L49.4939 43.3453" fill="#007565"/>
<path d="M51.9457 39.8876C51.3837 39.6717 51.167 38.223 51.167 37.6598C52.3413 37.7943 52.4794 36.3863 52.3381 35.0972C52.1717 33.5859 51.3429 32.4219 49.8264 32.5502C48.3979 32.7223 47.1263 33.4419 47.299 34.8656C47.4277 36.2893 48.8751 37.2561 48.6993 38.7643C48.6114 39.2399 48.6145 39.9314 48.1812 40.2349C48.1781 40.2349 51.9708 41.9276 51.9457 39.8876Z" fill="#D6C0A6"/>
<path d="M49.6693 35.4446C49.597 35.1755 49.349 34.944 49.0884 35.138C48.7933 35.357 48.9283 36.3927 49.6316 36.0704C49.4746 36.3833 49.2391 36.6179 49.123 36.9308C49.0036 37.1248 48.966 37.7506 48.7305 37.832C48.4165 37.9509 48.2595 37.4409 48.0649 37.2844C47.7509 37.0091 47.4746 37.0091 47.0853 37.0091C45.9079 37.0873 44.809 37.7537 43.6693 36.9308C42.8844 36.3833 42.8468 35.7982 43.55 35.2099C42.7274 35.2475 41.5877 34.8188 41.9802 33.7644C42.4135 32.6692 43.5877 33.295 44.1403 33.8832C43.8263 33.295 43.707 32.1623 44.6112 32.0434C45.4338 31.9245 45.8671 32.8632 45.7101 33.5297C45.7886 32.785 46.2188 31.887 46.9283 31.5334C47.6756 31.1423 48.3412 31.7681 48.3412 32.5503C48.8121 31.8056 50.1465 31.8056 50.8906 32.1185C51.7132 32.469 52.0774 33.0885 52.0774 34.0616C51.6567 32.9227 50.6959 32.4314 49.8325 33.3701C49.393 33.8019 49.9958 34.703 49.6693 35.4446Z" fill="#0A5265"/>
<path d="M41.3998 51.0894C41.3025 48.6801 42.2162 46.0049 42.2162 46.0049H45.2114C45.2114 46.0049 42.2789 46.7871 41.3998 51.0894Z" fill="#00C09E"/>
<path d="M57.5566 43.1885C57.5566 43.1885 60.9569 45.726 63.6853 44.7717L59.1516 45.8731C59.1484 45.87 58.42 43.8925 57.5566 43.1885Z" fill="#00C09E"/>
<path d="M52.1094 77.5446L52.3072 75.6484L55.8299 89.9321L52.1094 77.5446Z" fill="#D8CAB2"/>
<path d="M27.6419 125.758H14.4804C14.135 125.758 13.8242 125.477 13.7897 125.135L11.8274 106.065C11.7928 105.724 12.0471 105.442 12.3925 105.442H29.7329" fill="#00C69C"/>
<path d="M12.3457 105.442C12.3457 102.056 28.9451 102.347 28.9451 105.442H12.3457Z" fill="#633500"/>
<path opacity="0.5" d="M20.8633 105.442V125.759H27.7329L29.7328 105.442H20.8633Z" fill="#00A37C"/>
<path d="M13.3215 93.5084C13.3215 94.3063 12.6716 94.9508 11.8741 94.9508C11.0735 94.9508 10.4268 94.3031 10.4268 93.5084C10.4268 92.7105 11.0767 92.0659 11.8741 92.0659C12.6716 92.0628 13.3215 92.7105 13.3215 93.5084Z" fill="#00A37C"/>
<path d="M23.1014 94.5068C23.1014 95.6833 22.1438 96.6376 20.9633 96.6376C19.7828 96.6376 18.8252 95.6833 18.8252 94.5068C18.8252 93.3303 19.7828 92.376 20.9633 92.376C22.1438 92.376 23.1014 93.3303 23.1014 94.5068Z" fill="#00A37C"/>
<path d="M16.1943 79.1372L20.21 103.856H25.2962L29.6415 79.8068" fill="#00A37C"/>
<path d="M4.57812 85.4858L10.5655 94.1248L13.3221 93.5084L13.8653 84.2905L4.57812 85.4858Z" fill="#00A37C"/>
<path d="M12.1474 94.951L20.9636 96.6375L21.3215 92.2695L11.8711 92.476" fill="#00A37C"/>
<path d="M13.8645 83.5988C13.8645 86.2616 11.6981 88.4205 9.02943 88.4205C6.35757 88.4205 4.19434 86.2616 4.19434 83.5988C4.19434 80.9361 6.36071 78.7803 9.02943 78.7803C11.6981 78.7803 13.8645 80.9361 13.8645 83.5988Z" fill="#00C69C"/>
<path d="M29.7326 78.7021C29.7326 82.4286 26.7028 85.448 22.9635 85.448C19.2241 85.448 16.1943 82.4286 16.1943 78.7021C16.1943 74.9755 19.2241 71.9561 22.9635 71.9561C26.7028 71.9561 29.7326 74.9755 29.7326 78.7021Z" fill="#00C69C"/>
<path d="M25.4058 77.8511C25.2771 77.8511 25.1546 77.9606 25.1013 78.0701C25.0604 78.1577 25.0604 78.2954 25.1892 78.2954C25.3179 78.2954 25.4403 78.1859 25.4937 78.0764C25.5377 77.9919 25.5345 77.8511 25.4058 77.8511Z" fill="#00A37C"/>
<path d="M25.9149 76.9251C25.7391 77.0096 25.6041 77.1785 25.5852 77.3757C25.5852 77.3882 25.5821 77.3976 25.5821 77.4101C25.5633 77.6041 25.8019 77.5978 25.9212 77.5415C26.0907 77.4601 26.2446 77.2818 26.2509 77.0909C26.2509 77.0784 26.2509 77.069 26.2509 77.0565C26.2603 76.8656 26.0405 76.8656 25.9149 76.9251Z" fill="#00A37C"/>
<path d="M25.4471 76.2583C25.2964 76.2176 25.0954 76.396 25.1017 76.5524C25.1017 76.5618 25.1017 76.5681 25.1017 76.5775C25.1048 76.6275 25.1237 76.6588 25.1676 76.6807C25.3215 76.7589 25.5538 76.5869 25.5695 76.4273C25.5821 76.3303 25.5256 76.2802 25.4471 76.2583Z" fill="#00A37C"/>
<path d="M24.4105 75.1791C24.3948 75.1634 24.4011 75.1134 24.3728 75.0915C24.3446 75.0696 24.3226 75.0602 24.2881 75.0571C24.1625 75.0445 23.9176 75.3136 24.0871 75.3919C24.1248 75.4106 24.1782 75.4012 24.2159 75.3919C24.2378 75.3856 24.2598 75.3793 24.2818 75.37C24.2881 75.3668 24.398 75.3105 24.3352 75.3387C24.3823 75.3168 24.4576 75.2292 24.4105 75.1791Z" fill="#00A37C"/>
<path d="M24.1756 77.4789C24.1662 77.4601 24.1568 77.4444 24.1442 77.4288C24.1285 77.41 24.0972 77.4132 24.0752 77.4163C24.0689 77.4006 24.0563 77.3913 24.0344 77.3913C23.9873 77.3694 23.9025 77.4538 23.9245 77.5008C23.9339 77.5195 23.9402 77.5383 23.9464 77.554C23.9433 77.5665 23.9402 77.579 23.937 77.5915C23.9025 77.7855 24.2479 77.6228 24.1756 77.4789Z" fill="#00A37C"/>
<path d="M24.6593 76.8062C24.5682 76.8062 24.4395 77.0064 24.5619 77.0064C24.653 77.0064 24.7817 76.8062 24.6593 76.8062Z" fill="#00A37C"/>
<path d="M26.6466 79.1621C26.521 79.1621 26.3986 79.2716 26.3483 79.378C26.3075 79.4625 26.3075 79.6002 26.4362 79.6002C26.5618 79.6002 26.6843 79.4907 26.7345 79.3843C26.7753 79.2998 26.7753 79.1621 26.6466 79.1621Z" fill="#00A37C"/>
<path d="M26.2543 80.7986C26.2731 80.7924 26.292 80.7861 26.3108 80.7799C26.2072 80.7767 26.1067 80.8706 26.0659 80.9582C26.0188 81.0552 26.0596 81.1647 26.1821 81.1366C26.2292 81.1272 26.2637 81.1053 26.3045 81.0802C26.449 80.9895 26.4929 80.7079 26.2543 80.7986Z" fill="#00A37C"/>
<path d="M25.8109 79.9602C25.7732 79.785 25.4938 80.029 25.4781 80.1198C25.4687 80.1667 25.4687 80.2043 25.4844 80.2512C25.544 80.4233 25.7858 80.1823 25.8078 80.0947C25.8203 80.0478 25.8203 80.0103 25.8109 79.9602Z" fill="#00A37C"/>
<path d="M18.2637 76.7559C18.0031 76.7559 17.6295 77.3347 17.9843 77.3347C18.248 77.3316 18.6216 76.7559 18.2637 76.7559Z" fill="#00A37C"/>
<path d="M18.3734 75.1069C18.2038 75.1069 18.0468 75.2509 17.9778 75.3948C17.9244 75.5074 17.9244 75.6889 18.0939 75.6889C18.2635 75.6889 18.4205 75.545 18.4895 75.4011C18.546 75.2884 18.5429 75.1069 18.3734 75.1069Z" fill="#00A37C"/>
<path d="M19.8776 74.3562C19.7803 74.3875 19.7112 74.4219 19.6327 74.4908C19.5793 74.5377 19.5479 74.6097 19.5636 74.6785C19.6044 74.8788 19.865 74.7693 19.9592 74.691C20.0691 74.5909 20.0691 74.2936 19.8776 74.3562Z" fill="#00A37C"/>
<path d="M19.9335 76.7089C19.9021 76.6338 19.7891 76.7246 19.7734 76.7684C19.742 76.8497 19.6855 76.8842 19.6384 76.953C19.607 76.9999 19.5662 77.0844 19.6164 77.1345C19.6823 77.2002 19.7891 77.1251 19.8393 77.0781C19.9461 76.9811 19.9869 76.8435 19.9335 76.7089Z" fill="#00A37C"/>
<path d="M19.02 75.9613C18.9541 75.9926 18.7908 76.2179 18.9572 76.2179C18.9855 76.2179 19.1174 76.146 19.1488 76.0834C19.1802 76.0145 19.0891 75.9269 19.02 75.9613Z" fill="#00A37C"/>
<path d="M20.9263 75.5044C20.8227 75.301 20.6154 75.4543 20.4993 75.5545C20.471 75.5795 20.4365 75.664 20.4898 75.6765C20.4836 75.7265 20.4804 75.7735 20.4836 75.8298C20.4867 75.8767 20.5055 75.9174 20.5495 75.9362C20.6468 75.9737 20.7442 75.9049 20.8101 75.8392C20.8729 75.7735 20.9734 75.6045 20.9263 75.5044Z" fill="#00A37C"/>
<path d="M21.0706 77.0846C21.0706 77.0878 21.0675 77.0878 21.0675 77.0878C21.0706 77.0502 21.0612 77.0158 21.0424 76.9783C20.9984 76.8844 20.8791 77.0158 20.8603 77.0659C20.8446 77.1128 20.832 77.1472 20.832 77.1973C20.8352 77.2849 20.9105 77.2661 20.9765 77.2161C20.9639 77.238 20.9765 77.2317 21.011 77.2004C21.0361 77.1754 21.0549 77.1441 21.0644 77.1128C21.0644 77.1065 21.0644 77.1034 21.0644 77.0972C21.0706 77.0909 21.0706 77.0878 21.0706 77.0846Z" fill="#00A37C"/>
<path d="M20.1409 81.6934C20.1126 81.706 20.0844 81.7216 20.0561 81.7373C19.9964 81.7717 19.9368 81.828 19.9274 81.8968C19.8803 81.9907 19.83 82.1565 19.9588 82.1847C19.9713 82.1878 19.9839 82.1909 19.9964 82.1909C20.1974 82.2316 20.392 82.0314 20.4077 81.8405C20.4077 81.8249 20.4109 81.8124 20.4109 81.7967C20.4234 81.6434 20.2351 81.6465 20.1409 81.6934Z" fill="#00A37C"/>
<path d="M21.6606 82.5352C21.5915 82.507 21.535 82.507 21.4753 82.5258C21.3623 82.4757 21.1582 82.6791 21.2084 82.7917C21.1896 82.8481 21.1896 82.9075 21.2179 82.9763C21.3529 83.3018 21.9902 82.6666 21.6606 82.5352Z" fill="#00A37C"/>
<path d="M22.7125 81.2494C22.6214 81.2714 22.5367 81.3277 22.4707 81.3934C22.4676 81.3965 22.4645 81.3996 22.4613 81.4028C22.3954 81.4685 22.3138 81.5936 22.3106 81.7C22.3106 81.7125 22.3106 81.7219 22.3138 81.7344C22.2918 81.8001 22.3012 81.8752 22.3891 81.8846C22.4739 81.8971 22.5178 81.9065 22.612 81.8659C22.7439 81.8127 22.8632 81.6875 22.9166 81.5561C22.9857 81.3934 22.9386 81.1931 22.7125 81.2494Z" fill="#00A37C"/>
<path d="M21.1429 79.4655C21.0518 79.5093 20.9042 79.6533 20.9576 79.7691C20.9576 79.7691 20.9576 79.7722 20.9608 79.7722C20.9639 79.7816 20.9733 79.7847 20.9765 79.791C20.9796 79.7941 20.9796 79.7941 20.9827 79.7972C20.989 79.8035 20.9953 79.8097 21.0016 79.816C21.011 79.8254 21.0173 79.8348 21.0173 79.8316C21.0424 79.8473 21.0644 79.8723 21.0769 79.8973C21.1491 80.0757 21.3815 79.8097 21.3909 79.7096C21.4066 79.5563 21.3281 79.3779 21.1429 79.4655Z" fill="#00A37C"/>
<path d="M20.9768 79.8045H20.9801C20.9768 79.8012 20.9768 79.8012 20.9735 79.7979C20.9635 79.7847 20.9568 79.7814 20.9768 79.8045Z" fill="#00A37C"/>
<path d="M21.2588 81.0738C21.2211 81.0457 21.2085 81.0269 21.1583 81.0112C21.1049 80.9956 21.0547 81.0363 21.0264 81.0769C20.9731 81.1489 20.9354 81.2084 20.9448 81.2991C20.9668 81.5557 21.422 81.1958 21.2588 81.0738Z" fill="#00A37C"/>
<path d="M23.4441 82.7043C23.3688 82.6292 23.2777 82.6636 23.1898 82.6136C23.0956 82.5604 22.8978 82.7544 22.9543 82.8482C23.0265 82.9703 22.9889 83.0767 23.1647 83.0923C23.306 83.1048 23.5822 82.842 23.4441 82.7043Z" fill="#00A37C"/>
<path d="M9.73321 81.5747C9.6924 81.559 9.65158 81.5747 9.61391 81.5966C9.61077 81.5966 9.60763 81.5966 9.60135 81.5997C9.51658 81.6122 9.38157 81.7937 9.49146 81.8344C9.53541 81.9502 9.73635 81.7718 9.76147 81.7218C9.78345 81.6748 9.79287 81.5997 9.73321 81.5747Z" fill="#00A37C"/>
<path d="M9.84572 80.8143C9.81433 80.7267 9.69816 80.7392 9.63223 80.7736C9.53176 80.8268 9.49722 80.8612 9.44384 80.9613C9.40303 81.0396 9.40617 81.1272 9.48466 81.1741C9.50978 81.1866 9.53176 81.2023 9.55687 81.2148C9.60083 81.2179 9.61025 81.221 9.58827 81.221C9.66048 81.3212 9.83002 81.1366 9.84258 81.0677C9.86456 80.9676 9.8834 80.9144 9.84572 80.8143Z" fill="#00A37C"/>
<path d="M9.05766 80.0506C9.04511 80.0162 9.01999 79.9943 8.98859 79.9787C8.97603 79.9755 8.96347 79.9724 8.95092 79.9693C8.83789 79.9411 8.728 80.0037 8.64951 80.0819C8.58671 80.1445 8.45485 80.3416 8.56474 80.4261C8.60555 80.4574 8.63381 80.4793 8.68718 80.4824C8.6966 80.4824 8.79393 80.4824 8.78765 80.4762C8.863 80.52 8.98231 80.4042 9.00743 80.3447C9.04824 80.2384 9.0922 80.1664 9.05766 80.0506Z" fill="#00A37C"/>
<path d="M7.86152 81.5401C7.86152 81.5275 7.85838 81.5182 7.84896 81.5088C7.70139 81.3523 7.46278 81.6746 7.4408 81.7998C7.43138 81.8623 7.43138 81.9437 7.50673 81.9687C7.51615 81.9718 7.52243 81.975 7.53185 81.9781C7.70453 82.0313 7.89919 81.8217 7.90233 81.6621C7.90233 81.6527 7.90233 81.6433 7.90233 81.6308C7.90861 81.587 7.88977 81.562 7.86152 81.5401Z" fill="#00A37C"/>
<path d="M9.07351 83.2017C8.92595 83.1986 8.75954 83.3363 8.70617 83.4677C8.65279 83.6085 8.64652 83.7117 8.73443 83.7868C8.80664 83.8525 8.91339 83.7806 8.96676 83.7274C9.0013 83.6961 9.017 83.6836 9.01072 83.6836C9.02956 83.6679 9.05153 83.6585 9.07037 83.6398C9.13944 83.5709 9.17398 83.4927 9.20538 83.402C9.24305 83.3081 9.1834 83.2048 9.07351 83.2017Z" fill="#00A37C"/>
<path d="M8.85381 82.0878C8.78159 82.0127 8.65601 82.1378 8.62775 82.1973C8.61833 82.2129 8.61205 82.2286 8.60577 82.2442C8.59007 82.288 8.57123 82.3412 8.60891 82.3819L8.61833 82.3913C8.66543 82.4413 8.74706 82.4007 8.79101 82.3694C8.89776 82.3037 8.948 82.1848 8.85381 82.0878Z" fill="#00A37C"/>
<path d="M10.832 82.2069C10.8289 82.2038 10.8258 82.2038 10.8195 82.2006C10.7096 82.1506 10.5589 82.2726 10.5024 82.3571C10.4647 82.4165 10.471 82.451 10.4584 82.5104C10.4521 82.5198 10.4459 82.5292 10.4396 82.5386C10.4364 82.6074 10.493 82.6575 10.5589 82.6575C10.6813 82.6575 10.763 82.5761 10.8352 82.4885C10.9042 82.4134 10.9451 82.2601 10.832 82.2069Z" fill="#00A37C"/>
<path d="M10.8133 83.2925C10.6814 83.2925 10.493 83.5835 10.672 83.5835C10.807 83.5835 10.9954 83.2925 10.8133 83.2925Z" fill="#00A37C"/>
<path d="M11.4507 81.5623C11.4005 81.6437 11.3597 81.7125 11.3628 81.8095C11.3628 81.8439 11.3754 81.8721 11.3848 81.9002C11.3816 81.9096 11.3785 81.9159 11.3754 81.9253C11.3471 81.9847 11.3502 82.0723 11.435 82.0723C11.5198 82.0723 11.6014 82.0004 11.6328 81.9284C11.6768 81.8377 11.8149 81.7188 11.8463 81.5717C11.906 81.2838 11.5386 81.4246 11.4507 81.5623Z" fill="#00A37C"/>
<path d="M6.71886 86.174C6.81933 86.0801 6.93236 85.908 6.78479 85.8548C6.76282 85.8485 6.74084 85.8423 6.71572 85.8423C6.60897 85.8548 6.51792 85.9111 6.45513 85.9987C6.41431 86.0551 6.33896 86.2428 6.46141 86.2647C6.53048 86.2772 6.58699 86.2772 6.64351 86.2334L6.66863 86.2146C6.67177 86.2115 6.67491 86.2115 6.67804 86.2052C6.68746 86.199 6.69688 86.1896 6.7063 86.1833C6.71572 86.1771 6.71886 86.174 6.71886 86.174Z" fill="#00A37C"/>
<path d="M7.46896 86.6277C7.44071 86.6308 7.36535 86.637 7.35279 86.6683C7.32768 86.7309 7.28058 86.806 7.30256 86.878C7.33396 86.9875 7.45012 86.9687 7.53176 86.9249C7.60711 86.8842 7.6856 86.7998 7.66362 86.709C7.6385 86.6089 7.54745 86.6214 7.46896 86.6277Z" fill="#00A37C"/>
<path d="M9.00443 86.0895C8.9385 86.0238 8.83175 86.077 8.76895 86.1177C8.68418 86.174 8.57115 86.3054 8.46441 86.3649C8.39219 86.4056 8.27603 86.5933 8.43929 86.5745C8.51778 86.5651 8.58999 86.5777 8.67162 86.562C8.80035 86.537 8.91024 86.4337 8.97617 86.3242C9.01699 86.2585 9.0735 86.1553 9.00443 86.0895Z" fill="#00A37C"/>
<path d="M7.98427 85.2979C7.94659 85.1634 7.72995 85.2572 7.64832 85.3667C7.60751 85.4231 7.56041 85.5326 7.62007 85.592C7.65146 85.6233 7.7017 85.6264 7.74251 85.6139C7.75821 85.6108 7.92775 85.542 7.80217 85.5858C7.89636 85.5576 8.07846 85.3949 7.98427 85.2979Z" fill="#00A37C"/>
<path d="M11.5481 89.9509C11.5481 89.9447 11.545 89.9384 11.5418 89.9321C11.5355 89.9165 11.5293 89.904 11.5167 89.8915C11.5104 89.8821 11.5042 89.8758 11.4947 89.8696C11.4759 89.857 11.4508 89.8477 11.4194 89.8477C11.2938 89.8477 11.1745 89.9415 11.1054 90.0385C11.0646 90.0948 11.0332 90.1637 11.0332 90.2325C11.0332 90.2669 11.0615 90.3639 11.1148 90.3577C11.2279 90.3452 11.2687 90.3639 11.3629 90.2951C11.366 90.2951 11.366 90.292 11.3691 90.2888C11.3848 90.2763 11.4037 90.2638 11.4288 90.2388C11.4319 90.2356 11.4351 90.2294 11.4414 90.2231C11.4539 90.2106 11.4633 90.195 11.4759 90.1825C11.4885 90.1637 11.501 90.148 11.5136 90.1261C11.5167 90.1199 11.523 90.1136 11.5261 90.1074C11.5324 90.098 11.5324 90.0855 11.5356 90.0729C11.5387 90.0604 11.5481 90.051 11.5481 90.0416C11.5575 90.0104 11.5544 89.9791 11.5481 89.9509Z" fill="#00C69C"/>
<path d="M11.5474 91.2025C11.5349 91.143 11.4972 91.0804 11.4532 91.0304C11.3999 90.8739 11.1456 91.0585 11.1267 91.1774C11.1142 91.2682 11.0545 91.3527 11.0357 91.4465C11.0043 91.6217 11.1456 91.6843 11.2931 91.6124C11.447 91.5435 11.5851 91.3746 11.5474 91.2025Z" fill="#00C69C"/>
<path d="M11.9462 90.4642C11.9022 90.4799 11.8677 90.4924 11.83 90.5205C11.7923 90.5487 11.7452 90.605 11.7641 90.6582C11.7766 90.6926 11.7955 90.702 11.8268 90.7177C11.9022 90.7552 12.0027 90.6519 12.0309 90.5956C12.0592 90.5268 12.0372 90.4329 11.9462 90.4642Z" fill="#00C69C"/>
<path d="M10.125 90.5204C10.125 90.5271 10.1452 90.5103 10.125 90.5204V90.5204Z" fill="#00C69C"/>
<path d="M10.2003 90.223C10.125 90.2293 10.0371 90.2293 9.95859 90.295C9.89265 90.3482 9.74509 90.5109 9.84556 90.5985C9.91149 90.6548 10.0025 90.6142 10.0622 90.5735C10.0873 90.5547 10.1124 90.5359 10.1344 90.514C10.1281 90.5203 10.1281 90.5203 10.1281 90.5234C10.1972 90.4827 10.26 90.4264 10.2788 90.3451C10.2914 90.2887 10.2694 90.2168 10.2003 90.223Z" fill="#00C69C"/>
<path d="M23.0134 87.8481C22.9003 87.8481 22.7371 88.1016 22.8909 88.1016C23.0071 88.1016 23.1704 87.8481 23.0134 87.8481Z" fill="#00C69C"/>
<path d="M23.4877 89.2499C23.4469 89.2499 23.4187 89.2405 23.3841 89.2405C23.3747 89.2342 23.3684 89.228 23.359 89.2217C23.3088 89.1842 23.202 89.2749 23.2303 89.3312C23.2554 89.3751 23.2271 89.4658 23.246 89.5284C23.3276 89.7693 23.7672 89.2561 23.4877 89.2499Z" fill="#00C69C"/>
<path d="M24.6277 88.2017C24.6089 88.2017 24.59 88.2017 24.5743 88.2048C24.4833 88.2142 24.4048 88.2642 24.3514 88.3393C24.3137 88.3894 24.2541 88.5396 24.3577 88.5646C24.3671 88.5677 24.3765 88.5709 24.3891 88.574C24.3954 88.574 24.3985 88.5771 24.4016 88.5771C24.6246 88.6397 24.8506 88.2017 24.6277 88.2017Z" fill="#00C69C"/>
<path d="M23.7389 88.327C23.7106 88.3207 23.7169 88.3301 23.7043 88.3113C23.6196 88.1955 23.3998 88.4333 23.4343 88.5397C23.4343 88.5428 23.4375 88.5491 23.4375 88.5522C23.45 88.5835 23.4783 88.596 23.5097 88.5992C23.5442 88.6023 23.5756 88.596 23.6101 88.5898C23.6855 88.5773 23.877 88.352 23.7389 88.327Z" fill="#00C69C"/>
<path d="M24.9542 86.6746C24.9448 86.6308 24.8882 86.5995 24.8443 86.6058C24.7187 86.6183 24.6182 86.6903 24.5492 86.7935C24.5083 86.8561 24.4926 86.9218 24.5052 86.9719C24.5021 86.9969 24.4989 87.0219 24.4926 87.0407C24.4801 87.097 24.5178 87.144 24.5774 87.1252C24.6057 87.1158 24.6308 87.1064 24.659 87.0939C24.6653 87.0908 24.6685 87.0876 24.6716 87.0876C24.7061 87.0751 24.7375 87.0595 24.7627 87.0407C24.882 86.9625 24.9887 86.8217 24.9542 86.6746Z" fill="#00C69C"/>
<path d="M21.4913 87.0659C21.4756 87.0659 21.4567 87.0659 21.441 87.0659C21.3155 87.0722 21.0925 87.3569 21.2935 87.3725C21.3123 87.3725 21.3249 87.3725 21.3406 87.3725C21.4159 87.4132 21.5227 87.3256 21.5478 87.2599C21.5635 87.2192 21.5698 87.1879 21.5729 87.1473C21.5761 87.0972 21.5352 87.069 21.4913 87.0659Z" fill="#00C69C"/>
<path d="M22.3327 89.0747C22.2071 89.0747 22.025 89.3532 22.1977 89.3532C22.3233 89.3532 22.5054 89.0747 22.3327 89.0747Z" fill="#00C69C"/>
<path d="M21.8485 90.7047C21.8108 90.7235 21.7731 90.7517 21.7354 90.7861C21.7323 90.7892 21.7292 90.7924 21.726 90.7955C21.7166 90.808 21.704 90.8174 21.6946 90.8299C21.6852 90.8393 21.6789 90.8487 21.6727 90.8612C21.6601 90.8831 21.6475 90.905 21.6413 90.9269C21.6318 90.9519 21.6318 90.977 21.6318 91.002C21.6318 91.0051 21.6318 91.0082 21.6318 91.0114C21.635 91.0364 21.6413 91.0614 21.6601 91.0865L21.6821 91.1178C21.77 91.2429 21.9898 91.027 22.0243 90.9519C22.0306 90.9363 22.04 90.9175 22.0463 90.9019C22.1091 90.7423 22.0117 90.6265 21.8485 90.7047Z" fill="#00C69C"/>
<path d="M16.405 93.1859C16.314 93.1953 16.2355 93.2547 16.1978 93.3361C16.1664 93.4018 16.1759 93.4675 16.2449 93.4863C16.2449 93.4894 16.2449 93.4863 16.2449 93.4894C16.2732 93.6521 16.5683 93.4206 16.562 93.3017C16.5557 93.2016 16.4961 93.1765 16.405 93.1859Z" fill="#00C69C"/>
<path d="M17.3433 93.9119C17.2899 93.8587 17.1863 93.8775 17.1235 93.8994C17.0607 93.9213 16.9289 94.0339 16.9666 94.1122C16.9477 94.1528 16.9414 94.1998 16.9571 94.2404C17.0105 94.3812 17.2083 94.2686 17.2711 94.2029C17.3308 94.1403 17.425 93.9964 17.3433 93.9119Z" fill="#00C69C"/>
<path d="M15.9838 93.7649C15.9178 93.7962 15.7483 94.0277 15.9178 94.0277C15.9712 94.0277 16.078 93.9557 16.1094 93.89C16.1439 93.8212 16.056 93.7304 15.9838 93.7649Z" fill="#00C69C"/>
<path d="M24.0343 93.3925C24.028 93.3581 23.9903 93.3112 23.9903 93.308C23.9275 93.1641 23.736 93.3644 23.714 93.4426C23.7077 93.4676 23.6983 93.4926 23.692 93.5177C23.6795 93.5709 23.692 93.6147 23.7423 93.6428C23.7831 93.6647 23.8176 93.6553 23.8616 93.6491C23.9401 93.6334 24.006 93.5583 24.028 93.4832C24.0343 93.452 24.0405 93.4238 24.0343 93.3925Z" fill="#00C69C"/>
<path d="M24.6243 94.6475C24.549 94.6381 24.4705 94.6788 24.4265 94.6537C24.3166 94.5974 24.1534 94.8008 24.2193 94.8947C24.2664 94.9635 24.2915 95.0511 24.4297 95.0511C24.6023 95.0511 24.8881 94.6756 24.6243 94.6475Z" fill="#00C69C"/>
<path d="M21.6919 100.395C21.6887 100.386 21.6856 100.379 21.6825 100.37C21.582 100.126 21.2147 100.479 21.2178 100.645C21.2178 100.655 21.2178 100.667 21.2178 100.677C21.2272 100.968 21.8018 100.658 21.6919 100.395Z" fill="#00C69C"/>
<path d="M22.1159 101.443C22.0657 101.353 22.0029 101.34 21.9118 101.3C21.8428 101.271 21.7517 101.378 21.7674 101.443C21.7925 101.544 21.7549 101.606 21.8208 101.694C21.9056 101.813 22.1818 101.559 22.1159 101.443Z" fill="#00C69C"/>
<path d="M23.3369 100.589C23.2741 100.423 23.0386 100.555 22.9632 100.633C22.9381 100.658 22.913 100.686 22.8879 100.717C22.8785 100.73 22.8753 100.736 22.869 100.746C22.8533 100.761 22.8408 100.777 22.8282 100.793C22.8125 100.802 22.8 100.811 22.7843 100.821C22.7246 100.861 22.6461 101.049 22.7874 101.012C22.8219 101.002 22.8816 101.024 22.9161 101.03C23.0072 101.046 23.092 100.999 23.161 100.946C23.2584 100.871 23.3871 100.724 23.3369 100.589Z" fill="#00C69C"/>
<path d="M22.3258 100.264C22.3039 100.254 22.285 100.223 22.2725 100.204C22.2536 100.179 22.2097 100.182 22.1814 100.188C22.0841 100.21 22.037 100.276 22.0024 100.367C21.9805 100.423 22.0181 100.47 22.0747 100.476C22.1375 100.483 22.1814 100.454 22.2411 100.439C22.2913 100.423 22.4169 100.304 22.3258 100.264Z" fill="#00C69C"/>
<path d="M22.643 98.6777C22.5143 98.6964 22.4327 98.7966 22.3762 98.903C22.3511 98.9499 22.3197 99.0688 22.3824 99.1095C22.395 99.1157 22.4044 99.1251 22.417 99.1314C22.4327 99.1658 22.4735 99.1783 22.508 99.1658C22.6399 99.122 22.7404 99.0406 22.7937 98.9092C22.8471 98.7715 22.8094 98.6526 22.643 98.6777Z" fill="#00C69C"/>
<path d="M21.2271 98.5114C21.1109 98.4582 20.9822 98.5646 20.9163 98.6459C20.8221 98.7617 20.8755 98.9432 21.045 98.89C21.1518 98.8556 21.4249 98.6021 21.2271 98.5114Z" fill="#00C69C"/>
<path d="M24.1323 99.8354C24.1291 99.8354 24.126 99.8354 24.1228 99.8386C24.0626 99.867 24.0182 99.8859 24.1323 99.8354Z" fill="#00C69C"/>
<path d="M24.3418 99.5381C24.3418 99.5225 24.3449 99.5068 24.3449 99.4912C24.3261 99.3723 24.2256 99.3566 24.1252 99.4067C24.0059 99.463 23.9274 99.5725 23.9117 99.7008C23.9085 99.7165 23.9054 99.7352 23.9085 99.7509C23.9211 99.8729 24.0278 99.8792 24.122 99.8416C24.1597 99.826 24.2005 99.8041 24.2162 99.7978C24.2916 99.7477 24.3732 99.632 24.3418 99.5381Z" fill="#00C69C"/>
<path d="M28.0596 75.9549L30.3358 73.8804" stroke="#00C69C" stroke-width="0.5" stroke-miterlimit="10"/>
<path d="M28.0596 75.955L28.945 73.1421" stroke="#00C69C" stroke-width="0.5" stroke-miterlimit="10"/>
<path d="M29.1992 79.1371L30.9574 78.7021" stroke="#00C69C" stroke-width="0.5" stroke-miterlimit="10"/>
<path d="M21.9465 73.1422L21.4756 69.835" stroke="#00C69C" stroke-width="0.5" stroke-miterlimit="10"/>
<path d="M22.3486 73.1421L23.2277 71.0645" stroke="#00C69C" stroke-width="0.5" stroke-miterlimit="10"/>
<path d="M16.945 77.851L15.5039 75.3979" stroke="#00C69C" stroke-width="0.5" stroke-miterlimit="10"/>
<path d="M16.562 78.2985L15.5039 77.8511" stroke="#00C69C" stroke-width="0.5" stroke-miterlimit="10"/>
<path d="M10.9014 79.4437L11.297 77.8511" stroke="#00C69C" stroke-width="0.5" stroke-miterlimit="10"/>
<path d="M11.6045 79.9631L12.044 79.1621" stroke="#00C69C" stroke-width="0.5" stroke-miterlimit="10"/>
<path d="M7.4414 79.7943L6.85742 77.3882" stroke="#00C69C" stroke-width="0.5" stroke-miterlimit="10"/>
<path d="M6.39571 80.7453L5.22461 79.6001" stroke="#00C69C" stroke-width="0.5" stroke-miterlimit="10"/>
<path d="M4.57781 84.2905L3.22461 83.8149" stroke="#00C69C" stroke-width="0.5" stroke-miterlimit="10"/>
<path d="M5.22435 84.813L3.89941 85.6234" stroke="#00C69C" stroke-width="0.5" stroke-miterlimit="10"/>
<path d="M27.7832 85.6234L29.6419 84.2905" stroke="#00A37C" stroke-width="0.5" stroke-miterlimit="10"/>
<path d="M28.502 85.8426L29.7327 85.6235" stroke="#00A37C" stroke-width="0.5" stroke-miterlimit="10"/>
<path d="M17.8394 85.8424L16.5615 84.813" stroke="#00A37C" stroke-width="0.5" stroke-miterlimit="10"/>
<path d="M17.8395 86.606L16.3701 86.5747" stroke="#00A37C" stroke-width="0.5" stroke-miterlimit="10"/>
<path d="M15.1586 93.0548L14.7441 91.4966" stroke="#00A37C" stroke-width="0.5" stroke-miterlimit="10"/>
<path d="M15.5039 93.1828L16.226 91.3086" stroke="#00A37C" stroke-width="0.5" stroke-miterlimit="10"/>
<path d="M11.0987 94.2686L9.41895 94.8474" stroke="#00A37C" stroke-width="0.5" stroke-miterlimit="10"/>
<path d="M10.5647 94.125L9.21777 94.3096" stroke="#00A37C" stroke-width="0.5" stroke-miterlimit="10"/>
<path d="M16.5961 95.0508L15.8457 96.4682" stroke="#00A37C" stroke-width="0.5" stroke-miterlimit="10"/>
<path d="M26.2354 96.1555L27.7832 95.7612" stroke="#00A37C" stroke-width="0.5" stroke-miterlimit="10"/>
<path d="M26.4238 95.3324L27.7833 94.5063" stroke="#00A37C" stroke-width="0.5" stroke-miterlimit="10"/>
<path d="M26.0469 98.0171L27.7831 99.1717" stroke="#00A37C" stroke-width="0.5" stroke-miterlimit="10"/>
<path d="M19.9585 99.8663L18.5205 99.835" stroke="#00A37C" stroke-width="0.5" stroke-miterlimit="10"/>
<path d="M20.1441 100.477L18.8223 101.293" stroke="#00A37C" stroke-width="0.5" stroke-miterlimit="10"/>
<path d="M27.1016 90.4578L28.5019 89.8477" stroke="#00A37C" stroke-width="0.5" stroke-miterlimit="10"/>
<path d="M18.1249 89.4033L16.9443 89.591" stroke="#00A37C" stroke-width="0.5" stroke-miterlimit="10"/>
<path d="M13.3213 88.5989L14.26 87.2222" stroke="#00A37C" stroke-width="0.5" stroke-miterlimit="10"/>
<path d="M8.3578 89.8477L6.39551 90.3577" stroke="#00A37C" stroke-width="0.5" stroke-miterlimit="10"/>
<path opacity="0.4" d="M104.212 98.4306C104.212 90.5269 97.782 84.1188 89.8512 84.1188C89.6377 84.1188 89.4242 84.1251 89.2107 84.1344C89.1385 82.5418 88.7303 81.0368 88.0553 79.6851C91.1071 77.9986 93.173 74.757 93.173 71.0304C93.173 65.5673 88.7272 61.1367 83.2453 61.1367C83.2296 61.1367 83.2139 61.1367 83.1982 61.1367V111.006H96.9908C96.9688 110.965 96.95 110.918 96.9312 110.877C101.28 108.421 104.212 103.769 104.212 98.4306Z" fill="#D8CAB2"/>
<path d="M164.204 23.5673C164.204 24.944 163.084 26.0579 161.705 26.0579C160.324 26.0579 159.206 24.9409 159.206 23.5673C159.206 22.1906 160.327 21.0767 161.705 21.0767C163.084 21.0735 164.204 22.1906 164.204 23.5673Z" fill="#FEFCE4"/>
<path d="M178.835 21.0733C178.835 23.5733 176.8 25.5977 174.295 25.5977C171.786 25.5977 169.755 23.5702 169.755 21.0733C169.755 18.5733 171.789 16.5488 174.295 16.5488C176.8 16.5488 178.835 18.5733 178.835 21.0733Z" fill="#FEFCE4"/>
<path d="M186.079 6.65526C186.079 10.3318 183.09 13.3105 179.401 13.3105C175.712 13.3105 172.723 10.3318 172.723 6.65526C172.723 2.97875 175.712 0 179.401 0C183.09 0 186.079 2.97875 186.079 6.65526Z" fill="#FEFCE4"/>
<path d="M162.518 23.5672C162.518 24.0147 162.154 24.3776 161.705 24.3776C161.256 24.3776 160.892 24.0147 160.892 23.5672C160.892 23.1198 161.256 22.7568 161.705 22.7568C162.154 22.7568 162.518 23.1198 162.518 23.5672Z" fill="#1F98D7"/>
<path d="M175.143 21.0735C175.143 21.5397 174.763 21.9215 174.292 21.9215C173.824 21.9215 173.441 21.5429 173.441 21.0735C173.441 20.6073 173.821 20.2256 174.292 20.2256C174.763 20.2287 175.143 20.6073 175.143 21.0735Z" fill="#1F98D7"/>
<path d="M176.248 7.78781C176.876 7.78781 177.384 7.2807 177.384 6.65514C177.384 6.02958 176.876 5.52246 176.248 5.52246C175.62 5.52246 175.111 6.02958 175.111 6.65514C175.111 7.2807 175.62 7.78781 176.248 7.78781Z" fill="#1F98D7"/>
<path d="M179.4 7.78781C180.028 7.78781 180.537 7.2807 180.537 6.65514C180.537 6.02958 180.028 5.52246 179.4 5.52246C178.773 5.52246 178.264 6.02958 178.264 6.65514C178.264 7.2807 178.773 7.78781 179.4 7.78781Z" fill="#1F98D7"/>
<path d="M182.556 7.78781C183.183 7.78781 183.692 7.2807 183.692 6.65514C183.692 6.02958 183.183 5.52246 182.556 5.52246C181.928 5.52246 181.419 6.02958 181.419 6.65514C181.419 7.2807 181.928 7.78781 182.556 7.78781Z" fill="#1F98D7"/>
<path d="M196 117.733C196 119.516 194.55 120.965 192.757 120.965C190.964 120.965 189.514 119.519 189.514 117.733C189.514 115.946 190.964 114.5 192.757 114.5C194.55 114.5 196 115.949 196 117.733Z" fill="#1F98D7"/>
<path d="M194.694 110.48C194.694 111.544 193.828 112.407 192.76 112.407C191.693 112.407 190.826 111.544 190.826 110.48C190.826 109.416 191.693 108.552 192.76 108.552C193.828 108.552 194.694 109.416 194.694 110.48Z" fill="#1F98D7"/>
<path d="M194.694 104.269C194.694 105.333 193.828 106.196 192.76 106.196C191.693 106.196 190.826 105.333 190.826 104.269C190.826 103.205 191.693 102.341 192.76 102.341C193.828 102.341 194.694 103.205 194.694 104.269Z" fill="#1F98D7"/>
<path d="M35.5722 2.66264C35.5722 3.28217 35.0699 3.7828 34.4482 3.7828C33.8266 3.7828 33.3242 3.28217 33.3242 2.66264C33.3242 2.04311 33.8266 1.54248 34.4482 1.54248C35.0699 1.54248 35.5722 2.04311 35.5722 2.66264Z" fill="#1F98D7"/>
<path d="M32.1718 2.66264C32.1718 3.28217 31.6695 3.7828 31.0478 3.7828C30.4262 3.7828 29.9238 3.28217 29.9238 2.66264C29.9238 2.04311 30.4262 1.54248 31.0478 1.54248C31.6695 1.54248 32.1718 2.04311 32.1718 2.66264Z" fill="#1F98D7"/>
<path d="M28.7714 2.66264C28.7714 3.28217 28.2691 3.7828 27.6474 3.7828C27.0258 3.7828 26.5234 3.28217 26.5234 2.66264C26.5234 2.04311 27.0258 1.54248 27.6474 1.54248C28.2691 1.54248 28.7714 2.04311 28.7714 2.66264Z" fill="#1F98D7"/>
</g>
<defs>
<clipPath id="clip0_824_4577">
<rect width="202" height="129" fill="white"/>
</clipPath>
</defs>
</svg>
