<svg width="200" height="200" viewBox="0 0 200 200" fill="none" xmlns="http://www.w3.org/2000/svg">
<path d="M200 152.959H0V153.059H200V152.959Z" fill="#D1E3FF"/>
<path d="M178.234 156H167.066V156.1H178.234V156Z" fill="#D1E3FF"/>
<path d="M111.628 156H102.467V156.1H111.628V156Z" fill="#D1E3FF"/>
<path d="M90.9455 157.706H57.8555V157.806H90.9455V157.706Z" fill="#D1E3FF"/>
<path d="M46.2226 157.022H26.7598V157.122H46.2226V157.022Z" fill="#D1E3FF"/>
<path d="M163.194 156H129.082V156.1H163.194V156Z" fill="#D1E3FF"/>
<path d="M23.4926 157.022H20.6582V157.122H23.4926V157.022Z" fill="#D1E3FF"/>
<path d="M94.806 135.12H17.5664C16.3076 135.12 15.2832 134.096 15.2832 132.837V24.2642C15.2832 23.0054 16.3076 21.981 17.5664 21.981H94.806C96.0644 21.981 97.0888 23.0054 97.0888 24.2642V132.837C97.0888 134.096 96.0644 135.12 94.806 135.12ZM17.5664 22.0814C16.3624 22.0814 15.3832 23.0606 15.3832 24.2646V132.837C15.3832 134.041 16.3624 135.021 17.5664 135.021H94.806C96.0096 135.021 96.9888 134.041 96.9888 132.837V24.2642C96.9888 23.0606 96.0096 22.081 94.806 22.081L17.5664 22.0814Z" fill="#D1E3FF"/>
<path d="M181.324 135.12H104.085C102.826 135.12 101.802 134.096 101.802 132.837V24.2642C101.802 23.0054 102.826 21.981 104.085 21.981H181.324C182.583 21.981 183.607 23.0054 183.607 24.2642V132.837C183.607 134.096 182.583 135.12 181.324 135.12ZM104.085 22.0814C102.881 22.0814 101.902 23.0606 101.902 24.2646V132.837C101.902 134.041 102.881 135.021 104.085 135.021H181.324C182.528 135.021 183.507 134.041 183.507 132.837V24.2642C183.507 23.0606 182.528 22.081 181.324 22.081L104.085 22.0814Z" fill="#D1E3FF"/>
<path d="M136.698 113.844V113.847C136.478 113.847 136.257 113.852 136.034 113.867C131.342 114.187 127.548 118.001 127.249 122.695C127.181 123.767 127.292 124.803 127.554 125.777C128.635 129.79 129.039 133.955 129.039 138.112V150.223C129.039 151.101 129.751 151.813 130.629 151.813H136.699H142.769H169.074V113.844H136.698Z" fill="#E3EEFF"/>
<path d="M178.542 123.313C178.542 117.863 173.938 113.489 168.408 113.866C163.716 114.186 159.922 118.001 159.623 122.694C159.555 123.766 159.666 124.802 159.928 125.776C161.009 129.789 161.413 133.955 161.413 138.111V150.223C161.413 151.101 162.125 151.813 163.003 151.813H175.143C176.021 151.813 176.733 151.101 176.733 150.223V137.4C176.733 133.501 177.158 129.6 178.199 125.843C178.422 125.038 178.542 124.19 178.542 123.313Z" fill="#F3F8FF"/>
<path d="M156.026 128.76H102.124V151.813H156.026V128.76Z" fill="#E3EEFF"/>
<path d="M132.018 101.146H80.7699C76.8119 101.146 73.6035 104.354 73.6035 108.312V133.972H139.185V108.312C139.185 104.354 135.976 101.146 132.018 101.146Z" fill="#CADEFC"/>
<path d="M141.386 101.146H89.4472C85.68 101.146 82.626 104.2 82.626 107.967V133.972H148.207V107.967C148.207 104.2 145.153 101.146 141.386 101.146Z" fill="#F3F8FF"/>
<path d="M155.583 126.655H104.382C104.039 126.655 103.761 126.933 103.761 127.276V135.422C103.761 135.765 104.039 136.043 104.382 136.043H155.583C156.732 136.043 157.663 135.112 157.663 133.964V128.735C157.662 127.586 156.731 126.655 155.583 126.655Z" fill="#CADEFC"/>
<path d="M70.2004 113.844V113.847C69.9804 113.847 69.7592 113.852 69.536 113.867C64.844 114.187 61.0504 118.001 60.7512 122.695C60.6828 123.767 60.7936 124.803 61.056 125.777C62.1368 129.79 62.5408 133.955 62.5408 138.112V150.223C62.5408 151.101 63.2528 151.813 64.1308 151.813H70.2008H76.2708H102.576V113.844H70.2004Z" fill="#E3EEFF"/>
<path d="M112.045 123.313C112.045 117.863 107.441 113.489 101.911 113.866C97.219 114.186 93.4254 118.001 93.1262 122.694C93.0578 123.766 93.1686 124.802 93.431 125.776C94.5118 129.789 94.9158 133.955 94.9158 138.111V150.223C94.9158 151.101 95.6278 151.813 96.5058 151.813H108.645C109.523 151.813 110.235 151.101 110.235 150.223V137.4C110.235 133.501 110.66 129.6 111.702 125.843C111.925 125.038 112.045 124.19 112.045 123.313Z" fill="#F3F8FF"/>
<path d="M168.398 152.966H70.8764C70.24 152.966 69.7236 152.45 69.7236 151.813H169.55C169.55 152.45 169.034 152.966 168.398 152.966Z" fill="#CADEFC"/>
<path d="M29.9926 124.169H19.2998V151.244H29.9926V124.169Z" fill="#E3EEFF"/>
<path d="M74.0853 151.244H21.3525V152.959H74.0853V151.244Z" fill="#E3EEFF"/>
<path d="M29.9927 151.244H76.1387V124.168H29.9927V151.244Z" fill="#F3F8FF"/>
<path d="M34.1966 136.381H71.9346V127.501H34.1966V136.381Z" fill="#E3EEFF"/>
<path d="M34.1966 147.911H71.9346V139.031H34.1966V147.911Z" fill="#E3EEFF"/>
<path d="M57.7361 128.327H48.3949C48.0601 128.327 47.7861 128.053 47.7861 127.719C47.7861 127.384 48.0601 127.11 48.3949 127.11H57.7361C58.0709 127.11 58.3449 127.384 58.3449 127.719C58.3453 128.053 58.0713 128.327 57.7361 128.327Z" fill="#F3F8FF"/>
<path d="M57.7361 139.857H48.3949C48.0601 139.857 47.7861 139.583 47.7861 139.248C47.7861 138.914 48.0601 138.64 48.3949 138.64H57.7361C58.0709 138.64 58.3449 138.914 58.3449 139.248C58.3453 139.583 58.0713 139.857 57.7361 139.857Z" fill="#F3F8FF"/>
<path d="M136.518 30.7773H61.2734V84.8241H136.518V30.7773Z" fill="#D1E3FF"/>
<path d="M137.779 30.7773H61.8623V84.8241H137.779V30.7773Z" fill="#F3F8FF"/>
<path d="M136.518 84.8247H61.2734V86.0407H136.518V84.8247Z" fill="#D1E3FF"/>
<path d="M143.541 84.8247H70.3838V86.0407H143.541V84.8247Z" fill="#F3F8FF"/>
<path d="M136.014 82.5322V33.0698L63.6273 33.0698L63.6273 82.5322L136.014 82.5322Z" fill="#F5FCFF"/>
<path d="M83.3271 82.5322L93.686 33.0698H106.902L96.5435 82.5322H83.3271Z" fill="white"/>
<path d="M100.283 82.5322L110.642 33.0698H116.774L106.416 82.5322H100.283Z" fill="white"/>
<path d="M136.014 77.3567V32.7603H135.79V77.3567H136.014Z" fill="#D1E3FF"/>
<path d="M59.9492 30.6996V49.942H65.0404C65.0404 49.942 74.188 43.9752 76.2668 31.7008C76.478 30.4544 75.5236 29.314 74.2592 29.314H61.3344C60.5692 29.314 59.9492 29.9344 59.9492 30.6996Z" fill="#D1E3FF"/>
<path d="M59.9492 80.7896V51.4956H65.0404C65.0404 51.4956 67.9676 57.4088 70.8864 64.21C74.2536 72.0564 68.4876 80.7896 59.9492 80.7896Z" fill="#D1E3FF"/>
<path d="M64.8904 51.4955H60.136C59.8544 51.4955 59.626 51.2671 59.626 50.9855V50.4519C59.626 50.1703 59.8544 49.9419 60.136 49.9419H64.8904C65.172 49.9419 65.4004 50.1703 65.4004 50.4519V50.9855C65.4008 51.2671 65.1724 51.4955 64.8904 51.4955Z" fill="#F3F8FF"/>
<path d="M139.22 30.6996V49.942H134.129C134.129 49.942 124.981 43.9752 122.902 31.7008C122.691 30.4544 123.646 29.314 124.91 29.314H137.835C138.6 29.314 139.22 29.9344 139.22 30.6996Z" fill="#D1E3FF"/>
<path d="M139.22 80.7896V51.4956H134.129C134.129 51.4956 131.202 57.4088 128.283 64.21C124.915 72.0564 130.682 80.7896 139.22 80.7896Z" fill="#D1E3FF"/>
<path d="M134.279 51.4955H139.033C139.315 51.4955 139.543 51.2671 139.543 50.9855V50.4519C139.543 50.1703 139.315 49.9419 139.033 49.9419H134.279C133.997 49.9419 133.769 50.1703 133.769 50.4519V50.9855C133.769 51.2671 133.997 51.4955 134.279 51.4955Z" fill="#F3F8FF"/>
<path d="M175.756 36.9331H150.771V74.2515H175.756V36.9331Z" fill="#D1E3FF"/>
<path d="M179.373 36.9331H151.413V74.2515H179.373V36.9331Z" fill="#F3F8FF"/>
<path d="M176.488 71.3681V39.8169L154.296 39.8169V71.3681H176.488Z" fill="white"/>
<path d="M163.264 58.6188V56.8236C163.264 54.4724 165.17 52.5664 167.521 52.5664V54.3616C167.521 56.7128 165.615 58.6188 163.264 58.6188Z" fill="#D1E3FF"/>
<path d="M163.264 67.1227V65.3275C163.264 62.9763 165.17 61.0703 167.521 61.0703V62.8655C167.521 65.2167 165.615 67.1227 163.264 67.1227Z" fill="#D1E3FF"/>
<path d="M163.264 50.1149V48.3197C163.264 45.9685 165.17 44.0625 167.521 44.0625V45.8577C167.521 48.2089 165.615 50.1149 163.264 50.1149Z" fill="#D1E3FF"/>
<path d="M36.4446 116.987C37.4546 106.524 38.3622 77.2961 37.7694 72.0481L36.369 71.0269C36.369 71.0269 36.8002 90.1117 36.0478 106.143C35.2954 122.174 35.9382 114.605 35.623 116.987H36.4446Z" fill="#D1E3FF"/>
<path d="M40.3508 96.1733C43.1728 93.9573 48.9376 92.3813 54.812 92.3897C57.1184 92.3929 47.7956 94.9677 43.9188 97.8089C40.9068 100.016 37.5112 103.729 36.3564 105.79C37.1028 101.454 37.5288 98.3893 40.3508 96.1733Z" fill="#D1E3FF"/>
<path d="M34.7566 99.4507C32.413 97.1427 27.0022 95.3675 21.1486 95.1671C18.8502 95.0883 27.5942 97.9847 30.857 100.953C33.3918 103.259 35.991 107.079 36.7062 109.173C36.8778 104.827 37.1002 101.759 34.7566 99.4507Z" fill="#D1E3FF"/>
<path d="M40.4766 80.5424C42.8661 78.666 47.7477 77.3316 52.7217 77.3384C54.6745 77.3412 46.7806 79.5212 43.4974 81.9272C40.947 83.7964 38.0717 86.9404 37.0938 88.6856C37.7261 85.014 38.087 82.4192 40.4766 80.5424Z" fill="#D1E3FF"/>
<path d="M35.74 83.3175C33.7552 81.3631 29.174 79.8603 24.2172 79.6903C22.2712 79.6235 29.6752 82.0763 32.438 84.5899C34.5844 86.5427 36.7852 89.7771 37.3908 91.5507C37.536 87.8699 37.7248 85.2719 35.74 83.3175Z" fill="#D1E3FF"/>
<path d="M36.8903 69.0202C35.4783 67.4294 32.0579 66.0722 28.2791 65.7238C26.7955 65.587 32.3223 67.799 34.2987 69.8538C35.8343 71.4502 37.3427 74.035 37.7107 75.4258C38.0187 72.601 38.3019 70.6106 36.8903 69.0202Z" fill="#D1E3FF"/>
<path d="M37.8146 70.0786C38.8346 68.7062 41.2598 67.5142 43.9174 67.1806C44.961 67.0498 41.0422 68.9918 39.6174 70.7662C38.5106 72.1446 37.4038 74.3674 37.1202 75.559C36.9566 73.1486 36.7946 71.451 37.8146 70.0786Z" fill="#D1E3FF"/>
<path d="M36.258 124.169C39.35 124.169 41.9052 121.756 42.0828 118.669L42.598 113.757H29.918L30.4332 118.669C30.6108 121.756 33.166 124.169 36.258 124.169Z" fill="#E3EEFF"/>
<path d="M29.0965 115.786H43.4185L43.8289 112.071H28.6865L29.0965 115.786Z" fill="#E3EEFF"/>
<path d="M99.9999 171.024C142.833 171.024 177.556 168.996 177.556 166.495C177.556 163.994 142.833 161.966 99.9999 161.966C57.1672 161.966 22.4443 163.994 22.4443 166.495C22.4443 168.996 57.1672 171.024 99.9999 171.024Z" fill="#F0F6FF"/>
<path d="M100.323 159.871L97.6133 158.799L99.3761 152.238L102.086 153.311L100.323 159.871Z" fill="#FFC3BD"/>
<path d="M127.542 162.882H124.627L122.356 156.133H125.271L127.542 162.882Z" fill="#FFC3BD"/>
<path d="M124.238 162.544H127.792C127.911 162.544 128.014 162.627 128.04 162.744L128.615 165.334C128.675 165.603 128.464 165.857 128.188 165.852C127.045 165.833 126.211 165.766 124.771 165.766C123.885 165.766 121.214 165.858 119.991 165.858C118.794 165.858 118.608 164.648 119.108 164.538C121.354 164.047 123.046 163.37 123.765 162.724C123.895 162.607 124.064 162.544 124.238 162.544Z" fill="#14365B"/>
<path d="M97.7567 158.492L100.716 159.664C100.827 159.708 100.892 159.822 100.873 159.94L100.455 162.561C100.412 162.832 100.129 162.994 99.8747 162.888C98.8143 162.448 97.2967 161.775 95.9547 161.244C94.3859 160.623 92.9971 160.172 91.1571 159.444C90.0447 159.003 90.1811 157.756 90.6871 157.839C92.9907 158.214 94.7411 158.85 97.0203 158.445C97.2679 158.401 97.5227 158.4 97.7567 158.492Z" fill="#14365B"/>
<path d="M117.975 75.2015C117.703 75.4195 117.491 75.5811 117.25 75.7603C117.016 75.9355 116.777 76.0995 116.539 76.2635C116.061 76.5903 115.577 76.9043 115.083 77.2075C114.093 77.8115 113.063 78.3595 111.975 78.8383C110.888 79.3135 109.745 79.7291 108.514 79.9987C107.286 80.2655 105.954 80.4175 104.54 80.1999C104.181 80.1515 103.852 80.0687 103.462 79.9655C102.689 79.7255 102.26 79.3283 101.935 79.0039C101.312 78.3347 101.019 77.7351 100.733 77.1559C100.193 76.0031 99.8706 74.9003 99.577 73.7979C99.0182 71.5907 98.685 69.4199 98.501 67.1863L100.651 66.7783C101.317 68.7895 102.013 70.8323 102.788 72.7455C103.174 73.6971 103.603 74.6335 104.062 75.4031C104.283 75.7775 104.557 76.1155 104.697 76.2195C104.755 76.2719 104.772 76.2123 104.523 76.1219C104.661 76.1371 104.86 76.1803 105.04 76.1847C105.779 76.2379 106.633 76.1151 107.504 75.8727C108.375 75.6235 109.269 75.2739 110.148 74.8467C111.03 74.4263 111.901 73.9315 112.761 73.4091C113.19 73.1467 113.615 72.8731 114.031 72.5895L114.649 72.1599C114.847 72.0223 115.069 71.8615 115.224 71.7455L117.975 75.2015Z" fill="#FFC3BD"/>
<path d="M119.791 74.4827C119.084 77.1779 110.352 80.1983 110.352 80.1983L107.664 74.1347C107.664 74.1347 111.21 72.2675 114.494 70.7823C116.698 69.7859 120.561 71.5503 119.791 74.4827Z" fill="#009281"/>
<path d="M100.665 67.259L100.739 64.6606L97.5781 65.5982C97.5781 65.5982 97.6153 66.9654 98.7957 67.8438L100.665 67.259Z" fill="#FFC3BD"/>
<path d="M100.889 62.8501L97.8517 63.8969L97.5781 65.5985L100.739 64.6605L100.889 62.8501Z" fill="#FFC3BD"/>
<path d="M100.312 69.0143L103.307 68.3511C103.517 68.3047 103.626 68.1011 103.549 67.8983L100.943 60.9515C100.867 60.7487 100.634 60.6211 100.425 60.6671L97.4293 61.3303C97.2201 61.3767 97.1113 61.5803 97.1873 61.7831L99.7933 68.7299C99.8697 68.9327 100.103 69.0607 100.312 69.0143Z" fill="#0053CC"/>
<path d="M100.68 68.9328L103.676 68.2696C103.885 68.2232 103.994 68.0196 103.918 67.8168L101.312 60.87C101.236 60.6672 101.002 60.5396 100.793 60.5856L97.7975 61.2488C97.5883 61.2952 97.4795 61.4988 97.5555 61.7016L100.161 68.6484C100.238 68.8516 100.471 68.9792 100.68 68.9328Z" fill="#407BFF"/>
<path d="M97.6455 61.9413L98.8171 65.0641L98.9243 65.3517L99.4503 66.7545L99.5623 67.0541L99.9835 68.1749L103.739 67.3429L103.636 67.0673L103.525 66.7757L102.513 64.0753L102.198 63.2301L101.403 61.1113L100.161 61.3853L99.8427 61.4581L98.1419 61.8325L97.8755 61.8901L97.6455 61.9413Z" fill="#DCE9FF"/>
<path d="M100.09 63.2165L99.7748 65.7929C99.7496 65.9985 99.9363 66.1669 100.138 66.1205L102.162 65.6557C102.377 65.6061 102.466 65.3481 102.328 65.1765L100.619 63.0649C100.453 62.8597 100.122 62.9545 100.09 63.2165Z" fill="#407BFF"/>
<path d="M101.178 65.2089C101.22 65.3489 101.169 65.4817 101.064 65.5061C100.96 65.5301 100.841 65.4361 100.8 65.2961C100.758 65.1561 100.809 65.0229 100.914 64.9989C101.018 64.9749 101.137 65.0689 101.178 65.2089Z" fill="white"/>
<path d="M100.934 64.7583L100.762 64.7979C100.728 64.8059 100.689 64.7771 100.673 64.7323L100.337 63.8111C100.319 63.7607 100.336 63.7099 100.375 63.7011L100.662 63.6351C100.701 63.6263 100.744 63.6631 100.756 63.7151L100.976 64.6627C100.986 64.7087 100.968 64.7503 100.934 64.7583Z" fill="white"/>
<path d="M99.376 152.24L98.4668 155.621L101.178 156.695L102.087 153.313L99.376 152.24Z" fill="#F29994"/>
<path d="M125.272 156.135H122.356L123.528 159.614H126.444L125.272 156.135Z" fill="#F29994"/>
<path d="M131.567 73.2664C130.326 76.3712 129.401 79.57 128.693 82.598C128.175 84.8136 127.778 86.9384 127.466 88.8704C126.731 93.3988 126.455 96.882 126.192 98.0436C123.943 97.6412 115.47 96.1216 110.85 95.2912C110.531 78.5812 115.471 70.5252 115.471 70.5252C115.471 70.5252 117.219 70.3692 119.221 70.4688C119.485 70.4804 119.752 70.5 120.023 70.524C121.778 70.6768 124.604 71.2488 126.547 71.6936C126.955 71.7876 127.367 71.8936 127.766 72.0032C129.799 72.5644 131.567 73.2664 131.567 73.2664Z" fill="#009281"/>
<path d="M127.212 77.0132C126.922 79.6032 127.4 81.87 128.399 83.9196C128.49 83.4832 128.59 83.0432 128.693 82.5992C129.082 80.9344 129.538 79.2168 130.082 77.4908L127.212 77.0132Z" fill="#00B5A3"/>
<path d="M127.219 64.2339C126.431 66.2587 125.329 70.0299 126.546 71.6939C125.271 72.6091 123.507 73.2663 121.159 72.7919C119.361 72.4287 119.496 71.1503 120.024 70.5235C122.465 70.3847 122.716 68.6375 122.601 66.9339L127.219 64.2339Z" fill="#FFC3BD"/>
<path d="M125.335 65.3359L122.603 66.9323C122.631 67.3359 122.637 67.7407 122.596 68.1259C123.513 68.1571 124.917 67.3963 125.18 66.4775C125.311 66.0191 125.373 65.5667 125.335 65.3359Z" fill="#F29994"/>
<path d="M120.114 57.3663C119.474 58.6655 119.187 62.6927 120.99 62.0687C122.793 61.4447 122.7 58.3763 122.7 58.3763C122.7 58.3763 121.612 54.3235 120.114 57.3663Z" fill="#0F264C"/>
<path d="M128.035 61.1205C127.35 63.9309 127.092 65.6105 125.395 66.8113C122.842 68.6177 119.569 66.6865 119.4 63.7285C119.248 61.0657 120.393 56.9177 123.378 56.2861C126.318 55.6637 128.72 58.3101 128.035 61.1205Z" fill="#FFC3BD"/>
<path d="M126.602 58.826C124.957 59.822 125.235 63.0372 127.503 63.8812C129.77 64.7252 130.265 63.0732 129.894 62.9012C130.68 62.7352 133.767 61.3532 132.54 58.846C131.795 57.3232 129.526 57.5744 129.526 57.5744C129.526 57.5744 132.216 54.9368 127.986 52.8136C122.819 50.2204 122.038 54.9784 122.038 54.9784C122.038 54.9784 118.712 54.6108 118.993 56.8252C119.367 59.7608 122.485 57.416 122.485 57.416C122.485 57.416 122.681 60.0004 126.602 58.826Z" fill="#0F264C"/>
<path d="M122.216 56.0901C122.154 56.0901 122.095 56.0513 122.074 55.9889C122.043 55.9001 121.333 53.7965 122.418 52.4245C123.123 51.5337 124.409 51.1757 126.248 51.3617C126.331 51.3701 126.39 51.4437 126.382 51.5261C126.374 51.6081 126.305 51.6717 126.218 51.6601C124.491 51.4857 123.292 51.8045 122.654 52.6097C121.671 53.8517 122.35 55.8709 122.358 55.8909C122.384 55.9693 122.343 56.0545 122.265 56.0817C122.248 56.0873 122.232 56.0901 122.216 56.0901Z" fill="#0F264C"/>
<path d="M128.756 64.4827C128.235 65.0635 127.495 65.3499 126.855 65.3747C125.892 65.4119 125.632 64.4967 126.086 63.7039C126.494 62.9903 127.488 62.1111 128.366 62.4499C129.23 62.7843 129.351 63.8187 128.756 64.4827Z" fill="#FFC3BD"/>
<path d="M97.6992 154.594L102.288 156.408C102.288 156.408 107.638 138.62 109.46 129.723C110.014 127.017 111.15 123.287 112.501 119.31C114.206 114.3 116.247 108.904 117.897 104.684C119.636 100.239 120.935 97.101 120.935 97.101L110.848 95.291C110.848 95.291 102.084 118.651 100.827 127.456C99.5176 136.612 97.6992 154.594 97.6992 154.594Z" fill="#00B8A2" fill-opacity="0.8"/>
<path d="M112.502 119.31C114.206 114.3 116.248 108.904 117.898 104.684L117.089 102.298C114.243 105.021 112.56 114.22 112.502 119.31Z" fill="#7AD8D1"/>
<path d="M116.29 96.2676C116.29 96.2676 114.699 121.192 115.011 129.726C115.354 139.071 122.157 158.94 122.157 158.94H127.495C127.495 158.94 124.039 141.067 123.342 131.976C122.549 121.62 126.191 98.0448 126.191 98.0448L116.29 96.2676Z" fill="#00B8A2" fill-opacity="0.8"/>
<path d="M121.518 159.055H127.804V157.177L120.777 157.055L121.518 159.055Z" fill="#007565"/>
<path d="M97.0811 154.473L102.549 156.637L103.248 154.87L97.1727 152.358L97.0811 154.473Z" fill="#007565"/>
<path d="M123.582 61.1409C123.541 61.3721 123.384 61.5376 123.233 61.5104C123.082 61.4832 122.993 61.2737 123.034 61.0425C123.076 60.8109 123.233 60.6457 123.384 60.6729C123.535 60.7001 123.624 60.9097 123.582 61.1409Z" fill="#0F264C"/>
<path d="M120.967 60.6711C120.926 60.9023 120.769 61.0679 120.618 61.0407C120.467 61.0135 120.378 60.8039 120.419 60.5727C120.461 60.3415 120.617 60.1759 120.768 60.2031C120.92 60.2303 121.008 60.4399 120.967 60.6711Z" fill="#0F264C"/>
<path d="M121.778 60.9355C121.778 60.9355 121.012 62.1759 120.317 62.7159C120.658 63.1715 121.385 63.1219 121.385 63.1219L121.778 60.9355Z" fill="#ED847E"/>
<path d="M123.045 64.7659C123.013 64.7659 122.985 64.7435 122.978 64.7107C122.97 64.6735 122.994 64.6371 123.032 64.6295C123.421 64.5507 123.445 64.4719 123.445 64.4719C123.438 64.4663 123.431 64.4599 123.427 64.4527C123.426 64.4519 123.25 64.1987 122.352 64.1595C122.314 64.1579 122.285 64.1259 122.286 64.0875C122.288 64.0503 122.319 64.0215 122.355 64.0215C122.356 64.0215 122.357 64.0215 122.359 64.0215C123.265 64.0611 123.497 64.3115 123.539 64.3727C123.565 64.3975 123.593 64.4451 123.579 64.5039C123.553 64.6155 123.387 64.6983 123.059 64.7647C123.055 64.7659 123.05 64.7659 123.045 64.7659Z" fill="#0F264C"/>
<path d="M124.546 60.4414C124.496 60.4414 124.447 60.4138 124.423 60.3658C124.147 59.8226 123.654 59.7582 123.633 59.7558C123.558 59.747 123.503 59.6786 123.512 59.6034C123.52 59.5278 123.582 59.4702 123.663 59.4814C123.69 59.4842 124.323 59.5598 124.669 60.241C124.703 60.309 124.676 60.3922 124.608 60.4266C124.589 60.4366 124.567 60.4414 124.546 60.4414Z" fill="#0F264C"/>
<path d="M120.008 59.5698C119.98 59.5698 119.951 59.5614 119.927 59.5434C119.865 59.4986 119.852 59.4122 119.897 59.3506C120.347 58.7326 120.984 58.7598 121.011 58.7606C121.087 58.7646 121.145 58.8294 121.141 58.9058C121.137 58.9814 121.086 59.0454 120.997 59.0366C120.978 59.0386 120.479 59.0198 120.12 59.513C120.092 59.5502 120.051 59.5698 120.008 59.5698Z" fill="#0F264C"/>
<path d="M123.274 163.054C123.052 163.054 122.845 163.016 122.713 162.905C122.609 162.817 122.561 162.695 122.571 162.541C122.578 162.426 122.639 162.371 122.689 162.345C123.013 162.182 123.951 162.757 124.057 162.824C124.081 162.839 124.093 162.866 124.089 162.893C124.084 162.921 124.064 162.943 124.037 162.95C123.835 162.998 123.544 163.054 123.274 163.054ZM122.841 162.451C122.805 162.451 122.775 162.456 122.751 162.468C122.733 162.477 122.711 162.495 122.708 162.549C122.701 162.659 122.732 162.741 122.801 162.799C122.961 162.934 123.341 162.952 123.836 162.852C123.508 162.662 123.065 162.451 122.841 162.451Z" fill="#407BFF"/>
<path d="M124.021 162.951C124.009 162.951 123.998 162.949 123.988 162.943C123.686 162.779 123.103 162.14 123.165 161.816C123.176 161.757 123.219 161.655 123.384 161.635C123.491 161.62 123.591 161.651 123.678 161.723C124.017 162 124.087 162.841 124.089 162.877C124.091 162.902 124.079 162.927 124.058 162.94C124.047 162.947 124.034 162.951 124.021 162.951ZM123.433 161.77C123.422 161.77 123.412 161.771 123.401 161.772C123.311 161.783 123.304 161.824 123.3 161.842C123.264 162.034 123.635 162.516 123.935 162.744C123.901 162.498 123.808 162.008 123.591 161.831C123.541 161.79 123.489 161.77 123.433 161.77Z" fill="#407BFF"/>
<path d="M97.3448 158.761C97.3408 158.761 97.3364 158.761 97.3324 158.76C96.8612 158.674 96.0424 158.474 95.8496 158.093C95.7912 157.978 95.7924 157.857 95.8528 157.733C95.8888 157.659 95.9488 157.614 96.0264 157.604C96.0372 157.603 96.048 157.602 96.0592 157.602C96.474 157.602 97.3012 158.538 97.3968 158.647C97.416 158.669 97.4192 158.701 97.4048 158.726C97.3924 158.748 97.3692 158.761 97.3448 158.761ZM96.0644 157.74C96.0576 157.74 96.0512 157.74 96.0448 157.741C96.0132 157.746 95.9932 157.761 95.9772 157.794C95.936 157.878 95.9344 157.956 95.9728 158.031C96.0812 158.245 96.5168 158.447 97.1544 158.584C96.8016 158.205 96.2928 157.74 96.0644 157.74Z" fill="#407BFF"/>
<path d="M97.345 158.761C97.3266 158.761 97.3086 158.754 97.2954 158.74C97.0266 158.464 96.6106 157.622 96.781 157.335C96.8214 157.267 96.9078 157.199 97.091 157.25C97.2274 157.289 97.3326 157.373 97.4034 157.501C97.6362 157.921 97.4202 158.679 97.411 158.711C97.4042 158.735 97.3854 158.753 97.3614 158.759C97.3562 158.761 97.3506 158.761 97.345 158.761ZM96.975 157.37C96.921 157.37 96.9062 157.395 96.8998 157.406C96.7974 157.578 97.0554 158.213 97.3098 158.545C97.3594 158.319 97.4354 157.844 97.283 157.569C97.2298 157.473 97.1546 157.412 97.0538 157.383C97.021 157.374 96.9954 157.37 96.975 157.37Z" fill="#407BFF"/>
<path d="M131.649 74.6265C132.037 75.0789 132.367 75.4849 132.701 75.9261C133.035 76.3589 133.359 76.7965 133.679 77.2377C134.311 78.1257 134.914 79.0369 135.48 79.9793C136.053 80.9157 136.575 81.8957 137.062 82.9033L137.419 83.6669L137.745 84.4549C137.857 84.7141 137.951 84.9897 138.048 85.2613L138.193 85.6689L138.229 85.7709L138.283 85.9417C138.325 86.0729 138.351 86.1905 138.377 86.3117C138.549 87.2549 138.446 87.9393 138.337 88.5821C138.217 89.2189 138.05 89.7901 137.868 90.3425C137.496 91.4409 137.041 92.4489 136.559 93.4297C135.583 95.3885 134.469 97.1997 133.214 98.9681L131.313 97.8837C132.096 95.9941 132.857 94.0525 133.51 92.1529C133.834 91.2021 134.122 90.2477 134.329 89.3329C134.431 88.8785 134.511 88.4297 134.543 88.0297C134.577 87.6401 134.551 87.2605 134.504 87.1757C134.499 87.1701 134.497 87.1597 134.494 87.1673C134.489 87.1605 134.502 87.1893 134.485 87.1525L134.449 87.0721L134.303 86.7501C134.205 86.5357 134.114 86.3213 133.999 86.1077L133.674 85.4669L133.325 84.8273C132.843 83.9789 132.33 83.1365 131.78 82.3053C131.227 81.4769 130.657 80.6525 130.065 79.8413C129.489 79.0325 128.846 78.2121 128.269 77.4713L131.649 74.6265Z" fill="#FFC3BD"/>
<path d="M130.78 73.0267C133.535 73.4435 137.197 79.6627 137.197 79.6627L132.019 85.2987C132.019 85.2987 129.174 81.6403 127.522 78.4407C125.722 74.9555 127.442 72.5219 130.78 73.0267Z" fill="#009281"/>
<path d="M131.85 97.3306L129.301 98.8326L132.356 100.959C132.356 100.959 134.242 99.1982 133.421 98.095L131.85 97.3306Z" fill="#FFC3BD"/>
<path d="M128.396 101.093L131.004 102.732L132.356 100.959L129.301 98.8325L128.396 101.093Z" fill="#FFC3BD"/>
<path d="M102.454 61.2805H102.054C102.054 60.5085 101.426 59.8805 100.654 59.8805V59.4805C101.647 59.4805 102.454 60.2877 102.454 61.2805Z" fill="#407BFF"/>
<path d="M103.254 61.2802H102.854C102.854 60.067 101.867 59.0802 100.654 59.0802V58.6802C102.088 58.6802 103.254 59.8466 103.254 61.2802Z" fill="#407BFF"/>
<path d="M104.054 61.2804H103.654C103.654 59.626 102.309 58.2804 100.654 58.2804V57.8804C102.529 57.8804 104.054 59.4056 104.054 61.2804Z" fill="#407BFF"/>
<path d="M100.363 70.6354C99.3711 70.6354 98.5635 69.8282 98.5635 68.8354H98.9635C98.9635 69.6074 99.5915 70.2354 100.363 70.2354V70.6354Z" fill="#407BFF"/>
<path d="M100.364 71.4354C98.9301 71.4354 97.7637 70.269 97.7637 68.8354H98.1637C98.1637 70.0486 99.1505 71.0354 100.364 71.0354V71.4354Z" fill="#407BFF"/>
<path d="M100.364 72.2354C98.4891 72.2354 96.9639 70.7102 96.9639 68.8354H97.3639C97.3639 70.4898 98.7095 71.8354 100.364 71.8354V72.2354Z" fill="#407BFF"/>
<path d="M40.776 57.4668H40.376V65.336H40.776V57.4668Z" fill="#009FA6"/>
<path d="M40.776 67.5103H40.376V70.0355H40.776V67.5103Z" fill="#009FA6"/>
<path d="M81.1188 84.5317H47.2376C44.234 84.5317 41.7764 82.0741 41.7764 79.0705V54.8933C41.7764 51.8897 44.234 49.4321 47.2376 49.4321H81.1188C84.1224 49.4321 86.58 51.8897 86.58 54.8933V79.0705C86.58 82.0745 84.1224 84.5317 81.1188 84.5317Z" fill="#009FA6"/>
<path d="M41.2399 49.3088C41.1375 49.3088 41.0351 49.2696 40.9571 49.1916L37.8683 46.1028C37.7119 45.9464 37.7119 45.6936 37.8683 45.5372C38.0247 45.3808 38.2775 45.3808 38.4339 45.5372L41.5227 48.626C41.6791 48.7824 41.6791 49.0352 41.5227 49.1916C41.4447 49.2696 41.3423 49.3088 41.2399 49.3088Z" fill="#009FA6"/>
<path d="M43.2242 48.4583C43.0362 48.4583 42.8686 48.3251 42.8318 48.1335L42.265 45.1827C42.2234 44.9659 42.3654 44.7563 42.5822 44.7147C42.7994 44.6731 43.0086 44.8155 43.0502 45.0323L43.617 47.9827C43.659 48.1995 43.5166 48.4091 43.2998 48.4507C43.2742 48.4559 43.249 48.4583 43.2242 48.4583Z" fill="#009FA6"/>
<path d="M40.3899 51.2927C40.3647 51.2927 40.3395 51.2903 40.3143 51.2855L37.3639 50.7183C37.1467 50.6767 37.0047 50.4671 37.0463 50.2503C37.0879 50.0331 37.2987 49.8923 37.5143 49.9327L40.4647 50.4999C40.6819 50.5415 40.8239 50.7511 40.7823 50.9679C40.7455 51.1599 40.5779 51.2927 40.3899 51.2927Z" fill="#009FA6"/>
<path d="M85.7715 65.3868L95.5919 62.376L85.7715 72.7868V65.3868Z" fill="#009FA6"/>
<path d="M73.9052 73.2505H54.4492C54.4492 72.2105 54.8612 71.2145 55.5972 70.4825L55.9852 70.0905C56.6172 69.4625 56.9692 68.6065 56.9692 67.7145V63.1905C56.9692 59.1225 60.3412 55.8425 64.4412 55.9865C65.0452 56.0105 65.6252 56.1065 66.1812 56.2705C65.9652 56.8425 65.8452 57.4665 65.8452 58.1145C65.8452 61.0105 68.1932 63.3625 71.0932 63.3625C71.1932 63.3625 71.2892 63.3585 71.3852 63.3545C71.3852 63.3585 71.3852 63.3585 71.3852 63.3625V67.7145C71.3852 68.6065 71.7412 69.4625 72.3692 70.0905L72.7572 70.4825C73.1252 70.8505 73.4132 71.2825 73.6092 71.7505C73.8012 72.2225 73.9052 72.7305 73.9052 73.2505Z" fill="white"/>
<path d="M68.0224 74.3037C67.9268 76.4001 66.1656 78.0557 64.0312 77.9793C62.0356 77.9121 60.4612 76.2757 60.332 74.3037H68.0224Z" fill="white"/>
<path d="M73.7468 61.006C75.3446 59.5386 75.4502 57.0539 73.9829 55.4561C72.5155 53.8584 70.0308 53.7527 68.433 55.2201C66.8353 56.6874 66.7296 59.1722 68.1969 60.7699C69.6643 62.3677 72.1491 62.4734 73.7468 61.006Z" fill="#FF5652"/>
<path d="M71.8719 56.2225V60.1741H70.7799V57.5845C70.6031 57.7189 70.4323 57.8273 70.2671 57.9105C70.1019 57.9937 69.8947 58.0733 69.6455 58.1489V57.2637C70.0131 57.1453 70.2983 57.0033 70.5015 56.8369C70.7047 56.6705 70.8635 56.4657 70.9783 56.2217H71.8719V56.2225Z" fill="white"/>
</svg>
