<svg width="200" height="180" viewBox="0 0 200 180" fill="none" xmlns="http://www.w3.org/2000/svg">
<path d="M24.3545 135.964V56.0984C24.3545 54.018 26.032 52.3325 28.1027 52.3325H164.336C166.406 52.3325 168.084 54.018 168.084 56.0984V135.964C168.084 138.044 166.406 139.73 164.336 139.73H28.0983C26.032 139.73 24.3545 138.044 24.3545 135.964Z" fill="#69A2D1"/>
<path d="M165.235 58.802V127.633C165.235 129.709 163.558 131.395 161.492 131.395H30.9377C28.867 131.395 27.1895 129.709 27.1895 127.633V58.802C27.1895 56.726 28.867 55.0405 30.9377 55.0405H161.492C163.558 55.0405 165.235 56.726 165.235 58.802Z" fill="#EBFFFD"/>
<path d="M92.8311 55.194V53.7061H99.6023V55.4793C99.6023 56.9233 98.4359 58.0952 96.9986 58.0952H95.7187C94.1241 58.0952 92.8311 56.796 92.8311 55.194Z" fill="#69A2D1"/>
<path d="M96.2178 56.3573C96.5797 56.3573 96.8731 56.0625 96.8731 55.6989C96.8731 55.3353 96.5797 55.0405 96.2178 55.0405C95.8559 55.0405 95.5625 55.3353 95.5625 55.6989C95.5625 56.0625 95.8559 56.3573 96.2178 56.3573Z" fill="#3B507A"/>
<path d="M57.4854 105.977V67.7078C57.4854 65.1664 59.5342 63.1079 62.0636 63.1079H85.6712C88.2006 63.1079 90.2494 65.1664 90.2494 67.7078V105.977C90.2494 108.518 88.2006 110.577 85.6712 110.577H62.0636C59.5342 110.581 57.4854 108.518 57.4854 105.977Z" fill="#9FD9FB"/>
<path d="M61.8398 71.0741C61.8398 70.1524 62.5825 69.4062 63.4999 69.4062H84.2374C85.1548 69.4062 85.8974 70.1524 85.8974 71.0741C85.8974 71.9959 85.1548 72.742 84.2374 72.742H63.4999C62.5825 72.742 61.8398 71.9959 61.8398 71.0741Z" fill="#718EC7"/>
<path d="M61.8398 81.3007C61.8398 80.379 62.5825 79.6328 63.4999 79.6328H84.2374C85.1548 79.6328 85.8974 80.379 85.8974 81.3007C85.8974 82.2224 85.1548 82.9686 84.2374 82.9686H63.4999C62.5825 82.9642 61.8398 82.218 61.8398 81.3007Z" fill="#718EC7"/>
<path d="M61.8398 91.5233C61.8398 90.6016 62.5825 89.8555 63.4999 89.8555H84.2374C85.1548 89.8555 85.8974 90.6016 85.8974 91.5233C85.8974 92.4451 85.1548 93.1912 84.2374 93.1912H63.4999C62.5825 93.1912 61.8398 92.4451 61.8398 91.5233Z" fill="#718EC7"/>
<path d="M61.8398 101.746C61.8398 100.824 62.5825 100.078 63.4999 100.078H84.2374C85.1548 100.078 85.8974 100.824 85.8974 101.746C85.8974 102.667 85.1548 103.413 84.2374 103.413H63.4999C62.5825 103.413 61.8398 102.667 61.8398 101.746Z" fill="#718EC7"/>
<path d="M102.176 122.723V103.103C102.176 101.975 103.084 101.062 104.207 101.062H143.393C144.516 101.062 145.424 101.975 145.424 103.103V122.723C145.424 123.851 144.516 124.764 143.393 124.764H104.207C103.089 124.764 102.176 123.846 102.176 122.723Z" fill="#7DE3E3"/>
<path d="M105.452 112.913C105.452 108.063 109.366 104.13 114.194 104.13C119.021 104.13 122.935 108.063 122.935 112.913C122.935 117.763 119.021 121.695 114.194 121.695C109.366 121.695 105.452 117.763 105.452 112.913Z" fill="#EBFFFD"/>
<path d="M142.366 105.702H125.329V106.579H142.366V105.702Z" fill="#EBFFFD"/>
<path d="M142.366 109.086H125.329V109.964H142.366V109.086Z" fill="#EBFFFD"/>
<path d="M142.366 112.475H125.329V113.352H142.366V112.475Z" fill="#EBFFFD"/>
<path d="M142.366 115.858H125.329V116.736H142.366V115.858Z" fill="#EBFFFD"/>
<path d="M142.366 119.243H125.329V120.121H142.366V119.243Z" fill="#EBFFFD"/>
<path d="M98.7637 93.722V72.7506C98.7637 71.0256 100.153 69.6299 101.87 69.6299H146.167C147.884 69.6299 149.273 71.0256 149.273 72.7506V93.722C149.273 95.447 147.884 96.8427 146.167 96.8427H101.87C100.153 96.8427 98.7637 95.447 98.7637 93.722Z" fill="#98DDED"/>
<path d="M104.15 83.57V75.1121C104.15 74.5678 104.592 74.1245 105.133 74.1245H121.952C122.494 74.1245 122.935 74.5678 122.935 75.1121V83.57C122.935 84.1143 122.494 84.5576 121.952 84.5576H105.133C104.592 84.5576 104.15 84.1143 104.15 83.57Z" fill="#65A8CF"/>
<path d="M104.15 89.144V88.9246C104.15 88.3803 104.592 87.937 105.133 87.937H121.952C122.494 87.937 122.935 88.3803 122.935 88.9246V89.144C122.935 89.6883 122.494 90.1316 121.952 90.1316H105.133C104.592 90.1316 104.15 89.6883 104.15 89.144Z" fill="#65A8CF"/>
<path d="M125.329 91.0715V82.6135C125.329 82.0693 125.77 81.626 126.312 81.626H143.131C143.673 81.626 144.114 82.0693 144.114 82.6135V91.0715C144.114 91.6157 143.673 92.059 143.131 92.059H126.312C125.77 92.059 125.329 91.6201 125.329 91.0715Z" fill="#65A8CF"/>
<path d="M125.329 77.5261C125.329 76.9819 125.77 76.5386 126.312 76.5386H143.131C143.673 76.5386 144.114 76.9819 144.114 77.5261C144.114 78.0704 143.673 78.5137 143.131 78.5137H126.312C125.77 78.5137 125.329 78.0704 125.329 77.5261Z" fill="#65A8CF"/>
<g opacity="0.5686">
<path d="M165.234 111.231V127.634C165.234 129.71 163.557 131.395 161.491 131.395H149.25L165.234 111.231Z" fill="white"/>
<path d="M165.234 68.9854V92.8449L134.676 131.395H115.765L165.234 68.9854Z" fill="white"/>
<path d="M42.6662 55.041L27.1885 74.5684V58.8025C27.1885 56.7265 28.866 55.041 30.9367 55.041H42.6662Z" fill="white"/>
<path d="M55.833 55.041L27.1885 91.177V84.9883L50.9271 55.041H55.833Z" fill="white"/>
</g>
<path d="M128.75 134.125H73.7061V140.269H128.75V134.125Z" fill="#3B507A"/>
<path d="M141.418 134.125H130.934V140.269H141.418V134.125Z" fill="#3B507A"/>
<path d="M152.934 134.125H142.449V140.269H152.934V134.125Z" fill="#3B507A"/>
<path d="M164.729 134.125H154.244V140.269H164.729V134.125Z" fill="#3B507A"/>
<path d="M72.1154 134.125H61.6309V140.269H72.1154V134.125Z" fill="#3B507A"/>
<path d="M15.8926 136.236C15.8926 135.665 16.3513 135.204 16.9192 135.204H175.51C176.078 135.204 176.537 135.665 176.537 136.236C176.537 141.261 172.483 145.334 167.481 145.334H24.9486C19.9466 145.334 15.8926 141.261 15.8926 136.236Z" fill="#4474AB"/>
<path d="M11.362 86.4336L9.44043 86.8506L13.0371 103.584L14.9587 103.167L11.362 86.4336Z" fill="#4474AB"/>
<path d="M13.6867 111.779L11.1355 99.9105C11.0262 99.3969 11.3495 98.8878 11.8606 98.778L14.0624 98.2996C14.5735 98.1899 15.0803 98.5147 15.1895 99.0282L17.7407 110.897C17.8499 111.41 17.5266 111.919 17.0155 112.029L14.8138 112.507C14.2983 112.621 13.7959 112.292 13.6867 111.779Z" fill="#3B507A"/>
<path d="M9.39237 91.3783C14.5796 91.3783 18.7847 87.1534 18.7847 81.9416C18.7847 76.7298 14.5796 72.5049 9.39237 72.5049C4.20511 72.5049 0 76.7298 0 81.9416C0 87.1534 4.20511 91.3783 9.39237 91.3783Z" fill="#718EC7"/>
<path d="M16.6536 80.3653C17.5186 84.3946 14.9717 88.3624 10.9614 89.2358C10.8216 89.2665 10.6775 89.2929 10.5377 89.3148C8.4364 89.644 6.38755 89.0515 4.81488 87.8181C3.81448 87.0368 3.01504 85.9966 2.52139 84.7676C2.35539 84.3726 2.22433 83.9513 2.13259 83.5167C1.32004 79.7333 3.51742 76.0069 7.10836 74.8437C7.33989 74.7647 7.58453 74.6989 7.8248 74.6462C8.87325 74.418 9.9217 74.4224 10.9046 74.6374C12.901 75.0544 14.6659 76.2922 15.7362 78.061C16.16 78.7545 16.4745 79.5314 16.6536 80.3653Z" fill="#EBFFFD"/>
<path d="M7.10852 74.8438L2.52592 84.7677C2.35991 84.3726 2.22885 83.9513 2.13711 83.5168C1.3202 79.7333 3.51757 76.0069 7.10852 74.8438Z" fill="white"/>
<path d="M15.7412 78.0652L10.5382 89.3146C8.43695 89.6438 6.38811 89.0512 4.81543 87.8179L10.9095 74.6416C12.906 75.0542 14.6709 76.2919 15.7412 78.0652Z" fill="white"/>
<path d="M188.071 11.5082V43.0312C188.071 44.8308 186.616 46.2968 184.82 46.2968H129.724C127.924 46.2968 126.47 44.8352 126.47 43.0312V11.5082C126.47 11.4775 126.47 11.4424 126.474 11.4117C126.518 9.65599 127.955 8.24268 129.724 8.24268H184.82C186.581 8.24268 188.018 9.65599 188.066 11.4117C188.071 11.4424 188.071 11.4775 188.071 11.5082Z" fill="#9FD9FB"/>
<path d="M152.21 20.4321L143.612 28.5214L154.901 31.7869C155.211 30.7423 155.372 29.6274 155.372 28.4863C155.372 25.3743 154.175 22.5389 152.21 20.4321Z" fill="#718EC7"/>
<path d="M131.205 25.5933C130.947 26.5677 130.808 27.5859 130.808 28.6393C130.808 35.1573 136.067 40.4462 142.559 40.4462C144.385 40.4462 146.106 40.0292 147.653 39.2831L142.555 28.6745L131.205 25.5933Z" fill="#668AD1"/>
<path d="M147.653 39.2878H147.657C150.628 37.8438 152.913 35.1796 153.843 31.9447L142.555 28.6792L147.653 39.2878Z" fill="#5767B5"/>
<path d="M151.152 20.5897C149.007 18.2809 145.954 16.8325 142.564 16.8325C137.121 16.8325 132.547 20.5458 131.21 25.5933L142.559 28.6789L151.152 20.5897Z" fill="#8CAEDE"/>
<path d="M159.614 18.7332C159.995 18.7332 160.304 18.4227 160.304 18.0397C160.304 17.6567 159.995 17.3462 159.614 17.3462C159.233 17.3462 158.924 17.6567 158.924 18.0397C158.924 18.4227 159.233 18.7332 159.614 18.7332Z" fill="#718EC7"/>
<path d="M162.99 18.0396H182.369" stroke="#718EC7" stroke-miterlimit="10" stroke-linecap="round" stroke-linejoin="round"/>
<path d="M162.99 20.458H182.369" stroke="#718EC7" stroke-miterlimit="10" stroke-linecap="round" stroke-linejoin="round"/>
<path d="M159.614 23.6013C159.995 23.6013 160.304 23.2908 160.304 22.9078C160.304 22.5248 159.995 22.2144 159.614 22.2144C159.233 22.2144 158.924 22.5248 158.924 22.9078C158.924 23.2908 159.233 23.6013 159.614 23.6013Z" fill="#718EC7"/>
<path d="M162.99 22.9072H182.369" stroke="#718EC7" stroke-miterlimit="10" stroke-linecap="round" stroke-linejoin="round"/>
<path d="M162.99 25.3306H182.369" stroke="#718EC7" stroke-miterlimit="10" stroke-linecap="round" stroke-linejoin="round"/>
<path d="M159.614 28.4724C159.995 28.4724 160.304 28.1619 160.304 27.7789C160.304 27.3959 159.995 27.0854 159.614 27.0854C159.233 27.0854 158.924 27.3959 158.924 27.7789C158.924 28.1619 159.233 28.4724 159.614 28.4724Z" fill="#718EC7"/>
<path d="M162.99 27.7788H182.369" stroke="#718EC7" stroke-miterlimit="10" stroke-linecap="round" stroke-linejoin="round"/>
<path d="M162.99 30.1978H182.369" stroke="#718EC7" stroke-miterlimit="10" stroke-linecap="round" stroke-linejoin="round"/>
<path d="M159.614 33.345C159.995 33.345 160.304 33.0345 160.304 32.6515C160.304 32.2685 159.995 31.958 159.614 31.958C159.233 31.958 158.924 32.2685 158.924 32.6515C158.924 33.0345 159.233 33.345 159.614 33.345Z" fill="#718EC7"/>
<path d="M162.99 32.6509H182.369" stroke="#718EC7" stroke-miterlimit="10" stroke-linecap="round" stroke-linejoin="round"/>
<path d="M162.99 35.0698H182.369" stroke="#718EC7" stroke-miterlimit="10" stroke-linecap="round" stroke-linejoin="round"/>
<path d="M159.614 38.2161C159.995 38.2161 160.304 37.9056 160.304 37.5226C160.304 37.1396 159.995 36.8291 159.614 36.8291C159.233 36.8291 158.924 37.1396 158.924 37.5226C158.924 37.9056 159.233 38.2161 159.614 38.2161Z" fill="#718EC7"/>
<path d="M162.99 37.5229H182.369" stroke="#718EC7" stroke-miterlimit="10" stroke-linecap="round" stroke-linejoin="round"/>
<path d="M162.99 39.9414H182.369" stroke="#718EC7" stroke-miterlimit="10" stroke-linecap="round" stroke-linejoin="round"/>
<path d="M188.065 11.4117H126.478C126.521 9.65599 127.958 8.24268 129.728 8.24268H184.824C186.58 8.24268 188.017 9.65599 188.065 11.4117Z" fill="#3B507A"/>
<path d="M175.624 10.7448C176.128 10.7448 176.537 10.3341 176.537 9.82749C176.537 9.32086 176.128 8.91016 175.624 8.91016C175.12 8.91016 174.711 9.32086 174.711 9.82749C174.711 10.3341 175.12 10.7448 175.624 10.7448Z" fill="white"/>
<path d="M179.206 10.7448C179.71 10.7448 180.119 10.3341 180.119 9.82749C180.119 9.32086 179.71 8.91016 179.206 8.91016C178.702 8.91016 178.293 9.32086 178.293 9.82749C178.293 10.3341 178.702 10.7448 179.206 10.7448Z" fill="white"/>
<path d="M182.789 10.7448C183.293 10.7448 183.702 10.3341 183.702 9.82749C183.702 9.32086 183.293 8.91016 182.789 8.91016C182.285 8.91016 181.876 9.32086 181.876 9.82749C181.876 10.3341 182.285 10.7448 182.789 10.7448Z" fill="white"/>
<path d="M115.514 3.35772V35.7717C115.514 37.624 114.015 39.1294 112.172 39.1294H55.5162C53.6683 39.1294 52.1699 37.624 52.1699 35.7717V3.35772C52.1699 3.3226 52.1699 3.29188 52.1743 3.25676C52.2223 1.45281 53.6989 0 55.5162 0H112.172C113.985 0 115.461 1.45281 115.509 3.25676C115.514 3.29188 115.514 3.3226 115.514 3.35772Z" fill="#9FD9FB"/>
<path d="M115.509 3.25676H52.1738C52.2219 1.45281 53.6984 0 55.5158 0H112.171C113.984 0 115.461 1.45281 115.509 3.25676Z" fill="#3B507A"/>
<path d="M102.719 2.57289C103.237 2.57289 103.658 2.15039 103.658 1.62922C103.658 1.10804 103.237 0.685547 102.719 0.685547C102.2 0.685547 101.779 1.10804 101.779 1.62922C101.779 2.15039 102.2 2.57289 102.719 2.57289Z" fill="white"/>
<path d="M106.401 2.57289C106.92 2.57289 107.34 2.15039 107.34 1.62922C107.34 1.10804 106.92 0.685547 106.401 0.685547C105.882 0.685547 105.462 1.10804 105.462 1.62922C105.462 2.15039 105.882 2.57289 106.401 2.57289Z" fill="white"/>
<path d="M110.089 2.57289C110.607 2.57289 111.028 2.15039 111.028 1.62922C111.028 1.10804 110.607 0.685547 110.089 0.685547C109.57 0.685547 109.149 1.10804 109.149 1.62922C109.149 2.15039 109.57 2.57289 110.089 2.57289Z" fill="white"/>
<path d="M63.9687 8.28711H62.3262V32.647H63.9687V8.28711Z" fill="#668AD1"/>
<path d="M68.4853 12.356H66.8428V32.6471H68.4853V12.356Z" fill="#8CAEDE"/>
<path d="M72.999 17.0874H71.3564V32.6426H72.999V17.0874Z" fill="#668AD1"/>
<path d="M77.5156 20.4673H75.873V32.6472H77.5156V20.4673Z" fill="#8CAEDE"/>
<path d="M82.0322 14.7305H80.3896V32.6471H82.0322V14.7305Z" fill="#668AD1"/>
<path d="M86.5459 17.0874H84.9033V32.6426H86.5459V17.0874Z" fill="#8CAEDE"/>
<path d="M91.0625 19.563H89.4199V32.6471H91.0625V19.563Z" fill="#668AD1"/>
<path d="M95.5791 23.6973H93.9365V32.6424H95.5791V23.6973Z" fill="#8CAEDE"/>
<path d="M100.093 19.563H98.4502V32.6471H100.093V19.563Z" fill="#668AD1"/>
<path d="M104.609 26.9893H102.967V32.6469H104.609V26.9893Z" fill="#8CAEDE"/>
<path d="M60.4958 6.48242H60.0283V32.1766H60.4958V6.48242Z" fill="#5767B5"/>
<path d="M107.655 32.1719H60.0293V32.6415H107.655V32.1719Z" fill="#5767B5"/>
<path d="M9.3916 43.984V25.7426C9.3916 23.2803 11.3793 21.2832 13.83 21.2832H41.2121C43.6628 21.2832 45.6505 23.2803 45.6505 25.7426V43.984C45.6505 46.4463 43.6628 48.4434 41.2121 48.4434H13.83C11.3793 48.439 9.3916 46.4463 9.3916 43.984Z" fill="#7DE3E3"/>
<path d="M37.4774 36.5531C38.0496 33.1647 36.3415 29.4251 33.6724 28.2356C31.0075 27.0462 27.718 28.5604 26.3594 31.5977C24.8042 29.1837 21.8729 28.2664 19.6843 29.5919C17.4956 30.9174 16.3292 34.3234 17.0937 37.1456C14.4071 35.2144 12.9873 38.6028 13.0354 39.5026C13.1096 40.8325 14.027 41.8508 15.1192 41.8552C19.9988 41.864 34.284 41.8859 39.998 41.8903C41.6843 41.8903 42.6104 39.4851 41.5226 37.9181C41.4222 37.7689 41.3086 37.6328 41.1906 37.5056C40.2121 36.439 38.7224 36.123 37.4774 36.5531Z" fill="#EBFFFD"/>
<path d="M179.739 72.0265C179.704 71.2189 179.555 70.4288 179.311 69.6783C178.813 68.1333 177.921 66.7463 176.724 65.6666C176.143 65.1311 175.488 64.6746 174.772 64.3059C174.073 63.946 173.317 63.6695 172.513 63.4983C171.709 63.3271 170.906 63.2613 170.124 63.3052C169.32 63.3447 168.533 63.4939 167.786 63.7397C166.253 64.2357 164.873 65.1311 163.794 66.3293C163.265 66.9131 162.806 67.5715 162.444 68.2957C162.081 68.9979 161.806 69.7573 161.635 70.5693C161.461 71.3813 161.4 72.1845 161.443 72.9701C161.483 73.7778 161.627 74.5678 161.876 75.3183C162.365 76.8589 163.256 78.2415 164.453 79.33C165.039 79.8611 165.694 80.322 166.41 80.6907C167.109 81.0506 167.869 81.3271 168.669 81.4983C169.477 81.6739 170.276 81.7353 171.058 81.6914C171.862 81.6519 172.649 81.5027 173.4 81.2613C174.933 80.7653 176.318 79.8655 177.393 78.6629C177.926 78.0791 178.38 77.4208 178.747 76.7009C179.105 75.9987 179.38 75.2393 179.551 74.4317C179.726 73.6241 179.787 72.8165 179.739 72.0265ZM169.809 76.183C169.687 76.1567 169.569 76.126 169.455 76.0865C168.73 75.8582 168.114 75.4105 167.664 74.8443C167.511 74.6512 167.38 74.4493 167.267 74.2298C166.93 73.589 166.782 72.8429 166.873 72.0748C166.882 71.9562 166.904 71.8334 166.93 71.7148C166.956 71.5919 166.987 71.4734 167.026 71.3593C167.253 70.6263 167.699 70.0075 168.267 69.5554C168.455 69.4018 168.66 69.2701 168.874 69.1603C169.516 68.8224 170.259 68.6775 171.019 68.7653C171.141 68.7741 171.259 68.796 171.377 68.8224C171.495 68.8487 171.618 68.8794 171.727 68.9189C172.461 69.1516 173.077 69.5905 173.522 70.1611C173.675 70.3498 173.806 70.5561 173.915 70.7712C174.252 71.4164 174.4 72.1625 174.313 72.9263C174.304 73.0492 174.282 73.1677 174.256 73.2906C174.23 73.4091 174.199 73.532 174.16 73.6417C173.929 74.3791 173.492 74.9979 172.924 75.4456C172.732 75.5993 172.531 75.7309 172.312 75.845C171.674 76.1786 170.932 76.3322 170.172 76.2401C170.049 76.2313 169.931 76.2094 169.809 76.183Z" fill="#5767B5"/>
<path d="M175.672 60.1184L173.527 70.1608C173.081 69.5902 172.465 69.1469 171.732 68.9187C171.622 68.8792 171.5 68.8485 171.382 68.8221C171.264 68.7958 171.146 68.7739 171.024 68.7651C170.264 68.6729 169.521 68.8221 168.879 69.1601L171.024 59.1177L175.672 60.1184Z" fill="#5767B5"/>
<path d="M172.313 75.845L170.168 85.8874L165.52 84.8867L167.664 74.8442C168.114 75.4104 168.73 75.8581 169.456 76.0864C169.569 76.1303 169.687 76.1566 169.809 76.1829C169.932 76.2093 170.05 76.2312 170.172 76.24C170.932 76.3322 171.675 76.1785 172.313 75.845Z" fill="#5767B5"/>
<path d="M166.874 72.0705C166.782 72.8386 166.93 73.5847 167.267 74.2255L157.271 72.0705L158.272 67.396L168.271 69.5511C167.704 70.0032 167.258 70.622 167.031 71.355C166.987 71.4691 166.961 71.5877 166.935 71.7106C166.904 71.8291 166.882 71.952 166.874 72.0705Z" fill="#5767B5"/>
<path d="M183.919 72.9261L182.919 77.6005L172.924 75.4455C173.492 74.9978 173.933 74.3789 174.16 73.6415C174.199 73.5318 174.23 73.4089 174.256 73.2904C174.282 73.1675 174.304 73.049 174.313 72.9261C174.405 72.1624 174.252 71.4162 173.915 70.771L183.919 72.9261Z" fill="#5767B5"/>
<path d="M171.023 68.7653C170.263 68.6732 169.52 68.8224 168.878 69.1604C168.664 69.2701 168.454 69.4018 168.271 69.5554C167.703 70.0075 167.257 70.6263 167.03 71.3593L165.483 68.9541L163.797 66.3337L161.478 62.7302L165.47 60.1318L167.79 63.7397L169.476 66.3601L171.023 68.7653Z" fill="#5767B5"/>
<path d="M179.712 82.2707L175.719 84.8691L171.713 78.6453L170.167 76.2444C170.927 76.3366 171.67 76.1829 172.308 75.8494C172.526 75.7396 172.731 75.608 172.919 75.4499C173.487 75.0022 173.928 74.3834 174.155 73.646L175.702 76.0513L179.712 82.2707Z" fill="#5767B5"/>
<path d="M169.455 76.0864L167.065 77.6402L164.453 79.3344L160.866 81.665L158.289 77.6533L161.876 75.3227L164.484 73.6285L166.878 72.0747C166.786 72.8428 166.934 73.589 167.271 74.2298C167.38 74.4492 167.511 74.6555 167.668 74.8443C168.11 75.4105 168.726 75.8582 169.455 76.0864Z" fill="#5767B5"/>
<path d="M182.897 67.352L174.313 72.9263C174.404 72.1626 174.252 71.4164 173.915 70.7712C173.806 70.5561 173.675 70.3498 173.522 70.1611C173.076 69.5905 172.46 69.1472 171.727 68.919L174.121 67.3652L176.729 65.671L180.319 63.3403L182.897 67.352Z" fill="#5767B5"/>
<path d="M176.766 133.879C183.432 132.315 187.197 124 185.176 115.306C183.156 106.612 176.114 100.832 169.449 102.395C162.783 103.959 159.018 112.275 161.039 120.969C163.059 129.663 170.101 135.443 176.766 133.879Z" fill="#7DB0D1"/>
<path d="M178.624 133.443C185.289 131.88 189.054 123.564 187.034 114.87C185.013 106.176 177.972 100.396 171.306 101.96C164.641 103.524 160.875 111.839 162.896 120.533C164.917 129.227 171.958 135.007 178.624 133.443Z" fill="#9FD9FB"/>
<path d="M178.039 130.927C183.64 129.612 186.805 122.626 185.107 115.323C183.41 108.019 177.493 103.164 171.892 104.478C166.291 105.792 163.126 112.778 164.824 120.082C166.521 127.385 172.438 132.241 178.039 130.927Z" fill="#668AD1"/>
<path d="M177.26 127.575C181.44 126.594 183.801 121.379 182.533 115.926C181.266 110.473 176.85 106.848 172.671 107.828C168.491 108.809 166.13 114.024 167.397 119.477C168.665 124.93 173.08 128.556 177.26 127.575Z" fill="#9FD9FB"/>
<path d="M176.609 124.78C179.607 124.077 181.301 120.338 180.392 116.429C179.484 112.52 176.317 109.921 173.319 110.624C170.321 111.328 168.627 115.067 169.536 118.976C170.444 122.885 173.611 125.484 176.609 124.78Z" fill="#668AD1"/>
<path d="M174.186 114.352C175.605 114.019 177.104 115.249 177.534 117.1C177.965 118.95 177.163 120.72 175.744 121.054C174.325 121.387 172.826 120.156 172.395 118.306C171.965 116.455 172.767 114.685 174.186 114.352Z" fill="#9FD9FB"/>
<path d="M200.001 107.267L196.415 109.804C194.99 110.813 193.012 110.914 190.893 110.085L188.796 109.264L194.606 105.151L200.001 107.267Z" fill="#9FD9FB"/>
<path d="M194.09 98.8354L190.503 101.372C189.079 102.382 188.319 104.221 188.38 106.503L188.446 108.764L194.256 104.651L194.09 98.8354Z" fill="#9FD9FB"/>
<path d="M194.305 104.452L175.142 118.015L175.569 118.625L194.732 105.062L194.305 104.452Z" fill="#5767B5"/>
<path d="M83.8409 142.367C89.2695 142.367 93.6702 137.946 93.6702 132.491C93.6702 127.037 89.2695 122.616 83.8409 122.616C78.4124 122.616 74.0117 127.037 74.0117 132.491C74.0117 137.946 78.4124 142.367 83.8409 142.367Z" fill="#FFB84D"/>
<path d="M83.8416 140.528C88.2592 140.528 91.8404 136.93 91.8404 132.491C91.8404 128.053 88.2592 124.455 83.8416 124.455C79.424 124.455 75.8428 128.053 75.8428 132.491C75.8428 136.93 79.424 140.528 83.8416 140.528Z" stroke="#E38424" stroke-width="2" stroke-miterlimit="10"/>
<path d="M87.4975 134.322C87.4975 132.676 86.1826 132.153 84.8895 131.829V129.647C85.4181 129.752 85.9598 129.95 86.4927 130.257L87.1218 128.703C86.5059 128.313 85.7151 128.067 84.8895 127.97V126.575H84.2342V127.927C84.1774 127.927 84.125 127.922 84.0682 127.922C83.8498 127.922 83.6488 127.935 83.4479 127.953V126.575H82.7926V128.049C81.1544 128.401 80.3593 129.454 80.3593 130.679C80.3593 132.267 81.5563 132.82 82.7926 133.158V135.322C82.0718 135.173 81.3859 134.883 80.8748 134.506L80.1846 136.047C80.7831 136.512 81.7485 136.863 82.7926 137.003V138.417H83.4479V137.056C83.5527 137.06 83.6576 137.069 83.7668 137.069C83.9284 137.069 84.0857 137.065 84.2342 137.052V138.417H84.8895V136.968C86.6413 136.643 87.4975 135.559 87.4975 134.322ZM84.0551 129.564C84.1163 129.564 84.1731 129.568 84.2342 129.568V131.671C83.9546 131.605 83.6881 131.543 83.4479 131.473V129.608C83.627 129.577 83.8279 129.564 84.0551 129.564ZM82.3819 130.573C82.3819 130.288 82.5086 130.029 82.7926 129.845V131.21C82.5392 131.056 82.3819 130.854 82.3819 130.573ZM83.7799 135.423C83.6707 135.423 83.5615 135.419 83.4479 135.41V133.316C83.7231 133.382 83.9896 133.444 84.2342 133.51V135.401C84.0944 135.414 83.9459 135.423 83.7799 135.423ZM84.8895 135.248V133.733C85.2477 133.9 85.4749 134.124 85.4749 134.475C85.4749 134.804 85.2958 135.077 84.8895 135.248Z" fill="#FFD787"/>
<path d="M137.705 153.034C137.679 152.423 137.565 151.831 137.382 151.265C137.006 150.102 136.333 149.053 135.433 148.241C134.997 147.837 134.503 147.494 133.961 147.218C133.433 146.946 132.865 146.74 132.258 146.608C131.655 146.476 131.047 146.432 130.453 146.463C129.846 146.494 129.252 146.603 128.693 146.788C127.535 147.161 126.495 147.837 125.678 148.741C125.281 149.18 124.936 149.676 124.661 150.22C124.385 150.747 124.18 151.322 124.049 151.936C123.918 152.546 123.874 153.152 123.905 153.749C123.935 154.359 124.045 154.952 124.228 155.518C124.595 156.677 125.268 157.726 126.172 158.546C126.613 158.95 127.107 159.293 127.649 159.573C128.177 159.846 128.75 160.052 129.352 160.184C129.96 160.315 130.563 160.359 131.157 160.328C131.764 160.298 132.358 160.188 132.922 160.004C134.079 159.631 135.123 158.95 135.931 158.046C136.333 157.607 136.674 157.111 136.949 156.567C137.22 156.036 137.425 155.465 137.557 154.855C137.692 154.241 137.74 153.631 137.705 153.034ZM130.213 156.167C130.121 156.145 130.034 156.124 129.947 156.093C129.4 155.922 128.933 155.584 128.597 155.158C128.479 155.013 128.383 154.859 128.3 154.693C128.046 154.21 127.937 153.648 128.003 153.069C128.007 152.981 128.024 152.884 128.046 152.797C128.068 152.704 128.09 152.617 128.12 152.529C128.295 151.976 128.627 151.511 129.055 151.168C129.195 151.054 129.352 150.953 129.514 150.87C129.999 150.615 130.558 150.505 131.13 150.571C131.222 150.58 131.314 150.593 131.401 150.615C131.489 150.633 131.58 150.659 131.663 150.69C132.218 150.865 132.681 151.195 133.018 151.629C133.131 151.774 133.232 151.927 133.315 152.09C133.568 152.577 133.682 153.139 133.612 153.714C133.603 153.806 133.59 153.898 133.568 153.99C133.551 154.078 133.524 154.17 133.494 154.254C133.319 154.811 132.991 155.276 132.559 155.614C132.415 155.733 132.262 155.829 132.096 155.913C131.615 156.163 131.056 156.277 130.48 156.211C130.397 156.207 130.305 156.189 130.213 156.167Z" fill="#5767B5"/>
<path d="M134.635 144.053L133.018 151.624C132.682 151.194 132.219 150.86 131.664 150.685C131.581 150.654 131.489 150.632 131.402 150.61C131.314 150.593 131.223 150.575 131.131 150.566C130.559 150.496 130 150.61 129.515 150.865L131.131 143.293L134.635 144.053Z" fill="#5767B5"/>
<path d="M132.101 155.912L130.485 163.483L126.977 162.729L128.593 155.157C128.934 155.587 129.397 155.921 129.943 156.092C130.03 156.123 130.118 156.145 130.209 156.167C130.301 156.189 130.393 156.202 130.485 156.211C131.061 156.281 131.62 156.167 132.101 155.912Z" fill="#5767B5"/>
<path d="M128.003 153.068C127.933 153.647 128.046 154.209 128.3 154.692L120.76 153.068L121.511 149.543L129.051 151.167C128.623 151.505 128.287 151.975 128.116 152.528C128.086 152.616 128.064 152.704 128.042 152.796C128.025 152.884 128.007 152.98 128.003 153.068Z" fill="#5767B5"/>
<path d="M140.855 153.713L140.104 157.238L132.568 155.614C132.996 155.276 133.328 154.811 133.503 154.253C133.534 154.17 133.556 154.078 133.577 153.99C133.599 153.898 133.612 153.806 133.621 153.713C133.691 153.138 133.577 152.572 133.324 152.089L140.855 153.713Z" fill="#5767B5"/>
<path d="M131.131 150.575C130.558 150.505 129.999 150.619 129.514 150.874C129.353 150.957 129.195 151.058 129.055 151.172C128.627 151.51 128.291 151.98 128.121 152.533L126.954 150.72L125.683 148.745L123.936 146.028L126.945 144.07L128.697 146.792L129.969 148.767L131.131 150.575Z" fill="#5767B5"/>
<path d="M137.684 160.758L134.674 162.716L131.651 158.019L130.484 156.211C131.057 156.281 131.62 156.167 132.101 155.913C132.267 155.829 132.42 155.728 132.564 155.614C132.992 155.276 133.324 154.811 133.499 154.253L134.665 156.066L137.684 160.758Z" fill="#5767B5"/>
<path d="M129.947 156.097L128.147 157.269L126.176 158.546L123.472 160.302L121.528 157.273L124.232 155.518L126.198 154.24L128.003 153.068C127.933 153.648 128.046 154.21 128.3 154.692C128.383 154.859 128.483 155.013 128.597 155.158C128.933 155.588 129.4 155.921 129.947 156.097Z" fill="#5767B5"/>
<path d="M140.087 149.509L133.612 153.713C133.682 153.138 133.569 152.572 133.315 152.089C133.232 151.927 133.132 151.773 133.018 151.628C132.682 151.198 132.219 150.865 131.664 150.689L133.468 149.517L135.434 148.24L138.143 146.48L140.087 149.509Z" fill="#5767B5"/>
<path d="M79.0968 98.5585C79.0881 98.0362 79.0357 97.4963 78.7692 97.0486C78.5027 96.6009 77.9654 96.2761 77.463 96.4122C77.3319 95.8679 77.2882 95.429 77.0655 95.0735C76.8427 94.7136 76.3796 94.4678 75.9908 94.6346C75.9646 94.1693 75.6282 93.726 75.1957 93.5153C74.9554 93.4012 74.6933 93.3529 74.4268 93.3529C75.1302 91.944 75.7287 90.478 76.2092 88.9769C76.2922 88.7224 76.3709 88.4546 76.3272 88.1913C76.2835 87.9279 76.0694 87.6733 75.8073 87.6733C75.5277 87.6733 75.3268 87.9367 75.1739 88.1737C72.8149 91.786 67.708 99.3617 67.3018 99.8972C68.7259 101.025 69.3812 102.14 70.8272 103.092C73.1556 102.869 76.0563 100.63 77.048 98.4224C77.594 98.3697 77.4979 99.8006 77.4411 100.257C77.4193 100.45 77.3713 100.648 77.38 100.841C77.3887 101.038 77.4674 101.245 77.6334 101.346C77.9392 101.53 78.3236 101.271 78.5289 100.977C79.0226 100.292 79.1143 99.4012 79.0968 98.5585Z" fill="#FDA492"/>
<path d="M70.1104 96.8863C71.3379 96.2147 72.5698 95.5476 73.7974 94.876C74.0289 94.7487 74.3042 94.6214 74.5444 94.7312C74.7279 94.8146 74.8284 95.0252 74.8371 95.2271C74.8458 95.429 74.776 95.6266 74.6929 95.8109C74.374 96.5132 73.8498 97.1233 73.247 97.6456C73.544 98.8263 73.0504 100.165 72.0631 100.863" stroke="#CC565E" stroke-miterlimit="10" stroke-linecap="round"/>
<path d="M76.0038 95.0122C75.9426 95.5257 75.8815 96.0393 75.7242 96.5309C75.5626 97.0224 75.2961 97.4877 74.8898 97.8037C74.4835 98.1197 73.9244 98.2558 73.4395 98.0846" stroke="#CC565E" stroke-miterlimit="10" stroke-linecap="round"/>
<path d="M77.4411 96.7676C77.3887 97.3777 77.2707 97.9878 76.9955 98.5364C76.7247 99.0851 76.2835 99.5635 75.7199 99.7961C75.4622 99.9014 75.104 99.9234 74.9598 99.6864C74.8812 99.5591 74.8943 99.4011 74.9074 99.2518C74.9467 98.8173 74.986 98.3872 75.0209 97.9526" stroke="#CC565E" stroke-miterlimit="10" stroke-linecap="round"/>
<path d="M70.3032 99.0728L67.3675 99.8189L56.1272 107.294L52.6542 107.711L51.0859 114.356C51.0859 114.356 54.7468 116.713 56.634 116.362C58.7484 115.971 71.1375 102.777 71.1375 102.777L70.3032 99.0728Z" fill="#FDA492"/>
<path d="M46.1361 97.2861C46.7389 97.7031 47.3549 98.0937 48.032 98.5107C49.644 99.5071 51.1075 100.727 52.3831 102.132C53.7767 103.668 55.2008 105.217 56.7211 106.815C55.8561 110.353 53.9689 113.627 51.2779 116.05C50.2556 115.681 45.7822 113.315 45.7822 113.315C45.7822 113.315 46.0225 111.002 45.9919 110.357C45.7779 106.174 45.7429 101.983 46.1361 97.2861Z" fill="#FFE9A6"/>
<path d="M37.8284 168.781C36.662 165.849 35.7665 161.464 35.4694 158.361C35.8626 157.588 36.1072 157.501 36.579 157.04C35.998 157.018 35.5131 156.97 34.9321 156.948C34.2681 155.394 34.0322 153.243 34.4384 151.861C37.693 151.075 40.5107 150.834 43.4813 150.939C43.8526 152.936 44.224 154.937 44.4118 157.786C43.4289 158.967 42.5639 160.099 41.8256 161.793C41.8955 162.956 41.8606 163.953 41.9043 164.997C41.948 166.099 41.5329 167.17 40.7422 167.894C39.9297 168.649 39.0429 169.132 37.8284 168.781Z" fill="#3D2A2B"/>
<path d="M43.8311 124.841C43.8311 124.841 66.8533 128.138 67.2203 133.111C67.8625 141.775 44.1151 158.862 44.1151 158.862L39.3271 150.54L52.3672 136.793L40.297 130.161L43.8311 124.841Z" fill="#6B4F4B"/>
<path d="M58.9014 180.001C56.1841 178.412 52.7898 175.515 50.6492 173.259C50.4876 172.407 50.623 172.188 50.7147 171.529C50.2429 171.872 49.8323 172.135 49.3605 172.477C47.8839 171.666 46.3811 170.121 45.8525 168.777C47.9363 166.144 50.007 164.208 52.4097 162.453C53.93 163.796 55.4459 165.143 57.3418 167.268C57.2937 168.808 57.3069 170.23 57.7656 172.021C58.53 172.894 59.1198 173.698 59.7926 174.497C60.5003 175.335 60.8323 176.437 60.6575 177.499C60.4784 178.596 60.0721 179.527 58.9014 180.001Z" fill="#3D2A2B"/>
<path d="M27.3739 120.018L23.1626 125.377C23.1626 125.377 21.8957 131.851 26.0808 133.949C30.2658 136.051 52.1435 139.233 52.1435 139.233L49.0244 164.673L58.0629 168.057C58.0629 168.057 64.856 134.805 63.659 132.11C62.4664 129.415 39.7849 125.17 39.7849 125.17L27.3739 120.018Z" fill="#6B4F4B"/>
<path d="M44.3281 126.18C50.4222 127.212 56.4115 128.844 62.1824 131.07C63.1784 131.452 63.8293 132.422 63.7856 133.493C63.7157 135.204 63.1303 140.16 62.8595 141.854" stroke="#472E2D" stroke-miterlimit="10" stroke-linecap="round"/>
<path d="M50.3652 153.753C50.9463 149.32 51.6889 143.684 52.1694 139.286C51.6496 139.194 51.1254 139.102 50.6055 139.01" stroke="#472E2D" stroke-miterlimit="10" stroke-linecap="round"/>
<path d="M38.4426 92.8965C38.4426 92.8965 31.75 94.4459 29.2906 97.8431C26.8311 101.24 22.3184 128.493 22.3184 128.493C26.0753 131.082 38.1631 130.736 43.4665 127.027L44.7421 125.253L47.5511 125.675C47.5511 125.675 46.5026 121.922 46.5987 120.785C46.8958 117.384 49.3946 103.277 48.5777 99.8884C47.8394 96.8248 38.4426 92.8965 38.4426 92.8965Z" fill="#FFE9A6"/>
<path d="M44.1138 100.898C44.5506 106.618 44.3846 112.38 43.6201 118.064C43.2663 120.685 42.8644 123.634 44.4764 125.732" stroke="#DBAA69" stroke-miterlimit="10" stroke-linecap="round"/>
<path d="M48.6169 101.763C48.5077 105.897 48.4509 109.273 47.5029 114.061" stroke="#DBAA69" stroke-miterlimit="10" stroke-linecap="round"/>
<path d="M47.3197 127.4C47.3197 127.4 27.1763 127.769 25.7828 124.969C24.3892 122.169 26.3026 109.466 26.3026 109.466L34.3058 110.449L33.1656 119.311L47.5468 122.713L47.3197 127.4Z" fill="#FDA492"/>
<path d="M46.8525 122.765C49.347 122.453 51.9856 121.808 54.8906 121.931C55.1921 121.944 55.4935 122.023 55.76 122.185C57.3545 123.138 58.7393 124.542 59.7572 126.241C59.9538 126.57 60.146 126.935 60.1416 127.334C60.1416 127.733 59.8664 128.155 59.5169 128.128C59.2068 128.106 58.9971 127.768 58.8136 127.483C58.1277 126.412 57.1492 125.587 56.0527 125.157C56.8041 126.07 57.3982 127.141 57.8001 128.308C57.9399 128.712 58.0535 129.164 57.9137 129.564C57.7739 129.963 57.2671 130.204 57.005 129.893C57.0443 130.262 56.8609 130.648 56.5682 130.815C56.2755 130.977 55.8954 130.907 55.6639 130.648C55.6333 131.245 55.1921 131.521 54.7203 131.262C53.6937 130.696 53.5932 128.989 52.3045 128.537C50.3736 128.954 48.316 128.572 46.6035 127.47C46.8875 125.798 46.8307 124.551 46.8525 122.765Z" fill="#FDA492"/>
<path d="M56.9651 129.608C56.5938 128.331 56.0259 127.115 55.2832 126.013" stroke="#CC565E" stroke-miterlimit="10" stroke-linecap="round"/>
<path d="M55.5326 130.389C55.2093 129.033 54.5802 127.751 53.7021 126.671" stroke="#CC565E" stroke-miterlimit="10" stroke-linecap="round"/>
<path d="M33.3368 94.9111C32.8344 95.1306 32.3451 95.3676 31.8646 95.631C29.2653 97.0487 26.95 99.5242 26.2772 102.417C25.5127 105.704 25.1064 108.728 24.9404 112.046C28.3479 112.916 32.1791 113.675 35.7744 113.71C36.2375 110.98 36.4996 108.215 36.5564 105.445" fill="#FFE9A6"/>
<path d="M35.599 101.065C36.3591 105.239 36.4945 109.523 36.0402 113.675C35.4461 113.671 34.8519 113.666 34.2578 113.662" stroke="#DBAA69" stroke-miterlimit="10" stroke-linecap="round"/>
<path d="M46.8836 98.4398C47.1675 99.1464 47.3204 99.9101 47.3292 100.674C46.3855 99.9145 45.3371 99.2912 44.2188 98.8216C44.8435 98.0316 45.3983 97.1801 45.8701 96.2891C46.2589 96.7016 46.5778 97.1757 46.818 97.6848" fill="#D4C8A5"/>
<path d="M43.7121 100.305C44.4329 99.6339 45.5032 97.9616 46.2021 97.2637C46.7438 98.0494 46.9055 99.1642 47.3423 100.604C47.3467 99.094 46.9885 97.5841 46.355 96.2761C45.2979 95.1701 44.0135 94.2835 42.6068 93.6953C42.5151 95.9031 42.8384 98.1986 43.7121 100.305Z" fill="#FFFAE0"/>
<path d="M43.2182 95.4863C43.3929 97.2113 43.3536 97.6326 43.7206 100.257C40.4136 98.6597 37.3949 96.7548 34.6689 94.4944C35.3373 93.1557 35.8834 91.7204 36.2416 90.2413C36.3945 89.596 36.5125 88.9421 36.5867 88.2793C39.3083 89.043 41.8071 89.8243 44.3103 90.6012C44.0613 91.8433 43.6507 93.4936 43.358 94.8499C43.3056 95.0693 43.2619 95.2844 43.2182 95.4863Z" fill="#FDA492"/>
<path d="M44.3099 90.6012C44.0609 91.8433 43.6503 93.4936 43.3576 94.8499C41.9596 94.5778 40.6141 94.0467 39.4128 93.2786C38.1721 92.4841 37.0887 91.4439 36.2412 90.2413C36.3941 89.596 36.5121 88.9421 36.5863 88.2793C39.3079 89.043 41.8067 89.8243 44.3099 90.6012Z" fill="#F07A75"/>
<path d="M42.7684 99.3927C43.0917 99.7043 43.4193 100.012 43.7819 100.354C42.6592 100.073 41.5146 99.8755 40.3613 99.757C40.986 99.4673 41.5714 99.0942 42.1044 98.6597C42.1961 98.8308 42.3359 98.9801 42.7684 99.3927Z" fill="#D4C8A5"/>
<path d="M31.3096 95.1308C32.2095 93.8712 33.5594 92.9494 34.9704 92.3218C36.9887 94.6349 39.5705 96.689 42.3532 98.0101C42.6853 98.8529 43.1352 99.6034 43.7293 100.293C43.1221 100.007 42.6023 99.6868 42.0868 99.3049C41.2043 99.8316 39.968 100.762 39.0987 101.982C36.0276 100.486 33.3366 97.8741 31.3096 95.1308Z" fill="#FFFAE0"/>
<path d="M47.6342 80.6589C47.5031 79.6142 48.8006 78.2799 49.7486 77.9069C50.6922 77.5338 51.8629 77.7313 52.5706 78.4643C53.4837 79.4123 53.4181 81.0407 52.6405 82.1029C51.8629 83.1651 50.5218 83.7006 49.2112 83.784" fill="#F07A75"/>
<path d="M33.7069 87.489C37.3896 93.1115 47.1708 94.6214 49.7919 87.704C50.5826 85.6236 50.7005 83.6484 49.8006 81.3661C50.0059 69.23 40.1592 67.5446 32.4488 73.5753C31.3304 74.4487 30.6751 75.8006 30.7319 77.2271C30.9023 81.2827 33.7069 87.489 33.7069 87.489Z" fill="#FDA492"/>
<path d="M31.497 85.8028C32.1042 86.0573 32.611 85.9081 33.1789 86.2505C33.9478 83.0947 34.6773 80.1495 33.8779 76.9191C35.1316 77.9725 36.9096 77.538 38.3294 76.9279C39.7492 76.3134 41.3219 75.576 42.8028 76.1949C42.6412 75.4707 42.2087 74.8035 41.6189 74.3778C43.6678 74.6631 45.6773 75.3697 47.5121 76.4451C47.7917 75.5541 47.6912 74.5138 47.2325 73.6711C48.7047 74.3514 49.8667 75.8218 50.5089 77.1517C51.4263 75.598 50.7361 73.1883 49.1285 72.3236C49.8362 71.9988 50.771 72.2841 51.2559 72.9732C51.0594 72.2885 50.7754 71.6301 50.4084 71.0201C49.0455 68.7465 46.6253 67.1356 44.1308 67.004C44.5677 66.4992 44.7162 65.7311 44.5153 65.0508C43.4013 66.1876 41.7937 66.6265 40.2297 66.824C38.6658 67.0171 37.08 67.0961 35.5379 67.4297C31.5625 68.2988 29.5923 70.1159 29.9724 73.4736C29.2516 73.7589 28.6575 74.3383 28.2949 74.922C28.0633 75.2732 27.9279 75.6287 27.9017 75.914C27.8362 76.6514 28.0284 77.4063 28.2381 78.1305C29.09 81.001 30.0947 83.121 31.497 85.8028Z" fill="#7B3349"/>
<path d="M28.2949 74.9137C29.0201 74.2334 29.955 73.7813 30.9379 73.6672C30.4311 72.03 31.6019 70.2612 33.1222 69.4799C34.638 68.703 36.4073 68.6504 38.111 68.545C39.8104 68.4397 41.6015 68.2334 42.9732 67.2151C42.7548 67.6892 42.532 68.1632 42.3136 68.6372C45.1793 68.0798 48.2723 69.0278 50.4085 71.0118C49.0455 68.7382 46.6253 67.1273 44.1309 66.9957C44.5677 66.4909 44.7163 65.7228 44.5153 65.0425C43.4013 66.1793 41.7937 66.6182 40.2298 66.8157C38.6658 67.0088 37.0801 67.0878 35.538 67.4214C31.5626 68.2905 29.5924 70.1076 29.9724 73.4653C29.2516 73.755 28.6619 74.3344 28.2949 74.9137Z" fill="#A34B54"/>
<path d="M33.9867 83.6707C33.5149 82.7271 31.702 82.3452 30.7059 82.5603C29.7143 82.7753 28.8493 83.5917 28.6658 84.5969C28.4343 85.896 29.3823 87.2128 30.6186 87.6605C31.8549 88.1082 33.2615 87.8053 34.3974 87.147" fill="#FDA492"/>
<path d="M45.8301 78.6491C45.9218 77.7757 46.6383 76.9988 47.4989 76.8408C48.3638 76.6784 49.3031 77.1437 49.7006 77.9293C48.5167 77.7011 47.2499 77.903 45.8301 78.6491Z" fill="#7B3349"/>
<path d="M41.8942 79.8338C41.217 79.272 40.1948 79.1579 39.3997 79.5529C38.6047 79.9479 38.0761 80.8302 38.111 81.708C39.024 80.7512 40.2865 80.1367 41.8942 79.8338Z" fill="#7B3349"/>
<path d="M42.0117 84.2017C42.3326 84.2017 42.5927 83.9403 42.5927 83.6179C42.5927 83.2955 42.3326 83.0342 42.0117 83.0342C41.6908 83.0342 41.4307 83.2955 41.4307 83.6179C41.4307 83.9403 41.6908 84.2017 42.0117 84.2017Z" fill="#27304A"/>
<path d="M47.5683 82.6255C47.8892 82.6255 48.1493 82.3642 48.1493 82.0418C48.1493 81.7194 47.8892 81.458 47.5683 81.458C47.2474 81.458 46.9873 81.7194 46.9873 82.0418C46.9873 82.3642 47.2474 82.6255 47.5683 82.6255Z" fill="#27304A"/>
<path d="M46.2589 86.5106C45.0357 86.8793 42.7641 86.9232 41.4404 86.4185C41.6108 89.7981 46.1497 89.8069 46.2589 86.5106Z" fill="white"/>
<path d="M46.4203 83.9644C46.2762 84.5832 45.9529 85.1407 45.5029 85.5401C45.8568 85.6015 46.2237 85.4523 46.4378 85.1582C46.6475 84.8685 46.6999 84.4472 46.4203 83.9644Z" fill="#F07A75"/>
</svg>
