<svg width="13" height="12" viewBox="0 0 13 12" fill="none" xmlns="http://www.w3.org/2000/svg">
<g clip-path="url(#clip0_233_1962)">
<path d="M11.8565 2.0385C11.7159 1.86972 11.5398 1.73398 11.3408 1.64091C11.1418 1.54784 10.9247 1.49973 10.705 1.5H2.621L2.6 1.3245C2.55702 0.959709 2.38169 0.623366 2.10724 0.379239C1.8328 0.135112 1.47831 0.000170897 1.111 0L1 0C0.867392 0 0.740215 0.0526784 0.646447 0.146447C0.552678 0.240215 0.5 0.367392 0.5 0.5C0.5 0.632608 0.552678 0.759785 0.646447 0.853554C0.740215 0.947322 0.867392 1 1 1H1.111C1.23347 1.00002 1.35167 1.04498 1.44319 1.12636C1.5347 1.20774 1.59317 1.31987 1.6075 1.4415L2.2955 7.2915C2.36693 7.8999 2.65924 8.46089 3.11695 8.86801C3.57467 9.27512 4.16593 9.50001 4.7785 9.5H10C10.1326 9.5 10.2598 9.44732 10.3536 9.35355C10.4473 9.25979 10.5 9.13261 10.5 9C10.5 8.86739 10.4473 8.74022 10.3536 8.64645C10.2598 8.55268 10.1326 8.5 10 8.5H4.7785C4.46903 8.49913 4.1674 8.40256 3.91497 8.22353C3.66254 8.0445 3.47166 7.79178 3.3685 7.5H9.3285C9.91465 7.50004 10.4822 7.29412 10.9319 6.91822C11.3817 6.54232 11.685 6.02035 11.789 5.4435L12.1815 3.2665C12.2207 3.0505 12.2119 2.82853 12.1557 2.61632C12.0995 2.4041 11.9974 2.20684 11.8565 2.0385ZM11.2 3.089L10.807 5.266C10.7446 5.6125 10.5622 5.926 10.2919 6.1516C10.0216 6.3772 9.68058 6.50053 9.3285 6.5H3.2095L2.739 2.5H10.705C10.7785 2.49956 10.8511 2.51531 10.9178 2.54613C10.9844 2.57695 11.0435 2.62207 11.0908 2.6783C11.138 2.73453 11.1723 2.80049 11.1912 2.87147C11.2101 2.94245 11.2131 3.01672 11.2 3.089Z" fill="#007565"/>
<path d="M4 12C4.55228 12 5 11.5523 5 11C5 10.4477 4.55228 10 4 10C3.44772 10 3 10.4477 3 11C3 11.5523 3.44772 12 4 12Z" fill="#007565"/>
<path d="M9 12C9.55228 12 10 11.5523 10 11C10 10.4477 9.55228 10 9 10C8.44772 10 8 10.4477 8 11C8 11.5523 8.44772 12 9 12Z" fill="#007565"/>
</g>
<defs>
<clipPath id="clip0_233_1962">
<rect width="12" height="12" fill="white" transform="translate(0.5)"/>
</clipPath>
</defs>
</svg>
