<?xml version="1.0" encoding="utf-8"?>
<!-- Generator: Adobe Illustrator 25.4.1, SVG Export Plug-In . SVG Version: 6.00 Build 0)  -->
<svg version="1.1" id="logo" xmlns="http://www.w3.org/2000/svg" xmlns:xlink="http://www.w3.org/1999/xlink" x="0px" y="0px"
	 viewBox="0 0 124 20" style="enable-background:new 0 0 124 20;" xml:space="preserve">
<style type="text/css">
	.st0{fill-rule:evenodd;clip-rule:evenodd;fill:#0055B8;}
</style>
<g>
	<g>
		<path class="st0" d="M36.2,20v-5.3h7.3V20h4.6V0h-8.7c-1.7,0-3.4,0.4-4.7,1.4c-1.9,1.4-3.1,3.6-3.1,6.4V20H36.2z M43.5,10.1h-7.3
			V7.7c0-1.7,0.9-3.1,3.1-3.1h4.3C43.5,4.6,43.5,10.1,43.5,10.1z M50.5,20h4.6V4.6l3.6,0h1.8c1.1,0,2.2,1,2.2,2.2
			c0,0.8-0.2,1.5-1.1,2.1c-0.3,0.2-4.6,2.4-4.6,2.4l0.1,0.2l4.9,8.3h5.4l-4-7c2.3-1.1,4-3.4,4-6.2c0-3.8-3.1-6.8-6.8-6.8h-10V20z
			 M118,0l-3.7,6.5L110.6,0h-5.6l6.9,11.1V20h4.6l0-8.9l7-11.1H118z M99.2,20c3.9,0,6.7-3.1,6.7-6.5c0-2-0.8-3.6-2.2-4.8l0,0l0,0
			c0.8-0.9,1.4-2.2,1.4-3.5c0-2.8-2.3-5.1-5.2-5.1l-1.6,0h-9.5v20L99.2,20L99.2,20z M100.5,11.7c1,0.6,1,1.8,1,1.8
			c0,1.1-0.9,1.9-2.1,1.9l-1,0h-5V4.6h5.5l0.6,0c0.3,0,0.5,0.1,0.7,0.3c0.2,0.1,0.3,0.4,0.3,0.6c0.1,0.4-0.2,0.8-0.4,1
			c-0.1,0.1-4.4,3.1-4.4,3.1l2.7,3.8L100.5,11.7L100.5,11.7z M74.5,20v-5.3h7.3V20h4.6V0h-9c-1.7,0-3.1,0.4-4.4,1.4
			c-1.9,1.4-3.1,3.6-3.1,6.4V20H74.5L74.5,20z M81.8,10.1h-7.3V7.3c0-1.2,1.1-2.7,2.8-2.7h4.5V10.1z M15.4,0v20h13.8v-4.6H20L20,0
			H15.4z M0,0v20h13v-4.6H4.6v-3.1h7.2V7.7H4.6V4.6H13V0H0z"/>
	</g>
</g>
</svg>
