<svg width="18" height="18" viewBox="0 0 18 18" fill="none" xmlns="http://www.w3.org/2000/svg">
<path d="M11.8002 0.697692C11.069 0.405683 10.2794 0.259277 9.48973 0.259277C9.02171 0.259277 8.5537 0.317679 8.08568 0.405682L6.19922 3.65059C6.97444 3.22658 7.83687 3.02177 8.7289 3.03697C9.26972 3.03697 9.79614 3.10977 10.3082 3.25618L11.8002 0.697692Z" fill="#4B4B4B"/>
<path d="M0.306641 9.42343C0.306641 14.1004 4.28357 17.7397 8.91893 17.7397C13.7735 17.7397 17.6928 13.8228 17.6928 9.05781C17.6928 6.26652 16.3472 3.81044 14.3439 2.17358L12.8815 4.70247C14.1679 5.79851 14.9143 7.40656 14.9143 9.10182C14.9143 12.3467 12.2238 15.0068 8.91893 15.0068C5.61402 15.0068 2.93793 12.3323 2.93793 9.02901V9.01461C2.93793 8.6202 2.96673 8.22499 3.04033 7.84497L0.306641 9.42343Z" fill="#4B4B4B"/>
</svg>
