<svg width="32" height="32" viewBox="0 0 32 32" fill="none" xmlns="http://www.w3.org/2000/svg">
<path d="M22.0003 14.6667C23.2744 14.6666 24.5265 14.9984 25.6333 15.6295C26.7401 16.2606 27.6634 17.1692 28.3122 18.2657C28.961 19.3622 29.3129 20.6089 29.3333 21.8828C29.3536 23.1567 29.0417 24.414 28.4283 25.5307L28.943 27.2787C29.011 27.5097 29.0156 27.7547 28.9561 27.9881C28.8966 28.2215 28.7754 28.4345 28.6051 28.6048C28.4348 28.7751 28.2218 28.8963 27.9884 28.9558C27.7551 29.0152 27.51 29.0107 27.279 28.9427L25.5323 28.428C24.5522 28.9662 23.4621 29.2731 22.3452 29.3253C21.2283 29.3776 20.1143 29.1737 19.0883 28.7293C18.0622 28.285 17.1514 27.6119 16.4254 26.7616C15.6994 25.9112 15.1775 24.9061 14.8995 23.8231C14.6216 22.7401 14.5949 21.6079 14.8217 20.513C15.0484 19.4181 15.5225 18.3896 16.2077 17.506C16.8929 16.6225 17.771 15.9073 18.775 15.4152C19.779 14.923 20.8822 14.667 22.0003 14.6667ZM14.667 4C17.3202 4.00036 19.8986 4.87965 21.9992 6.50046C24.0998 8.12127 25.6043 10.3923 26.2777 12.9587C24.2596 12.0022 21.9795 11.7487 19.8007 12.2386C17.6219 12.7285 15.6698 13.9337 14.2555 15.662C12.8412 17.3903 12.0461 19.5422 11.997 21.7749C11.9478 24.0076 12.6474 26.1925 13.9843 27.9813C12.0548 27.8739 10.1803 27.2997 8.52165 26.308L4.98832 27.348C4.75656 27.4164 4.51066 27.421 4.2765 27.3614C4.04234 27.3018 3.82858 27.1801 3.65772 27.0093C3.48686 26.8384 3.36523 26.6246 3.30562 26.3905C3.24601 26.1563 3.25062 25.9104 3.31899 25.6787L4.35899 22.1453C3.2729 20.3237 2.68897 18.2468 2.66668 16.1261C2.64439 14.0054 3.18452 11.9167 4.23208 10.0727C5.27964 8.22866 6.79719 6.69519 8.6302 5.62846C10.4632 4.56172 12.5462 3.99983 14.667 4Z" fill="#074ECB"/>
</svg>
