<svg width="24" height="24" viewBox="0 0 24 24" fill="none" xmlns="http://www.w3.org/2000/svg">
<g clip-path="url(#clip0_583_3795)">
<path d="M8.57229 10C8.57237 10.4628 8.43493 10.9112 8.18339 11.2689C7.93184 11.6267 7.58175 11.8716 7.19277 11.962C6.8038 12.0523 6.4 11.9825 6.05018 11.7645C5.70036 11.5465 5.42617 11.1936 5.27433 10.7662C5.12248 10.3387 5.10238 9.86305 5.21744 9.42024C5.33251 8.97742 5.57562 8.59486 5.90536 8.33772C6.23509 8.08059 6.63105 7.96479 7.02576 8.01007C7.42047 8.05536 7.78951 8.25891 8.07 8.58605C8.37943 8.93705 8.57229 9.42705 8.57229 9.97005V10.002V10ZM13.7151 10C13.7151 10.3955 13.6145 10.7821 13.4261 11.111C13.2377 11.4398 12.97 11.6961 12.6568 11.8474C12.3436 11.9987 11.999 12.0384 11.6665 11.9612C11.334 11.8841 11.0286 11.6937 10.7889 11.414C10.6251 11.2296 10.4944 11.009 10.4045 10.765C10.3146 10.521 10.2672 10.2586 10.2651 9.99307C10.2631 9.72751 10.3064 9.46413 10.3925 9.21831C10.4786 8.97248 10.6058 8.74912 10.7667 8.56127C10.9277 8.37342 11.119 8.22484 11.3297 8.12419C11.5403 8.02354 11.766 7.97284 11.9936 7.97505C12.2213 7.97727 12.4462 8.03235 12.6554 8.13708C12.8646 8.24181 13.0538 8.39409 13.212 8.58505L13.2129 8.58605C13.5231 8.93705 13.716 9.42705 13.716 9.97105V10.002L13.7151 10ZM18.858 10C18.8581 10.4628 18.7206 10.9112 18.4691 11.2689C18.2176 11.6267 17.8675 11.8716 17.4785 11.962C17.0895 12.0523 16.6857 11.9825 16.3359 11.7645C15.9861 11.5465 15.7119 11.1936 15.56 10.7662C15.4082 10.3387 15.3881 9.86305 15.5032 9.42024C15.6182 8.97742 15.8613 8.59486 16.1911 8.33772C16.5208 8.08059 16.9168 7.96479 17.3115 8.01007C17.7062 8.05536 18.0752 8.25891 18.3557 8.58605C18.6651 8.93705 18.858 9.42705 18.858 9.97005V10.002V10ZM12.0009 2.00005L11.8911 1.99905C10.0929 1.99905 8.37514 2.39805 6.798 3.12305L6.89229 3.08505C5.45472 3.69727 4.16217 4.6987 3.12086 6.00705L3.11486 6.01405C2.23441 7.08703 1.73439 8.50882 1.71514 9.99405V9.99905C1.7242 11.208 2.06383 12.382 2.68457 13.35L2.67514 13.335C3.38028 14.4551 4.28578 15.3829 5.32886 16.0541L5.37086 16.0791L6.53657 16.861L6.17143 18.359C5.95653 19.3185 5.63311 20.2402 5.20971 21.1L5.23457 21.046C6.58535 20.3946 7.83449 19.487 8.93143 18.3601L8.91686 18.3741L9.49286 17.7801L10.2557 17.8741C10.8325 17.9559 11.413 17.9977 11.994 17.9991H11.9974L12.1071 18C13.9054 18 15.6231 17.601 17.2003 16.876L17.106 16.914C18.5436 16.3018 19.8361 15.3004 20.8774 13.992L20.8834 13.985C21.7483 12.96 22.2823 11.553 22.2823 10.001C22.2823 8.44905 21.7483 7.04105 20.8826 6.01605L20.8834 6.01705C19.8586 4.72333 18.5876 3.7286 17.1729 3.11305L17.106 3.08805C15.6231 2.40105 13.9046 2.00205 12.1063 2.00205L11.9931 2.00305H11.9991L12.0009 2.00005ZM24.0009 10C23.9934 11.8485 23.4208 13.6332 22.386 15.033L22.3937 15.023C21.2389 16.6199 19.7645 17.8601 18.1011 18.6341L18.0274 18.664C16.2934 19.51 14.2783 20.001 12.1654 20.001L11.9923 20H12.0009C11.3151 19.9981 10.6397 19.953 9.97543 19.866L10.0586 19.875C8.32351 21.6712 6.24636 22.9588 3.99943 23.6311L3.89829 23.657C3.46714 23.802 2.94943 23.923 2.41886 23.996L2.37171 24.0011H2.30314C2.16918 24.0014 2.04001 23.9429 1.94143 23.837C1.83435 23.7249 1.75977 23.5768 1.728 23.413L1.72714 23.4081V23.392C1.71178 23.3611 1.70379 23.3258 1.704 23.2901C1.704 23.2571 1.71086 23.2271 1.722 23.199L1.72114 23.2001C1.73907 23.1497 1.7481 23.0956 1.74771 23.041V23.039C1.74314 23.0184 1.76314 22.9687 1.80771 22.89L1.88829 22.7491L1.98257 22.616L2.08971 22.475C2.15257 22.3917 2.29086 22.2121 2.50457 21.9361L2.96657 21.342C3.06029 21.222 3.19857 21.0164 3.38143 20.725C3.53057 20.4941 3.67543 20.232 3.80229 19.958L3.81686 19.925C3.92371 19.6857 4.04429 19.3784 4.17857 19.003C4.296 18.6861 4.41514 18.291 4.51286 17.886L4.52743 17.816C3.22444 16.9832 2.09844 15.8196 1.23257 14.411L1.212 14.376C0.42627 13.1004 0.00245944 11.5699 0 9.99905V9.99705C0.00233109 8.61259 0.337291 7.25661 0.966857 6.08305L0.951429 6.11405C1.60103 4.86687 2.46169 3.78723 3.48086 2.94105L3.50914 2.91905C4.64915 1.98573 5.91161 1.27479 7.24714 0.814047L7.33972 0.787047C8.71372 0.286047 10.2934 -0.00195312 11.9314 -0.00195312H12.0043H12.0009H12.072C13.71 -0.00195312 15.2897 0.286047 16.776 0.822047L16.6629 0.787047C18.0472 1.25386 19.3555 1.98547 20.5346 2.95205L20.4934 2.92005C21.5125 3.75872 22.3751 4.83002 23.0289 6.06905L23.0511 6.11505C23.6714 7.28059 24 8.62517 24 9.99705V9.99805L24.0009 10Z" fill="#7F7F7F"/>
</g>
<defs>
<clipPath id="clip0_583_3795">
<rect width="24" height="24" fill="white"/>
</clipPath>
</defs>
</svg>
