<svg width="15" height="13" viewBox="0 0 15 13" fill="none" xmlns="http://www.w3.org/2000/svg">
<path fill-rule="evenodd" clip-rule="evenodd" d="M2.5 0.5H12.5C13.0304 0.5 13.5391 0.710714 13.9142 1.08579C14.2893 1.46086 14.5 1.96957 14.5 2.5V10.5C14.5 11.0304 14.2893 11.5391 13.9142 11.9142C13.5391 12.2893 13.0304 12.5 12.5 12.5H2.5C1.96957 12.5 1.46086 12.2893 1.08579 11.9142C0.710714 11.5391 0.5 11.0304 0.5 10.5V2.5C0.5 1.96957 0.710714 1.46086 1.08579 1.08579C1.46086 0.710714 1.96957 0.5 2.5 0.5Z" stroke="#001331" stroke-linecap="round" stroke-linejoin="round"/>
<path d="M2.5 7.5H7.5M2.5 9.5H7.5M10.5 2.5H11.5C11.7652 2.5 12.0196 2.60536 12.2071 2.79289C12.3946 2.98043 12.5 3.23478 12.5 3.5V4.5C12.5 4.76522 12.3946 5.01957 12.2071 5.20711C12.0196 5.39464 11.7652 5.5 11.5 5.5H10.5C10.2348 5.5 9.98043 5.39464 9.79289 5.20711C9.60536 5.01957 9.5 4.76522 9.5 4.5V3.5C9.5 3.23478 9.60536 2.98043 9.79289 2.79289C9.98043 2.60536 10.2348 2.5 10.5 2.5Z" stroke="#001331" stroke-linecap="round" stroke-linejoin="round"/>
</svg>
