<svg width="25" height="24" viewBox="0 0 25 24" fill="none" xmlns="http://www.w3.org/2000/svg">
<g clip-path="url(#clip0_583_3809)">
<path d="M24.2803 0.21898C24.3841 0.322979 24.4551 0.455192 24.4845 0.599196C24.5138 0.743201 24.5002 0.892651 24.4453 1.02898L15.7168 22.8495C15.6399 23.0416 15.5114 23.2089 15.3456 23.3327C15.1797 23.4566 14.983 23.5323 14.7769 23.5515C14.5708 23.5708 14.3634 23.5328 14.1775 23.4417C13.9916 23.3507 13.8344 23.2101 13.7233 23.0355L8.95629 15.543L1.46379 10.776C1.28876 10.665 1.14781 10.5077 1.05649 10.3217C0.965169 10.1356 0.927024 9.92793 0.946265 9.72156C0.965505 9.51519 1.04138 9.31814 1.16553 9.15217C1.28967 8.98619 1.45726 8.85774 1.64979 8.78098L23.4703 0.0554805C23.6066 0.0005989 23.7561 -0.0130207 23.9001 0.0163136C24.0441 0.0456478 24.1763 0.116643 24.2803 0.220481V0.21898ZM10.4533 15.105L14.5948 21.612L21.6943 3.86398L10.4533 15.105ZM20.6338 2.80348L2.88579 9.90298L9.39429 14.043L20.6338 2.80348Z" fill="white"/>
</g>
<defs>
<clipPath id="clip0_583_3809">
<rect width="24" height="24" fill="white" transform="translate(0.5)"/>
</clipPath>
</defs>
</svg>
