<svg width="24" height="24" viewBox="0 0 24 24" fill="none" xmlns="http://www.w3.org/2000/svg">
<g clip-path="url(#clip0_583_3901)">
<path d="M23.7803 0.21898C23.8841 0.322979 23.9551 0.455192 23.9845 0.599196C24.0138 0.743201 24.0002 0.892651 23.9453 1.02898L15.2168 22.8495C15.1399 23.0416 15.0114 23.2089 14.8456 23.3327C14.6797 23.4566 14.483 23.5323 14.2769 23.5515C14.0708 23.5708 13.8634 23.5328 13.6775 23.4417C13.4916 23.3507 13.3344 23.2101 13.2233 23.0355L8.45629 15.543L0.963787 10.776C0.788764 10.665 0.647814 10.5077 0.556492 10.3217C0.465169 10.1356 0.427024 9.92793 0.446265 9.72156C0.465505 9.51519 0.541384 9.31814 0.665529 9.15217C0.789673 8.98619 0.957256 8.85774 1.14979 8.78098L22.9703 0.0554805C23.1066 0.0005989 23.2561 -0.0130207 23.4001 0.0163136C23.5441 0.0456478 23.6763 0.116643 23.7803 0.220481V0.21898ZM9.95329 15.105L14.0948 21.612L21.1943 3.86398L9.95329 15.105ZM20.1338 2.80348L2.38579 9.90298L8.89429 14.043L20.1338 2.80348Z" fill="#001331"/>
</g>
<defs>
<clipPath id="clip0_583_3901">
<rect width="24" height="24" fill="white"/>
</clipPath>
</defs>
</svg>
