<svg width="174" height="71" viewBox="0 0 174 71" fill="none" xmlns="http://www.w3.org/2000/svg">
<path d="M11.77 40.838V43.5H9.218C8.88067 44.6 8.30133 45.4287 7.48 45.986C6.67333 46.5433 5.73467 46.822 4.664 46.822C3.75467 46.822 2.85267 46.558 1.958 46.03V43.632C2.85267 44.1307 3.68867 44.38 4.466 44.38C5.28733 44.38 5.90333 44.0573 6.314 43.412L5.632 43.346C4.20933 43.1993 3.09467 42.6787 2.288 41.784C1.496 40.8747 1.1 39.7527 1.1 38.418C1.1 36.9073 1.48867 35.69 2.266 34.766C3.058 33.8273 4.136 33.358 5.5 33.358C6.71733 33.358 7.68533 33.7247 8.404 34.458C9.13733 35.1913 9.504 36.1813 9.504 37.428V39.87V40.838H11.77ZM3.828 38.33C3.828 39.7527 4.47333 40.5447 5.764 40.706C6.16 40.7647 6.49 40.8013 6.754 40.816V38.902V37.384C6.754 36.416 6.336 35.932 5.5 35.932C4.972 35.932 4.56133 36.152 4.268 36.592C3.97467 37.0173 3.828 37.5967 3.828 38.33ZM23.2186 40.838H24.5166V43.5H22.9326C21.8619 43.5 20.9819 43.214 20.2926 42.642C19.5886 43.214 18.7013 43.5 17.6306 43.5H11.3386V40.838H17.3446C17.8726 40.838 18.2613 40.7207 18.5106 40.486C18.7599 40.2513 18.8846 39.8627 18.8846 39.32V39.188C18.8846 38.2053 18.4813 37.4867 17.6746 37.032C16.5453 36.328 15.0713 36.2987 13.2526 36.944V34.282L17.7186 29.31H20.5126L16.5086 33.798C17.6379 33.886 18.6206 34.2307 19.4566 34.832C20.9233 35.8293 21.6566 37.274 21.6566 39.166V39.254C21.6566 39.826 21.7739 40.2367 22.0086 40.486C22.2579 40.7207 22.6613 40.838 23.2186 40.838ZM26.8488 31.4C26.5994 31.664 26.2548 31.796 25.8148 31.796C25.3748 31.796 25.0228 31.664 24.7588 31.4C24.4948 31.136 24.3628 30.7767 24.3628 30.322C24.3628 29.8967 24.4948 29.552 24.7588 29.288C25.0228 29.024 25.3748 28.892 25.8148 28.892C26.2548 28.892 26.5994 29.024 26.8488 29.288C27.1128 29.552 27.2448 29.8967 27.2448 30.322C27.2448 30.762 27.1128 31.1213 26.8488 31.4ZM30.2148 31.4C29.9654 31.664 29.6208 31.796 29.1808 31.796C28.7408 31.796 28.3888 31.664 28.1248 31.4C27.8608 31.136 27.7288 30.7767 27.7288 30.322C27.7288 29.8967 27.8608 29.552 28.1248 29.288C28.4034 29.024 28.7554 28.892 29.1808 28.892C29.6208 28.892 29.9654 29.024 30.2148 29.288C30.4788 29.552 30.6108 29.8967 30.6108 30.322C30.6108 30.762 30.4788 31.1213 30.2148 31.4ZM31.5788 40.838H33.0968V43.5H31.2928C30.2221 43.5 29.3348 43.214 28.6308 42.642C27.9268 43.214 27.0394 43.5 25.9688 43.5H24.1648V40.838H25.7048C26.2181 40.838 26.5921 40.7353 26.8268 40.53C27.0761 40.3247 27.2154 39.98 27.2448 39.496V39.386V35.184L30.0168 33.732V39.254C30.0168 39.826 30.1341 40.2367 30.3688 40.486C30.6181 40.7207 31.0214 40.838 31.5788 40.838ZM39.9362 40.838H41.4542V43.5H39.6502C38.5795 43.5 37.6922 43.214 36.9882 42.642C36.2842 43.214 35.3969 43.5 34.3262 43.5H32.5222V40.838H34.0622C34.5755 40.838 34.9495 40.7353 35.1842 40.53C35.4335 40.3247 35.5729 39.98 35.6022 39.496V39.386V35.184L38.3742 33.732V39.254C38.3742 39.826 38.4915 40.2367 38.7262 40.486C38.9755 40.7207 39.3789 40.838 39.9362 40.838ZM33.1602 45.876C33.4242 45.6267 33.7762 45.502 34.2162 45.502C34.6562 45.502 35.0009 45.634 35.2502 45.898C35.5142 46.162 35.6462 46.5067 35.6462 46.932C35.6462 47.372 35.5142 47.724 35.2502 47.988C35.0009 48.2667 34.6562 48.406 34.2162 48.406C33.7762 48.406 33.4242 48.274 33.1602 48.01C32.8962 47.746 32.7642 47.3867 32.7642 46.932C32.7642 46.492 32.8962 46.14 33.1602 45.876ZM36.5482 45.876C36.8122 45.6267 37.1642 45.502 37.6042 45.502C38.0442 45.502 38.3889 45.634 38.6382 45.898C38.9022 46.162 39.0342 46.5067 39.0342 46.932C39.0342 47.372 38.9022 47.724 38.6382 47.988C38.3889 48.2667 38.0442 48.406 37.6042 48.406C37.1642 48.406 36.8122 48.274 36.5482 48.01C36.2842 47.746 36.1522 47.3867 36.1522 46.932C36.1522 46.492 36.2842 46.14 36.5482 45.876ZM40.8796 43.5V40.838H43.7176C46.2989 40.838 48.3523 40.068 49.8776 38.528C48.8803 36.7827 47.6703 35.91 46.2476 35.91C45.0743 35.91 43.7909 36.548 42.3976 37.824V35.382C43.6296 34.0327 45.0083 33.358 46.5336 33.358C47.6483 33.3433 48.7556 33.7467 49.8556 34.568C50.9556 35.3747 51.9383 36.5773 52.8036 38.176V39.276C51.6009 40.816 50.1856 41.9087 48.5576 42.554C46.9296 43.1847 45.3089 43.5 43.6956 43.5H40.8796ZM49.7236 47.988C49.4743 48.2667 49.1296 48.406 48.6896 48.406C48.2496 48.406 47.8976 48.274 47.6336 48.01C47.3696 47.746 47.2376 47.3867 47.2376 46.932C47.2376 46.5067 47.3696 46.162 47.6336 45.898C47.8976 45.634 48.2496 45.502 48.6896 45.502C49.1296 45.502 49.4743 45.634 49.7236 45.898C49.9876 46.162 50.1196 46.5067 50.1196 46.932C50.1196 47.372 49.9876 47.724 49.7236 47.988ZM54.554 43.5L55.94 40.838H59.416C59.7827 40.838 60.0613 40.75 60.252 40.574C60.4427 40.3833 60.538 40.0387 60.538 39.54C60.538 37.912 59.7607 36.6653 58.206 35.8L59.57 33.468C62.0633 34.9347 63.31 36.9733 63.31 39.584C63.31 40.9333 63.002 41.9233 62.386 42.554C61.77 43.1847 60.9487 43.5 59.922 43.5H54.554ZM70.4064 43.5C69.1597 43.5 68.1697 43.126 67.4364 42.378C66.7177 41.63 66.3584 40.6327 66.3584 39.386V30.762L69.1304 29.31V39.254C69.1304 39.826 69.2477 40.2367 69.4824 40.486C69.717 40.7207 70.113 40.838 70.6704 40.838H72.2104V43.5H70.4064ZM71.7741 43.5V40.838H73.3141C73.8715 40.838 74.2675 40.7207 74.5021 40.486C74.7368 40.2367 74.8541 39.826 74.8541 39.254V35.184L77.6261 33.732V39.386C77.6261 40.6327 77.2595 41.63 76.5261 42.378C75.8075 43.126 74.8248 43.5 73.5781 43.5H71.7741ZM77.2521 47.988C77.0028 48.2667 76.6581 48.406 76.2181 48.406C75.7781 48.406 75.4261 48.274 75.1621 48.01C74.8981 47.746 74.7661 47.3867 74.7661 46.932C74.7661 46.5067 74.8981 46.162 75.1621 45.898C75.4261 45.634 75.7781 45.502 76.2181 45.502C76.6581 45.502 77.0028 45.634 77.2521 45.898C77.5161 46.162 77.6481 46.5067 77.6481 46.932C77.6481 47.372 77.5161 47.724 77.2521 47.988Z" fill="#009FA6"/>
<path d="M130.706 64.0718C130.885 63.4905 131.162 62.9601 131.512 62.4878C132.497 61.1618 134.076 60.3153 135.82 60.3153C135.991 60.3153 136.162 60.3226 136.334 60.3407C136.779 60.3843 137.202 60.4824 137.607 60.6241C138.183 60.8276 138.712 61.1182 139.175 61.4888C139.565 61.7976 139.905 62.1609 140.193 62.5641C140.915 63.5741 141.291 64.8347 141.163 66.1644C140.897 68.9291 138.562 70.9999 135.83 70.9999C135.659 70.9999 135.488 70.9926 135.316 70.9745C132.497 70.7056 130.403 68.3115 130.469 65.5323C130.472 65.4051 130.472 65.278 130.487 65.1472C130.524 64.7766 130.6 64.4169 130.706 64.0718Z" fill="#009FA6"/>
<path d="M102.223 58.6551C102.617 58.3318 103.059 58.0666 103.533 57.8668C104.12 57.6197 104.758 57.478 105.422 57.4562C105.48 57.4526 105.542 57.449 105.601 57.449C105.772 57.449 105.944 57.4562 106.115 57.4744C107.91 57.6452 109.412 58.6806 110.248 60.1265C110.572 60.6823 110.791 61.2999 110.897 61.9539C110.966 62.3898 110.988 62.8367 110.944 63.2981C110.937 63.3562 110.926 63.4107 110.919 63.4688C110.576 66.1463 108.285 68.1336 105.612 68.1336C105.44 68.1336 105.269 68.1263 105.097 68.1081C102.15 67.8284 99.9875 65.2199 100.268 62.2845C100.411 60.8022 101.151 59.5234 102.223 58.6551Z" fill="#009FA6"/>
<path d="M150.448 31.2879L151.382 21.5333C151.834 16.8032 155.843 13.2501 160.519 13.2501C160.811 13.2501 161.102 13.2647 161.398 13.2901L170.17 14.122C172.493 14.3436 174.2 16.4035 173.981 18.7214C173.773 20.9048 171.928 22.5396 169.772 22.5396C169.637 22.5396 169.502 22.5324 169.367 22.5215L160.595 21.6895C160.573 21.6859 160.548 21.6859 160.526 21.6859C160.158 21.6859 159.844 21.9656 159.811 22.3362L158.877 32.0907C158.706 33.8963 158.392 35.6583 157.955 37.3658C157.444 36.8463 156.806 36.4467 156.069 36.2214L149.971 34.3468C150.186 33.3441 150.346 32.3269 150.448 31.2879Z" fill="#009FA6"/>
<path d="M90.1576 25.5659L90.6427 20.5125C90.8506 18.3291 92.6961 16.6942 94.8517 16.6942C94.9867 16.6942 95.1216 16.7015 95.2566 16.7124C97.5836 16.934 99.2906 18.9903 99.0681 21.3081L98.583 26.3616C98.5137 27.0845 98.4845 27.8039 98.4735 28.5159C98.3605 37.4422 102.869 45.5401 109.93 50.3138C113.428 52.6752 117.549 54.2265 122.043 54.6516C122.878 54.7315 123.71 54.7715 124.534 54.7715C127.817 54.7715 130.982 54.1539 133.908 53.0204C136.694 51.9414 139.262 50.3937 141.505 48.4682L142.22 50.5173C142.855 52.3337 144.51 53.5072 146.444 53.5072C148.3 53.5072 149.934 52.3919 150.609 50.6698L152.126 46.7825L154.701 45.4856C151.455 51.302 146.575 56.0394 140.739 59.1492C139.543 58.2519 138.124 57.6887 136.599 57.5434C136.34 57.518 136.078 57.5071 135.815 57.5071C132.23 57.5071 129.184 59.7777 128.083 63.022C126.916 63.1418 125.734 63.2109 124.541 63.2109C123.451 63.2109 122.349 63.16 121.24 63.0547C118.611 62.804 116.083 62.2554 113.676 61.4634C113.446 60.0574 112.851 58.7278 111.918 57.6016C110.524 55.9231 108.558 54.8841 106.385 54.677C106.126 54.6516 105.863 54.6407 105.6 54.6407C104.488 54.6407 103.43 54.8623 102.464 55.2619C93.9982 48.2285 89.0342 37.2932 90.1576 25.5659Z" fill="#009FA6"/>
<path d="M147.958 25.7038C146.462 24.6937 144.697 23.9161 142.691 23.3929C147.174 20.6024 149.224 16.4166 148.768 11.6532C148.024 3.88486 140.863 -1.1293 126.67 0.218707L108.417 1.95186C103.303 2.43511 99.5571 6.95877 100.042 12.0492L102.005 32.5565C102.056 32.8762 102.114 33.1923 102.18 33.5084C103.602 33.4357 105.025 33.3594 106.448 33.2868C107.133 33.1705 107.494 32.5565 107.363 32.1241C107.217 31.6445 106.429 31.4482 106.364 31.5464C106.302 31.6408 106.925 31.9606 106.889 32.2767C106.849 32.6364 105.944 32.9525 103.409 33.1305C103.001 33.2577 102.588 33.3812 102.18 33.5084C102.621 35.5759 104.124 41.2804 109.347 45.9784C109.347 45.9784 115.986 51.97 124.901 51.97C125.638 51.97 126.386 51.9337 127.123 51.8646C133.287 51.2796 138.861 48.3293 142.818 43.5586C146.776 38.7878 148.629 32.7781 148.042 26.6376L147.958 25.7038ZM117.38 13.2991L125.47 12.5325C129.369 12.1619 131.259 13.3137 131.496 15.8062C131.733 18.2988 130.095 19.7849 126.196 20.1518L118.105 20.9185L117.38 13.2991ZM130.416 39.4164L119.973 40.4083L119.203 32.3493L129.647 31.3574C133.469 30.9941 135.516 32.204 135.767 34.8419C136.023 37.4798 134.243 39.0531 130.416 39.4164Z" fill="#0BC7A2"/>
<g clip-path="url(#clip0_432_3001)">
<path d="M140.89 45.185L138.07 37.141C138.07 37.141 137.56 34.8245 139.21 33.3975C140.86 31.9705 142.25 31.9021 143.02 32.0585C143.79 32.2149 147.65 33.378 147.65 33.378L150 34.5C150 34.5 146.93 44.6767 141.9 47.9999" fill="white"/>
</g>
<path d="M142.074 34.6631C142.26 34.6631 142.453 34.6921 142.65 34.7503L155.314 38.6448C156.963 39.1498 157.152 41.3986 155.613 42.1725L150.758 44.6211C150.335 44.8354 150.011 45.1951 149.839 45.631L148.231 49.7436C147.914 50.5574 147.18 50.9606 146.444 50.9606C145.685 50.9606 144.93 50.5319 144.631 49.6782L140.269 37.1989C139.824 35.9165 140.816 34.6631 142.074 34.6631Z" fill="#0BC7A2"/>
<defs>
<clipPath id="clip0_432_3001">
<rect width="12.36" height="16" fill="white" transform="matrix(-1 0 0 1 150.359 32)"/>
</clipPath>
</defs>
</svg>
