<svg width="25" height="25" viewBox="0 0 25 25" fill="none" xmlns="http://www.w3.org/2000/svg">
<mask id="path-1-outside-1_696_179" maskUnits="userSpaceOnUse" x="-0.5" y="-0.5" width="26" height="26" fill="black">
<rect fill="white" x="-0.5" y="-0.5" width="26" height="26"/>
<path d="M24.48 5.99771V16.0935C24.48 18.0927 23.7 19.9819 22.28 21.3913L19.33 24.3401C19.23 24.44 19.1 24.49 18.98 24.49C18.86 24.49 18.72 24.44 18.63 24.3401C18.43 24.1402 18.43 23.8303 18.63 23.6304L21.58 20.6816C22.81 19.4521 23.48 17.8228 23.48 16.0835V5.99771C23.48 5.16806 22.81 4.49833 21.98 4.49833C21.15 4.49833 20.48 5.16806 20.48 5.99771V13.9944C20.48 13.9944 20.48 14.0344 20.48 14.0544C20.47 14.6041 20.27 15.1439 19.9 15.5937L17.26 18.3426C17.16 18.4425 17.03 18.4925 16.9 18.4925C16.77 18.4925 16.65 18.4425 16.55 18.3526C16.35 18.1626 16.34 17.8428 16.54 17.6429L19.16 14.924C19.38 14.6641 19.49 14.3442 19.49 14.0144C19.49 14.0144 19.49 14.0044 19.49 13.9944V13.9444C19.48 13.6045 19.35 13.2647 19.11 12.9848C18.84 12.6849 18.48 12.515 18.08 12.485C17.69 12.485 17.3 12.595 17 12.8648L14.27 15.3738C13.75 15.8436 13.34 16.4034 13.04 17.0331C13.34 17.7828 13.5 18.5925 13.5 19.4121V23.9702C13.5 24.2501 13.28 24.47 13 24.47C12.72 24.47 12.5 24.2501 12.5 23.9702V19.4121C12.5 17.8828 11.85 16.4034 10.72 15.3638L7.99 12.8449C7.7 12.585 7.31 12.465 6.91 12.465C6.51 12.485 6.14 12.6649 5.88 12.9648C5.39 13.5146 5.37 14.3542 5.85 14.924L8.44 17.6229C8.63 17.8228 8.63 18.1426 8.43 18.3326C8.23 18.5225 7.91 18.5225 7.72 18.3226L5.1 15.6037C4.72 15.1539 4.53 14.6141 4.5 14.0743C4.5 14.0444 4.5 14.0144 4.5 13.9744V5.99771C4.5 5.16806 3.83 4.49833 3 4.49833C2.17 4.49833 1.5 5.16806 1.5 5.99771V16.0935C1.5 17.8328 2.18 19.4621 3.4 20.6916L6.35 23.6404C6.55 23.8403 6.55 24.1501 6.35 24.3501C6.25 24.45 6.12 24.5 6 24.5C5.88 24.5 5.74 24.45 5.65 24.3501L2.7 21.4013C1.28 19.9819 0.5 18.1027 0.5 16.1035V5.99771C0.5 4.61828 1.62 3.49875 3 3.49875C4.38 3.49875 5.5 4.61828 5.5 5.99771V11.9952C5.89 11.7053 6.36 11.5254 6.86 11.5054C7.53 11.4554 8.17 11.6953 8.66 12.1352L11.4 14.6541C11.83 15.0439 12.19 15.4938 12.5 15.9736C12.8 15.4938 13.17 15.0439 13.6 14.6541L16.33 12.1352C16.83 11.6853 17.47 11.4554 18.14 11.4954C18.64 11.5254 19.11 11.6953 19.5 11.9852V5.99771C19.5 4.61828 20.62 3.49875 22 3.49875C23.38 3.49875 24.5 4.61828 24.5 5.99771H24.48ZM10.51 5.86776L14.13 7.07726C14.64 7.24719 14.98 7.71699 14.98 8.25677C14.98 8.94648 14.42 9.49625 13.74 9.49625H11.43C10.81 9.49625 10.23 9.16639 9.91 8.61662C9.77 8.37672 9.47 8.29675 9.23 8.43669C8.99 8.57663 8.91 8.87651 9.05 9.11641C9.54 9.96606 10.45 10.4958 11.43 10.4958H11.98V10.9956C11.98 11.2755 12.2 11.4954 12.48 11.4954C12.76 11.4954 12.98 11.2755 12.98 10.9956V10.4958H13.74C14.98 10.4958 15.98 9.48626 15.98 8.25677C15.98 7.28717 15.36 6.43753 14.45 6.12766L10.83 4.91816C10.32 4.74823 9.98 4.27843 9.98 3.73865C9.98 3.04894 10.54 2.49917 11.22 2.49917H13.53C14.15 2.49917 14.73 2.82903 15.05 3.3788C15.19 3.6187 15.49 3.69867 15.73 3.55873C15.97 3.41878 16.05 3.11891 15.91 2.87901C15.42 2.02936 14.51 1.49958 13.53 1.49958H12.98V0.999792C12.98 0.719908 12.76 0.5 12.48 0.5C12.2 0.5 11.98 0.719908 11.98 0.999792V1.49958H11.22C9.98 1.49958 8.98 2.50916 8.98 3.73865C8.98 4.70825 9.6 5.55789 10.51 5.86776Z"/>
</mask>
<path d="M24.48 5.99771V16.0935C24.48 18.0927 23.7 19.9819 22.28 21.3913L19.33 24.3401C19.23 24.44 19.1 24.49 18.98 24.49C18.86 24.49 18.72 24.44 18.63 24.3401C18.43 24.1402 18.43 23.8303 18.63 23.6304L21.58 20.6816C22.81 19.4521 23.48 17.8228 23.48 16.0835V5.99771C23.48 5.16806 22.81 4.49833 21.98 4.49833C21.15 4.49833 20.48 5.16806 20.48 5.99771V13.9944C20.48 13.9944 20.48 14.0344 20.48 14.0544C20.47 14.6041 20.27 15.1439 19.9 15.5937L17.26 18.3426C17.16 18.4425 17.03 18.4925 16.9 18.4925C16.77 18.4925 16.65 18.4425 16.55 18.3526C16.35 18.1626 16.34 17.8428 16.54 17.6429L19.16 14.924C19.38 14.6641 19.49 14.3442 19.49 14.0144C19.49 14.0144 19.49 14.0044 19.49 13.9944V13.9444C19.48 13.6045 19.35 13.2647 19.11 12.9848C18.84 12.6849 18.48 12.515 18.08 12.485C17.69 12.485 17.3 12.595 17 12.8648L14.27 15.3738C13.75 15.8436 13.34 16.4034 13.04 17.0331C13.34 17.7828 13.5 18.5925 13.5 19.4121V23.9702C13.5 24.2501 13.28 24.47 13 24.47C12.72 24.47 12.5 24.2501 12.5 23.9702V19.4121C12.5 17.8828 11.85 16.4034 10.72 15.3638L7.99 12.8449C7.7 12.585 7.31 12.465 6.91 12.465C6.51 12.485 6.14 12.6649 5.88 12.9648C5.39 13.5146 5.37 14.3542 5.85 14.924L8.44 17.6229C8.63 17.8228 8.63 18.1426 8.43 18.3326C8.23 18.5225 7.91 18.5225 7.72 18.3226L5.1 15.6037C4.72 15.1539 4.53 14.6141 4.5 14.0743C4.5 14.0444 4.5 14.0144 4.5 13.9744V5.99771C4.5 5.16806 3.83 4.49833 3 4.49833C2.17 4.49833 1.5 5.16806 1.5 5.99771V16.0935C1.5 17.8328 2.18 19.4621 3.4 20.6916L6.35 23.6404C6.55 23.8403 6.55 24.1501 6.35 24.3501C6.25 24.45 6.12 24.5 6 24.5C5.88 24.5 5.74 24.45 5.65 24.3501L2.7 21.4013C1.28 19.9819 0.5 18.1027 0.5 16.1035V5.99771C0.5 4.61828 1.62 3.49875 3 3.49875C4.38 3.49875 5.5 4.61828 5.5 5.99771V11.9952C5.89 11.7053 6.36 11.5254 6.86 11.5054C7.53 11.4554 8.17 11.6953 8.66 12.1352L11.4 14.6541C11.83 15.0439 12.19 15.4938 12.5 15.9736C12.8 15.4938 13.17 15.0439 13.6 14.6541L16.33 12.1352C16.83 11.6853 17.47 11.4554 18.14 11.4954C18.64 11.5254 19.11 11.6953 19.5 11.9852V5.99771C19.5 4.61828 20.62 3.49875 22 3.49875C23.38 3.49875 24.5 4.61828 24.5 5.99771H24.48ZM10.51 5.86776L14.13 7.07726C14.64 7.24719 14.98 7.71699 14.98 8.25677C14.98 8.94648 14.42 9.49625 13.74 9.49625H11.43C10.81 9.49625 10.23 9.16639 9.91 8.61662C9.77 8.37672 9.47 8.29675 9.23 8.43669C8.99 8.57663 8.91 8.87651 9.05 9.11641C9.54 9.96606 10.45 10.4958 11.43 10.4958H11.98V10.9956C11.98 11.2755 12.2 11.4954 12.48 11.4954C12.76 11.4954 12.98 11.2755 12.98 10.9956V10.4958H13.74C14.98 10.4958 15.98 9.48626 15.98 8.25677C15.98 7.28717 15.36 6.43753 14.45 6.12766L10.83 4.91816C10.32 4.74823 9.98 4.27843 9.98 3.73865C9.98 3.04894 10.54 2.49917 11.22 2.49917H13.53C14.15 2.49917 14.73 2.82903 15.05 3.3788C15.19 3.6187 15.49 3.69867 15.73 3.55873C15.97 3.41878 16.05 3.11891 15.91 2.87901C15.42 2.02936 14.51 1.49958 13.53 1.49958H12.98V0.999792C12.98 0.719908 12.76 0.5 12.48 0.5C12.2 0.5 11.98 0.719908 11.98 0.999792V1.49958H11.22C9.98 1.49958 8.98 2.50916 8.98 3.73865C8.98 4.70825 9.6 5.55789 10.51 5.86776Z" fill="#556987"/>
<path d="M24.48 5.99771V16.0935C24.48 18.0927 23.7 19.9819 22.28 21.3913L19.33 24.3401C19.23 24.44 19.1 24.49 18.98 24.49C18.86 24.49 18.72 24.44 18.63 24.3401C18.43 24.1402 18.43 23.8303 18.63 23.6304L21.58 20.6816C22.81 19.4521 23.48 17.8228 23.48 16.0835V5.99771C23.48 5.16806 22.81 4.49833 21.98 4.49833C21.15 4.49833 20.48 5.16806 20.48 5.99771V13.9944C20.48 13.9944 20.48 14.0344 20.48 14.0544C20.47 14.6041 20.27 15.1439 19.9 15.5937L17.26 18.3426C17.16 18.4425 17.03 18.4925 16.9 18.4925C16.77 18.4925 16.65 18.4425 16.55 18.3526C16.35 18.1626 16.34 17.8428 16.54 17.6429L19.16 14.924C19.38 14.6641 19.49 14.3442 19.49 14.0144C19.49 14.0144 19.49 14.0044 19.49 13.9944V13.9444C19.48 13.6045 19.35 13.2647 19.11 12.9848C18.84 12.6849 18.48 12.515 18.08 12.485C17.69 12.485 17.3 12.595 17 12.8648L14.27 15.3738C13.75 15.8436 13.34 16.4034 13.04 17.0331C13.34 17.7828 13.5 18.5925 13.5 19.4121V23.9702C13.5 24.2501 13.28 24.47 13 24.47C12.72 24.47 12.5 24.2501 12.5 23.9702V19.4121C12.5 17.8828 11.85 16.4034 10.72 15.3638L7.99 12.8449C7.7 12.585 7.31 12.465 6.91 12.465C6.51 12.485 6.14 12.6649 5.88 12.9648C5.39 13.5146 5.37 14.3542 5.85 14.924L8.44 17.6229C8.63 17.8228 8.63 18.1426 8.43 18.3326C8.23 18.5225 7.91 18.5225 7.72 18.3226L5.1 15.6037C4.72 15.1539 4.53 14.6141 4.5 14.0743C4.5 14.0444 4.5 14.0144 4.5 13.9744V5.99771C4.5 5.16806 3.83 4.49833 3 4.49833C2.17 4.49833 1.5 5.16806 1.5 5.99771V16.0935C1.5 17.8328 2.18 19.4621 3.4 20.6916L6.35 23.6404C6.55 23.8403 6.55 24.1501 6.35 24.3501C6.25 24.45 6.12 24.5 6 24.5C5.88 24.5 5.74 24.45 5.65 24.3501L2.7 21.4013C1.28 19.9819 0.5 18.1027 0.5 16.1035V5.99771C0.5 4.61828 1.62 3.49875 3 3.49875C4.38 3.49875 5.5 4.61828 5.5 5.99771V11.9952C5.89 11.7053 6.36 11.5254 6.86 11.5054C7.53 11.4554 8.17 11.6953 8.66 12.1352L11.4 14.6541C11.83 15.0439 12.19 15.4938 12.5 15.9736C12.8 15.4938 13.17 15.0439 13.6 14.6541L16.33 12.1352C16.83 11.6853 17.47 11.4554 18.14 11.4954C18.64 11.5254 19.11 11.6953 19.5 11.9852V5.99771C19.5 4.61828 20.62 3.49875 22 3.49875C23.38 3.49875 24.5 4.61828 24.5 5.99771H24.48ZM10.51 5.86776L14.13 7.07726C14.64 7.24719 14.98 7.71699 14.98 8.25677C14.98 8.94648 14.42 9.49625 13.74 9.49625H11.43C10.81 9.49625 10.23 9.16639 9.91 8.61662C9.77 8.37672 9.47 8.29675 9.23 8.43669C8.99 8.57663 8.91 8.87651 9.05 9.11641C9.54 9.96606 10.45 10.4958 11.43 10.4958H11.98V10.9956C11.98 11.2755 12.2 11.4954 12.48 11.4954C12.76 11.4954 12.98 11.2755 12.98 10.9956V10.4958H13.74C14.98 10.4958 15.98 9.48626 15.98 8.25677C15.98 7.28717 15.36 6.43753 14.45 6.12766L10.83 4.91816C10.32 4.74823 9.98 4.27843 9.98 3.73865C9.98 3.04894 10.54 2.49917 11.22 2.49917H13.53C14.15 2.49917 14.73 2.82903 15.05 3.3788C15.19 3.6187 15.49 3.69867 15.73 3.55873C15.97 3.41878 16.05 3.11891 15.91 2.87901C15.42 2.02936 14.51 1.49958 13.53 1.49958H12.98V0.999792C12.98 0.719908 12.76 0.5 12.48 0.5C12.2 0.5 11.98 0.719908 11.98 0.999792V1.49958H11.22C9.98 1.49958 8.98 2.50916 8.98 3.73865C8.98 4.70825 9.6 5.55789 10.51 5.86776Z" stroke="#556987" mask="url(#path-1-outside-1_696_179)"/>
</svg>
