<svg width="231" height="196" viewBox="0 0 231 196" fill="none" xmlns="http://www.w3.org/2000/svg">
<path d="M118.701 176.362C118.211 174.762 117.451 173.302 116.491 172.002C113.791 168.352 109.461 166.022 104.681 166.022C104.211 166.022 103.741 166.042 103.271 166.092C102.051 166.212 100.891 166.482 99.7813 166.872C98.2013 167.432 96.7514 168.232 95.4814 169.252C94.4114 170.102 93.4814 171.102 92.6914 172.212C90.7114 174.992 89.6813 178.462 90.0313 182.122C90.7613 189.732 97.1614 195.432 104.651 195.432C105.121 195.432 105.591 195.412 106.061 195.362C113.791 194.622 119.531 188.032 119.351 180.382C119.341 180.032 119.341 179.682 119.301 179.322C119.201 178.302 118.991 177.312 118.701 176.362Z" fill="#003159"/>
<path d="M196.792 161.452C195.712 160.562 194.502 159.832 193.202 159.282C191.592 158.602 189.842 158.212 188.022 158.152C187.862 158.142 187.692 158.132 187.532 158.132C187.062 158.132 186.592 158.152 186.122 158.202C181.202 158.672 177.082 161.522 174.792 165.502C173.902 167.032 173.302 168.732 173.012 170.532C172.822 171.732 172.762 172.962 172.882 174.232C172.902 174.392 172.932 174.542 172.952 174.702C173.892 182.072 180.172 187.542 187.502 187.542C187.972 187.542 188.442 187.522 188.912 187.472C196.992 186.702 202.922 179.522 202.152 171.442C201.762 167.362 199.732 163.842 196.792 161.452Z" fill="#003159"/>
<path d="M64.5718 86.1222L62.0118 59.2722C60.7718 46.2522 49.7818 36.4722 36.9618 36.4722C36.1618 36.4722 35.3618 36.5122 34.5518 36.5822L10.5018 38.8722C4.13181 39.4822 -0.548185 45.1522 0.0518147 51.5322C0.621815 57.5422 5.68182 62.0422 11.5918 62.0422C11.9618 62.0422 12.3318 62.0222 12.7018 61.9922L36.7518 59.7022C36.8118 59.6922 36.8818 59.6922 36.9418 59.6922C37.9518 59.6922 38.8118 60.4622 38.9018 61.4822L41.4618 88.3322C41.9318 93.3022 42.7918 98.1522 43.9918 102.852C45.3918 101.422 47.1418 100.322 49.1618 99.7022L65.8818 94.5422C65.2918 91.7822 64.8518 88.9822 64.5718 86.1222Z" fill="#003159"/>
<path d="M229.872 70.3722L228.542 56.4621C227.972 50.4521 222.912 45.9521 217.002 45.9521C216.632 45.9521 216.262 45.9721 215.892 46.0021C209.512 46.6121 204.832 52.2721 205.442 58.6521L206.772 72.5621C206.962 74.5521 207.042 76.5321 207.072 78.4921C207.382 103.062 195.022 125.352 175.662 138.492C166.072 144.992 154.772 149.262 142.452 150.432C140.162 150.652 137.882 150.762 135.622 150.762C126.622 150.762 117.942 149.062 109.922 145.942C102.282 142.972 95.2421 138.712 89.0921 133.412L87.1321 139.052C85.3921 144.052 80.8521 147.282 75.5521 147.282C70.4621 147.282 65.9821 144.212 64.1321 139.472L59.9721 128.772L52.9121 125.202C61.8121 141.212 75.1921 154.252 91.1921 162.812C94.4721 160.342 98.3621 158.792 102.542 158.392C103.252 158.322 103.972 158.292 104.692 158.292C114.522 158.292 122.872 164.542 125.892 173.472C129.092 173.802 132.332 173.992 135.602 173.992C138.592 173.992 141.612 173.852 144.652 173.562C151.862 172.872 158.792 171.362 165.392 169.182C166.022 165.312 167.652 161.652 170.212 158.552C174.032 153.932 179.422 151.072 185.382 150.502C186.092 150.432 186.812 150.402 187.532 150.402C190.582 150.402 193.482 151.012 196.132 152.112C219.342 132.752 232.952 102.652 229.872 70.3722Z" fill="#003159"/>
<path d="M198.823 70.7419C194.723 67.9619 189.883 65.8219 184.383 64.3819C196.673 56.7019 202.293 45.1819 201.043 32.0719C199.003 10.6919 179.373 -3.10807 140.463 0.601926L90.4226 5.37193C76.4026 6.70193 66.1326 19.1519 67.4626 33.1619L72.8426 89.6019C72.9826 90.4819 73.1426 91.3519 73.3226 92.2219L83.8926 88.9619C85.0826 88.5919 86.3126 88.4119 87.5326 88.4119C91.4726 88.4119 95.2026 90.3519 97.5026 93.5919C99.8226 96.8619 100.403 100.912 99.0726 104.712L91.8426 125.492C92.2126 125.842 92.5826 126.202 92.9626 126.552C104.723 137.182 119.873 143.042 135.603 143.042C137.623 143.042 139.673 142.942 141.693 142.752C158.593 141.142 173.873 133.022 184.723 119.892C195.573 106.762 200.653 90.2219 199.043 73.3219L198.823 70.7419ZM114.993 36.6019L137.173 34.4919C147.863 33.4719 153.043 36.6419 153.693 43.5019C154.343 50.3619 149.853 54.4519 139.163 55.4619L116.983 57.5719L114.993 36.6019ZM150.733 108.482L122.103 111.212L119.993 89.0319L148.623 86.3019C159.103 85.3019 164.713 88.6319 165.403 95.8919C166.103 103.152 161.223 107.482 150.733 108.482Z" fill="#129F49"/>
<path d="M87.5321 95.4121C87.0221 95.4121 86.4921 95.4921 85.9521 95.6521L51.2321 106.372C46.7121 107.762 46.1921 113.952 50.4121 116.082L63.7221 122.822C64.8821 123.412 65.7721 124.402 66.2421 125.602L70.6521 136.922C71.5221 139.162 73.5321 140.272 75.5521 140.272C77.6321 140.272 79.7021 139.092 80.5221 136.742L92.4821 102.392C93.7021 98.8621 90.9821 95.4121 87.5321 95.4121Z" fill="#129F49"/>
</svg>
