<svg width="24" height="24" viewBox="0 0 24 24" fill="none" xmlns="http://www.w3.org/2000/svg">
<path d="M9.45402 8.99995C10.0588 8.26795 10.9744 7.79995 11.9992 7.79995C13.024 7.79995 13.9396 8.26795 14.5444 8.99995C14.9426 9.48273 15.1953 10.0688 15.2731 10.6897C15.3508 11.3107 15.2504 11.9409 14.9835 12.507C14.7166 13.073 14.2943 13.5515 13.7658 13.8866C13.2373 14.2218 12.6244 14.3997 11.9986 14.3997C11.3728 14.3997 10.7599 14.2218 10.2314 13.8866C9.70292 13.5515 9.2806 13.073 9.01373 12.507C8.74686 11.9409 8.64644 11.3107 8.72418 10.6897C8.80193 10.0688 9.05463 9.48273 9.45282 8.99995M16.498 11.1C16.498 10.3416 16.3108 9.62635 15.9796 8.99995H20.9992C21.4766 8.99995 21.9344 9.18959 22.272 9.52716C22.6096 9.86472 22.7992 10.3226 22.7992 10.8V11.4C22.7992 13.3044 21.352 15.2544 18.8212 15.9408C18.5611 15.4736 18.1809 15.0844 17.7199 14.8135C17.2589 14.5426 16.7339 14.3998 16.1992 14.4H15.0592C15.5141 13.9791 15.8768 13.4686 16.1247 12.9007C16.3725 12.3327 16.5 11.7196 16.4992 11.1M16.1992 15.6C16.4358 15.5993 16.6701 15.6454 16.8888 15.7357C17.1075 15.8259 17.3062 15.9585 17.4734 16.1257C17.6407 16.293 17.7733 16.4917 17.8635 16.7104C17.9537 16.929 17.9999 17.1634 17.9992 17.4V18C17.9992 20.3652 15.7672 22.8 11.9992 22.8C8.23122 22.8 5.99922 20.3652 5.99922 18V17.4C5.99859 17.1634 6.04471 16.929 6.13495 16.7104C6.22518 16.4917 6.35774 16.293 6.52501 16.1257C6.69229 15.9585 6.89097 15.8259 7.10964 15.7357C7.32831 15.6454 7.56266 15.5993 7.79922 15.6H16.1992ZM1.19922 11.4C1.19922 13.3044 2.64642 15.2544 5.17722 15.9408C5.4373 15.4736 5.81751 15.0844 6.27851 14.8135C6.7395 14.5426 7.26452 14.3998 7.79922 14.4H8.93922C8.48438 13.9791 8.12162 13.4686 7.87379 12.9007C7.62595 12.3327 7.49842 11.7196 7.49922 11.1C7.49922 10.3416 7.68642 9.62635 8.01882 8.99995H2.99922C2.52183 8.99995 2.06399 9.18959 1.72643 9.52716C1.38886 9.86472 1.19922 10.3226 1.19922 10.8V11.4ZM10.4992 4.49995C10.4992 3.62474 10.1515 2.78537 9.53267 2.1665C8.9138 1.54763 8.07443 1.19995 7.19922 1.19995C6.324 1.19995 5.48464 1.54763 4.86577 2.1665C4.2469 2.78537 3.89922 3.62474 3.89922 4.49995C3.89922 5.37517 4.2469 6.21453 4.86577 6.8334C5.48464 7.45227 6.324 7.79995 7.19922 7.79995C8.07443 7.79995 8.9138 7.45227 9.53267 6.8334C10.1515 6.21453 10.4992 5.37517 10.4992 4.49995ZM20.0992 4.49995C20.0992 3.62474 19.7515 2.78537 19.1327 2.1665C18.5138 1.54763 17.6744 1.19995 16.7992 1.19995C15.924 1.19995 15.0846 1.54763 14.4658 2.1665C13.8469 2.78537 13.4992 3.62474 13.4992 4.49995C13.4992 5.37517 13.8469 6.21453 14.4658 6.8334C15.0846 7.45227 15.924 7.79995 16.7992 7.79995C17.6744 7.79995 18.5138 7.45227 19.1327 6.8334C19.7515 6.21453 20.0992 5.37517 20.0992 4.49995Z" fill="#717171"/>
</svg>
