<svg width="84" height="71" viewBox="0 0 84 71" fill="none" xmlns="http://www.w3.org/2000/svg">
<path d="M43.2941 64.0718C43.1154 63.4905 42.8382 62.9601 42.488 62.4878C41.5032 61.1618 39.9239 60.3153 38.1805 60.3153C38.0091 60.3153 37.8376 60.3226 37.6662 60.3407C37.2212 60.3843 36.7981 60.4824 36.3933 60.6241C35.817 60.8276 35.2881 61.1182 34.8249 61.4888C34.4347 61.7976 34.0955 62.1609 33.8073 62.5641C33.0851 63.5741 32.7095 64.8347 32.8371 66.1644C33.1034 68.9291 35.4377 70.9999 38.1695 70.9999C38.341 70.9999 38.5124 70.9926 38.6838 70.9745C41.5032 70.7056 43.5968 68.3115 43.5312 65.5323C43.5275 65.4051 43.5275 65.278 43.5129 65.1472C43.4765 64.7766 43.3999 64.4169 43.2941 64.0718Z" fill="white"/>
<path d="M71.7766 58.6551C71.3827 58.3318 70.9414 58.0666 70.4672 57.8668C69.88 57.6197 69.2417 57.478 68.5779 57.4562C68.5196 57.4526 68.4575 57.449 68.3992 57.449C68.2278 57.449 68.0563 57.4562 67.8849 57.4744C66.0904 57.6452 64.5877 58.6806 63.7525 60.1265C63.4278 60.6823 63.209 61.2999 63.1032 61.9539C63.0339 62.3898 63.012 62.8367 63.0558 63.2981C63.0631 63.3562 63.074 63.4107 63.0813 63.4688C63.4242 66.1463 65.7147 68.1336 68.3882 68.1336C68.5597 68.1336 68.7311 68.1263 68.9025 68.1081C71.8496 67.8284 74.0125 65.2199 73.7316 62.2845C73.5894 60.8022 72.849 59.5234 71.7766 58.6551Z" fill="white"/>
<path d="M23.5516 31.2879L22.6179 21.5333C22.1656 16.8032 18.1572 13.2501 13.4813 13.2501C13.1895 13.2501 12.8977 13.2647 12.6023 13.2901L3.83039 14.122C1.50702 14.3436 -0.199943 16.4035 0.0188987 18.7214C0.226798 20.9048 2.07236 22.5396 4.22795 22.5396C4.3629 22.5396 4.49785 22.5324 4.6328 22.5215L13.4047 21.6895C13.4266 21.6859 13.4521 21.6859 13.474 21.6859C13.8424 21.6859 14.1561 21.9656 14.1889 22.3362L15.1226 32.0907C15.294 33.8963 15.6077 35.6583 16.0454 37.3658C16.556 36.8463 17.1943 36.4467 17.9311 36.2214L24.0294 34.3468C23.8142 33.3441 23.6538 32.3269 23.5516 31.2879Z" fill="white"/>
<path d="M83.8424 25.5659L83.3573 20.5125C83.1494 18.3291 81.3039 16.6942 79.1483 16.6942C79.0133 16.6942 78.8784 16.7015 78.7434 16.7124C76.4164 16.934 74.7094 18.9903 74.9319 21.3081L75.417 26.3616C75.4863 27.0845 75.5155 27.8039 75.5265 28.5159C75.6395 37.4422 71.1314 45.5401 64.0701 50.3138C60.5723 52.6752 56.4508 54.2265 51.9572 54.6516C51.122 54.7315 50.2904 54.7715 49.4661 54.7715C46.1835 54.7715 43.0176 54.1539 40.0924 53.0204C37.3058 51.9414 34.7381 50.3937 32.495 48.4682L31.7801 50.5173C31.1454 52.3337 29.4895 53.5072 27.5564 53.5072C25.6999 53.5072 24.0659 52.3919 23.3912 50.6698L21.8739 46.7825L19.2988 45.4856C22.545 51.302 27.4251 56.0394 33.2609 59.1492C34.4572 58.2519 35.8761 57.6887 37.4007 57.5434C37.6596 57.518 37.9222 57.5071 38.1848 57.5071C41.7702 57.5071 44.8157 59.7777 45.9172 63.022C47.0844 63.1418 48.2661 63.2109 49.4588 63.2109C50.5494 63.2109 51.6509 63.16 52.7597 63.0547C55.3894 62.804 57.917 62.2554 60.3243 61.4634C60.5541 60.0574 61.1486 58.7278 62.0823 57.6016C63.4756 55.9231 65.4415 54.8841 67.6153 54.677C67.8743 54.6516 68.1369 54.6407 68.3995 54.6407C69.512 54.6407 70.5697 54.8623 71.5363 55.2619C80.0018 48.2285 84.9658 37.2932 83.8424 25.5659Z" fill="white"/>
<path d="M72.5164 25.7004C71.021 24.6904 69.2557 23.913 67.2496 23.3898C71.7322 20.5997 73.7821 16.4145 73.3261 11.6517C72.5821 3.88435 65.4223 -1.12916 51.2305 0.218678L32.9791 1.95161C27.8655 2.4348 24.1197 6.95785 24.6048 12.0477L26.567 32.5522C26.6181 32.8719 26.6765 33.188 26.7421 33.504L30.5974 32.3197C31.0314 32.1853 31.48 32.1199 31.925 32.1199C33.3621 32.1199 34.7225 32.8247 35.5614 34.0017C36.4076 35.1897 36.6192 36.6611 36.1341 38.0416L33.497 45.591C33.632 45.7181 33.7669 45.8489 33.9055 45.976C38.1948 49.8379 43.7206 51.9668 49.4578 51.9668C50.1946 51.9668 50.9423 51.9305 51.6791 51.8615C57.8431 51.2766 63.4163 48.3266 67.3737 43.5565C71.331 38.7864 73.1839 32.7774 72.5967 26.6377L72.5164 25.7004ZM41.9406 13.2974L50.0305 12.5308C53.9295 12.1603 55.8188 13.3119 56.0559 15.8042C56.293 18.2964 54.6553 19.7823 50.7563 20.1492L42.6665 20.9158L41.9406 13.2974ZM54.9763 39.4113L44.5339 40.4031L43.7643 32.3451L54.2067 31.3533C58.0291 30.99 60.0753 32.1998 60.327 34.8373C60.5823 37.4749 58.8024 39.048 54.9763 39.4113Z" fill="#0BC754"/>
<path d="M31.9259 34.663C31.7398 34.663 31.5465 34.692 31.3496 34.7502L18.686 38.6447C17.0374 39.1497 16.8477 41.3985 18.3869 42.1723L23.2415 44.621C23.6646 44.8353 23.9892 45.195 24.1606 45.6309L25.7691 49.7435C26.0864 50.5572 26.8196 50.9605 27.5563 50.9605C28.315 50.9605 29.07 50.5318 29.3691 49.6781L33.7313 37.1988C34.1763 35.9163 33.1842 34.663 31.9259 34.663Z" fill="#0BC754"/>
</svg>
