<svg width="25" height="26" viewBox="0 0 25 26" fill="none" xmlns="http://www.w3.org/2000/svg">
<mask id="path-1-outside-1_233_929" maskUnits="userSpaceOnUse" x="-0.5" y="0" width="26" height="26" fill="black">
<rect fill="white" x="-0.5" width="26" height="26"/>
<path d="M24.48 6.49771V16.5935C24.48 18.5927 23.7 20.4819 22.28 21.8913L19.33 24.8401C19.23 24.94 19.1 24.99 18.98 24.99C18.86 24.99 18.72 24.94 18.63 24.8401C18.43 24.6402 18.43 24.3303 18.63 24.1304L21.58 21.1816C22.81 19.9521 23.48 18.3228 23.48 16.5835V6.49771C23.48 5.66806 22.81 4.99833 21.98 4.99833C21.15 4.99833 20.48 5.66806 20.48 6.49771V14.4944C20.48 14.4944 20.48 14.5344 20.48 14.5544C20.47 15.1041 20.27 15.6439 19.9 16.0937L17.26 18.8426C17.16 18.9425 17.03 18.9925 16.9 18.9925C16.77 18.9925 16.65 18.9425 16.55 18.8526C16.35 18.6626 16.34 18.3428 16.54 18.1429L19.16 15.424C19.38 15.1641 19.49 14.8442 19.49 14.5144C19.49 14.5144 19.49 14.5044 19.49 14.4944V14.4444C19.48 14.1045 19.35 13.7647 19.11 13.4848C18.84 13.1849 18.48 13.015 18.08 12.985C17.69 12.985 17.3 13.095 17 13.3648L14.27 15.8738C13.75 16.3436 13.34 16.9034 13.04 17.5331C13.34 18.2828 13.5 19.0925 13.5 19.9121V24.4702C13.5 24.7501 13.28 24.97 13 24.97C12.72 24.97 12.5 24.7501 12.5 24.4702V19.9121C12.5 18.3828 11.85 16.9034 10.72 15.8638L7.99 13.3449C7.7 13.085 7.31 12.965 6.91 12.965C6.51 12.985 6.14 13.1649 5.88 13.4648C5.39 14.0146 5.37 14.8542 5.85 15.424L8.44 18.1229C8.63 18.3228 8.63 18.6426 8.43 18.8326C8.23 19.0225 7.91 19.0225 7.72 18.8226L5.1 16.1037C4.72 15.6539 4.53 15.1141 4.5 14.5743C4.5 14.5444 4.5 14.5144 4.5 14.4744V6.49771C4.5 5.66806 3.83 4.99833 3 4.99833C2.17 4.99833 1.5 5.66806 1.5 6.49771V16.5935C1.5 18.3328 2.18 19.9621 3.4 21.1916L6.35 24.1404C6.55 24.3403 6.55 24.6501 6.35 24.8501C6.25 24.95 6.12 25 6 25C5.88 25 5.74 24.95 5.65 24.8501L2.7 21.9013C1.28 20.4819 0.5 18.6027 0.5 16.6035V6.49771C0.5 5.11828 1.62 3.99875 3 3.99875C4.38 3.99875 5.5 5.11828 5.5 6.49771V12.4952C5.89 12.2053 6.36 12.0254 6.86 12.0054C7.53 11.9554 8.17 12.1953 8.66 12.6352L11.4 15.1541C11.83 15.5439 12.19 15.9938 12.5 16.4736C12.8 15.9938 13.17 15.5439 13.6 15.1541L16.33 12.6352C16.83 12.1853 17.47 11.9554 18.14 11.9954C18.64 12.0254 19.11 12.1953 19.5 12.4852V6.49771C19.5 5.11828 20.62 3.99875 22 3.99875C23.38 3.99875 24.5 5.11828 24.5 6.49771H24.48ZM10.51 6.36776L14.13 7.57726C14.64 7.74719 14.98 8.21699 14.98 8.75677C14.98 9.44648 14.42 9.99625 13.74 9.99625H11.43C10.81 9.99625 10.23 9.66639 9.91 9.11662C9.77 8.87672 9.47 8.79675 9.23 8.93669C8.99 9.07663 8.91 9.37651 9.05 9.61641C9.54 10.4661 10.45 10.9958 11.43 10.9958H11.98V11.4956C11.98 11.7755 12.2 11.9954 12.48 11.9954C12.76 11.9954 12.98 11.7755 12.98 11.4956V10.9958H13.74C14.98 10.9958 15.98 9.98626 15.98 8.75677C15.98 7.78717 15.36 6.93753 14.45 6.62766L10.83 5.41816C10.32 5.24823 9.98 4.77843 9.98 4.23865C9.98 3.54894 10.54 2.99917 11.22 2.99917H13.53C14.15 2.99917 14.73 3.32903 15.05 3.8788C15.19 4.1187 15.49 4.19867 15.73 4.05873C15.97 3.91878 16.05 3.61891 15.91 3.37901C15.42 2.52936 14.51 1.99958 13.53 1.99958H12.98V1.49979C12.98 1.21991 12.76 1 12.48 1C12.2 1 11.98 1.21991 11.98 1.49979V1.99958H11.22C9.98 1.99958 8.98 3.00916 8.98 4.23865C8.98 5.20825 9.6 6.05789 10.51 6.36776Z"/>
</mask>
<path d="M24.48 6.49771V16.5935C24.48 18.5927 23.7 20.4819 22.28 21.8913L19.33 24.8401C19.23 24.94 19.1 24.99 18.98 24.99C18.86 24.99 18.72 24.94 18.63 24.8401C18.43 24.6402 18.43 24.3303 18.63 24.1304L21.58 21.1816C22.81 19.9521 23.48 18.3228 23.48 16.5835V6.49771C23.48 5.66806 22.81 4.99833 21.98 4.99833C21.15 4.99833 20.48 5.66806 20.48 6.49771V14.4944C20.48 14.4944 20.48 14.5344 20.48 14.5544C20.47 15.1041 20.27 15.6439 19.9 16.0937L17.26 18.8426C17.16 18.9425 17.03 18.9925 16.9 18.9925C16.77 18.9925 16.65 18.9425 16.55 18.8526C16.35 18.6626 16.34 18.3428 16.54 18.1429L19.16 15.424C19.38 15.1641 19.49 14.8442 19.49 14.5144C19.49 14.5144 19.49 14.5044 19.49 14.4944V14.4444C19.48 14.1045 19.35 13.7647 19.11 13.4848C18.84 13.1849 18.48 13.015 18.08 12.985C17.69 12.985 17.3 13.095 17 13.3648L14.27 15.8738C13.75 16.3436 13.34 16.9034 13.04 17.5331C13.34 18.2828 13.5 19.0925 13.5 19.9121V24.4702C13.5 24.7501 13.28 24.97 13 24.97C12.72 24.97 12.5 24.7501 12.5 24.4702V19.9121C12.5 18.3828 11.85 16.9034 10.72 15.8638L7.99 13.3449C7.7 13.085 7.31 12.965 6.91 12.965C6.51 12.985 6.14 13.1649 5.88 13.4648C5.39 14.0146 5.37 14.8542 5.85 15.424L8.44 18.1229C8.63 18.3228 8.63 18.6426 8.43 18.8326C8.23 19.0225 7.91 19.0225 7.72 18.8226L5.1 16.1037C4.72 15.6539 4.53 15.1141 4.5 14.5743C4.5 14.5444 4.5 14.5144 4.5 14.4744V6.49771C4.5 5.66806 3.83 4.99833 3 4.99833C2.17 4.99833 1.5 5.66806 1.5 6.49771V16.5935C1.5 18.3328 2.18 19.9621 3.4 21.1916L6.35 24.1404C6.55 24.3403 6.55 24.6501 6.35 24.8501C6.25 24.95 6.12 25 6 25C5.88 25 5.74 24.95 5.65 24.8501L2.7 21.9013C1.28 20.4819 0.5 18.6027 0.5 16.6035V6.49771C0.5 5.11828 1.62 3.99875 3 3.99875C4.38 3.99875 5.5 5.11828 5.5 6.49771V12.4952C5.89 12.2053 6.36 12.0254 6.86 12.0054C7.53 11.9554 8.17 12.1953 8.66 12.6352L11.4 15.1541C11.83 15.5439 12.19 15.9938 12.5 16.4736C12.8 15.9938 13.17 15.5439 13.6 15.1541L16.33 12.6352C16.83 12.1853 17.47 11.9554 18.14 11.9954C18.64 12.0254 19.11 12.1953 19.5 12.4852V6.49771C19.5 5.11828 20.62 3.99875 22 3.99875C23.38 3.99875 24.5 5.11828 24.5 6.49771H24.48ZM10.51 6.36776L14.13 7.57726C14.64 7.74719 14.98 8.21699 14.98 8.75677C14.98 9.44648 14.42 9.99625 13.74 9.99625H11.43C10.81 9.99625 10.23 9.66639 9.91 9.11662C9.77 8.87672 9.47 8.79675 9.23 8.93669C8.99 9.07663 8.91 9.37651 9.05 9.61641C9.54 10.4661 10.45 10.9958 11.43 10.9958H11.98V11.4956C11.98 11.7755 12.2 11.9954 12.48 11.9954C12.76 11.9954 12.98 11.7755 12.98 11.4956V10.9958H13.74C14.98 10.9958 15.98 9.98626 15.98 8.75677C15.98 7.78717 15.36 6.93753 14.45 6.62766L10.83 5.41816C10.32 5.24823 9.98 4.77843 9.98 4.23865C9.98 3.54894 10.54 2.99917 11.22 2.99917H13.53C14.15 2.99917 14.73 3.32903 15.05 3.8788C15.19 4.1187 15.49 4.19867 15.73 4.05873C15.97 3.91878 16.05 3.61891 15.91 3.37901C15.42 2.52936 14.51 1.99958 13.53 1.99958H12.98V1.49979C12.98 1.21991 12.76 1 12.48 1C12.2 1 11.98 1.21991 11.98 1.49979V1.99958H11.22C9.98 1.99958 8.98 3.00916 8.98 4.23865C8.98 5.20825 9.6 6.05789 10.51 6.36776Z" fill="white"/>
<path d="M24.48 6.49771V16.5935C24.48 18.5927 23.7 20.4819 22.28 21.8913L19.33 24.8401C19.23 24.94 19.1 24.99 18.98 24.99C18.86 24.99 18.72 24.94 18.63 24.8401C18.43 24.6402 18.43 24.3303 18.63 24.1304L21.58 21.1816C22.81 19.9521 23.48 18.3228 23.48 16.5835V6.49771C23.48 5.66806 22.81 4.99833 21.98 4.99833C21.15 4.99833 20.48 5.66806 20.48 6.49771V14.4944C20.48 14.4944 20.48 14.5344 20.48 14.5544C20.47 15.1041 20.27 15.6439 19.9 16.0937L17.26 18.8426C17.16 18.9425 17.03 18.9925 16.9 18.9925C16.77 18.9925 16.65 18.9425 16.55 18.8526C16.35 18.6626 16.34 18.3428 16.54 18.1429L19.16 15.424C19.38 15.1641 19.49 14.8442 19.49 14.5144C19.49 14.5144 19.49 14.5044 19.49 14.4944V14.4444C19.48 14.1045 19.35 13.7647 19.11 13.4848C18.84 13.1849 18.48 13.015 18.08 12.985C17.69 12.985 17.3 13.095 17 13.3648L14.27 15.8738C13.75 16.3436 13.34 16.9034 13.04 17.5331C13.34 18.2828 13.5 19.0925 13.5 19.9121V24.4702C13.5 24.7501 13.28 24.97 13 24.97C12.72 24.97 12.5 24.7501 12.5 24.4702V19.9121C12.5 18.3828 11.85 16.9034 10.72 15.8638L7.99 13.3449C7.7 13.085 7.31 12.965 6.91 12.965C6.51 12.985 6.14 13.1649 5.88 13.4648C5.39 14.0146 5.37 14.8542 5.85 15.424L8.44 18.1229C8.63 18.3228 8.63 18.6426 8.43 18.8326C8.23 19.0225 7.91 19.0225 7.72 18.8226L5.1 16.1037C4.72 15.6539 4.53 15.1141 4.5 14.5743C4.5 14.5444 4.5 14.5144 4.5 14.4744V6.49771C4.5 5.66806 3.83 4.99833 3 4.99833C2.17 4.99833 1.5 5.66806 1.5 6.49771V16.5935C1.5 18.3328 2.18 19.9621 3.4 21.1916L6.35 24.1404C6.55 24.3403 6.55 24.6501 6.35 24.8501C6.25 24.95 6.12 25 6 25C5.88 25 5.74 24.95 5.65 24.8501L2.7 21.9013C1.28 20.4819 0.5 18.6027 0.5 16.6035V6.49771C0.5 5.11828 1.62 3.99875 3 3.99875C4.38 3.99875 5.5 5.11828 5.5 6.49771V12.4952C5.89 12.2053 6.36 12.0254 6.86 12.0054C7.53 11.9554 8.17 12.1953 8.66 12.6352L11.4 15.1541C11.83 15.5439 12.19 15.9938 12.5 16.4736C12.8 15.9938 13.17 15.5439 13.6 15.1541L16.33 12.6352C16.83 12.1853 17.47 11.9554 18.14 11.9954C18.64 12.0254 19.11 12.1953 19.5 12.4852V6.49771C19.5 5.11828 20.62 3.99875 22 3.99875C23.38 3.99875 24.5 5.11828 24.5 6.49771H24.48ZM10.51 6.36776L14.13 7.57726C14.64 7.74719 14.98 8.21699 14.98 8.75677C14.98 9.44648 14.42 9.99625 13.74 9.99625H11.43C10.81 9.99625 10.23 9.66639 9.91 9.11662C9.77 8.87672 9.47 8.79675 9.23 8.93669C8.99 9.07663 8.91 9.37651 9.05 9.61641C9.54 10.4661 10.45 10.9958 11.43 10.9958H11.98V11.4956C11.98 11.7755 12.2 11.9954 12.48 11.9954C12.76 11.9954 12.98 11.7755 12.98 11.4956V10.9958H13.74C14.98 10.9958 15.98 9.98626 15.98 8.75677C15.98 7.78717 15.36 6.93753 14.45 6.62766L10.83 5.41816C10.32 5.24823 9.98 4.77843 9.98 4.23865C9.98 3.54894 10.54 2.99917 11.22 2.99917H13.53C14.15 2.99917 14.73 3.32903 15.05 3.8788C15.19 4.1187 15.49 4.19867 15.73 4.05873C15.97 3.91878 16.05 3.61891 15.91 3.37901C15.42 2.52936 14.51 1.99958 13.53 1.99958H12.98V1.49979C12.98 1.21991 12.76 1 12.48 1C12.2 1 11.98 1.21991 11.98 1.49979V1.99958H11.22C9.98 1.99958 8.98 3.00916 8.98 4.23865C8.98 5.20825 9.6 6.05789 10.51 6.36776Z" stroke="white" mask="url(#path-1-outside-1_233_929)"/>
</svg>
