<svg width="14" height="14" viewBox="0 0 14 14" fill="none" xmlns="http://www.w3.org/2000/svg">
<path d="M13.046 10.22L11.666 8.80663C11.3692 8.52446 10.9947 8.33751 10.5908 8.26979C10.1869 8.20208 9.77197 8.2567 9.39934 8.42663L8.79934 7.82663C9.50638 6.88191 9.82928 5.70441 9.70304 4.53119C9.5768 3.35796 9.01079 2.27611 8.11896 1.50343C7.22713 0.730744 6.0757 0.324599 4.89645 0.366751C3.71721 0.408902 2.59771 0.896221 1.76332 1.73061C0.928936 2.56499 0.441617 3.68449 0.399465 4.86374C0.357314 6.04298 0.763459 7.19442 1.53614 8.08625C2.30883 8.97808 3.39067 9.54408 4.5639 9.67032C5.73713 9.79656 6.91462 9.47366 7.85934 8.76663L8.45268 9.35996C8.26274 9.73305 8.19466 10.1563 8.25805 10.5702C8.32144 10.984 8.5131 11.3675 8.80601 11.6666L10.2193 13.08C10.5943 13.4545 11.1027 13.6649 11.6327 13.6649C12.1627 13.6649 12.671 13.4545 13.046 13.08C13.2365 12.8937 13.3879 12.6713 13.4912 12.4257C13.5945 12.1801 13.6478 11.9164 13.6478 11.65C13.6478 11.3835 13.5945 11.1198 13.4912 10.8742C13.3879 10.6287 13.2365 10.4062 13.046 10.22ZM7.39268 7.39329C6.92617 7.85863 6.33221 8.17526 5.68584 8.30319C5.03946 8.43113 4.36967 8.36463 3.76108 8.11209C3.15248 7.85955 2.63238 7.4323 2.26648 6.88432C1.90058 6.33634 1.7053 5.69221 1.7053 5.03329C1.7053 4.37438 1.90058 3.73025 2.26648 3.18227C2.63238 2.63429 3.15248 2.20704 3.76108 1.9545C4.36967 1.70196 5.03946 1.63546 5.68584 1.7634C6.33221 1.89133 6.92617 2.20796 7.39268 2.67329C7.7031 2.98293 7.94938 3.35077 8.11743 3.75574C8.28547 4.1607 8.37197 4.59485 8.37197 5.03329C8.37197 5.47174 8.28547 5.90588 8.11743 6.31085C7.94938 6.71582 7.7031 7.08366 7.39268 7.39329ZM12.106 12.1066C12.044 12.1691 11.9703 12.2187 11.8891 12.2526C11.8078 12.2864 11.7207 12.3038 11.6327 12.3038C11.5447 12.3038 11.4575 12.2864 11.3763 12.2526C11.2951 12.2187 11.2213 12.1691 11.1593 12.1066L9.74601 10.6933C9.68352 10.6313 9.63393 10.5576 9.60008 10.4763C9.56624 10.3951 9.54881 10.308 9.54881 10.22C9.54881 10.132 9.56624 10.0448 9.60008 9.96358C9.63393 9.88234 9.68352 9.8086 9.74601 9.74663C9.80799 9.68414 9.88172 9.63455 9.96296 9.6007C10.0442 9.56685 10.1313 9.54943 10.2193 9.54943C10.3074 9.54943 10.3945 9.56685 10.4757 9.6007C10.557 9.63455 10.6307 9.68414 10.6927 9.74663L12.106 11.16C12.1685 11.2219 12.2181 11.2957 12.2519 11.3769C12.2858 11.4581 12.3032 11.5453 12.3032 11.6333C12.3032 11.7213 12.2858 11.8084 12.2519 11.8897C12.2181 11.9709 12.1685 12.0447 12.106 12.1066Z" fill="#EEF3FF"/>
</svg>
