<svg width="241" height="88" viewBox="0 0 241 88" fill="none" xmlns="http://www.w3.org/2000/svg">
<path d="M27.9375 52V36H33.5313C34.6458 36 35.5651 36.1927 36.2891 36.5781C37.013 36.9583 37.5521 37.4714 37.9063 38.1172C38.2604 38.7578 38.4375 39.4687 38.4375 40.25C38.4375 40.9375 38.3151 41.5052 38.0703 41.9531C37.8307 42.401 37.513 42.7552 37.1172 43.0156C36.7266 43.276 36.3021 43.4687 35.8438 43.5937V43.75C36.3333 43.7812 36.8255 43.9531 37.3203 44.2656C37.8151 44.5781 38.2292 45.026 38.5625 45.6094C38.8958 46.1927 39.0625 46.9062 39.0625 47.75C39.0625 48.5521 38.8802 49.2734 38.5156 49.9141C38.151 50.5547 37.5755 51.0625 36.7891 51.4375C36.0026 51.8125 34.9792 52 33.7188 52H27.9375ZM29.875 50.2812H33.7188C34.9844 50.2812 35.8828 50.0365 36.4141 49.5469C36.9505 49.0521 37.2188 48.4531 37.2188 47.75C37.2188 47.2083 37.0807 46.7083 36.8047 46.25C36.5286 45.7865 36.1354 45.4167 35.625 45.1406C35.1146 44.8594 34.5104 44.7188 33.8125 44.7188H29.875V50.2812ZM29.875 43.0312H33.4688C34.0521 43.0312 34.5781 42.9167 35.0469 42.6875C35.5208 42.4583 35.8958 42.1354 36.1719 41.7187C36.4531 41.3021 36.5938 40.8125 36.5938 40.25C36.5938 39.5469 36.349 38.9505 35.8594 38.4609C35.3698 37.9661 34.5938 37.7187 33.5313 37.7187H29.875V43.0312ZM52.7461 36H54.6836V46.5937C54.6836 47.6875 54.4258 48.6641 53.9102 49.5234C53.3997 50.3776 52.6784 51.0521 51.7461 51.5469C50.8138 52.0365 49.7201 52.2813 48.4648 52.2813C47.2096 52.2813 46.1159 52.0365 45.1836 51.5469C44.2513 51.0521 43.5273 50.3776 43.0117 49.5234C42.5013 48.6641 42.2461 47.6875 42.2461 46.5937V36H44.1836V46.4375C44.1836 47.2187 44.3555 47.9141 44.6992 48.5234C45.043 49.1276 45.5326 49.6042 46.168 49.9531C46.8086 50.2969 47.5742 50.4687 48.4648 50.4687C49.3555 50.4687 50.1211 50.2969 50.7617 49.9531C51.4023 49.6042 51.8919 49.1276 52.2305 48.5234C52.5742 47.9141 52.7461 47.2187 52.7461 46.4375V36ZM63.4902 52H58.5527V36H63.709C65.2611 36 66.5892 36.3203 67.6934 36.9609C68.7975 37.5964 69.6439 38.5104 70.2324 39.7031C70.821 40.8906 71.1152 42.3125 71.1152 43.9687C71.1152 45.6354 70.8184 47.0703 70.2246 48.2734C69.6309 49.4714 68.7663 50.3932 67.6309 51.0391C66.4954 51.6797 65.1152 52 63.4902 52ZM60.4902 50.2812H63.3652C64.6882 50.2812 65.7845 50.026 66.6543 49.5156C67.5241 49.0052 68.1725 48.2786 68.5996 47.3359C69.0267 46.3932 69.2402 45.2708 69.2402 43.9687C69.2402 42.6771 69.0293 41.5651 68.6074 40.6328C68.1855 39.6953 67.5553 38.9766 66.7168 38.4766C65.8783 37.9714 64.834 37.7187 63.584 37.7187H60.4902V50.2812ZM85.3027 41C85.1309 40.474 84.9043 40.0026 84.623 39.5859C84.347 39.1641 84.0163 38.8047 83.6309 38.5078C83.2507 38.2109 82.8184 37.9844 82.334 37.8281C81.8496 37.6719 81.3184 37.5937 80.7402 37.5937C79.7923 37.5937 78.9303 37.8385 78.1543 38.3281C77.3783 38.8177 76.7611 39.5391 76.3027 40.4922C75.8444 41.4453 75.6152 42.6146 75.6152 44C75.6152 45.3854 75.847 46.5547 76.3105 47.5078C76.7741 48.4609 77.4017 49.1823 78.1934 49.6719C78.985 50.1615 79.8757 50.4062 80.8652 50.4062C81.7819 50.4062 82.5892 50.2109 83.2871 49.8203C83.9902 49.4245 84.5371 48.8672 84.9277 48.1484C85.3236 47.4245 85.5215 46.5729 85.5215 45.5937L86.1152 45.7187H81.3027V44H87.3965V45.7187C87.3965 47.0365 87.1152 48.1823 86.5527 49.1562C85.9954 50.1302 85.2246 50.8854 84.2402 51.4219C83.2611 51.9531 82.1361 52.2187 80.8652 52.2187C79.4486 52.2187 78.2038 51.8854 77.1309 51.2188C76.0632 50.5521 75.2298 49.6042 74.6309 48.375C74.0371 47.1458 73.7402 45.6875 73.7402 44C73.7402 42.7344 73.9095 41.5964 74.248 40.5859C74.5918 39.5703 75.0762 38.7057 75.7012 37.9922C76.3262 37.2786 77.0658 36.7318 77.9199 36.3516C78.7741 35.9714 79.7142 35.7812 80.7402 35.7812C81.584 35.7812 82.3704 35.9089 83.0996 36.1641C83.834 36.4141 84.4876 36.7708 85.0605 37.2344C85.6387 37.6927 86.1204 38.2422 86.5059 38.8828C86.8913 39.5182 87.1569 40.224 87.3027 41H85.3027ZM90.7148 52V36H100.371V37.7187H92.6523V43.125H99.8711V44.8437H92.6523V50.2812H100.496V52H90.7148ZM102.988 37.7187V36H114.988V37.7187H109.957V52H108.02V37.7187H102.988ZM117.979 52V36H119.916V43.9375H120.104L127.291 36H129.822L123.104 43.2187L129.822 52H127.479L121.916 44.5625L119.916 46.8125V52H117.979ZM145.078 44C145.078 45.6875 144.773 47.1458 144.164 48.375C143.555 49.6042 142.719 50.5521 141.656 51.2188C140.594 51.8854 139.38 52.2187 138.016 52.2187C136.651 52.2187 135.438 51.8854 134.375 51.2188C133.313 50.5521 132.477 49.6042 131.867 48.375C131.258 47.1458 130.953 45.6875 130.953 44C130.953 42.3125 131.258 40.8542 131.867 39.625C132.477 38.3958 133.313 37.4479 134.375 36.7812C135.438 36.1146 136.651 35.7812 138.016 35.7812C139.38 35.7812 140.594 36.1146 141.656 36.7812C142.719 37.4479 143.555 38.3958 144.164 39.625C144.773 40.8542 145.078 42.3125 145.078 44ZM143.203 44C143.203 42.6146 142.971 41.4453 142.508 40.4922C142.049 39.5391 141.427 38.8177 140.641 38.3281C139.859 37.8385 138.984 37.5937 138.016 37.5937C137.047 37.5937 136.169 37.8385 135.383 38.3281C134.602 38.8177 133.979 39.5391 133.516 40.4922C133.057 41.4453 132.828 42.6146 132.828 44C132.828 45.3854 133.057 46.5547 133.516 47.5078C133.979 48.4609 134.602 49.1823 135.383 49.6719C136.169 50.1615 137.047 50.4062 138.016 50.4062C138.984 50.4062 139.859 50.1615 140.641 49.6719C141.427 49.1823 142.049 48.4609 142.508 47.5078C142.971 46.5547 143.203 45.3854 143.203 44Z" fill="white"/>
<path d="M211.954 35.7005C210.458 34.6905 208.693 33.913 206.687 33.3899C211.17 30.5998 213.219 26.4146 212.764 21.6517C212.019 13.8844 204.86 8.87091 190.668 10.2188L172.416 11.9517C167.303 12.4349 163.557 16.9579 164.042 22.0477L166.004 42.5523C166.055 42.872 166.403 45.1543 166.469 45.4704L170.035 42.3198C170.469 42.1853 166.055 45.5001 166.5 45.5001C167.042 46.9669 167.161 47.823 168 49.0001C168.76 50.0667 169.042 50.4669 170.035 52.0001L172.934 55.591C173.069 55.7182 173.204 55.849 173.343 55.9761C177.632 59.838 183.158 61.9669 188.895 61.9669C189.632 61.9669 190.38 61.9306 191.116 61.8615C197.28 61.2766 201.894 58.9888 205.852 54.2188C207.892 50.8809 191.163 40.7519 212 42L211.954 35.7005ZM181.378 23.2975L189.468 22.5309C193.367 22.1604 195.256 23.312 195.493 25.8042C195.73 28.2965 194.093 29.7823 190.194 30.1493L182.104 30.9158L181.378 23.2975ZM194.414 49.4113L183.971 50.4031L183.202 42.3452L193.644 41.3534C197.466 40.9901 199.513 42.1999 199.764 44.8374C200.02 47.4749 198.24 49.048 194.414 49.4113Z" fill="#0BC754"/>
<path d="M195.705 72.8219C195.884 72.2407 196.161 71.7102 196.511 71.2379C197.496 69.9119 199.075 69.0654 200.819 69.0654C200.99 69.0654 201.161 69.0727 201.333 69.0909C201.778 69.1345 202.201 69.2325 202.606 69.3742C203.182 69.5777 203.711 69.8683 204.174 70.2389C204.564 70.5477 204.904 70.911 205.192 71.3142C205.914 72.3242 206.29 73.5849 206.162 74.9145C205.896 77.6792 203.561 79.75 200.829 79.75C200.658 79.75 200.487 79.7428 200.315 79.7246C197.496 79.4557 195.402 77.0616 195.468 74.2824C195.472 74.1552 195.472 74.0281 195.486 73.8973C195.523 73.5267 195.599 73.1671 195.705 72.8219Z" fill="white"/>
<path d="M167.223 67.4049C167.617 67.0815 168.059 66.8163 168.533 66.6165C169.12 66.3695 169.758 66.2278 170.422 66.206C170.48 66.2024 170.542 66.1987 170.601 66.1987C170.772 66.1987 170.944 66.206 171.115 66.2242C172.91 66.3949 174.412 67.4303 175.248 68.8762C175.572 69.4321 175.791 70.0497 175.897 70.7036C175.966 71.1396 175.988 71.5864 175.944 72.0478C175.937 72.106 175.926 72.1604 175.919 72.2186C175.576 74.8961 173.285 76.8833 170.612 76.8833C170.44 76.8833 170.269 76.8761 170.097 76.8579C167.15 76.5782 164.988 73.9697 165.268 71.0342C165.411 69.552 166.151 68.2732 167.223 67.4049Z" fill="white"/>
<path d="M215.448 40.0377L216.382 30.2832C216.834 25.5531 220.843 22 225.519 22C225.811 22 226.102 22.0145 226.398 22.04L235.17 22.8719C237.493 23.0935 239.2 25.1534 238.981 27.4713C238.773 29.6547 236.928 31.2895 234.772 31.2895C234.637 31.2895 234.502 31.2823 234.367 31.2714L225.595 30.4394C225.573 30.4358 225.548 30.4358 225.526 30.4358C225.158 30.4358 224.844 30.7155 224.811 31.0861L223.877 40.8406C223.706 42.6462 223.392 44.4082 222.955 46.1157C222.444 45.5962 221.806 45.1966 221.069 44.9713L214.971 43.0967C215.186 42.094 215.346 41.0768 215.448 40.0377Z" fill="white"/>
<path d="M155.158 34.3156L155.643 29.2621C155.851 27.0787 157.696 25.4438 159.852 25.4438C159.987 25.4438 160.122 25.4511 160.257 25.462C162.584 25.6836 164.291 27.7399 164.068 30.0577L163.583 35.1112C163.514 35.8342 163.484 36.5535 163.474 37.2656C163.36 46.1918 167.869 54.2897 174.93 59.0634C178.428 61.4249 182.549 62.9761 187.043 63.4012C187.878 63.4811 188.71 63.5211 189.534 63.5211C192.817 63.5211 195.982 62.9035 198.908 61.77C201.694 60.691 204.262 59.1434 206.505 57.2179L207.22 59.2669C207.855 61.0834 209.51 62.2568 211.444 62.2568C213.3 62.2568 214.934 61.1415 215.609 59.4195L217.126 55.5322L219.5 54.25C216.254 60.0664 211.575 64.789 205.739 67.8988C204.543 67.0015 203.124 66.4384 201.599 66.2931C201.34 66.2676 201.078 66.2567 200.815 66.2567C197.23 66.2567 194.184 68.5273 193.083 71.7716C191.916 71.8915 190.734 71.9605 189.541 71.9605C188.451 71.9605 187.349 71.9096 186.24 71.8043C183.611 71.5536 181.083 71.005 178.676 70.213C178.446 68.8071 177.851 67.4774 176.918 66.3512C175.524 64.6728 173.558 63.6337 171.385 63.4266C171.126 63.4012 170.863 63.3903 170.6 63.3903C169.488 63.3903 168.43 63.6119 167.464 64.0116C158.998 56.9781 154.034 46.0428 155.158 34.3156Z" fill="white"/>
<path d="M205.896 43.9556C206.081 43.9307 206.276 43.9336 206.479 43.9648L219.55 46.127C221.252 46.4065 221.741 48.6096 220.319 49.5827L215.837 52.6599C215.446 52.929 215.173 53.3289 215.061 53.7839L214.018 58.0749C213.813 58.9239 213.141 59.4218 212.411 59.5205C211.659 59.6222 210.853 59.2985 210.442 58.4926L204.447 46.7105C203.834 45.4993 204.649 44.1242 205.896 43.9556Z" fill="#0BC754"/>
</svg>
