<svg width="241" height="88" viewBox="0 0 241 88" fill="none" xmlns="http://www.w3.org/2000/svg">
<path d="M67.2941 72.0718C67.1154 71.4905 66.8382 70.9601 66.488 70.4878C65.5032 69.1618 63.9239 68.3153 62.1805 68.3153C62.0091 68.3153 61.8376 68.3226 61.6662 68.3407C61.2212 68.3843 60.7981 68.4824 60.3933 68.6241C59.817 68.8276 59.2881 69.1182 58.8249 69.4888C58.4347 69.7976 58.0955 70.1609 57.8073 70.5641C57.0851 71.5741 56.7095 72.8347 56.8371 74.1644C57.1034 76.9291 59.4377 78.9999 62.1695 78.9999C62.341 78.9999 62.5124 78.9926 62.6838 78.9745C65.5032 78.7056 67.5968 76.3115 67.5312 73.5323C67.5275 73.4051 67.5275 73.278 67.5129 73.1472C67.4765 72.7766 67.3999 72.4169 67.2941 72.0718Z" fill="#009FA6"/>
<path d="M95.7766 66.6551C95.3827 66.3318 94.9414 66.0666 94.4672 65.8668C93.88 65.6197 93.2417 65.478 92.5779 65.4562C92.5196 65.4526 92.4575 65.449 92.3992 65.449C92.2278 65.449 92.0563 65.4562 91.8849 65.4744C90.0904 65.6452 88.5877 66.6806 87.7525 68.1265C87.4278 68.6823 87.209 69.2999 87.1032 69.9539C87.0339 70.3898 87.012 70.8367 87.0558 71.2981C87.0631 71.3562 87.074 71.4107 87.0813 71.4688C87.4242 74.1463 89.7147 76.1336 92.3882 76.1336C92.5597 76.1336 92.7311 76.1263 92.9025 76.1081C95.8496 75.8284 98.0125 73.2199 97.7316 70.2845C97.5894 68.8022 96.849 67.5234 95.7766 66.6551Z" fill="#009FA6"/>
<path d="M47.5516 39.2879L46.6179 29.5333C46.1656 24.8032 42.1572 21.2501 37.4813 21.2501C37.1895 21.2501 36.8977 21.2647 36.6023 21.2901L27.8304 22.122C25.507 22.3436 23.8001 24.4035 24.0189 26.7214C24.2268 28.9048 26.0724 30.5396 28.2279 30.5396C28.3629 30.5396 28.4979 30.5324 28.6328 30.5215L37.4047 29.6895C37.4266 29.6859 37.4521 29.6859 37.474 29.6859C37.8424 29.6859 38.1561 29.9656 38.1889 30.3362L39.1226 40.0907C39.294 41.8963 39.6077 43.6583 40.0454 45.3658C40.556 44.8463 41.1943 44.4467 41.9311 44.2214L48.0294 42.3468C47.8142 41.3441 47.6538 40.3269 47.5516 39.2879Z" fill="#009FA6"/>
<path d="M107.842 33.5659L107.357 28.5125C107.149 26.3291 105.304 24.6942 103.148 24.6942C103.013 24.6942 102.878 24.7015 102.743 24.7124C100.416 24.934 98.7094 26.9903 98.9319 29.3081L99.417 34.3616C99.4863 35.0845 99.5155 35.8039 99.5265 36.5159C99.6395 45.4422 95.1314 53.5401 88.0701 58.3138C84.5723 60.6752 80.4508 62.2265 75.9572 62.6516C75.122 62.7315 74.2904 62.7715 73.4661 62.7715C70.1835 62.7715 67.0176 62.1539 64.0924 61.0204C61.3058 59.9414 58.7381 58.3937 56.495 56.4682L55.7801 58.5173C55.1454 60.3337 53.4895 61.5072 51.5564 61.5072C49.6999 61.5072 48.0659 60.3919 47.3912 58.6698L45.8739 54.7825L43.2988 53.4856C46.545 59.302 51.4251 64.0394 57.2609 67.1492C58.4572 66.2519 59.8761 65.6887 61.4007 65.5434C61.6596 65.518 61.9222 65.5071 62.1848 65.5071C65.7702 65.5071 68.8157 67.7777 69.9172 71.022C71.0844 71.1418 72.2661 71.2109 73.4588 71.2109C74.5494 71.2109 75.6509 71.16 76.7597 71.0547C79.3894 70.804 81.917 70.2554 84.3243 69.4634C84.5541 68.0574 85.1486 66.7278 86.0823 65.6016C87.4756 63.9231 89.4415 62.8841 91.6153 62.677C91.8743 62.6516 92.1369 62.6407 92.3995 62.6407C93.512 62.6407 94.5697 62.8623 95.5363 63.2619C104.002 56.2285 108.966 45.2932 107.842 33.5659Z" fill="#009FA6"/>
<path d="M96.5164 33.7004C95.021 32.6904 93.2557 31.913 91.2496 31.3898C95.7322 28.5997 97.7821 24.4145 97.3261 19.6517C96.5821 11.8844 89.4223 6.87084 75.2305 8.21868L56.9791 9.95161C51.8655 10.4348 48.1197 14.9579 48.6048 20.0477L50.567 40.5522C50.6181 40.8719 50.6765 41.188 50.7421 41.504L54.5974 40.3197C55.0314 40.1853 55.48 40.1199 55.925 40.1199C57.3621 40.1199 58.7225 40.8247 59.5614 42.0017C60.4076 43.1897 60.6192 44.6611 60.1341 46.0416L57.497 53.591C57.632 53.7181 57.7669 53.8489 57.9055 53.976C62.1948 57.8379 67.7206 59.9668 73.4578 59.9668C74.1946 59.9668 74.9423 59.9305 75.6791 59.8615C81.8431 59.2766 87.4163 56.3266 91.3737 51.5565C95.331 46.7864 97.1839 40.7774 96.5967 34.6377L96.5164 33.7004ZM65.9406 21.2974L74.0305 20.5308C77.9295 20.1603 79.8188 21.3119 80.0559 23.8042C80.293 26.2964 78.6553 27.7823 74.7563 28.1492L66.6665 28.9158L65.9406 21.2974ZM78.9763 47.4113L68.5339 48.4031L67.7643 40.3451L78.2067 39.3533C82.0291 38.99 84.0753 40.1998 84.327 42.8373C84.5823 45.4749 82.8024 47.048 78.9763 47.4113Z" fill="#0BC7A2"/>
<path d="M55.9259 42.663C55.7398 42.663 55.5465 42.692 55.3496 42.7502L42.686 46.6447C41.0374 47.1497 40.8477 49.3985 42.3869 50.1723L47.2415 52.621C47.6646 52.8353 47.9892 53.195 48.1606 53.6309L49.7691 57.7435C50.0864 58.5572 50.8196 58.9605 51.5563 58.9605C52.315 58.9605 53.07 58.5318 53.3691 57.6781L57.7313 45.1988C58.1763 43.9163 57.1842 42.663 55.9259 42.663Z" fill="#0BC7A2"/>
<path d="M119.391 53V37H125.797C126.974 37 127.956 37.1745 128.742 37.5234C129.529 37.8724 130.12 38.3568 130.516 38.9766C130.911 39.5911 131.109 40.2995 131.109 41.1016C131.109 41.7266 130.984 42.276 130.734 42.75C130.484 43.2187 130.141 43.6042 129.703 43.9062C129.271 44.2031 128.776 44.4141 128.219 44.5391V44.6953C128.828 44.7214 129.398 44.8932 129.93 45.2109C130.466 45.5286 130.901 45.974 131.234 46.5469C131.568 47.1146 131.734 47.7917 131.734 48.5781C131.734 49.4271 131.523 50.1849 131.102 50.8516C130.685 51.513 130.068 52.0365 129.25 52.4219C128.432 52.8073 127.424 53 126.227 53H119.391ZM122.773 50.2344H125.531C126.474 50.2344 127.161 50.0547 127.594 49.6953C128.026 49.3307 128.242 48.8464 128.242 48.2422C128.242 47.7995 128.135 47.4089 127.922 47.0703C127.708 46.7318 127.404 46.4661 127.008 46.2734C126.617 46.0807 126.151 45.9844 125.609 45.9844H122.773V50.2344ZM122.773 43.6953H125.281C125.745 43.6953 126.156 43.6146 126.516 43.4531C126.88 43.2865 127.167 43.0521 127.375 42.75C127.589 42.4479 127.695 42.0859 127.695 41.6641C127.695 41.0859 127.49 40.6198 127.078 40.2656C126.672 39.9115 126.094 39.7344 125.344 39.7344H122.773V43.6953ZM143.818 37H147.201V47.3906C147.201 48.5573 146.923 49.5781 146.365 50.4531C145.813 51.3281 145.04 52.0104 144.045 52.5C143.05 52.9844 141.891 53.2266 140.568 53.2266C139.24 53.2266 138.079 52.9844 137.084 52.5C136.089 52.0104 135.316 51.3281 134.764 50.4531C134.212 49.5781 133.936 48.5573 133.936 47.3906V37H137.318V47.1016C137.318 47.7109 137.451 48.2526 137.717 48.7266C137.988 49.2005 138.368 49.5729 138.857 49.8438C139.347 50.1146 139.917 50.25 140.568 50.25C141.225 50.25 141.795 50.1146 142.279 49.8438C142.769 49.5729 143.146 49.2005 143.412 48.7266C143.683 48.2526 143.818 47.7109 143.818 47.1016V37ZM155.656 53H149.984V37H155.703C157.313 37 158.698 37.3203 159.859 37.9609C161.021 38.5964 161.914 39.5104 162.539 40.7031C163.169 41.8958 163.484 43.3229 163.484 44.9844C163.484 46.651 163.169 48.0833 162.539 49.2812C161.914 50.4792 161.016 51.3984 159.844 52.0391C158.677 52.6797 157.281 53 155.656 53ZM153.367 50.1016H155.516C156.516 50.1016 157.357 49.9245 158.039 49.5703C158.727 49.2109 159.242 48.6562 159.586 47.9062C159.935 47.151 160.109 46.1771 160.109 44.9844C160.109 43.8021 159.935 42.8359 159.586 42.0859C159.242 41.3359 158.729 40.7839 158.047 40.4297C157.365 40.0755 156.523 39.8984 155.523 39.8984H153.367V50.1016ZM176.6 42.1719C176.49 41.7917 176.337 41.4557 176.139 41.1641C175.941 40.8672 175.699 40.6172 175.412 40.4141C175.131 40.2057 174.808 40.0469 174.443 39.9375C174.084 39.8281 173.686 39.7734 173.248 39.7734C172.43 39.7734 171.712 39.9766 171.092 40.3828C170.477 40.7891 169.998 41.3802 169.654 42.1562C169.311 42.9271 169.139 43.8698 169.139 44.9844C169.139 46.099 169.308 47.0469 169.646 47.8281C169.985 48.6094 170.464 49.2057 171.084 49.6172C171.704 50.0234 172.436 50.2266 173.279 50.2266C174.045 50.2266 174.699 50.0911 175.24 49.8203C175.787 49.5443 176.204 49.1562 176.49 48.6562C176.782 48.1562 176.928 47.5651 176.928 46.8828L177.615 46.9844H173.49V44.4375H180.186V46.4531C180.186 47.8594 179.889 49.0677 179.295 50.0781C178.701 51.0833 177.883 51.8594 176.842 52.4062C175.8 52.9479 174.607 53.2187 173.264 53.2187C171.764 53.2187 170.446 52.888 169.311 52.2266C168.175 51.5599 167.29 50.6146 166.654 49.3906C166.024 48.1615 165.709 46.7031 165.709 45.0156C165.709 43.7187 165.896 42.5625 166.271 41.5469C166.652 40.526 167.183 39.6615 167.865 38.9531C168.548 38.2448 169.342 37.7057 170.248 37.3359C171.154 36.9661 172.136 36.7812 173.193 36.7812C174.1 36.7812 174.943 36.9141 175.725 37.1797C176.506 37.4401 177.199 37.8099 177.803 38.2891C178.412 38.7682 178.91 39.3385 179.295 40C179.68 40.6562 179.928 41.3802 180.037 42.1719H176.6ZM182.727 53V37H193.508V39.7891H186.109V43.6016H192.953V46.3906H186.109V50.2109H193.539V53H182.727ZM195.588 39.7891V37H208.729V39.7891H203.83V53H200.486V39.7891H195.588ZM210.893 53V37H214.275V44.0547H214.486L220.244 37H224.299L218.361 44.1641L224.369 53H220.322L215.939 46.4219L214.275 48.4531V53H210.893ZM239.861 45C239.861 46.7448 239.531 48.2292 238.869 49.4531C238.213 50.6771 237.317 51.612 236.182 52.2578C235.051 52.8984 233.781 53.2187 232.369 53.2187C230.947 53.2187 229.671 52.8958 228.541 52.25C227.411 51.6042 226.518 50.6693 225.861 49.4453C225.205 48.2214 224.877 46.7396 224.877 45C224.877 43.2552 225.205 41.7708 225.861 40.5469C226.518 39.3229 227.411 38.3906 228.541 37.75C229.671 37.1042 230.947 36.7812 232.369 36.7812C233.781 36.7812 235.051 37.1042 236.182 37.75C237.317 38.3906 238.213 39.3229 238.869 40.5469C239.531 41.7708 239.861 43.2552 239.861 45ZM236.432 45C236.432 43.8698 236.262 42.9167 235.924 42.1406C235.59 41.3646 235.119 40.776 234.51 40.375C233.9 39.974 233.187 39.7734 232.369 39.7734C231.551 39.7734 230.838 39.974 230.229 40.375C229.619 40.776 229.145 41.3646 228.807 42.1406C228.473 42.9167 228.307 43.8698 228.307 45C228.307 46.1302 228.473 47.0833 228.807 47.8594C229.145 48.6354 229.619 49.224 230.229 49.625C230.838 50.026 231.551 50.2266 232.369 50.2266C233.187 50.2266 233.9 50.026 234.51 49.625C235.119 49.224 235.59 48.6354 235.924 47.8594C236.262 47.0833 236.432 46.1302 236.432 45Z" fill="#009FA6"/>
</svg>
