<svg width="241" height="88" viewBox="0 0 241 88" fill="none" xmlns="http://www.w3.org/2000/svg">
<path d="M67.2941 72.0718C67.1154 71.4905 66.8382 70.9601 66.488 70.4878C65.5032 69.1618 63.9239 68.3153 62.1805 68.3153C62.0091 68.3153 61.8376 68.3226 61.6662 68.3407C61.2212 68.3843 60.7981 68.4824 60.3933 68.6241C59.817 68.8276 59.2881 69.1182 58.8249 69.4888C58.4347 69.7976 58.0955 70.1609 57.8073 70.5641C57.0851 71.5741 56.7095 72.8347 56.8371 74.1644C57.1034 76.9291 59.4377 78.9999 62.1695 78.9999C62.341 78.9999 62.5124 78.9926 62.6838 78.9745C65.5032 78.7056 67.5968 76.3115 67.5312 73.5323C67.5275 73.4051 67.5275 73.278 67.5129 73.1472C67.4765 72.7766 67.3999 72.4169 67.2941 72.0718Z" fill="white"/>
<path d="M95.7766 66.6551C95.3827 66.3318 94.9414 66.0666 94.4672 65.8668C93.88 65.6197 93.2417 65.478 92.5779 65.4562C92.5196 65.4526 92.4575 65.449 92.3992 65.449C92.2278 65.449 92.0563 65.4562 91.8849 65.4744C90.0904 65.6452 88.5877 66.6806 87.7525 68.1265C87.4278 68.6823 87.209 69.2999 87.1032 69.9539C87.0339 70.3898 87.012 70.8367 87.0558 71.2981C87.0631 71.3562 87.074 71.4107 87.0813 71.4688C87.4242 74.1463 89.7147 76.1336 92.3882 76.1336C92.5597 76.1336 92.7311 76.1263 92.9025 76.1081C95.8496 75.8284 98.0125 73.2199 97.7316 70.2845C97.5894 68.8022 96.849 67.5234 95.7766 66.6551Z" fill="white"/>
<path d="M47.5516 39.2879L46.6179 29.5333C46.1656 24.8032 42.1572 21.2501 37.4813 21.2501C37.1895 21.2501 36.8977 21.2647 36.6023 21.2901L27.8304 22.122C25.507 22.3436 23.8001 24.4035 24.0189 26.7214C24.2268 28.9048 26.0724 30.5396 28.2279 30.5396C28.3629 30.5396 28.4979 30.5324 28.6328 30.5215L37.4047 29.6895C37.4266 29.6859 37.4521 29.6859 37.474 29.6859C37.8424 29.6859 38.1561 29.9656 38.1889 30.3362L39.1226 40.0907C39.294 41.8963 39.6077 43.6583 40.0454 45.3658C40.556 44.8463 41.1943 44.4467 41.9311 44.2214L48.0294 42.3468C47.8142 41.3441 47.6538 40.3269 47.5516 39.2879Z" fill="white"/>
<path d="M107.842 33.5659L107.357 28.5125C107.149 26.3291 105.304 24.6942 103.148 24.6942C103.013 24.6942 102.878 24.7015 102.743 24.7124C100.416 24.934 98.7094 26.9903 98.9319 29.3081L99.417 34.3616C99.4863 35.0845 99.5155 35.8039 99.5265 36.5159C99.6395 45.4422 95.1314 53.5401 88.0701 58.3138C84.5723 60.6752 80.4508 62.2265 75.9572 62.6516C75.122 62.7315 74.2904 62.7715 73.4661 62.7715C70.1835 62.7715 67.0176 62.1539 64.0924 61.0204C61.3058 59.9414 58.7381 58.3937 56.495 56.4682L55.7801 58.5173C55.1454 60.3337 53.4895 61.5072 51.5564 61.5072C49.6999 61.5072 48.0659 60.3919 47.3912 58.6698L45.8739 54.7825L43.2988 53.4856C46.545 59.302 51.4251 64.0394 57.2609 67.1492C58.4572 66.2519 59.8761 65.6887 61.4007 65.5434C61.6596 65.518 61.9222 65.5071 62.1848 65.5071C65.7702 65.5071 68.8157 67.7777 69.9172 71.022C71.0844 71.1418 72.2661 71.2109 73.4588 71.2109C74.5494 71.2109 75.6509 71.16 76.7597 71.0547C79.3894 70.804 81.917 70.2554 84.3243 69.4634C84.5541 68.0574 85.1486 66.7278 86.0823 65.6016C87.4756 63.9231 89.4415 62.8841 91.6153 62.677C91.8743 62.6516 92.1369 62.6407 92.3995 62.6407C93.512 62.6407 94.5697 62.8623 95.5363 63.2619C104.002 56.2285 108.966 45.2932 107.842 33.5659Z" fill="white"/>
<path d="M96.5164 33.7004C95.021 32.6904 93.2557 31.913 91.2496 31.3898C95.7322 28.5997 97.7821 24.4145 97.3261 19.6517C96.5821 11.8844 89.4223 6.87084 75.2305 8.21868L56.9791 9.95161C51.8655 10.4348 48.1197 14.9579 48.6048 20.0477L50.567 40.5522C50.6181 40.8719 50.6765 41.188 50.7421 41.504L54.5974 40.3197C55.0314 40.1853 55.48 40.1199 55.925 40.1199C57.3621 40.1199 58.7225 40.8247 59.5614 42.0017C60.4076 43.1897 60.6192 44.6611 60.1341 46.0416L57.497 53.591C57.632 53.7181 57.7669 53.8489 57.9055 53.976C62.1948 57.8379 67.7206 59.9668 73.4578 59.9668C74.1946 59.9668 74.9423 59.9305 75.6791 59.8615C81.8431 59.2766 87.4163 56.3266 91.3737 51.5565C95.331 46.7864 97.1839 40.7774 96.5967 34.6377L96.5164 33.7004ZM65.9406 21.2974L74.0305 20.5308C77.9295 20.1603 79.8188 21.3119 80.0559 23.8042C80.293 26.2964 78.6553 27.7823 74.7563 28.1492L66.6665 28.9158L65.9406 21.2974ZM78.9763 47.4113L68.5339 48.4031L67.7643 40.3451L78.2067 39.3533C82.0291 38.99 84.0753 40.1998 84.327 42.8373C84.5823 45.4749 82.8024 47.048 78.9763 47.4113Z" fill="#0BC754"/>
<path d="M55.9259 42.663C55.7398 42.663 55.5465 42.692 55.3496 42.7502L42.686 46.6447C41.0374 47.1497 40.8477 49.3985 42.3869 50.1723L47.2415 52.621C47.6646 52.8353 47.9892 53.195 48.1606 53.6309L49.7691 57.7435C50.0864 58.5572 50.8196 58.9605 51.5563 58.9605C52.315 58.9605 53.07 58.5318 53.3691 57.6781L57.7313 45.1988C58.1763 43.9163 57.1842 42.663 55.9259 42.663Z" fill="#0BC754"/>
<path d="M119.938 53V37H125.531C126.646 37 127.565 37.1927 128.289 37.5781C129.013 37.9583 129.552 38.4714 129.906 39.1172C130.26 39.7578 130.438 40.4687 130.438 41.25C130.438 41.9375 130.315 42.5052 130.07 42.9531C129.831 43.401 129.513 43.7552 129.117 44.0156C128.727 44.276 128.302 44.4687 127.844 44.5937V44.75C128.333 44.7812 128.826 44.9531 129.32 45.2656C129.815 45.5781 130.229 46.026 130.563 46.6094C130.896 47.1927 131.062 47.9062 131.062 48.75C131.062 49.5521 130.88 50.2734 130.516 50.9141C130.151 51.5547 129.576 52.0625 128.789 52.4375C128.003 52.8125 126.979 53 125.719 53H119.938ZM121.875 51.2812H125.719C126.984 51.2812 127.883 51.0365 128.414 50.5469C128.951 50.0521 129.219 49.4531 129.219 48.75C129.219 48.2083 129.081 47.7083 128.805 47.25C128.529 46.7865 128.135 46.4167 127.625 46.1406C127.115 45.8594 126.51 45.7188 125.813 45.7188H121.875V51.2812ZM121.875 44.0312H125.469C126.052 44.0312 126.578 43.9167 127.047 43.6875C127.521 43.4583 127.896 43.1354 128.172 42.7187C128.453 42.3021 128.594 41.8125 128.594 41.25C128.594 40.5469 128.349 39.9505 127.859 39.4609C127.37 38.9661 126.594 38.7187 125.531 38.7187H121.875V44.0312ZM144.746 37H146.684V47.5937C146.684 48.6875 146.426 49.6641 145.91 50.5234C145.4 51.3776 144.678 52.0521 143.746 52.5469C142.814 53.0365 141.72 53.2813 140.465 53.2813C139.21 53.2813 138.116 53.0365 137.184 52.5469C136.251 52.0521 135.527 51.3776 135.012 50.5234C134.501 49.6641 134.246 48.6875 134.246 47.5937V37H136.184V47.4375C136.184 48.2187 136.355 48.9141 136.699 49.5234C137.043 50.1276 137.533 50.6042 138.168 50.9531C138.809 51.2969 139.574 51.4687 140.465 51.4687C141.355 51.4687 142.121 51.2969 142.762 50.9531C143.402 50.6042 143.892 50.1276 144.23 49.5234C144.574 48.9141 144.746 48.2187 144.746 47.4375V37ZM155.49 53H150.553V37H155.709C157.261 37 158.589 37.3203 159.693 37.9609C160.798 38.5964 161.644 39.5104 162.232 40.7031C162.821 41.8906 163.115 43.3125 163.115 44.9687C163.115 46.6354 162.818 48.0703 162.225 49.2734C161.631 50.4714 160.766 51.3932 159.631 52.0391C158.495 52.6797 157.115 53 155.49 53ZM152.49 51.2812H155.365C156.688 51.2812 157.785 51.026 158.654 50.5156C159.524 50.0052 160.173 49.2786 160.6 48.3359C161.027 47.3932 161.24 46.2708 161.24 44.9687C161.24 43.6771 161.029 42.5651 160.607 41.6328C160.186 40.6953 159.555 39.9766 158.717 39.4766C157.878 38.9714 156.834 38.7187 155.584 38.7187H152.49V51.2812ZM177.303 42C177.131 41.474 176.904 41.0026 176.623 40.5859C176.347 40.1641 176.016 39.8047 175.631 39.5078C175.251 39.2109 174.818 38.9844 174.334 38.8281C173.85 38.6719 173.318 38.5937 172.74 38.5937C171.792 38.5937 170.93 38.8385 170.154 39.3281C169.378 39.8177 168.761 40.5391 168.303 41.4922C167.844 42.4453 167.615 43.6146 167.615 45C167.615 46.3854 167.847 47.5547 168.311 48.5078C168.774 49.4609 169.402 50.1823 170.193 50.6719C170.985 51.1615 171.876 51.4062 172.865 51.4062C173.782 51.4062 174.589 51.2109 175.287 50.8203C175.99 50.4245 176.537 49.8672 176.928 49.1484C177.324 48.4245 177.521 47.5729 177.521 46.5937L178.115 46.7187H173.303V45H179.396V46.7187C179.396 48.0365 179.115 49.1823 178.553 50.1562C177.995 51.1302 177.225 51.8854 176.24 52.4219C175.261 52.9531 174.136 53.2187 172.865 53.2187C171.449 53.2187 170.204 52.8854 169.131 52.2188C168.063 51.5521 167.23 50.6042 166.631 49.375C166.037 48.1458 165.74 46.6875 165.74 45C165.74 43.7344 165.91 42.5964 166.248 41.5859C166.592 40.5703 167.076 39.7057 167.701 38.9922C168.326 38.2786 169.066 37.7318 169.92 37.3516C170.774 36.9714 171.714 36.7812 172.74 36.7812C173.584 36.7812 174.37 36.9089 175.1 37.1641C175.834 37.4141 176.488 37.7708 177.061 38.2344C177.639 38.6927 178.12 39.2422 178.506 39.8828C178.891 40.5182 179.157 41.224 179.303 42H177.303ZM182.715 53V37H192.371V38.7187H184.652V44.125H191.871V45.8437H184.652V51.2812H192.496V53H182.715ZM194.988 38.7187V37H206.988V38.7187H201.957V53H200.02V38.7187H194.988ZM209.979 53V37H211.916V44.9375H212.104L219.291 37H221.822L215.104 44.2187L221.822 53H219.479L213.916 45.5625L211.916 47.8125V53H209.979ZM237.078 45C237.078 46.6875 236.773 48.1458 236.164 49.375C235.555 50.6042 234.719 51.5521 233.656 52.2188C232.594 52.8854 231.38 53.2187 230.016 53.2187C228.651 53.2187 227.438 52.8854 226.375 52.2188C225.313 51.5521 224.477 50.6042 223.867 49.375C223.258 48.1458 222.953 46.6875 222.953 45C222.953 43.3125 223.258 41.8542 223.867 40.625C224.477 39.3958 225.313 38.4479 226.375 37.7812C227.438 37.1146 228.651 36.7812 230.016 36.7812C231.38 36.7812 232.594 37.1146 233.656 37.7812C234.719 38.4479 235.555 39.3958 236.164 40.625C236.773 41.8542 237.078 43.3125 237.078 45ZM235.203 45C235.203 43.6146 234.971 42.4453 234.508 41.4922C234.049 40.5391 233.427 39.8177 232.641 39.3281C231.859 38.8385 230.984 38.5937 230.016 38.5937C229.047 38.5937 228.169 38.8385 227.383 39.3281C226.602 39.8177 225.979 40.5391 225.516 41.4922C225.057 42.4453 224.828 43.6146 224.828 45C224.828 46.3854 225.057 47.5547 225.516 48.5078C225.979 49.4609 226.602 50.1823 227.383 50.6719C228.169 51.1615 229.047 51.4062 230.016 51.4062C230.984 51.4062 231.859 51.1615 232.641 50.6719C233.427 50.1823 234.049 49.4609 234.508 48.5078C234.971 47.5547 235.203 46.3854 235.203 45Z" fill="white"/>
</svg>
