<svg width="20" height="21" viewBox="0 0 20 21" fill="none" xmlns="http://www.w3.org/2000/svg">
<path d="M8.20039 3.80005H11.8004C11.8004 3.32266 11.6107 2.86482 11.2732 2.52726C10.9356 2.18969 10.4778 2.00005 10.0004 2.00005C9.523 2.00005 9.06516 2.18969 8.7276 2.52726C8.39003 2.86482 8.20039 3.32266 8.20039 3.80005ZM7.00039 3.80005C7.00039 3.0044 7.31646 2.24134 7.87907 1.67873C8.44168 1.11612 9.20474 0.800049 10.0004 0.800049C10.796 0.800049 11.5591 1.11612 12.1217 1.67873C12.6843 2.24134 13.0004 3.0044 13.0004 3.80005H19.0004C19.1595 3.80005 19.3121 3.86326 19.4247 3.97578C19.5372 4.08831 19.6004 4.24092 19.6004 4.40005C19.6004 4.55918 19.5372 4.71179 19.4247 4.82431C19.3121 4.93683 19.1595 5.00005 19.0004 5.00005H17.7356L16.3028 17.4128C16.2015 18.2903 15.7812 19.0999 15.1218 19.6875C14.4625 20.2752 13.61 20.6 12.7268 20.6H7.27399C6.39074 20.6 5.53833 20.2752 4.87895 19.6875C4.21958 19.0999 3.79927 18.2903 3.69799 17.4128L2.26519 5.00005H1.00039C0.841261 5.00005 0.688648 4.93683 0.576127 4.82431C0.463605 4.71179 0.400391 4.55918 0.400391 4.40005C0.400391 4.24092 0.463605 4.08831 0.576127 3.97578C0.688648 3.86326 0.841261 3.80005 1.00039 3.80005H7.00039ZM4.88959 17.276C4.9573 17.8609 5.23765 18.4005 5.67729 18.7921C6.11694 19.1838 6.68521 19.4001 7.27399 19.4H12.7268C13.3156 19.4001 13.8838 19.1838 14.3235 18.7921C14.7631 18.4005 15.0435 17.8609 15.1112 17.276L16.5272 5.00005H3.47359L4.88959 17.276ZM8.20039 8.00005C8.35952 8.00005 8.51213 8.06326 8.62466 8.17578C8.73718 8.28831 8.80039 8.44092 8.80039 8.60005V15.8C8.80039 15.9592 8.73718 16.1118 8.62466 16.2243C8.51213 16.3368 8.35952 16.4 8.20039 16.4C8.04126 16.4 7.88865 16.3368 7.77613 16.2243C7.6636 16.1118 7.60039 15.9592 7.60039 15.8V8.60005C7.60039 8.44092 7.6636 8.28831 7.77613 8.17578C7.88865 8.06326 8.04126 8.00005 8.20039 8.00005ZM12.4004 8.60005C12.4004 8.44092 12.3372 8.28831 12.2247 8.17578C12.1121 8.06326 11.9595 8.00005 11.8004 8.00005C11.6413 8.00005 11.4886 8.06326 11.3761 8.17578C11.2636 8.28831 11.2004 8.44092 11.2004 8.60005V15.8C11.2004 15.9592 11.2636 16.1118 11.3761 16.2243C11.4886 16.3368 11.6413 16.4 11.8004 16.4C11.9595 16.4 12.1121 16.3368 12.2247 16.2243C12.3372 16.1118 12.4004 15.9592 12.4004 15.8V8.60005Z" fill="#E33C3C" fill-opacity="0.8"/>
</svg>
