<svg width="114" height="35" viewBox="0 0 114 35" fill="none" xmlns="http://www.w3.org/2000/svg">
<g clip-path="url(#clip0_102_2998)">
<g clip-path="url(#clip1_102_2998)">
<g clip-path="url(#clip2_102_2998)">
<path d="M111.165 30.4154C111.165 32.2039 109.75 33.6539 108.005 33.6539H4.51569C3.67625 33.6562 2.87041 33.3159 2.27606 32.7083C1.68169 32.1008 1.34765 31.2758 1.34766 30.4154V4.58457C1.35221 2.79469 2.76925 1.34618 4.51569 1.34619H108.03C109.765 1.36012 111.165 2.80592 111.165 4.58457V30.4154Z" fill="#007565" stroke="#979797" stroke-width="1.34615"/>
<path d="M23.8533 17.3475C23.8767 15.6655 24.7651 14.1123 26.208 13.2307C25.2917 11.9315 23.812 11.1372 22.2153 11.0876C20.5091 10.9097 18.9137 12.0872 18.0521 12.0872C17.1904 12.0872 15.8596 11.1046 14.4433 11.1385C12.5771 11.1996 10.88 12.2286 9.97291 13.8491C8.0363 17.1697 9.47809 22.0573 11.3379 24.7426C12.2678 26.0555 13.3513 27.5294 14.7505 27.4787C16.1495 27.4278 16.6529 26.6315 18.3251 26.6315C19.9972 26.6315 20.4664 27.4787 21.9167 27.4787C23.3671 27.4787 24.3397 26.1572 25.2354 24.8273C25.9013 23.891 26.4138 22.8561 26.754 21.7609C24.9773 21.0074 23.8326 19.2657 23.8533 17.3475Z" fill="white"/>
<path d="M21.1231 9.32564C21.9355 8.3592 22.3366 7.11633 22.2407 5.86108C21.0014 5.98909 19.8563 6.5758 19.033 7.50441C18.2207 8.42202 17.8093 9.62282 17.8898 10.8419C19.1447 10.8551 20.3363 10.2963 21.1231 9.32564Z" fill="white"/>
<path fill-rule="evenodd" clip-rule="evenodd" d="M41.9741 27.2753H43.9193L40.2422 16.009H37.9815L34.3301 27.2753H36.2155L37.2308 23.9632H40.9163L41.9741 27.2753ZM39.6451 19.6684L40.6006 22.6162H37.5463L38.5616 19.6599C38.8062 18.7225 38.9853 18.0137 39.0991 17.5338C39.355 18.635 39.537 19.3466 39.6451 19.6684Z" fill="white"/>
<path fill-rule="evenodd" clip-rule="evenodd" d="M52.1856 26.3944C52.9753 25.4882 53.3791 24.3127 53.3117 23.1162C53.3565 22.0295 53.0018 20.9637 52.3136 20.1175C51.6535 19.3426 50.6631 18.9232 49.6428 18.9868C48.6226 19.0502 47.6927 19.5888 47.1351 20.4394L47.0327 19.152H45.4287C45.4742 20.0668 45.497 20.959 45.497 21.8286V30.5875H47.3568V26.3097C47.8548 27.092 48.7483 27.5357 49.6773 27.4618C50.6293 27.4817 51.5436 27.0926 52.1856 26.3944ZM50.9229 21.2272C51.2992 21.8097 51.4867 22.4926 51.4604 23.1839C51.4953 23.9157 51.2951 24.6394 50.8888 25.2508C50.5248 25.7683 49.92 26.0655 49.2849 26.0386C48.742 26.057 48.2194 25.8333 47.8601 25.4288C47.493 25.0159 47.2978 24.4799 47.3141 23.9294V22.5741C47.3206 22.3878 47.3493 22.203 47.3995 22.0234C47.4988 21.5672 47.7516 21.158 48.1162 20.863C48.4578 20.5781 48.8898 20.422 49.3361 20.4224C49.9685 20.4054 50.5662 20.7085 50.9229 21.2272Z" fill="white"/>
<path fill-rule="evenodd" clip-rule="evenodd" d="M61.6044 26.3944C62.3941 25.4882 62.7979 24.3127 62.7306 23.1162C62.7746 22.0296 62.4199 20.9641 61.7324 20.1175C61.0723 19.3426 60.0819 18.9232 59.0617 18.9868C58.0415 19.0502 57.1116 19.5888 56.5539 20.4394L56.4516 19.152H54.8477C54.8932 20.0668 54.9159 20.959 54.9159 21.8286V30.5875H56.7758V26.3097C57.2736 27.092 58.1673 27.5357 59.0963 27.4618C60.0484 27.4829 60.9631 27.0936 61.6044 26.3944ZM60.3418 21.2272C60.718 21.8097 60.9056 22.4926 60.8792 23.1839C60.9119 23.9024 60.7181 24.6132 60.3248 25.217C59.9609 25.7345 59.3559 26.0316 58.7208 26.0048C58.1661 26.0472 57.6221 25.8351 57.2449 25.4288C56.8786 25.0155 56.6834 24.4798 56.6989 23.9294V22.5741C56.7059 22.388 56.7346 22.2031 56.7842 22.0234C56.883 21.567 57.1358 21.1575 57.5009 20.863C57.8426 20.5781 58.2747 20.422 58.7208 20.4224C59.3652 20.3935 59.9785 20.698 60.3418 21.2272Z" fill="white"/>
<path d="M73.2239 24.1157C73.253 25.0044 72.8844 25.8605 72.2171 26.4537C71.3491 27.1565 70.247 27.5102 69.1289 27.4447C68.1005 27.4929 67.0794 27.249 66.1855 26.7417L66.6035 25.2338C67.3951 25.7117 68.3049 25.9612 69.2312 25.9539C69.8029 25.9897 70.3697 25.8282 70.8352 25.4965C71.2103 25.1996 71.4222 24.7442 71.4067 24.2682C71.4168 23.8364 71.2471 23.4196 70.9375 23.1162C70.4783 22.7298 69.944 22.4415 69.3677 22.2691C67.3885 21.5124 66.3988 20.4252 66.3988 19.0079C66.3684 18.1109 66.763 17.2518 67.4652 16.6868C68.2578 16.0781 69.2464 15.777 70.2465 15.8397C71.1304 15.8112 72.0082 15.9942 72.8058 16.3734L72.3707 17.8473C71.7014 17.4948 70.9528 17.317 70.1952 17.3306C69.654 17.2969 69.1194 17.4629 68.6937 17.7965C68.4019 18.0542 68.2368 18.4251 68.2415 18.8131C68.2341 19.2402 68.4262 19.6469 68.7619 19.9142C69.265 20.2819 69.8237 20.5678 70.417 20.7612C71.2336 21.047 71.9724 21.5168 72.5755 22.1336C73.0348 22.69 73.2662 23.3975 73.2239 24.1157Z" fill="white"/>
<path d="M79.2728 20.5071H77.2678V24.4544C77.2678 25.4596 77.6205 25.9623 78.3258 25.9623C78.5985 25.9681 78.8708 25.9397 79.1363 25.8776L79.1959 27.2414C78.7394 27.3907 78.2602 27.4595 77.7798 27.4447C77.1424 27.4854 76.5188 27.2472 76.0735 26.7924C75.6079 26.1594 75.3924 25.3787 75.4677 24.5985V20.5071H74.2734V19.1517H75.4677V17.6608L77.2509 17.1272V19.1517H79.2557L79.2728 20.5071Z" fill="white"/>
<path fill-rule="evenodd" clip-rule="evenodd" d="M87.2415 26.225C87.9775 25.3713 88.3615 24.2729 88.3164 23.1501C88.3671 22.063 87.9943 20.9983 87.2756 20.1769C86.5308 19.3782 85.4703 18.9446 84.3749 18.9909C83.2554 18.9392 82.1696 19.3791 81.4061 20.1937C80.6529 21.0458 80.2588 22.1529 80.3055 23.2855C80.2663 24.3805 80.6474 25.4494 81.3719 26.2758C82.1029 27.0739 83.153 27.5084 84.2384 27.4617C85.3743 27.5102 86.4737 27.0575 87.2415 26.225ZM85.9448 21.278C86.2835 21.8648 86.4518 22.5333 86.431 23.2094C86.4391 23.8959 86.2528 24.571 85.8935 25.1576C85.5707 25.7607 84.9391 26.1376 84.2513 26.1376C83.5634 26.1376 82.9318 25.7607 82.609 25.1576C82.2729 24.576 82.1046 23.9137 82.1227 23.2433C82.0992 22.5562 82.2675 21.876 82.609 21.278C82.9377 20.6506 83.6038 20.2703 84.3153 20.3038C85.001 20.2939 85.6327 20.6716 85.9448 21.278Z" fill="white"/>
<path d="M94.2285 20.7358C94.0399 20.7016 93.8486 20.6847 93.657 20.6849C93.0703 20.6552 92.5095 20.9272 92.1726 21.405C91.8543 21.8806 91.696 22.444 91.7204 23.0145V27.2499H89.9032V21.6844C89.9032 20.7471 89.8805 19.9 89.835 19.1433H91.4218L91.4901 20.7019H91.5412C91.714 20.1943 92.0311 19.7471 92.454 19.4143C92.8338 19.1338 93.2946 18.9823 93.7679 18.9823C93.9184 18.9707 94.0696 18.9707 94.2201 18.9823L94.2285 20.7358Z" fill="white"/>
<path fill-rule="evenodd" clip-rule="evenodd" d="M102.299 23.6752C102.35 23.3959 102.373 23.1121 102.367 22.8281C102.39 21.933 102.137 21.0524 101.642 20.3039C101.038 19.4361 100.024 18.942 98.9631 18.9994C97.8528 18.9563 96.7884 19.4406 96.0965 20.3039C95.4028 21.171 95.043 22.255 95.0813 23.3619C95.0261 24.4596 95.4164 25.5336 96.1647 26.3436C96.9626 27.113 98.0486 27.5155 99.1592 27.4532C100.1 27.4764 101.035 27.3062 101.906 26.9534L101.625 25.6997C100.919 25.9629 100.169 26.0921 99.4151 26.0809C98.7718 26.1087 98.1395 25.9074 97.6321 25.5134C97.1058 25.0482 96.815 24.3746 96.8387 23.6752H102.299ZM100.311 20.9731C100.564 21.3914 100.686 21.875 100.661 22.3623H96.8729C96.914 21.8524 97.1003 21.3647 97.4103 20.9561C97.7367 20.4823 98.2827 20.205 98.8606 20.2191C99.4474 20.1844 100.006 20.4745 100.311 20.9731Z" fill="white"/>
<path fill-rule="evenodd" clip-rule="evenodd" d="M39.0989 11.3249C39.7156 10.7395 40.0298 9.90678 39.952 9.06317C40.0104 8.30711 39.7257 7.56468 39.1756 7.03865C38.5389 6.57208 37.7553 6.34676 36.966 6.40333C36.449 6.40171 35.9326 6.44137 35.4219 6.52193V11.9517C35.8552 12 36.2911 12.0226 36.7271 12.0195C37.5756 12.074 38.416 11.8278 39.0989 11.3249ZM38.4931 7.5723C38.8625 7.97892 39.0503 8.51678 39.0135 9.06317H39.0476C39.1031 9.67932 38.9028 10.2912 38.4931 10.7573C38.0467 11.1412 37.459 11.3224 36.8722 11.2571C36.6704 11.27 36.4681 11.27 36.2665 11.2571V7.11488C36.5028 7.0726 36.7429 7.05274 36.9831 7.05558C37.5363 7.01676 38.0815 7.20334 38.4931 7.5723Z" fill="white"/>
<path fill-rule="evenodd" clip-rule="evenodd" d="M44.4652 11.418C44.8259 10.9992 45.0148 10.4609 44.9941 9.91021C45.0148 9.37377 44.8286 8.84968 44.4736 8.44476C44.1076 8.05259 43.5871 7.83903 43.049 7.86027C42.4986 7.83576 41.9652 8.05257 41.59 8.45323C41.2219 8.87163 41.0295 9.41438 41.0527 9.96951C41.0338 10.5097 41.2229 11.0367 41.5816 11.4434C41.9403 11.8358 42.4559 12.0499 42.9892 12.0279C43.5477 12.0508 44.088 11.8276 44.4652 11.418ZM43.8253 9.06312C43.9741 9.32158 44.0562 9.61259 44.0641 9.9102V9.9695C44.0843 10.3187 44.0013 10.6661 43.8253 10.969C43.679 11.2745 43.3637 11.4643 43.0233 11.4519C42.6699 11.4732 42.3366 11.2878 42.1702 10.9775C42.0041 10.6891 41.9215 10.3608 41.9313 10.0288C41.9197 9.69116 42.0024 9.35694 42.1702 9.06312C42.335 8.75124 42.6695 8.56523 43.0233 8.58874C43.3618 8.57476 43.6766 8.76093 43.8253 9.06312Z" fill="white"/>
<path d="M51.6912 7.97876L50.4371 11.9685H49.5839L49.0635 10.2743C48.9335 9.85094 48.8253 9.42118 48.7394 8.98679C48.6618 9.42299 48.5535 9.85324 48.4152 10.2743L47.8606 11.9685H47.0075L45.8643 7.97876H46.7771L47.2379 9.9101C47.346 10.3562 47.437 10.7826 47.5109 11.1892C47.5791 10.856 47.69 10.4325 47.8435 9.91857L48.4152 8.01264H49.1403L49.6864 9.87622C49.8171 10.3336 49.9252 10.7713 50.0105 11.1892C50.0779 10.747 50.169 10.3087 50.2835 9.87622L50.7698 8.01264H51.623L51.6912 7.97876Z" fill="white"/>
<path d="M56.3324 11.9687H55.4794V9.68155C55.4794 8.97564 55.2092 8.62269 54.6688 8.62269C54.4209 8.62055 54.1842 8.72568 54.0205 8.9107C53.8568 9.10199 53.7689 9.34589 53.7731 9.59684V11.9687H52.9199V9.12246C52.9199 8.77234 52.9199 8.39115 52.9199 7.97891H53.6024V8.60576C53.7104 8.40728 53.8694 8.24071 54.0631 8.12292C54.3059 7.97187 54.5871 7.89254 54.8736 7.89421C55.2235 7.88309 55.5626 8.01471 55.812 8.25845C56.1436 8.61644 56.3103 9.09504 56.2728 9.57989L56.3324 11.9687Z" fill="white"/>
<path d="M58.7981 11.9686H57.8682V6.14917H58.7212L58.7981 11.9686Z" fill="white"/>
<path fill-rule="evenodd" clip-rule="evenodd" d="M63.5326 11.418C63.8934 10.9992 64.0822 10.4609 64.0615 9.91019C64.0783 9.38754 63.8989 8.87736 63.5582 8.47862C63.1922 8.08645 62.6716 7.87289 62.1334 7.89413C61.5885 7.8609 61.0558 8.065 60.6746 8.45321C60.3033 8.87031 60.1078 9.4132 60.1286 9.96949C60.1074 10.5086 60.2935 11.0354 60.649 11.4434C61.0071 11.8368 61.5232 12.0511 62.0567 12.0279C62.6152 12.0508 63.1554 11.8276 63.5326 11.418ZM62.8928 9.06311C63.0415 9.32158 63.1236 9.61258 63.1317 9.91019V9.96949C63.157 10.3005 63.089 10.6319 62.9354 10.9267C62.7891 11.2322 62.4738 11.422 62.1335 11.4095C61.78 11.4308 61.4467 11.2455 61.2803 10.9352C61.1218 10.6592 61.0394 10.3465 61.0415 10.0288C61.0298 9.69117 61.1125 9.35693 61.2803 9.06311C61.4303 8.758 61.7493 8.5713 62.0909 8.58875C62.4293 8.57476 62.744 8.76092 62.8928 9.06311Z" fill="white"/>
<path fill-rule="evenodd" clip-rule="evenodd" d="M67.585 11.9686H68.3869C68.3442 11.6457 68.3271 11.32 68.3358 10.9944V9.52049C68.3358 8.41929 67.8095 7.86869 66.7574 7.86869C66.2729 7.85214 65.7935 7.97259 65.3753 8.21598L65.546 8.82588C65.8509 8.63041 66.2067 8.52739 66.5697 8.52941C67.1385 8.52941 67.4228 8.792 67.4228 9.31719V9.35107C66.8294 9.31832 66.2386 9.45031 65.7165 9.73226C65.3194 9.9636 65.0832 10.3936 65.1023 10.8504C65.0851 11.164 65.1992 11.4706 65.418 11.6975C65.6587 11.9439 65.994 12.0764 66.3394 12.0617C66.8001 12.0861 67.2423 11.8793 67.5168 11.5111L67.585 11.9686ZM67.457 9.97791V10.5878C67.4599 10.8371 67.3387 11.0718 67.1328 11.2146C66.9761 11.3343 66.7844 11.3998 66.5868 11.401C66.4274 11.4074 66.2717 11.3528 66.1516 11.2485C66.0299 11.1248 65.9679 10.9551 65.9811 10.7826C65.9811 10.2462 66.4731 9.97791 67.457 9.97791Z" fill="white"/>
<path fill-rule="evenodd" clip-rule="evenodd" d="M72.6782 11.9686H73.4716C73.4488 11.6411 73.4431 11.2853 73.4545 10.9013V6.14917H72.6013V8.42782C72.3562 8.04929 71.9176 7.83971 71.4668 7.88569C70.9883 7.87825 70.5316 8.08327 70.2212 8.44477C69.8595 8.88582 69.6742 9.44372 69.7007 10.0119C69.6758 10.5443 69.8455 11.0677 70.1785 11.4858C70.471 11.8522 70.919 12.0621 71.3899 12.0533C71.9278 12.0901 72.4356 11.803 72.6782 11.3248V11.9686ZM72.5417 9.60527V10.2745V10.2829C72.5535 10.5425 72.4718 10.7978 72.3113 11.003C72.1431 11.2204 71.8792 11.3435 71.6033 11.3333C71.2904 11.3415 70.9949 11.1916 70.8183 10.9352C70.6238 10.6514 70.528 10.3123 70.5453 9.96951C70.5323 9.61152 70.6338 9.2586 70.8354 8.96149C71.012 8.70509 71.3075 8.55516 71.6202 8.56336C71.8405 8.55747 72.0545 8.63638 72.2175 8.78361C72.3811 8.92525 72.4947 9.11526 72.5417 9.32574C72.5518 9.41865 72.5518 9.51236 72.5417 9.60527Z" fill="white"/>
<path fill-rule="evenodd" clip-rule="evenodd" d="M80.5863 11.418C80.9471 10.9992 81.1359 10.4609 81.1152 9.9102C81.1343 9.38868 80.9581 8.87862 80.6204 8.47864C80.255 8.08551 79.7341 7.87176 79.1957 7.89415C78.6477 7.85841 78.1115 8.0627 77.7283 8.45323C77.357 8.87034 77.1616 9.41323 77.1823 9.9695C77.1612 10.5086 77.3472 11.0355 77.7027 11.4434C78.0615 11.8358 78.577 12.0499 79.1104 12.0279C79.6692 12.052 80.2098 11.8286 80.5863 11.418ZM79.9465 9.06314C80.0952 9.3216 80.1773 9.61261 80.1853 9.91022V9.96952C80.2009 10.3065 80.1212 10.641 79.955 10.9352C79.7965 11.2313 79.4865 11.4164 79.1487 11.4164C78.811 11.4164 78.501 11.2313 78.3425 10.9352C78.184 10.6592 78.1016 10.3465 78.1037 10.0288C78.092 9.6912 78.1747 9.35696 78.3425 9.06314C78.4992 8.76829 78.8087 8.58518 79.1444 8.58877C79.483 8.57479 79.7977 8.76095 79.9465 9.06314Z" fill="white"/>
<path d="M85.919 11.9686H85.066V9.68148C85.066 8.97557 84.7815 8.62262 84.2128 8.62262C83.9634 8.61317 83.7236 8.71964 83.5645 8.91063C83.4001 9.10153 83.3121 9.34568 83.3171 9.59677V11.9686H82.4639V9.1224C82.4639 8.77227 82.4639 8.39108 82.4639 7.97884H83.2488V8.60567C83.3574 8.40768 83.5163 8.24126 83.7095 8.12285C83.9646 7.96384 84.2617 7.8842 84.5627 7.89414C84.9124 7.88302 85.2516 8.01465 85.5011 8.25838C85.8325 8.61638 85.9994 9.09497 85.9617 9.57982L85.919 11.9686Z" fill="white"/>
<path d="M91.9413 8.6396H90.9602V10.5794C90.9602 11.0707 91.1394 11.3164 91.4806 11.3164C91.6137 11.3333 91.7485 11.3333 91.8816 11.3164V11.994C91.659 12.0678 91.4251 12.1022 91.1905 12.0957C90.872 12.1207 90.5589 12.0026 90.3374 11.7738C90.1083 11.4637 90.002 11.0808 90.0389 10.698V8.6396H89.4502V7.97889H90.0389V7.25039L90.8919 6.98779V7.97889H91.873V8.6396H91.9413Z" fill="white"/>
<path d="M96.6677 11.9686H95.8146V9.69844C95.8146 8.98125 95.5445 8.62265 95.0041 8.62265C94.61 8.60818 94.2573 8.86386 94.151 9.24102C94.1354 9.34775 94.1354 9.45617 94.151 9.56291V11.9686H93.2979V6.14917H94.151V8.55488C94.4038 8.13344 94.8688 7.88316 95.3624 7.90263C95.691 7.88553 96.013 7.99821 96.2582 8.21605C96.5841 8.58368 96.747 9.0661 96.7103 9.55444L96.6677 11.9686Z" fill="white"/>
<path fill-rule="evenodd" clip-rule="evenodd" d="M101.557 10.1897C101.57 10.0545 101.57 9.91834 101.557 9.7831C101.556 9.3395 101.415 8.90723 101.156 8.54636C100.861 8.1185 100.363 7.8744 99.8418 7.90259C99.2958 7.88101 98.7724 8.12036 98.4341 8.54636C98.0953 8.97204 97.9199 9.50346 97.9393 10.0457C97.9109 10.5848 98.1015 11.1127 98.4683 11.5111C98.8594 11.888 99.3917 12.0846 99.9356 12.0533C100.397 12.0627 100.856 11.9792 101.284 11.8076L101.147 11.1893C100.801 11.318 100.433 11.3812 100.064 11.3756C99.7553 11.3834 99.4537 11.2846 99.2105 11.0961C98.9504 10.867 98.8066 10.5348 98.8181 10.1897H101.557ZM100.533 8.86826C100.658 9.07463 100.718 9.31382 100.703 9.55439L98.8523 9.54592C98.8746 9.29729 98.9661 9.05975 99.1166 8.85979C99.2775 8.62956 99.5426 8.4932 99.8247 8.49553C100.112 8.48175 100.383 8.62471 100.533 8.86826Z" fill="white"/>
</g>
</g>
</g>
<defs>
<clipPath id="clip0_102_2998">
<rect width="113.08" height="35" fill="white"/>
</clipPath>
<clipPath id="clip1_102_2998">
<rect width="113.08" height="35" fill="white"/>
</clipPath>
<clipPath id="clip2_102_2998">
<rect width="113.077" height="35" fill="white" transform="translate(0.00195312)"/>
</clipPath>
</defs>
</svg>
