<svg width="360" height="110" viewBox="0 0 360 110" fill="none" xmlns="http://www.w3.org/2000/svg">
<rect width="359.333" height="110" rx="12" fill="#F5F5F5"/>
<path d="M0 12C0 5.37258 5.37258 0 12 0H160V110H12C5.37258 110 0 104.627 0 98V12Z" fill="#009FA6" fill-opacity="0.1"/>
<path d="M15.9001 56.9462C15.894 58.8141 15.894 60.6761 15.9001 62.547C19.4546 62.4171 23.0606 62.8432 26.5849 62.278C29.0876 61.8397 29.0362 57.7895 26.6151 57.2605C23.0908 56.6077 19.4667 57.0882 15.9001 56.9462ZM15.9001 47.2467C15.894 49.0784 15.894 50.9192 15.9001 52.7569C19.4607 52.6269 23.0606 53.0531 26.5849 52.4849C29.0725 51.968 28.87 47.821 26.3552 47.4946C22.9064 46.9626 19.3821 47.3646 15.9001 47.2467ZM10 43H26.7572C29.0241 43.2479 31.5691 43.5199 33.2467 45.2428C35.1872 47.3586 35.3353 51.1035 33.1771 53.1317C32.4396 53.8027 31.5812 54.3196 30.7621 54.8878C32.2462 55.7523 33.9932 56.5835 34.6008 58.3275C35.4018 60.803 34.6703 63.9948 32.3097 65.358C30.5112 66.4008 28.3712 66.5852 26.3431 66.7273H10V43Z" fill="#545554"/>
<path d="M51.5186 43H76.4458C76.4337 44.3813 76.4337 45.7566 76.4397 47.1409C73.3265 47.1349 70.2132 47.1409 67.0969 47.1409V66.7273H60.7797V47.147C57.6937 47.1409 54.6107 47.1349 51.5246 47.1409C51.5306 45.7566 51.5246 44.3813 51.5186 43Z" fill="#545554"/>
<path d="M89.2609 43H100.175C100.163 44.3692 100.163 45.7385 100.169 47.1168C95.9046 47.2709 91.5853 46.748 87.3567 47.4613C84.848 47.9298 83.4153 50.2723 83.2158 52.6753C88.868 52.7085 94.5233 52.6874 100.169 52.6874C100.157 54.0566 100.157 55.4289 100.175 56.8041C94.5384 56.8041 88.9043 56.7981 83.2702 56.8041C83.4002 59.059 84.2707 61.6554 86.7734 62.1783C91.1712 63.0488 95.7081 62.4322 100.169 62.6105C100.163 63.9828 100.163 65.358 100.175 66.7273H89.2549C85.9845 66.555 82.5145 65.9928 79.9272 63.8316C77.6331 61.9637 76.5722 58.9683 76.4936 56.0727C76.3455 52.5846 76.9862 48.6885 79.6431 46.1918C82.2183 43.7828 85.8787 43.1995 89.2609 43Z" fill="#545554"/>
<path d="M114.158 43H125.091C125.079 44.3511 125.079 45.6992 125.085 47.0503C121.116 47.153 117.123 46.8145 113.167 47.2407C110.942 47.4825 109.098 49.2386 108.587 51.3937C107.892 54.0203 107.75 56.9039 108.587 59.5154C109.234 61.4377 111.268 62.4805 113.209 62.5289C117.159 62.7344 121.128 62.5591 125.085 62.6105C125.079 63.9828 125.079 65.358 125.091 66.7273H114.17C110.776 66.555 107.133 65.9384 104.54 63.5656C102.276 61.5496 101.378 58.4242 101.388 55.4742C101.345 52.1705 102.043 48.5343 104.564 46.1918C107.133 43.7889 110.782 43.2055 114.158 43Z" fill="#545554"/>
<path d="M127.458 43H133.343V52.6209H144.164V43H150V66.7273H144.164C144.164 63.4175 144.164 60.1078 144.158 56.8041C140.558 56.7981 136.952 56.7981 133.343 56.8041V66.7273H127.458V43Z" fill="#545554"/>
<path d="M41.9272 53.5331C45.6268 51.109 51.1521 53.2036 52.3551 57.4443C53.8785 61.6971 50.4569 66.5423 45.9895 66.7267H45.249C43.2541 66.5211 41.2683 65.6597 40.032 64.0215C37.3691 60.8659 38.3243 55.5582 41.9272 53.5331Z" fill="#EB8F2D"/>
<path d="M177.66 33.04H182.48C183.747 33.04 184.727 33.3667 185.42 34.02C186.127 34.6733 186.48 35.5667 186.48 36.7C186.48 37.5133 186.28 38.16 185.88 38.64C185.48 39.12 184.94 39.46 184.26 39.66V39.76C185.073 39.9467 185.727 40.3067 186.22 40.84C186.713 41.36 186.96 42.1 186.96 43.06C186.96 43.6333 186.867 44.16 186.68 44.64C186.493 45.12 186.227 45.54 185.88 45.9C185.533 46.2467 185.113 46.52 184.62 46.72C184.14 46.9067 183.607 47 183.02 47H177.66V33.04ZM182.34 45.28C183.087 45.28 183.66 45.1267 184.06 44.82C184.46 44.5133 184.66 44.02 184.66 43.34V42.62C184.66 41.94 184.46 41.4467 184.06 41.14C183.66 40.8333 183.087 40.68 182.34 40.68H179.86V45.28H182.34ZM182.02 39.04C182.727 39.04 183.26 38.9067 183.62 38.64C183.993 38.36 184.18 37.9 184.18 37.26V36.54C184.18 35.9 183.993 35.4467 183.62 35.18C183.26 34.9 182.727 34.76 182.02 34.76H179.86V39.04H182.02ZM193.992 47.2C193.352 47.2 192.899 47.0667 192.632 46.8C192.379 46.5333 192.252 46.2067 192.252 45.82V45.3C192.252 44.9133 192.379 44.5867 192.632 44.32C192.899 44.0533 193.352 43.92 193.992 43.92C194.632 43.92 195.079 44.0533 195.332 44.32C195.599 44.5867 195.732 44.9133 195.732 45.3V45.82C195.732 46.2067 195.599 46.5333 195.332 46.8C195.079 47.0667 194.632 47.2 193.992 47.2ZM207.104 34.92V47H204.864V34.92H200.484V33.04H211.484V34.92H207.104ZM213.697 47V33.04H222.437V34.92H215.937V38.98H222.197V40.86H215.937V45.12H222.437V47H213.697ZM230.369 47.24C228.595 47.24 227.275 46.6133 226.409 45.36C225.555 44.1067 225.129 42.3267 225.129 40.02C225.129 37.7133 225.555 35.9333 226.409 34.68C227.275 33.4267 228.595 32.8 230.369 32.8C231.049 32.8 231.635 32.8933 232.129 33.08C232.635 33.2533 233.069 33.5 233.429 33.82C233.789 34.1267 234.089 34.4933 234.329 34.92C234.582 35.3333 234.789 35.78 234.949 36.26L232.929 36.94C232.822 36.62 232.702 36.32 232.569 36.04C232.435 35.76 232.269 35.52 232.069 35.32C231.869 35.12 231.629 34.96 231.349 34.84C231.082 34.72 230.749 34.66 230.349 34.66C229.362 34.66 228.642 35.04 228.189 35.8C227.735 36.5467 227.509 37.56 227.509 38.84V41.2C227.509 42.48 227.735 43.5 228.189 44.26C228.642 45.0067 229.362 45.38 230.349 45.38C230.749 45.38 231.082 45.32 231.349 45.2C231.629 45.08 231.869 44.92 232.069 44.72C232.269 44.52 232.435 44.28 232.569 44C232.702 43.72 232.822 43.42 232.929 43.1L234.949 43.78C234.789 44.26 234.582 44.7133 234.329 45.14C234.089 45.5533 233.789 45.92 233.429 46.24C233.069 46.5467 232.635 46.7933 232.129 46.98C231.635 47.1533 231.049 47.24 230.369 47.24ZM244.281 40.86H239.641V47H237.401V33.04H239.641V38.98H244.281V33.04H246.521V47H244.281V40.86Z" fill="black"/>
<path d="M179.888 80L176.576 68.832H178L179.584 74.416L180.784 78.64H180.864L182.064 74.416L183.648 68.832H185.024L181.712 80H179.888ZM190.906 69.92C190.532 69.92 190.271 69.8453 190.122 69.696C189.972 69.536 189.898 69.3387 189.898 69.104V68.848C189.898 68.6133 189.972 68.4213 190.122 68.272C190.271 68.112 190.532 68.032 190.906 68.032C191.279 68.032 191.54 68.112 191.69 68.272C191.839 68.4213 191.914 68.6133 191.914 68.848V69.104C191.914 69.3387 191.839 69.536 191.69 69.696C191.54 69.8453 191.279 69.92 190.906 69.92ZM187.29 78.912H190.266V72.832H187.29V71.744H191.546V78.912H194.33V80H187.29V78.912ZM200.084 80.192C199.22 80.192 198.473 80.048 197.844 79.76C197.225 79.4613 196.697 79.0667 196.26 78.576L197.124 77.824C197.518 78.24 197.95 78.56 198.42 78.784C198.889 79.008 199.454 79.12 200.116 79.12C200.756 79.12 201.278 79.008 201.684 78.784C202.1 78.5493 202.308 78.1867 202.308 77.696C202.308 77.4827 202.265 77.3067 202.18 77.168C202.105 77.0187 201.998 76.9013 201.86 76.816C201.721 76.7307 201.566 76.6667 201.396 76.624C201.225 76.5707 201.044 76.528 200.852 76.496L199.556 76.304C199.268 76.2613 198.953 76.2027 198.612 76.128C198.281 76.0533 197.977 75.936 197.7 75.776C197.422 75.6053 197.188 75.3813 196.996 75.104C196.814 74.8267 196.724 74.464 196.724 74.016C196.724 73.6 196.804 73.2427 196.964 72.944C197.134 72.6347 197.369 72.3787 197.668 72.176C197.966 71.9627 198.318 71.808 198.724 71.712C199.129 71.6053 199.572 71.552 200.052 71.552C200.798 71.552 201.444 71.6693 201.988 71.904C202.542 72.1387 203.017 72.464 203.411 72.88L202.58 73.664C202.484 73.5467 202.361 73.4293 202.212 73.312C202.073 73.184 201.897 73.072 201.684 72.976C201.481 72.8693 201.241 72.784 200.964 72.72C200.686 72.656 200.366 72.624 200.004 72.624C199.353 72.624 198.852 72.736 198.5 72.96C198.158 73.184 197.988 73.5093 197.988 73.936C197.988 74.1493 198.025 74.3307 198.1 74.48C198.185 74.6187 198.297 74.7307 198.436 74.816C198.574 74.9013 198.729 74.9707 198.9 75.024C199.081 75.0667 199.262 75.104 199.444 75.136L200.74 75.328C201.038 75.3707 201.353 75.4293 201.684 75.504C202.014 75.5787 202.318 75.7013 202.596 75.872C202.873 76.032 203.102 76.2507 203.284 76.528C203.476 76.8053 203.572 77.168 203.572 77.616C203.572 78.4373 203.252 79.072 202.612 79.52C201.982 79.968 201.14 80.192 200.084 80.192ZM210.093 69.92C209.72 69.92 209.459 69.8453 209.309 69.696C209.16 69.536 209.085 69.3387 209.085 69.104V68.848C209.085 68.6133 209.16 68.4213 209.309 68.272C209.459 68.112 209.72 68.032 210.093 68.032C210.467 68.032 210.728 68.112 210.877 68.272C211.027 68.4213 211.101 68.6133 211.101 68.848V69.104C211.101 69.3387 211.027 69.536 210.877 69.696C210.728 69.8453 210.467 69.92 210.093 69.92ZM206.477 78.912H209.453V72.832H206.477V71.744H210.733V78.912H213.517V80H206.477V78.912ZM219.575 80C218.946 80 218.482 79.824 218.183 79.472C217.895 79.12 217.751 78.6667 217.751 78.112V72.832H214.999V71.744H217.047C217.324 71.744 217.516 71.6907 217.623 71.584C217.74 71.4667 217.799 71.2693 217.799 70.992V68.832H219.031V71.744H222.791V72.832H219.031V78.912H222.791V80H219.575ZM238.763 80C238.133 80 237.669 79.824 237.371 79.472C237.083 79.12 236.939 78.6667 236.939 78.112V72.832H234.187V71.744H236.235C236.512 71.744 236.704 71.6907 236.811 71.584C236.928 71.4667 236.987 71.2693 236.987 70.992V68.832H238.219V71.744H241.979V72.832H238.219V78.912H241.979V80H238.763ZM244.724 68.16H246.004V73.088H246.068C246.154 72.8853 246.26 72.6933 246.388 72.512C246.516 72.32 246.671 72.1547 246.852 72.016C247.044 71.8773 247.268 71.7653 247.524 71.68C247.78 71.5947 248.079 71.552 248.42 71.552C249.284 71.552 249.978 71.8293 250.5 72.384C251.023 72.928 251.284 73.7013 251.284 74.704V80H250.004V74.928C250.004 74.1707 249.839 73.6107 249.508 73.248C249.178 72.8747 248.692 72.688 248.052 72.688C247.796 72.688 247.546 72.72 247.3 72.784C247.055 72.848 246.836 72.944 246.644 73.072C246.452 73.2 246.298 73.3653 246.18 73.568C246.063 73.7707 246.004 74.0053 246.004 74.272V80H244.724V68.16ZM257.694 80.192C257.097 80.192 256.558 80.0907 256.078 79.888C255.609 79.6853 255.203 79.3973 254.862 79.024C254.531 78.64 254.275 78.1867 254.094 77.664C253.913 77.1307 253.822 76.5387 253.822 75.888C253.822 75.2267 253.913 74.6293 254.094 74.096C254.286 73.5627 254.547 73.1093 254.878 72.736C255.209 72.352 255.603 72.0587 256.062 71.856C256.531 71.6533 257.049 71.552 257.614 71.552C258.169 71.552 258.67 71.6533 259.118 71.856C259.577 72.0587 259.966 72.3413 260.286 72.704C260.606 73.056 260.851 73.4773 261.022 73.968C261.193 74.4587 261.278 74.9973 261.278 75.584V76.192H255.166V76.576C255.166 76.9387 255.225 77.2747 255.342 77.584C255.459 77.8933 255.625 78.16 255.838 78.384C256.062 78.608 256.329 78.784 256.638 78.912C256.958 79.0293 257.31 79.088 257.694 79.088C258.249 79.088 258.729 78.96 259.134 78.704C259.539 78.448 259.849 78.096 260.062 77.648L261.006 78.288C260.761 78.8427 260.35 79.3013 259.774 79.664C259.209 80.016 258.515 80.192 257.694 80.192ZM257.614 72.608C257.262 72.608 256.937 72.672 256.638 72.8C256.339 72.928 256.078 73.104 255.854 73.328C255.641 73.552 255.47 73.8187 255.342 74.128C255.225 74.4267 255.166 74.7573 255.166 75.12V75.232H259.902V75.056C259.902 74.6933 259.843 74.3627 259.726 74.064C259.619 73.7653 259.465 73.5093 259.262 73.296C259.07 73.072 258.83 72.9013 258.542 72.784C258.265 72.6667 257.955 72.608 257.614 72.608ZM276.834 80.192C275.97 80.192 275.223 80.048 274.594 79.76C273.975 79.4613 273.447 79.0667 273.01 78.576L273.874 77.824C274.268 78.24 274.7 78.56 275.17 78.784C275.639 79.008 276.204 79.12 276.866 79.12C277.506 79.12 278.028 79.008 278.434 78.784C278.85 78.5493 279.058 78.1867 279.058 77.696C279.058 77.4827 279.015 77.3067 278.93 77.168C278.855 77.0187 278.748 76.9013 278.61 76.816C278.471 76.7307 278.316 76.6667 278.146 76.624C277.975 76.5707 277.794 76.528 277.602 76.496L276.306 76.304C276.018 76.2613 275.703 76.2027 275.362 76.128C275.031 76.0533 274.727 75.936 274.45 75.776C274.172 75.6053 273.938 75.3813 273.746 75.104C273.564 74.8267 273.474 74.464 273.474 74.016C273.474 73.6 273.554 73.2427 273.714 72.944C273.884 72.6347 274.119 72.3787 274.418 72.176C274.716 71.9627 275.068 71.808 275.474 71.712C275.879 71.6053 276.322 71.552 276.802 71.552C277.548 71.552 278.194 71.6693 278.738 71.904C279.292 72.1387 279.767 72.464 280.161 72.88L279.33 73.664C279.234 73.5467 279.111 73.4293 278.962 73.312C278.823 73.184 278.647 73.072 278.434 72.976C278.231 72.8693 277.991 72.784 277.714 72.72C277.436 72.656 277.116 72.624 276.754 72.624C276.103 72.624 275.602 72.736 275.25 72.96C274.908 73.184 274.738 73.5093 274.738 73.936C274.738 74.1493 274.775 74.3307 274.85 74.48C274.935 74.6187 275.047 74.7307 275.186 74.816C275.324 74.9013 275.479 74.9707 275.65 75.024C275.831 75.0667 276.012 75.104 276.194 75.136L277.49 75.328C277.788 75.3707 278.103 75.4293 278.434 75.504C278.764 75.5787 279.068 75.7013 279.346 75.872C279.623 76.032 279.852 76.2507 280.034 76.528C280.226 76.8053 280.322 77.168 280.322 77.616C280.322 78.4373 280.002 79.072 279.362 79.52C278.732 79.968 277.89 80.192 276.834 80.192ZM286.731 80C286.102 80 285.638 79.824 285.339 79.472C285.051 79.12 284.907 78.6667 284.907 78.112V72.832H282.155V71.744H284.203C284.481 71.744 284.673 71.6907 284.779 71.584C284.897 71.4667 284.955 71.2693 284.955 70.992V68.832H286.187V71.744H289.947V72.832H286.187V78.912H289.947V80H286.731ZM295.925 80.192C295.349 80.192 294.826 80.0907 294.357 79.888C293.898 79.6853 293.504 79.3973 293.173 79.024C292.853 78.64 292.608 78.1867 292.437 77.664C292.266 77.1307 292.181 76.5333 292.181 75.872C292.181 75.2213 292.266 74.6293 292.437 74.096C292.608 73.5627 292.853 73.1093 293.173 72.736C293.504 72.352 293.898 72.0587 294.357 71.856C294.826 71.6533 295.349 71.552 295.925 71.552C296.501 71.552 297.018 71.6533 297.477 71.856C297.946 72.0587 298.341 72.352 298.661 72.736C298.992 73.1093 299.242 73.5627 299.413 74.096C299.584 74.6293 299.669 75.2213 299.669 75.872C299.669 76.5333 299.584 77.1307 299.413 77.664C299.242 78.1867 298.992 78.64 298.661 79.024C298.341 79.3973 297.946 79.6853 297.477 79.888C297.018 80.0907 296.501 80.192 295.925 80.192ZM295.925 79.088C296.64 79.088 297.216 78.8747 297.653 78.448C298.09 78.0213 298.309 77.36 298.309 76.464V75.28C298.309 74.384 298.09 73.7227 297.653 73.296C297.216 72.8693 296.64 72.656 295.925 72.656C295.21 72.656 294.634 72.8693 294.197 73.296C293.76 73.7227 293.541 74.384 293.541 75.28V76.464C293.541 77.36 293.76 78.0213 294.197 78.448C294.634 78.8747 295.21 79.088 295.925 79.088ZM301.951 78.912H304.367V72.832H301.951V71.744H305.647V73.824H305.727C305.897 73.1733 306.217 72.6667 306.687 72.304C307.167 71.9307 307.775 71.744 308.511 71.744H309.663V73.024H308.111C307.375 73.024 306.777 73.2373 306.319 73.664C305.871 74.0907 305.647 74.6507 305.647 75.344V78.912H308.847V80H301.951V78.912ZM315.257 80.192C314.659 80.192 314.121 80.0907 313.641 79.888C313.171 79.6853 312.766 79.3973 312.424 79.024C312.094 78.64 311.838 78.1867 311.657 77.664C311.475 77.1307 311.385 76.5387 311.385 75.888C311.385 75.2267 311.475 74.6293 311.657 74.096C311.849 73.5627 312.11 73.1093 312.441 72.736C312.771 72.352 313.166 72.0587 313.625 71.856C314.094 71.6533 314.611 71.552 315.177 71.552C315.731 71.552 316.233 71.6533 316.681 71.856C317.139 72.0587 317.529 72.3413 317.849 72.704C318.169 73.056 318.414 73.4773 318.585 73.968C318.755 74.4587 318.841 74.9973 318.841 75.584V76.192H312.729V76.576C312.729 76.9387 312.787 77.2747 312.905 77.584C313.022 77.8933 313.187 78.16 313.401 78.384C313.625 78.608 313.891 78.784 314.201 78.912C314.521 79.0293 314.873 79.088 315.257 79.088C315.811 79.088 316.291 78.96 316.697 78.704C317.102 78.448 317.411 78.096 317.625 77.648L318.569 78.288C318.323 78.8427 317.913 79.3013 317.337 79.664C316.771 80.016 316.078 80.192 315.257 80.192ZM315.177 72.608C314.825 72.608 314.499 72.672 314.201 72.8C313.902 72.928 313.641 73.104 313.417 73.328C313.203 73.552 313.033 73.8187 312.905 74.128C312.787 74.4267 312.729 74.7573 312.729 75.12V75.232H317.465V75.056C317.465 74.6933 317.406 74.3627 317.289 74.064C317.182 73.7653 317.027 73.5093 316.825 73.296C316.633 73.072 316.393 72.9013 316.105 72.784C315.827 72.6667 315.518 72.608 315.177 72.608Z" fill="#0090FF"/>
<path fill-rule="evenodd" clip-rule="evenodd" d="M340.48 75.0839L335.289 69.8549C334.904 69.4678 334.904 68.8418 335.289 68.4548C335.472 68.2694 335.722 68.1652 335.982 68.1652C336.243 68.1652 336.493 68.2694 336.676 68.4548L342.561 74.3828C342.945 74.7703 342.945 75.3953 342.561 75.7828L336.676 81.7108C336.493 81.8959 336.243 82 335.982 82C335.722 82 335.472 81.8959 335.289 81.7108C334.904 81.3234 334.904 80.698 335.289 80.3107L340.48 75.0839Z" fill="#0090FF"/>
</svg>
