<svg width="360" height="110" viewBox="0 0 360 110" fill="none" xmlns="http://www.w3.org/2000/svg">
<g clip-path="url(#clip0_680_4592)">
<rect x="0.333008" width="359.333" height="110" rx="12" fill="#F5F5F5"/>
<path d="M0.333008 12C0.333008 5.37258 5.70559 0 12.333 0H160.333V110H12.333C5.70559 110 0.333008 104.627 0.333008 98V12Z" fill="#009FA6" fill-opacity="0.1"/>
<g clip-path="url(#clip1_680_4592)">
<path d="M150.333 44.0479V50.5756H117.181V42.1472C117.181 41.4944 116.834 41.168 116.158 41.072V40.784C117.384 40.7748 118.555 40.2849 119.42 39.4209H119.709L119.516 41.6864V48.2909H147.959V46.371H138.793V42.4736L145.972 39.4017L146.338 40.1121L141.051 43.6639V44.0479H150.333ZM70.8308 48.2909L70.7922 47.7725C70.7146 47.2444 70.5517 46.7322 70.3098 46.2558C69.4222 46.4094 68.824 47.0237 68.5731 48.2909H70.8308ZM101.956 45.219L101.898 42.9535C100.47 43.2415 99.7371 43.7599 99.7371 44.4703C99.7371 44.9886 100.027 45.2382 100.625 45.2382L101.956 45.219ZM104.523 50.5564H73.1657L73.0692 51.1708C72.8353 52.0405 72.3114 52.8054 71.5834 53.3403C70.84 53.8528 69.9599 54.1336 69.0555 54.1466C68.0723 54.181 67.1085 53.8681 66.3347 53.2635C65.9014 52.944 65.5366 52.5417 65.2616 52.0802C64.9865 51.6186 64.8069 51.1071 64.7331 50.5756H65.1383C65.3392 51.1714 65.7158 51.6932 66.2189 52.0731C66.7103 52.4647 67.3194 52.6813 67.949 52.6883C68.5786 52.6952 69.1923 52.4922 69.6923 52.1115C69.9468 51.9313 70.1631 51.7028 70.3286 51.4392C70.4942 51.1757 70.6058 50.8822 70.6572 50.5756H66.2575L66.1997 49.0972L66.3926 47.6765C66.5645 46.9257 66.8933 46.2192 67.3574 45.603C67.7959 45.1336 68.3284 44.7608 68.9205 44.5087C69.6937 44.1523 70.5114 43.9005 71.3518 43.7599C72.2523 44.6047 72.8505 46.0702 73.1464 48.1565V48.2909H102.091V47.5037H100.219C99.5166 47.5139 98.8329 47.2758 98.2898 46.8318C98.0147 46.6085 97.7924 46.3275 97.639 46.0089C97.4855 45.6903 97.4047 45.3419 97.4022 44.9886C97.4022 43.8943 98.1355 42.8767 99.6406 41.9744C101.137 41.102 102.846 40.657 104.581 40.688L104.523 50.5564ZM112.666 45.411L112.531 44.6431C112.224 45.2453 111.788 45.7737 111.255 46.1915C110.722 46.6093 110.104 46.9064 109.443 47.0621V47.3117C109.739 47.3317 110.028 47.4099 110.293 47.5417C110.558 47.6736 110.794 47.8564 110.987 48.0797C111.369 48.5403 111.587 49.1145 111.604 49.7116C111.604 50.5948 111.257 51.2476 110.717 51.8811C110.427 52.1579 110.085 52.375 109.711 52.5199C109.337 52.6649 108.938 52.7349 108.536 52.7259C107.645 52.7416 106.775 52.4575 106.066 51.9195C106.383 52.5785 106.877 53.1369 107.494 53.5322C108.202 53.9885 109.025 54.2349 109.868 54.2426C111.026 54.2426 111.952 53.801 112.801 52.9563C113.746 52.0155 114.19 50.8828 114.19 49.462C114.19 48.6557 113.939 47.8109 113.496 46.9085L112.666 45.411ZM62.2631 45.411L62.1088 44.6431C61.7986 45.2394 61.3648 45.7634 60.8358 46.1805C60.3069 46.5975 59.695 46.898 59.0406 47.0621V47.3117C59.3362 47.3317 59.6249 47.4099 59.8899 47.5417C60.1549 47.6736 60.3909 47.8564 60.5844 48.0797C60.9775 48.539 61.184 49.1279 61.1632 49.7308C61.1739 50.1338 61.1006 50.5347 60.9478 50.9081C60.795 51.2815 60.5662 51.6193 60.2756 51.9003C59.6954 52.4545 58.9186 52.7581 58.1144 52.7451C57.2348 52.7628 56.376 52.478 55.683 51.9387C55.9499 52.6169 56.4395 53.1854 57.0724 53.5514C57.7769 54.0137 58.602 54.2606 59.4459 54.2618C60.5265 54.2618 61.5299 53.8202 62.4175 52.9755C63.2908 52.0209 63.7667 50.7718 63.749 49.4812C63.749 48.7261 63.4981 47.8749 62.9964 46.9277L62.2631 45.411ZM117.2 50.5564H150.352H117.2ZM98.6372 40.4H98.6951C99.0436 40.3768 99.3752 40.2421 99.6406 40.0161C99.8519 39.7834 99.9747 39.4846 99.9879 39.1713C99.9808 39.0181 99.943 38.8679 99.8767 38.7294C99.8104 38.5909 99.717 38.467 99.602 38.3649C99.3432 38.1284 99.0077 37.9921 98.6565 37.981C98.4965 37.9862 98.3392 38.0228 98.1935 38.0887C98.0478 38.1546 97.9166 38.2485 97.8074 38.3649C97.6924 38.467 97.599 38.5909 97.5327 38.7294C97.4664 38.8679 97.4286 39.0181 97.4215 39.1713C97.4177 39.3404 97.4502 39.5083 97.5167 39.6639C97.5833 39.8195 97.6824 39.9592 97.8074 40.0737C97.9172 40.18 98.047 40.2635 98.1894 40.3196C98.3319 40.3756 98.484 40.403 98.6372 40.4ZM122.661 62.287C124.263 62.287 125.652 62.8054 126.636 63.7462C127.621 64.6869 128.18 66.0501 128.18 67.6244C128.195 68.3456 128.06 69.062 127.785 69.7291C127.509 70.3963 127.099 71 126.579 71.5026C125.487 72.5031 124.049 73.0463 122.565 73.0194C121.127 73.0347 119.738 72.4984 118.686 71.5218C118.161 71.0179 117.747 70.4117 117.468 69.7412C117.189 69.0706 117.052 68.35 117.065 67.6244C117.065 64.4373 119.709 62.2678 122.661 62.2678M122.7 71.3682C124.128 71.3682 125.189 70.1395 125.209 67.778C125.209 66.5301 124.919 65.5509 124.437 64.8789C124.241 64.5645 123.969 64.3045 123.645 64.1232C123.321 63.9419 122.956 63.8452 122.584 63.8422C121.079 63.8422 120.153 65.1285 120.134 67.3364C120.134 70.1395 121.426 71.3682 122.7 71.3682ZM148.596 62.287C147.67 62.287 146.744 62.9014 146.145 63.823C145.952 63.055 145.451 62.4214 144.544 62.4214C144.289 62.4248 144.035 62.4636 143.791 62.5366C143.135 62.7286 142.151 63.1894 142.132 64.0342C142.133 64.1926 142.166 64.3491 142.228 64.4949L142.267 64.5909L142.363 64.5717C142.528 64.5378 142.696 64.5186 142.865 64.5141C143.502 64.5333 143.675 64.7829 143.695 65.5125V69.7939C143.695 70.6387 143.579 70.9459 143.309 71.157C143.093 71.3202 142.842 71.4318 142.575 71.4834H142.518L142.498 71.541C142.421 71.6835 142.375 71.8405 142.363 72.0018C142.363 72.3666 142.672 72.597 143.135 72.7314C143.807 72.8736 144.494 72.9316 145.18 72.9042C146.068 72.9042 146.724 72.8658 147.149 72.7314C147.573 72.597 147.863 72.3858 147.863 72.0402C147.854 71.8661 147.808 71.6958 147.728 71.541L147.708 71.4834H147.65C147.457 71.445 146.917 71.349 146.666 71.157C146.415 70.965 146.28 70.6387 146.28 69.8131V67.1828C146.28 65.0709 146.994 64.4565 147.515 64.303C147.594 64.6071 147.775 64.8755 148.027 65.0639C148.28 65.2524 148.589 65.3496 148.905 65.3397C149.099 65.3372 149.291 65.2964 149.469 65.2195C149.647 65.1427 149.808 65.0314 149.943 64.892C150.078 64.7527 150.183 64.5882 150.253 64.4079C150.324 64.2277 150.357 64.0354 150.352 63.8422C150.352 62.8246 149.484 62.287 148.615 62.287M88.0241 62.287C87.0978 62.287 86.1523 62.9014 85.5734 63.823C85.3419 63.0358 84.8594 62.4214 83.9525 62.4214C83.7039 62.4258 83.4571 62.4646 83.2192 62.5366C82.5438 62.7286 81.5597 63.1702 81.5597 64.0342C81.5607 64.1926 81.5935 64.3493 81.6562 64.4949L81.6948 64.5717H81.7913C81.9563 64.5367 82.1243 64.5174 82.293 64.5141C82.9105 64.5141 83.0841 64.7829 83.1227 65.5125V69.7939C83.1227 70.6387 83.007 70.9459 82.7368 71.157C82.5124 71.3183 82.2557 71.4296 81.9842 71.4834H81.9264L81.9071 71.541C81.8277 71.6825 81.7815 71.84 81.772 72.0018C81.772 72.3666 82.0807 72.6162 82.5438 72.7314C83.2151 72.8788 83.9021 72.9433 84.5893 72.9234C85.4769 72.9234 86.133 72.8658 86.5575 72.7314C86.9821 72.597 87.2715 72.3858 87.2715 72.0402C87.2651 71.8658 87.2189 71.6951 87.1364 71.541L87.1171 71.4834H87.0592C86.8663 71.445 86.326 71.349 86.0944 71.157C85.8629 70.965 85.6892 70.6387 85.6699 69.7939V67.202C85.6699 65.0901 86.4225 64.4757 86.9242 64.3222C86.9963 64.6299 87.1751 64.9025 87.4292 65.0921C87.6833 65.2817 87.9964 65.3762 88.3135 65.3589C88.5094 65.359 88.7033 65.32 88.8838 65.2443C89.0643 65.1686 89.2277 65.0576 89.3644 64.9181C89.5011 64.7785 89.6083 64.613 89.6797 64.4316C89.7511 64.2501 89.7852 64.0562 89.7801 63.8614C89.7801 62.8438 88.8924 62.3062 88.0241 62.3062M141.205 71.0226H140.839C140.067 71.0226 139.797 70.6771 139.777 69.8707V67.8932C139.777 65.1477 139.835 64.4757 139.835 64.111C139.866 63.6499 139.729 63.1932 139.449 62.8246C139.16 62.5174 138.735 62.3254 138.157 62.3254C137.911 62.3333 137.665 62.359 137.423 62.4022C136.709 62.5558 135.494 63.0358 135.474 63.9382C135.47 64.0828 135.496 64.2267 135.551 64.3606L135.59 64.4373H135.687C135.789 64.4322 135.892 64.4322 135.995 64.4373C136.748 64.4373 136.999 64.7061 137.018 65.4741V68.1044C137.018 68.7764 136.902 69.4675 136.574 70.0051C136.246 70.5427 135.725 70.8691 134.876 70.8691C134.085 70.8691 133.66 70.6003 133.371 70.0243C133.082 69.4483 132.985 68.546 132.985 67.3556L133.024 64.111C133.048 63.6566 132.912 63.2081 132.638 62.8438C132.348 62.5174 131.924 62.3446 131.345 62.3446C131.106 62.3472 130.867 62.3664 130.631 62.4022C129.898 62.5558 128.701 63.055 128.663 63.9574C128.66 64.1019 128.686 64.2456 128.74 64.3798L128.778 64.4565H128.875C128.977 64.4451 129.08 64.4387 129.184 64.4373C129.936 64.4373 130.187 64.7061 130.206 65.4741V67.3556C130.206 69.3331 130.206 70.7155 131.171 71.8098C131.808 72.5202 132.792 72.9426 133.95 72.9426C134.948 72.9416 135.911 72.5722 136.651 71.9058L137.095 71.4834C137.159 71.8257 137.29 72.152 137.481 72.4434C137.713 72.7698 138.099 72.9618 138.639 72.9618H138.658C138.885 72.952 139.111 72.9263 139.334 72.885C140.048 72.7506 141.263 72.3858 141.302 71.5026C141.296 71.3633 141.263 71.2265 141.205 71.0994V71.0226ZM108.324 67.6244H101.609C101.725 69.4675 102.96 70.7731 105.121 70.7923C106.472 70.7923 107.494 70.0819 107.822 69.6787L107.9 69.5827L107.996 69.6595C108.127 69.7521 108.231 69.8768 108.299 70.0216C108.366 70.1663 108.395 70.326 108.382 70.4851C108.382 71.5602 107.07 72.9234 104.137 72.9234C101.165 72.9234 98.753 70.6771 98.7337 67.7396C98.7337 66.1269 99.3126 64.7253 100.277 63.7462C101.242 62.767 102.651 62.1719 104.291 62.1719C105.796 62.1719 106.915 62.7094 107.649 63.4582C108.338 64.17 108.725 65.119 108.729 66.1077C108.733 66.6195 108.6 67.1232 108.343 67.5668L108.324 67.6244ZM105.912 66.0117C105.954 65.8884 105.968 65.7569 105.951 65.6277C105.951 64.6485 105.14 63.7462 103.905 63.7462C102.361 63.7462 101.725 64.9173 101.628 66.1269H105.623C105.815 66.1269 105.893 66.0693 105.931 66.0117M116.583 62.5942H113.843V60.9623C113.843 60.3863 113.92 59.868 114.132 59.5224C114.345 59.1768 114.711 58.9464 115.348 58.9464C115.717 58.9282 116.083 59.0292 116.39 59.2344C116.232 59.4603 116.145 59.7274 116.139 60.0023C116.139 60.7127 116.815 61.2887 117.548 61.3079C117.738 61.3106 117.926 61.275 118.102 61.2033C118.278 61.1316 118.437 61.0254 118.57 60.8909C118.704 60.7563 118.808 60.5964 118.878 60.4206C118.948 60.2448 118.981 60.0568 118.976 59.868C118.976 58.4088 117.239 57.5065 115.174 57.4873C113.534 57.4873 112.473 58.1208 111.836 59.0232C111.45 59.5992 111.141 60.4823 111.141 61.9799V62.6134H110.447C109.887 62.6134 109.443 62.9782 109.443 63.5158C109.444 63.701 109.484 63.884 109.559 64.0534L109.598 64.111L111.18 64.1686V69.8131C111.18 70.6579 111.064 70.965 110.794 71.1762C110.575 71.3314 110.325 71.4363 110.061 71.4834H110.003L109.964 71.5602C109.892 71.7033 109.852 71.8607 109.848 72.021C109.848 72.3858 110.138 72.6162 110.62 72.7506C111.298 72.9012 111.991 72.9657 112.685 72.9426C113.398 72.9653 114.111 72.9009 114.808 72.7506C115.329 72.6162 115.657 72.3666 115.657 71.9826C115.651 71.8348 115.612 71.6903 115.541 71.5602L115.522 71.5026H115.464C115.271 71.4642 114.576 71.349 114.345 71.1762C114.074 70.9459 113.92 70.6387 113.92 69.7939V64.2262L115.155 64.2646C115.361 64.2623 115.567 64.2495 115.773 64.2262C116.034 64.2114 116.279 64.0978 116.459 63.9085C116.638 63.7192 116.738 63.4688 116.737 63.2086C116.738 63.017 116.699 62.8274 116.622 62.6518L116.583 62.5942ZM97.0163 62.3062C96.09 62.3062 95.1445 62.9206 94.5656 63.8422C94.3533 63.0358 93.8516 62.4406 92.9447 62.4406C92.6961 62.445 92.4493 62.4838 92.2114 62.5558C91.5553 62.7478 90.5519 63.1894 90.5519 64.0342C90.5509 64.199 90.5837 64.3624 90.6484 64.5141L90.687 64.5909H90.7835C90.9485 64.5562 91.1165 64.5369 91.2852 64.5333C91.9027 64.5333 92.0956 64.8021 92.1149 65.5125V69.8131C92.1149 70.6579 91.9992 70.965 91.729 71.1762C91.5095 71.3297 91.2595 71.4345 90.9957 71.4834H90.9379L90.8993 71.5602C90.8289 71.7041 90.7895 71.8611 90.7835 72.021C90.7835 72.3858 91.0729 72.6162 91.5553 72.7506C92.2266 72.8984 92.9136 72.9629 93.6008 72.9426C94.4691 72.9426 95.1445 72.885 95.569 72.7506C95.9935 72.6162 96.283 72.405 96.283 72.0594C96.2753 71.8852 96.2292 71.7148 96.1479 71.5602L96.1286 71.5026H96.0707C95.8778 71.4642 95.3375 71.3682 95.0866 71.1762C94.8358 70.9842 94.7007 70.6579 94.7007 69.8131V67.2212C94.7007 65.1093 95.4339 64.4949 95.9357 64.3414C96.0078 64.6491 96.1866 64.9217 96.4407 65.1113C96.6948 65.3009 97.0079 65.3954 97.325 65.3781C97.5193 65.3756 97.7111 65.3348 97.8893 65.2579C98.0676 65.1811 98.2287 65.0698 98.3634 64.9304C98.498 64.7911 98.6035 64.6266 98.6737 64.4463C98.7439 64.2661 98.7774 64.0738 98.7723 63.8806C98.7723 62.863 97.8846 62.3254 97.0356 62.3254M66.8364 66.9908C66.3989 66.9801 65.9729 67.1305 65.64 67.4132C65.4756 67.5643 65.3458 67.7488 65.2592 67.9541C65.1726 68.1595 65.1314 68.381 65.1383 68.6036C65.1444 68.8324 65.1971 69.0576 65.2933 69.2655C65.3895 69.4734 65.5272 69.6597 65.6979 69.8131C65.2541 70.5427 64.4051 71.1186 63.0543 71.1186C61.8965 71.1186 60.9124 70.5619 60.1984 69.5827C59.4844 68.6036 59.0406 67.1444 59.0406 65.4549C59.0406 63.7654 59.4651 62.3254 60.1598 61.3271C60.8545 60.3287 61.8193 59.772 62.9771 59.772C64.3279 59.772 65.1769 60.3479 65.6208 61.0775C65.445 61.2321 65.303 61.4209 65.2034 61.6322C65.1039 61.8436 65.0489 62.073 65.0419 62.3062C65.0389 62.5273 65.0839 62.7463 65.1738 62.9484C65.2637 63.1505 65.3964 63.331 65.5629 63.4774C65.8938 63.7634 66.3212 63.9142 66.7593 63.8998C67.6662 63.8998 68.3416 63.1318 68.3416 62.0951C68.3416 60.1751 65.9874 57.9864 62.6877 57.9864C61.7728 57.9879 60.8675 58.1722 60.0255 58.5283C59.1836 58.8845 58.4221 59.4054 57.7864 60.0599C56.3915 61.5172 55.6291 63.462 55.6637 65.4741C55.6343 66.4841 55.8106 67.4895 56.182 68.4298C56.5534 69.3702 57.1123 70.2261 57.8249 70.9459C59.1441 72.2146 60.9109 72.9178 62.7456 72.9042C66.0646 72.9042 68.3995 70.7155 68.4188 68.7955C68.4188 67.778 67.7434 66.9908 66.8171 66.9908M79.2055 70.2547C79.2055 70.9842 79.6494 71.1762 80.5949 71.3106L80.6914 71.3298V71.4258C80.6528 72.4242 79.8809 72.8274 79.0512 72.885H78.8582C78.4535 72.9019 78.0524 72.8022 77.7033 72.5979C77.3541 72.3935 77.0717 72.0932 76.89 71.733C76.3882 72.1554 75.2304 72.9234 73.7446 72.9234C71.5448 72.9234 69.8853 71.5026 69.8853 69.5635C69.8774 69.0913 69.988 68.6246 70.207 68.2055C70.426 67.7865 70.7465 67.4284 71.1396 67.1636C71.9307 66.5877 73.0499 66.3189 74.3235 66.3189C75.0806 66.3108 75.8327 66.441 76.5426 66.7028V65.5509C76.5426 64.399 76.0602 63.727 74.7094 63.727C74.2718 63.733 73.8369 63.7976 73.4166 63.919C73.459 64.0884 73.4785 64.2628 73.4745 64.4373C73.4827 64.8042 73.3518 65.1606 73.1078 65.4357C72.9733 65.5745 72.8112 65.6838 72.6317 65.7565C72.4523 65.8293 72.2595 65.8639 72.0658 65.8581C71.8836 65.8633 71.7022 65.8317 71.5325 65.7653C71.3628 65.6989 71.2085 65.599 71.0786 65.4716C70.9488 65.3443 70.8463 65.1921 70.7771 65.0242C70.708 64.8564 70.6738 64.6763 70.6765 64.4949C70.6958 63.0934 72.4903 62.1527 74.8831 62.1527C76.7742 62.1527 77.9706 62.575 78.6073 63.343C79.1862 64.0534 79.2055 65.0709 79.2055 66.5109V70.2547ZM76.5426 68.6804C76.5426 68.4884 76.4075 68.2772 76.1181 68.1044C75.715 67.8901 75.2627 67.7842 74.8059 67.7972C73.6095 67.8164 72.8184 68.354 72.7991 69.4099C72.7991 70.3891 73.5131 71.061 74.6323 71.061C75.0011 71.0522 75.3639 70.9654 75.6966 70.8066C76.0293 70.6477 76.3242 70.4203 76.5619 70.1395L76.5426 68.6804ZM26.9504 41.456C26.0733 41.746 25.2368 42.146 24.4612 42.6463C20.1388 45.2958 18.1705 50.2492 17.9775 55.0298V73.0002H23.6121V56.0473C23.6078 55.5348 23.7181 55.0277 23.935 54.5628C24.1519 54.098 24.4701 53.6869 24.8664 53.3595L27.1048 56.0473L29.3239 53.3595C29.7167 53.6888 30.0312 54.1006 30.2448 54.5654C30.4583 55.0302 30.5656 55.5363 30.5589 56.0473V73.0194H36.1935V56.0473C36.194 54.5659 35.8303 53.1069 35.134 51.7975C34.4378 50.488 33.4301 49.3679 32.1989 48.5349C30.9677 47.7018 29.5504 47.1811 28.0705 47.0181C26.5906 46.8551 25.0931 47.0548 23.7086 47.5997C24.8664 46.2558 26.6031 45.5838 28.5328 45.5454C29.1404 45.5304 29.748 45.5754 30.3466 45.6798C32.7672 46.0422 34.9806 47.2455 36.5948 49.0763C38.2089 50.9072 39.1195 53.2475 39.1652 55.6825V73.0002H44.8384V56.1433C44.9619 52.4578 43.693 48.86 41.2819 46.0595C38.8707 43.2589 35.4924 41.4589 31.8132 41.0144C31.2379 40.9312 30.6577 40.8863 30.0765 40.88C29.0152 40.8916 27.964 41.0865 26.9697 41.456" fill="#0E5AA7"/>
<path d="M25.8702 40.688C16.1254 40.688 9.33301 47.2157 9.33301 55.8745V73.0001H14.9869V55.8745C14.9869 47.7917 21.1039 42.0319 27.2788 40.8224C27.5297 40.7648 27.8384 40.688 27.5297 40.688H25.8702Z" fill="#EE2527"/>
</g>
<path d="M182.733 47.24C180.96 47.24 179.64 46.6133 178.773 45.36C177.92 44.1067 177.493 42.3267 177.493 40.02C177.493 37.7133 177.92 35.9333 178.773 34.68C179.64 33.4267 180.96 32.8 182.733 32.8C183.413 32.8 184 32.8933 184.493 33.08C185 33.2533 185.433 33.5 185.793 33.82C186.153 34.1267 186.453 34.4933 186.693 34.92C186.946 35.3333 187.153 35.78 187.313 36.26L185.293 36.94C185.186 36.62 185.066 36.32 184.933 36.04C184.8 35.76 184.633 35.52 184.433 35.32C184.233 35.12 183.993 34.96 183.713 34.84C183.446 34.72 183.113 34.66 182.713 34.66C181.726 34.66 181.006 35.04 180.553 35.8C180.1 36.5467 179.873 37.56 179.873 38.84V41.2C179.873 42.48 180.1 43.5 180.553 44.26C181.006 45.0067 181.726 45.38 182.713 45.38C183.113 45.38 183.446 45.32 183.713 45.2C183.993 45.08 184.233 44.92 184.433 44.72C184.633 44.52 184.8 44.28 184.933 44C185.066 43.72 185.186 43.42 185.293 43.1L187.313 43.78C187.153 44.26 186.946 44.7133 186.693 45.14C186.453 45.5533 186.153 45.92 185.793 46.24C185.433 46.5467 185 46.7933 184.493 46.98C184 47.1533 183.413 47.24 182.733 47.24ZM197.565 47L196.505 43.28H192.065L191.005 47H188.725L192.805 33.04H195.865L199.945 47H197.565ZM194.365 35.3H194.205L192.485 41.42H196.085L194.365 35.3ZM204.217 47H201.997V33.04H207.217C208.551 33.04 209.564 33.4133 210.257 34.16C210.964 34.9067 211.317 35.9333 211.317 37.24C211.317 38.3067 211.057 39.1867 210.537 39.88C210.017 40.5733 209.271 41 208.297 41.16L211.517 47H209.037L206.077 41.36H204.217V47ZM206.897 39.56C208.284 39.56 208.977 38.9267 208.977 37.66V36.8C208.977 35.5333 208.284 34.9 206.897 34.9H204.217V39.56H206.897ZM216.21 47H213.99V33.04H219.21C220.543 33.04 221.556 33.4133 222.25 34.16C222.956 34.9067 223.31 35.9333 223.31 37.24C223.31 38.3067 223.05 39.1867 222.53 39.88C222.01 40.5733 221.263 41 220.29 41.16L223.51 47H221.03L218.07 41.36H216.21V47ZM218.89 39.56C220.276 39.56 220.97 38.9267 220.97 37.66V36.8C220.97 35.5333 220.276 34.9 218.89 34.9H216.21V39.56H218.89ZM226.022 47V33.04H234.762V34.92H228.262V38.98H234.522V40.86H228.262V45.12H234.762V47H226.022ZM238.014 47V33.04H246.994V34.92H240.254V38.98H246.374V40.86H240.254V47H238.014ZM254.286 47.24C253.406 47.24 252.639 47.08 251.986 46.76C251.346 46.4267 250.813 45.9533 250.386 45.34C249.973 44.7267 249.666 43.9733 249.466 43.08C249.266 42.1867 249.166 41.1667 249.166 40.02C249.166 38.8867 249.266 37.8733 249.466 36.98C249.666 36.0733 249.973 35.3133 250.386 34.7C250.813 34.0867 251.346 33.62 251.986 33.3C252.639 32.9667 253.406 32.8 254.286 32.8C255.166 32.8 255.926 32.9667 256.566 33.3C257.219 33.62 257.753 34.0867 258.166 34.7C258.593 35.3133 258.906 36.0733 259.106 36.98C259.306 37.8733 259.406 38.8867 259.406 40.02C259.406 41.1667 259.306 42.1867 259.106 43.08C258.906 43.9733 258.593 44.7267 258.166 45.34C257.753 45.9533 257.219 46.4267 256.566 46.76C255.926 47.08 255.166 47.24 254.286 47.24ZM254.286 45.38C255.286 45.38 255.993 45.0067 256.406 44.26C256.819 43.5 257.026 42.4733 257.026 41.18V38.84C257.026 37.56 256.819 36.5467 256.406 35.8C255.993 35.04 255.286 34.66 254.286 34.66C253.286 34.66 252.579 35.04 252.166 35.8C251.753 36.5467 251.546 37.56 251.546 38.84V41.2C251.546 42.48 251.753 43.5 252.166 44.26C252.579 45.0067 253.286 45.38 254.286 45.38ZM263.898 33.04V41.62C263.898 42.1933 263.912 42.7133 263.938 43.18C263.978 43.6467 264.078 44.0467 264.238 44.38C264.398 44.7 264.638 44.9467 264.958 45.12C265.278 45.2933 265.718 45.38 266.278 45.38C266.838 45.38 267.278 45.2933 267.598 45.12C267.918 44.9467 268.158 44.7 268.318 44.38C268.478 44.0467 268.572 43.6467 268.598 43.18C268.638 42.7133 268.658 42.1933 268.658 41.62V33.04H270.898V41.22C270.898 42.22 270.838 43.1 270.718 43.86C270.612 44.6067 270.392 45.2333 270.058 45.74C269.725 46.2333 269.252 46.6067 268.638 46.86C268.038 47.1133 267.252 47.24 266.278 47.24C265.305 47.24 264.512 47.1133 263.898 46.86C263.298 46.6067 262.832 46.2333 262.498 45.74C262.165 45.2333 261.938 44.6067 261.818 43.86C261.712 43.1 261.658 42.22 261.658 41.22V33.04H263.898ZM276.171 47H273.951V33.04H279.171C280.504 33.04 281.517 33.4133 282.211 34.16C282.917 34.9067 283.271 35.9333 283.271 37.24C283.271 38.3067 283.011 39.1867 282.491 39.88C281.971 40.5733 281.224 41 280.251 41.16L283.471 47H280.991L278.031 41.36H276.171V47ZM278.851 39.56C280.237 39.56 280.931 38.9267 280.931 37.66V36.8C280.931 35.5333 280.237 34.9 278.851 34.9H276.171V39.56H278.851Z" fill="black"/>
<path d="M180.221 80L176.909 68.832H178.333L179.917 74.416L181.117 78.64H181.197L182.397 74.416L183.981 68.832H185.357L182.045 80H180.221ZM191.239 69.92C190.865 69.92 190.604 69.8453 190.455 69.696C190.305 69.536 190.231 69.3387 190.231 69.104V68.848C190.231 68.6133 190.305 68.4213 190.455 68.272C190.604 68.112 190.865 68.032 191.239 68.032C191.612 68.032 191.873 68.112 192.023 68.272C192.172 68.4213 192.247 68.6133 192.247 68.848V69.104C192.247 69.3387 192.172 69.536 192.023 69.696C191.873 69.8453 191.612 69.92 191.239 69.92ZM187.623 78.912H190.599V72.832H187.623V71.744H191.879V78.912H194.663V80H187.623V78.912ZM200.417 80.192C199.553 80.192 198.806 80.048 198.177 79.76C197.558 79.4613 197.03 79.0667 196.593 78.576L197.457 77.824C197.851 78.24 198.283 78.56 198.753 78.784C199.222 79.008 199.787 79.12 200.449 79.12C201.089 79.12 201.611 79.008 202.017 78.784C202.433 78.5493 202.641 78.1867 202.641 77.696C202.641 77.4827 202.598 77.3067 202.513 77.168C202.438 77.0187 202.331 76.9013 202.193 76.816C202.054 76.7307 201.899 76.6667 201.729 76.624C201.558 76.5707 201.377 76.528 201.185 76.496L199.889 76.304C199.601 76.2613 199.286 76.2027 198.945 76.128C198.614 76.0533 198.31 75.936 198.033 75.776C197.755 75.6053 197.521 75.3813 197.329 75.104C197.147 74.8267 197.057 74.464 197.057 74.016C197.057 73.6 197.137 73.2427 197.297 72.944C197.467 72.6347 197.702 72.3787 198.001 72.176C198.299 71.9627 198.651 71.808 199.057 71.712C199.462 71.6053 199.905 71.552 200.385 71.552C201.131 71.552 201.777 71.6693 202.321 71.904C202.875 72.1387 203.35 72.464 203.745 72.88L202.913 73.664C202.817 73.5467 202.694 73.4293 202.545 73.312C202.406 73.184 202.23 73.072 202.017 72.976C201.814 72.8693 201.574 72.784 201.297 72.72C201.019 72.656 200.699 72.624 200.337 72.624C199.686 72.624 199.185 72.736 198.833 72.96C198.491 73.184 198.321 73.5093 198.321 73.936C198.321 74.1493 198.358 74.3307 198.433 74.48C198.518 74.6187 198.63 74.7307 198.769 74.816C198.907 74.9013 199.062 74.9707 199.233 75.024C199.414 75.0667 199.595 75.104 199.777 75.136L201.073 75.328C201.371 75.3707 201.686 75.4293 202.017 75.504C202.347 75.5787 202.651 75.7013 202.929 75.872C203.206 76.032 203.435 76.2507 203.617 76.528C203.809 76.8053 203.905 77.168 203.905 77.616C203.905 78.4373 203.585 79.072 202.945 79.52C202.315 79.968 201.473 80.192 200.417 80.192ZM210.426 69.92C210.053 69.92 209.792 69.8453 209.642 69.696C209.493 69.536 209.418 69.3387 209.418 69.104V68.848C209.418 68.6133 209.493 68.4213 209.642 68.272C209.792 68.112 210.053 68.032 210.426 68.032C210.8 68.032 211.061 68.112 211.21 68.272C211.36 68.4213 211.434 68.6133 211.434 68.848V69.104C211.434 69.3387 211.36 69.536 211.21 69.696C211.061 69.8453 210.8 69.92 210.426 69.92ZM206.81 78.912H209.786V72.832H206.81V71.744H211.066V78.912H213.85V80H206.81V78.912ZM219.908 80C219.279 80 218.815 79.824 218.516 79.472C218.228 79.12 218.084 78.6667 218.084 78.112V72.832H215.332V71.744H217.38C217.657 71.744 217.849 71.6907 217.956 71.584C218.073 71.4667 218.132 71.2693 218.132 70.992V68.832H219.364V71.744H223.124V72.832H219.364V78.912H223.124V80H219.908ZM239.096 80C238.466 80 238.002 79.824 237.704 79.472C237.416 79.12 237.272 78.6667 237.272 78.112V72.832H234.52V71.744H236.568C236.845 71.744 237.037 71.6907 237.144 71.584C237.261 71.4667 237.32 71.2693 237.32 70.992V68.832H238.552V71.744H242.312V72.832H238.552V78.912H242.312V80H239.096ZM245.057 68.16H246.337V73.088H246.401C246.487 72.8853 246.593 72.6933 246.721 72.512C246.849 72.32 247.004 72.1547 247.185 72.016C247.377 71.8773 247.601 71.7653 247.857 71.68C248.113 71.5947 248.412 71.552 248.753 71.552C249.617 71.552 250.311 71.8293 250.833 72.384C251.356 72.928 251.617 73.7013 251.617 74.704V80H250.337V74.928C250.337 74.1707 250.172 73.6107 249.841 73.248C249.511 72.8747 249.025 72.688 248.385 72.688C248.129 72.688 247.879 72.72 247.633 72.784C247.388 72.848 247.169 72.944 246.977 73.072C246.785 73.2 246.631 73.3653 246.513 73.568C246.396 73.7707 246.337 74.0053 246.337 74.272V80H245.057V68.16ZM258.027 80.192C257.43 80.192 256.891 80.0907 256.411 79.888C255.942 79.6853 255.536 79.3973 255.195 79.024C254.864 78.64 254.608 78.1867 254.427 77.664C254.246 77.1307 254.155 76.5387 254.155 75.888C254.155 75.2267 254.246 74.6293 254.427 74.096C254.619 73.5627 254.88 73.1093 255.211 72.736C255.542 72.352 255.936 72.0587 256.395 71.856C256.864 71.6533 257.382 71.552 257.947 71.552C258.502 71.552 259.003 71.6533 259.451 71.856C259.91 72.0587 260.299 72.3413 260.619 72.704C260.939 73.056 261.184 73.4773 261.355 73.968C261.526 74.4587 261.611 74.9973 261.611 75.584V76.192H255.499V76.576C255.499 76.9387 255.558 77.2747 255.675 77.584C255.792 77.8933 255.958 78.16 256.171 78.384C256.395 78.608 256.662 78.784 256.971 78.912C257.291 79.0293 257.643 79.088 258.027 79.088C258.582 79.088 259.062 78.96 259.467 78.704C259.872 78.448 260.182 78.096 260.395 77.648L261.339 78.288C261.094 78.8427 260.683 79.3013 260.107 79.664C259.542 80.016 258.848 80.192 258.027 80.192ZM257.947 72.608C257.595 72.608 257.27 72.672 256.971 72.8C256.672 72.928 256.411 73.104 256.187 73.328C255.974 73.552 255.803 73.8187 255.675 74.128C255.558 74.4267 255.499 74.7573 255.499 75.12V75.232H260.235V75.056C260.235 74.6933 260.176 74.3627 260.059 74.064C259.952 73.7653 259.798 73.5093 259.595 73.296C259.403 73.072 259.163 72.9013 258.875 72.784C258.598 72.6667 258.288 72.608 257.947 72.608ZM277.167 80.192C276.303 80.192 275.556 80.048 274.927 79.76C274.308 79.4613 273.78 79.0667 273.343 78.576L274.207 77.824C274.601 78.24 275.033 78.56 275.503 78.784C275.972 79.008 276.537 79.12 277.199 79.12C277.839 79.12 278.361 79.008 278.767 78.784C279.183 78.5493 279.391 78.1867 279.391 77.696C279.391 77.4827 279.348 77.3067 279.263 77.168C279.188 77.0187 279.081 76.9013 278.943 76.816C278.804 76.7307 278.649 76.6667 278.479 76.624C278.308 76.5707 278.127 76.528 277.935 76.496L276.639 76.304C276.351 76.2613 276.036 76.2027 275.695 76.128C275.364 76.0533 275.06 75.936 274.783 75.776C274.505 75.6053 274.271 75.3813 274.079 75.104C273.897 74.8267 273.807 74.464 273.807 74.016C273.807 73.6 273.887 73.2427 274.047 72.944C274.217 72.6347 274.452 72.3787 274.751 72.176C275.049 71.9627 275.401 71.808 275.807 71.712C276.212 71.6053 276.655 71.552 277.135 71.552C277.881 71.552 278.527 71.6693 279.071 71.904C279.625 72.1387 280.1 72.464 280.495 72.88L279.663 73.664C279.567 73.5467 279.444 73.4293 279.295 73.312C279.156 73.184 278.98 73.072 278.767 72.976C278.564 72.8693 278.324 72.784 278.047 72.72C277.769 72.656 277.449 72.624 277.087 72.624C276.436 72.624 275.935 72.736 275.583 72.96C275.241 73.184 275.071 73.5093 275.071 73.936C275.071 74.1493 275.108 74.3307 275.183 74.48C275.268 74.6187 275.38 74.7307 275.519 74.816C275.657 74.9013 275.812 74.9707 275.983 75.024C276.164 75.0667 276.345 75.104 276.527 75.136L277.823 75.328C278.121 75.3707 278.436 75.4293 278.767 75.504C279.097 75.5787 279.401 75.7013 279.679 75.872C279.956 76.032 280.185 76.2507 280.367 76.528C280.559 76.8053 280.655 77.168 280.655 77.616C280.655 78.4373 280.335 79.072 279.695 79.52C279.065 79.968 278.223 80.192 277.167 80.192ZM287.064 80C286.435 80 285.971 79.824 285.672 79.472C285.384 79.12 285.24 78.6667 285.24 78.112V72.832H282.488V71.744H284.536C284.814 71.744 285.006 71.6907 285.112 71.584C285.23 71.4667 285.288 71.2693 285.288 70.992V68.832H286.52V71.744H290.28V72.832H286.52V78.912H290.28V80H287.064ZM296.258 80.192C295.682 80.192 295.159 80.0907 294.69 79.888C294.231 79.6853 293.837 79.3973 293.506 79.024C293.186 78.64 292.941 78.1867 292.77 77.664C292.599 77.1307 292.514 76.5333 292.514 75.872C292.514 75.2213 292.599 74.6293 292.77 74.096C292.941 73.5627 293.186 73.1093 293.506 72.736C293.837 72.352 294.231 72.0587 294.69 71.856C295.159 71.6533 295.682 71.552 296.258 71.552C296.834 71.552 297.351 71.6533 297.81 71.856C298.279 72.0587 298.674 72.352 298.994 72.736C299.325 73.1093 299.575 73.5627 299.746 74.096C299.917 74.6293 300.002 75.2213 300.002 75.872C300.002 76.5333 299.917 77.1307 299.746 77.664C299.575 78.1867 299.325 78.64 298.994 79.024C298.674 79.3973 298.279 79.6853 297.81 79.888C297.351 80.0907 296.834 80.192 296.258 80.192ZM296.258 79.088C296.973 79.088 297.549 78.8747 297.986 78.448C298.423 78.0213 298.642 77.36 298.642 76.464V75.28C298.642 74.384 298.423 73.7227 297.986 73.296C297.549 72.8693 296.973 72.656 296.258 72.656C295.543 72.656 294.967 72.8693 294.53 73.296C294.093 73.7227 293.874 74.384 293.874 75.28V76.464C293.874 77.36 294.093 78.0213 294.53 78.448C294.967 78.8747 295.543 79.088 296.258 79.088ZM302.284 78.912H304.7V72.832H302.284V71.744H305.98V73.824H306.06C306.23 73.1733 306.55 72.6667 307.02 72.304C307.5 71.9307 308.108 71.744 308.844 71.744H309.996V73.024H308.444C307.708 73.024 307.11 73.2373 306.652 73.664C306.204 74.0907 305.98 74.6507 305.98 75.344V78.912H309.18V80H302.284V78.912ZM315.59 80.192C314.992 80.192 314.454 80.0907 313.974 79.888C313.504 79.6853 313.099 79.3973 312.758 79.024C312.427 78.64 312.171 78.1867 311.99 77.664C311.808 77.1307 311.718 76.5387 311.718 75.888C311.718 75.2267 311.808 74.6293 311.99 74.096C312.182 73.5627 312.443 73.1093 312.774 72.736C313.104 72.352 313.499 72.0587 313.958 71.856C314.427 71.6533 314.944 71.552 315.51 71.552C316.064 71.552 316.566 71.6533 317.014 71.856C317.472 72.0587 317.862 72.3413 318.182 72.704C318.502 73.056 318.747 73.4773 318.918 73.968C319.088 74.4587 319.174 74.9973 319.174 75.584V76.192H313.062V76.576C313.062 76.9387 313.12 77.2747 313.238 77.584C313.355 77.8933 313.52 78.16 313.734 78.384C313.958 78.608 314.224 78.784 314.534 78.912C314.854 79.0293 315.206 79.088 315.59 79.088C316.144 79.088 316.624 78.96 317.03 78.704C317.435 78.448 317.744 78.096 317.958 77.648L318.902 78.288C318.656 78.8427 318.246 79.3013 317.67 79.664C317.104 80.016 316.411 80.192 315.59 80.192ZM315.51 72.608C315.158 72.608 314.832 72.672 314.534 72.8C314.235 72.928 313.974 73.104 313.75 73.328C313.536 73.552 313.366 73.8187 313.238 74.128C313.12 74.4267 313.062 74.7573 313.062 75.12V75.232H317.798V75.056C317.798 74.6933 317.739 74.3627 317.622 74.064C317.515 73.7653 317.36 73.5093 317.158 73.296C316.966 73.072 316.726 72.9013 316.438 72.784C316.16 72.6667 315.851 72.608 315.51 72.608Z" fill="#0090FF"/>
<path fill-rule="evenodd" clip-rule="evenodd" d="M340.813 75.0839L335.622 69.8549C335.237 69.4678 335.237 68.8418 335.622 68.4548C335.805 68.2694 336.055 68.1652 336.315 68.1652C336.576 68.1652 336.826 68.2694 337.009 68.4548L342.894 74.3828C343.278 74.7703 343.278 75.3953 342.894 75.7828L337.009 81.7108C336.826 81.8959 336.576 82 336.315 82C336.055 82 335.805 81.8959 335.622 81.7108C335.237 81.3234 335.237 80.698 335.622 80.3107L340.813 75.0839Z" fill="#0090FF"/>
</g>
<defs>
<clipPath id="clip0_680_4592">
<rect x="0.333008" width="359.333" height="110" rx="12" fill="white"/>
</clipPath>
<clipPath id="clip1_680_4592">
<rect width="141" height="35" fill="white" transform="translate(9.33301 38)"/>
</clipPath>
</defs>
</svg>
