<svg width="44" height="54" viewBox="0 0 44 54" fill="none" xmlns="http://www.w3.org/2000/svg">
<g clip-path="url(#clip0_102_3052)">
<path fill-rule="evenodd" clip-rule="evenodd" d="M0.400391 21.6C0.400391 9.6714 10.0718 0 22.0004 0C33.929 0 43.6004 9.6714 43.6004 21.6C43.6004 33.5286 33.929 43.2 22.0004 43.2C10.0718 43.2 0.400391 33.5286 0.400391 21.6Z" fill="#007565"/>
<path fill-rule="evenodd" clip-rule="evenodd" d="M23.7826 33.6006V22.1994H26.9776L27.4006 18.27H23.7826L23.788 16.3026C23.788 15.2784 23.887 14.7294 25.381 14.7294H27.379V10.8H24.1822C20.3446 10.8 18.9946 12.7062 18.9946 15.912V18.27H16.6006V22.1994H18.9946V33.6006H23.7826Z" fill="white"/>
</g>
<defs>
<clipPath id="clip0_102_3052">
<rect width="43.2" height="43.2" fill="white" transform="translate(0.400391)"/>
</clipPath>
</defs>
</svg>
