<svg width="114" height="35" viewBox="0 0 114 35" fill="none" xmlns="http://www.w3.org/2000/svg">
<g clip-path="url(#clip0_102_3026)">
<g clip-path="url(#clip1_102_3026)">
<path d="M105.86 1.34619H6.81235C3.83851 1.34619 1.42773 3.75697 1.42773 6.73081V28.2693C1.42773 31.2431 3.83851 33.6539 6.81235 33.6539H105.86C108.834 33.6539 111.245 31.2431 111.245 28.2693V6.73081C111.245 3.75697 108.834 1.34619 105.86 1.34619Z" fill="#007565" stroke="#979797" stroke-width="1.34615"/>
<path d="M40.0024 9.61682C40.0304 10.2155 39.8099 10.7994 39.3923 11.2322C38.9257 11.7134 38.275 11.9748 37.6027 11.951C36.9261 11.9576 36.2755 11.6931 35.7979 11.2174C35.3202 10.7416 35.0559 10.0947 35.0647 9.42297C35.0559 8.75125 35.3202 8.10437 35.7979 7.6286C36.2755 7.15282 36.9261 6.88831 37.6027 6.8949C37.9466 6.89376 38.2871 6.96247 38.6033 7.09682C38.8976 7.2147 39.1597 7.40016 39.3679 7.63797L38.9367 8.06605C38.6076 7.67729 38.1134 7.46488 37.6027 7.49259C37.0908 7.49016 36.5997 7.69436 36.2424 8.05835C35.885 8.42234 35.6918 8.91487 35.7073 9.42297C35.6964 10.1929 36.153 10.8937 36.8649 11.1993C37.5766 11.5049 38.4037 11.3554 38.9611 10.8203C39.2115 10.5509 39.3558 10.2012 39.3679 9.8349H37.6027V9.25336H39.9699C39.9916 9.37331 40.0025 9.49495 40.0024 9.61682Z" fill="white" stroke="white" stroke-width="0.269231"/>
<path d="M43.728 7.59769H41.5316V9.13231H43.5327V9.71385H41.5316V11.2485H43.728V11.8462H40.8809V7H43.728V7.59769Z" fill="white" stroke="white" stroke-width="0.269231"/>
<path d="M46.3963 11.8462H45.7699V7.59769H44.4033V7H47.7955V7.59769H46.3963V11.8462Z" fill="white" stroke="white" stroke-width="0.269231"/>
<path d="M50.1875 11.8462V7H50.8139V11.8462H50.1875Z" fill="white" stroke="white" stroke-width="0.269231"/>
<path d="M53.5955 11.8462H52.9692V7.59769H51.6025V7H54.9541V7.59769H53.5955V11.8462Z" fill="white" stroke="white" stroke-width="0.269231"/>
<path fill-rule="evenodd" clip-rule="evenodd" d="M57.0123 9.42303C56.9975 10.0922 57.2557 10.7388 57.7282 11.2161C58.7182 12.1936 60.3174 12.1936 61.3075 11.2161C61.78 10.7388 62.0382 10.0922 62.0232 9.42303C62.0382 8.75391 61.78 8.10723 61.3075 7.62996C60.8341 7.15645 60.1898 6.89014 59.5178 6.89014C58.8459 6.89014 58.2017 7.15645 57.7282 7.62996C57.2557 8.10723 56.9975 8.75391 57.0123 9.42303ZM60.8437 10.8123C60.1106 11.5372 58.9251 11.5372 58.192 10.8123C57.827 10.4424 57.6301 9.94053 57.6469 9.42303C57.6215 8.91019 57.8063 8.40899 58.1594 8.0338C58.8925 7.30884 60.0781 7.30884 60.8113 8.0338C61.1881 8.39825 61.397 8.90078 61.3888 9.42303C61.4056 9.94053 61.2087 10.4424 60.8437 10.8123Z" fill="white"/>
<path d="M57.728 11.2162L57.6323 11.3109L57.6335 11.312L57.728 11.2162ZM57.0121 9.42312L57.1468 9.42613L57.1467 9.42013L57.0121 9.42312ZM61.3073 11.2162L61.4018 11.312L61.4028 11.3109L61.3073 11.2162ZM62.023 9.42312L61.8884 9.42013L61.8885 9.42613L62.023 9.42312ZM58.1917 10.8124L58.0959 10.9069L58.0969 10.9081L58.1917 10.8124ZM60.8435 10.8124L60.9381 10.9081L60.9393 10.9069L60.8435 10.8124ZM57.6467 9.42312L57.7817 9.4275L57.7811 9.41645L57.6467 9.42312ZM58.1591 8.03389L58.0644 7.9381L58.0611 7.94164L58.1591 8.03389ZM60.8111 8.03389L60.7163 8.12962L60.7174 8.13066L60.8111 8.03389ZM61.3886 9.42312L61.2538 9.42101L61.2541 9.42748L61.3886 9.42312ZM57.8237 11.1215C57.3766 10.6701 57.1328 10.0586 57.1468 9.42613L56.8776 9.42013C56.8619 10.1259 57.134 10.8078 57.6323 11.3109L57.8237 11.1215ZM61.2126 11.1204C60.275 12.0461 58.7601 12.0461 57.8226 11.1204L57.6335 11.312C58.6758 12.3412 60.3594 12.3413 61.4018 11.312L61.2126 11.1204ZM61.8885 9.42613C61.9025 10.0586 61.6585 10.6701 61.2115 11.1215L61.4028 11.3109C61.901 10.8078 62.1734 10.1259 62.1576 9.42013L61.8885 9.42613ZM61.2115 7.72476C61.6585 8.1762 61.9024 8.78766 61.8884 9.42013L62.1576 9.42613C62.1734 8.72035 61.901 8.03844 61.4028 7.53533L61.2115 7.72476ZM59.5175 7.02485C60.154 7.02485 60.7634 7.2766 61.2115 7.72476L61.4028 7.53533C60.9041 7.03646 60.2252 6.75562 59.5175 6.75562V7.02485ZM57.8231 7.72523C58.2713 7.27707 58.8812 7.02485 59.5175 7.02485V6.75562C58.81 6.75562 58.1315 7.03601 57.6328 7.53488L57.8231 7.72523ZM57.1467 9.42013C57.1327 8.78766 57.3761 8.17667 57.8231 7.72523L57.6328 7.53488C57.1346 8.03799 56.8619 8.72035 56.8776 9.42613L57.1467 9.42013ZM58.0969 10.9081C58.8827 11.6849 60.1525 11.6849 60.9381 10.9081L60.7489 10.7166C60.0681 11.3897 58.9671 11.3897 58.2864 10.7166L58.0969 10.9081ZM57.512 9.41876C57.4941 9.9733 57.7051 10.5109 58.0959 10.9069L58.2874 10.7178C57.9485 10.3741 57.7662 9.90798 57.7817 9.4275L57.512 9.41876ZM58.0611 7.94164C57.683 8.34339 57.485 8.88026 57.5122 9.4298L57.7811 9.41645C57.7574 8.9403 57.9291 8.47479 58.2571 8.12615L58.0611 7.94164ZM60.9057 7.93817C60.1201 7.16136 58.85 7.16129 58.0644 7.9381L58.2538 8.12962C58.9345 7.45652 60.0357 7.45652 60.7163 8.12962L60.9057 7.93817ZM61.5232 9.42524C61.5319 8.86561 61.3081 8.32734 60.9046 7.93713L60.7174 8.13066C61.0676 8.46935 61.2615 8.93613 61.2538 9.42101L61.5232 9.42524ZM60.9393 10.9069C61.3301 10.5108 61.5411 9.9733 61.5232 9.41876L61.2541 9.42748C61.2696 9.90797 61.0868 10.3741 60.7477 10.7178L60.9393 10.9069Z" fill="white"/>
<path d="M62.9092 11.8462V7H63.6738L66.0491 10.7719V9.835V7H66.6754V11.8462H66.0247L63.5355 7.89654V8.83346V11.8462H62.9092Z" fill="white" stroke="white" stroke-width="0.269231"/>
<path fill-rule="evenodd" clip-rule="evenodd" d="M40.3664 19.9756V21.4294H43.8805C43.8255 22.1142 43.5388 22.7604 43.0671 23.2629C42.3562 23.9819 41.3723 24.3691 40.3582 24.329C38.2018 24.329 36.4537 22.5933 36.4537 20.4521C36.4537 18.3109 38.2018 16.5752 40.3582 16.5752C41.3488 16.5592 42.3054 16.9338 43.0182 17.6171L44.0514 16.5913C43.0792 15.6139 41.7499 15.0691 40.3664 15.081C38.397 15.0049 36.5435 16.0047 35.5359 17.6866C34.5284 19.3686 34.5284 21.4629 35.5359 23.145C36.5435 24.8268 38.397 25.8266 40.3664 25.7506C41.7752 25.8138 43.1424 25.2689 44.1164 24.2563C44.9686 23.3267 45.4236 22.1045 45.3854 20.8479C45.3881 20.5418 45.3608 20.2361 45.3041 19.9352L40.3664 19.9756ZM49.3877 18.9175C47.4794 18.9219 45.9356 20.4609 45.9385 22.3556C45.9416 24.2503 47.4903 25.7844 49.3986 25.7829C51.3069 25.7814 52.8531 24.245 52.8531 22.3502C52.8664 21.4329 52.5043 20.5496 51.8494 19.9025C51.1946 19.2554 50.3033 18.8999 49.3796 18.9175H49.3877ZM53.5201 22.361C53.514 20.4672 55.0538 18.9264 56.961 18.9175C57.8847 18.8999 58.776 19.2554 59.4309 19.9025C60.0857 20.5496 60.4479 21.4329 60.4345 22.3502C60.4345 24.244 58.8899 25.7799 56.9827 25.7829C55.0754 25.7858 53.526 24.2546 53.5201 22.361ZM54.9209 23.2536C55.2923 24.0256 56.1013 24.4938 56.961 24.434C57.5005 24.4216 58.0122 24.1933 58.3798 23.8009C58.7473 23.4085 58.9398 22.8854 58.9133 22.3502C58.9112 21.4946 58.3825 20.7271 57.5802 20.4151C56.7778 20.1029 55.8648 20.3094 55.2779 20.9359C54.691 21.5624 54.5494 22.4814 54.9209 23.2536ZM47.342 23.2598C47.7161 24.0313 48.5276 24.497 49.3877 24.434H49.3796C49.9191 24.4216 50.4307 24.1933 50.7983 23.8009C51.1659 23.4085 51.3583 22.8854 51.3318 22.3502C51.3295 21.4939 50.7998 20.7262 49.9964 20.4147C49.193 20.1033 48.2795 20.3116 47.6935 20.9397C47.1074 21.5679 46.9679 22.4882 47.342 23.2598ZM74.2634 18.9175C75.6119 18.9668 76.79 19.8376 77.2244 21.1063L77.3952 21.4698L72.7666 23.3679C73.0567 24.0239 73.7213 24.4371 74.4423 24.4098C75.1385 24.4115 75.7843 24.0496 76.1425 23.4567L77.322 24.2644C76.6799 25.2187 75.5981 25.7891 74.4423 25.7829C73.5235 25.7962 72.6388 25.4381 71.9913 24.7908C71.344 24.1433 70.9895 23.2623 71.0094 22.3502C70.9533 21.4589 71.2711 20.5843 71.8875 19.934C72.5039 19.2838 73.3639 18.9157 74.2634 18.9175ZM72.5062 22.2533C72.473 21.7486 72.6456 21.2519 72.9853 20.8751C73.3251 20.4981 73.8033 20.2729 74.3121 20.2502C74.8485 20.2151 75.3542 20.5011 75.5974 20.9771L72.5062 22.2533ZM70.2692 25.581H68.748V15.4848H70.2692V25.581ZM66.2589 19.6848H66.2019C65.7382 19.17 65.0753 18.8762 64.3798 18.8771C62.5333 18.966 61.0822 20.4784 61.0822 22.3138C61.0822 24.1493 62.5333 25.6617 64.3798 25.7506C65.0776 25.7623 65.7448 25.4665 66.2019 24.9429H66.2507V25.4356C66.2507 26.7521 65.543 27.4548 64.4041 27.4548C63.6284 27.4368 62.9405 26.9548 62.6633 26.2352L61.3375 26.7844C61.8481 28.0176 63.0614 28.8197 64.4041 28.8117C66.1856 28.8117 67.6581 27.7698 67.6581 25.2336V19.1194H66.2589V19.6848ZM64.5155 24.4338L64.518 24.434H64.5099L64.5155 24.4338ZM65.8863 23.7861C65.5372 24.1784 65.0421 24.4122 64.5155 24.4338C63.4291 24.3375 62.5961 23.4336 62.5961 22.3502C62.5961 21.266 63.4303 20.3615 64.518 20.2663C65.0437 20.2931 65.5361 20.5295 65.8837 20.9218C66.2314 21.3141 66.4048 21.8292 66.3645 22.3502C66.4095 22.8736 66.2367 23.3925 65.8863 23.7861ZM84.3502 15.4848H80.7059V25.581H82.2271V21.7525H84.3502C85.5319 21.8368 86.6621 21.2586 87.2788 20.2542C87.8956 19.2499 87.8956 17.9874 87.2788 16.9831C86.6621 15.9787 85.5319 15.4005 84.3502 15.4848ZM82.2271 20.331H84.3502L84.3828 20.3552C85.3464 20.3552 86.1277 19.5795 86.1277 18.6227C86.1277 17.6658 85.3464 16.8902 84.3828 16.8902H82.2271V20.331ZM93.7294 18.8771C92.5977 18.8099 91.5337 19.416 91.0206 20.4198L92.371 20.9771C92.643 20.4793 93.1853 20.1879 93.7538 20.234C94.1439 20.1888 94.5359 20.3011 94.8419 20.5455C95.1477 20.7901 95.342 21.1465 95.3808 21.5344V21.6394C94.8922 21.3826 94.3473 21.2494 93.7946 21.2517C92.3384 21.2517 90.866 22.0594 90.866 23.5213C90.8951 24.1511 91.1794 24.7424 91.6545 25.1608C92.1294 25.5792 92.7545 25.7889 93.3878 25.7425C94.1681 25.7981 94.9167 25.4264 95.3401 24.7733H95.389V25.581H96.8532V21.696C96.8532 19.9271 95.5029 18.9013 93.7701 18.9013L93.7294 18.8771ZM92.3547 23.5536C92.3547 24.1594 93.0461 24.4098 93.5423 24.4098L93.583 24.434C94.4994 24.4118 95.2593 23.7229 95.3645 22.8186C94.9424 22.5847 94.4648 22.4676 93.9816 22.4794C93.2169 22.4794 92.3547 22.746 92.3547 23.5536ZM102.189 19.1194L100.449 23.4971H100.4L98.5939 19.1194H96.9671L99.6758 25.2417L98.1303 28.6421H99.7166L103.881 19.1194H102.189ZM90.0364 25.581H88.5151V15.4848H90.0364V25.581Z" fill="white"/>
<path d="M9.92063 7.43618C9.66133 7.75446 9.53341 8.15862 9.56271 8.56695V26.4331C9.53794 26.8436 9.67176 27.2479 9.9369 27.5639L9.99384 27.6204L20.0564 17.6212V17.387L9.97757 7.37964L9.92063 7.43618Z" fill="url(#paint0_linear_102_3026)"/>
<path d="M23.3917 20.9568L20.0566 17.621V17.3868L23.3917 14.043L23.465 14.0834L27.4591 16.3368C28.598 16.9749 28.598 18.0249 27.4591 18.671L23.4813 20.9164L23.3917 20.9568Z" fill="url(#paint1_linear_102_3026)"/>
<path d="M23.4894 20.9165L20.0566 17.5L9.9209 27.5638C10.3998 27.9818 11.1105 28.0022 11.6129 27.6123L23.4976 20.9085" fill="url(#paint2_linear_102_3026)"/>
<path d="M23.4887 14.0915L11.6041 7.38768C11.1017 6.99778 10.391 7.01814 9.91211 7.43614L20.0559 17.5L23.4887 14.0915Z" fill="url(#paint3_linear_102_3026)"/>
<path opacity="0.2" d="M23.3918 20.8357L11.6048 27.4992C11.1224 27.8572 10.4602 27.8572 9.97784 27.4992L9.9209 27.5557L9.97784 27.6122C10.4593 27.973 11.1233 27.973 11.6048 27.6122L23.4894 20.9084L23.3918 20.8357Z" fill="#007565"/>
<path opacity="0.12" d="M9.92106 27.4508C9.65592 27.1349 9.5221 26.7305 9.54686 26.3201V26.4412C9.5221 26.8517 9.65592 27.256 9.92106 27.572L9.978 27.5155L9.92106 27.4508Z" fill="#007565"/>
<path opacity="0.12" d="M27.4589 18.55L23.3916 20.8358L23.4648 20.9085L27.4589 18.6631C27.9202 18.448 28.2305 18.0043 28.2724 17.5C28.1797 17.9562 27.8793 18.344 27.4589 18.55Z" fill="#007565"/>
<path opacity="0.25" d="M11.6043 7.50075L27.4586 16.45C27.879 16.6559 28.1793 17.0438 28.2721 17.5C28.2302 16.9957 27.9199 16.552 27.4586 16.3369L11.6043 7.38767C10.4736 6.74152 9.5625 7.2746 9.5625 8.56691V8.68806C9.5625 7.39575 10.4736 6.86267 11.6043 7.50075Z" fill="white"/>
</g>
</g>
<defs>
<linearGradient id="paint0_linear_102_3026" x1="15.647" y1="-4.778" x2="-0.472871" y2="-0.472643" gradientUnits="userSpaceOnUse">
<stop stop-color="#00A0FF"/>
<stop offset="0.01" stop-color="#00A1FF"/>
<stop offset="0.26" stop-color="#00BEFF"/>
<stop offset="0.51" stop-color="#00D2FF"/>
<stop offset="0.76" stop-color="#00DFFF"/>
<stop offset="1" stop-color="#00E3FF"/>
</linearGradient>
<linearGradient id="paint1_linear_102_3026" x1="28.9477" y1="9.26119" x2="9.27007" y2="9.26119" gradientUnits="userSpaceOnUse">
<stop stop-color="#FFE000"/>
<stop offset="0.41" stop-color="#FFBD00"/>
<stop offset="0.78" stop-color="#FFA500"/>
<stop offset="1" stop-color="#FF9C00"/>
</linearGradient>
<linearGradient id="paint2_linear_102_3026" x1="9.62308" y1="12.2722" x2="-3.20472" y2="34.004" gradientUnits="userSpaceOnUse">
<stop stop-color="#FF3A44"/>
<stop offset="1" stop-color="#C31162"/>
</linearGradient>
<linearGradient id="paint3_linear_102_3026" x1="2.00529" y1="4.65445" x2="7.731" y2="14.3587" gradientUnits="userSpaceOnUse">
<stop stop-color="#32A071"/>
<stop offset="0.07" stop-color="#2DA771"/>
<stop offset="0.48" stop-color="#15CF74"/>
<stop offset="0.8" stop-color="#06E775"/>
<stop offset="1" stop-color="#00F076"/>
</linearGradient>
<clipPath id="clip0_102_3026">
<rect width="113.08" height="35" fill="white" transform="translate(0.0800781)"/>
</clipPath>
<clipPath id="clip1_102_3026">
<rect width="113.077" height="35" fill="white" transform="translate(0.0820312)"/>
</clipPath>
</defs>
</svg>
