<svg width="114" height="35" viewBox="0 0 114 35" fill="none" xmlns="http://www.w3.org/2000/svg">
<path d="M106.593 1H7.54477C4.57093 1 2.16016 3.41077 2.16016 6.38462V27.9231C2.16016 30.8969 4.57093 33.3077 7.54477 33.3077H106.593C109.567 33.3077 111.978 30.8969 111.978 27.9231V6.38462C111.978 3.41077 109.567 1 106.593 1Z" fill="#007565" stroke="#979797" stroke-width="1.34615"/>
<path opacity="0.2" d="M23.4699 20.8357L11.6829 27.4992C11.2005 27.8572 10.5383 27.8572 10.056 27.4992L9.99902 27.5557L10.056 27.6122C10.5374 27.973 11.2014 27.973 11.6829 27.6122L23.5675 20.9084L23.4699 20.8357Z" fill="#007565"/>
<path opacity="0.12" d="M9.99919 27.4508C9.73405 27.1349 9.60023 26.7305 9.62498 26.3201V26.4412C9.60023 26.8517 9.73405 27.256 9.99919 27.572L10.0561 27.5155L9.99919 27.4508Z" fill="#007565"/>
<path opacity="0.12" d="M27.537 18.55L23.4697 20.8358L23.543 20.9085L27.537 18.6631C27.9983 18.448 28.3086 18.0043 28.3505 17.5C28.2579 17.9562 27.9574 18.344 27.537 18.55Z" fill="#007565"/>
<path fill-rule="evenodd" clip-rule="evenodd" d="M26.4059 5H15.9105C10.9665 5 9.1582 6.80834 9.1582 11.7524V22.2478C9.1582 27.1917 10.9665 29 15.9105 29H26.4026C31.3466 29 33.1582 27.1917 33.1582 22.2478V11.7524C33.1582 6.80834 31.3499 5 26.4059 5Z" fill="#C91C2E"/>
<path d="M19.6301 18.9189H20.5926L20.1098 17.7961L19.6301 18.9189ZM19.3931 19.4848L19.1076 20.1381H18.4576L19.84 17.002H20.4016L21.7784 20.1381H21.111L20.829 19.4848H19.3931ZM29.8528 20.1359H30.4811V17.002H29.8528V20.1359ZM27.3525 18.7893H28.5103V18.2182H27.3525V17.5758H29.0333V17.004H26.7245V20.1378H29.0939V19.5662H27.3525V18.7893ZM24.8563 19.1596L24.1438 17.0019H23.6244L22.912 19.1596L22.2188 17.0034H21.5412L22.6349 20.1396H23.1618L23.8753 18.0795L24.5885 20.1396H25.1202L26.2111 17.0034H25.551L24.8563 19.1596ZM17.4986 18.798C17.4986 19.3082 17.2452 19.5807 16.7852 19.5807C16.3226 19.5807 16.068 19.3005 16.068 18.7762V17.0038H15.4313V18.798C15.4313 19.6807 15.9217 20.1868 16.7766 20.1868C17.6398 20.1868 18.135 19.671 18.135 18.772V17.0019H17.4986V18.798ZM13.9122 17.002H14.5486V20.1398H13.9122V18.8656H12.4745V20.1398H11.8379V17.002H12.4745V18.2678H13.9122V17.002Z" fill="white"/>
<path d="M21.1579 13.0076C18.9553 13.0076 17.1631 11.2154 17.1631 9.01268H17.7275C17.7275 10.9042 19.2662 12.4432 21.1579 12.4432C23.0497 12.4432 24.5884 10.9042 24.5884 9.01268H25.1528C25.1528 11.2154 23.3606 13.0076 21.1579 13.0076Z" fill="white"/>
<path d="M43.8119 22.64H39.8568L38.8905 25.2602H37.1602L41.0254 15.429H42.6658L46.6209 25.2602H44.8007L43.8119 22.64ZM40.3512 21.2964H43.295L42.2388 18.4746C42.104 18.0939 41.9467 17.646 41.8119 17.1757C41.6771 17.6012 41.5422 18.0267 41.4074 18.4522L40.3512 21.2964Z" fill="white"/>
<path d="M47.3174 19.7284C47.3174 19.1909 47.2949 18.5862 47.2725 17.9368H48.8455C48.9129 18.2503 48.9354 18.5414 48.9579 18.855C49.6096 18.1383 50.3511 17.78 51.2051 17.78C51.6995 17.78 52.1489 17.892 52.5759 18.1383C53.0028 18.3847 53.3399 18.7654 53.5871 19.3029C53.8343 19.8403 53.9691 20.5122 53.9691 21.3184C53.9691 22.1694 53.8118 22.9084 53.5197 23.5131C53.2276 24.1177 52.8231 24.588 52.2837 24.8791C51.7669 25.1927 51.1601 25.3494 50.4635 25.3494C49.9691 25.3494 49.4747 25.2598 48.9803 25.1031V28.1712L47.2949 28.3055V19.7284H47.3174ZM51.7444 23.4683C52.0815 23.0204 52.2613 22.3485 52.2613 21.4528C52.2613 20.6242 52.1264 20.0419 51.8343 19.6836C51.5422 19.3253 51.1826 19.1237 50.7107 19.1237C50.3736 19.1237 50.0815 19.1909 49.8118 19.3477C49.5421 19.5044 49.2725 19.706 49.0253 19.9747V23.8938C49.1826 23.9834 49.3848 24.0505 49.6096 24.0953C49.8343 24.1401 50.059 24.1625 50.2612 24.1625C50.8905 24.1625 51.3849 23.9386 51.7444 23.4683Z" fill="white"/>
<path d="M54.9805 19.7284C54.9805 19.1909 54.958 18.5862 54.9355 17.9368H56.5086C56.576 18.2503 56.5985 18.5414 56.621 18.855C57.2726 18.1383 58.0142 17.78 58.8682 17.78C59.3625 17.78 59.812 17.892 60.239 18.1383C60.6659 18.3847 61.003 18.7654 61.2502 19.3029C61.4974 19.8403 61.6322 20.5122 61.6322 21.3184C61.6322 22.1694 61.4749 22.9084 61.1828 23.5131C60.8907 24.1177 60.4862 24.588 59.9468 24.8791C59.43 25.1927 58.8232 25.3494 58.1266 25.3494C57.6322 25.3494 57.1378 25.2598 56.6434 25.1031V28.1712L54.958 28.3055V19.7284H54.9805ZM59.4075 23.4683C59.7446 23.0204 59.9243 22.3485 59.9243 21.4528C59.9243 20.6242 59.7895 20.0419 59.4974 19.6836C59.2052 19.3253 58.8457 19.1237 58.3738 19.1237C58.0367 19.1237 57.7446 19.1909 57.4749 19.3477C57.2052 19.5044 56.9356 19.706 56.6884 19.9747V23.8938C56.8457 23.9834 57.0479 24.0505 57.2726 24.0953C57.4974 24.1401 57.7221 24.1625 57.9243 24.1625C58.5536 24.1625 59.0704 23.9386 59.4075 23.4683Z" fill="white"/>
<path d="M64.7111 24.7891C63.992 24.386 63.4302 23.8261 63.0482 23.0647C62.6661 22.3257 62.4639 21.4299 62.4639 20.4221C62.4639 19.3248 62.6886 18.3842 63.138 17.6228C63.5875 16.8614 64.1942 16.2791 64.9808 15.8984C65.7448 15.5177 66.6212 15.3162 67.5875 15.3162C68.1493 15.3162 68.6887 15.3833 69.2055 15.4953C69.7224 15.6297 70.1943 15.7864 70.6437 16.0104L70.2168 17.3093C69.3179 16.8838 68.4639 16.6822 67.6549 16.6822C66.9808 16.6822 66.374 16.839 65.8572 17.1301C65.3403 17.4213 64.9358 17.8468 64.6661 18.4066C64.374 18.9665 64.2392 19.6607 64.2392 20.4445C64.2392 21.1388 64.3515 21.7658 64.5763 22.3033C64.801 22.8408 65.1381 23.2663 65.61 23.6022C66.0819 23.9157 66.6886 24.0725 67.4077 24.0725C67.7448 24.0725 68.0594 24.0501 68.3965 23.9829C68.7336 23.9157 69.0257 23.8485 69.3179 23.7365V21.7434H67.0482V20.4445H70.9584V24.5875C70.3965 24.8563 69.8123 25.0578 69.183 25.1922C68.5538 25.3266 67.9471 25.3937 67.3403 25.3937C66.3066 25.3937 65.4527 25.1922 64.7111 24.7891Z" fill="white"/>
<path d="M76.8677 25.2592C76.8002 24.9681 76.7778 24.6546 76.7553 24.2963C76.4856 24.6098 76.171 24.8561 75.744 25.0801C75.3395 25.304 74.8676 25.3936 74.3283 25.3936C73.9013 25.3936 73.5193 25.304 73.1822 25.1473C72.8451 24.9905 72.553 24.7442 72.3507 24.4082C72.1485 24.0723 72.0361 23.6692 72.0361 23.1989C72.0361 22.4823 72.2833 21.9224 72.8002 21.4969C73.317 21.0714 74.171 20.8699 75.362 20.8699C75.8115 20.8699 76.2609 20.8923 76.6879 20.9595V20.8251C76.6879 20.1757 76.553 19.7278 76.2834 19.459C76.0137 19.1903 75.6092 19.0559 75.0923 19.0559C74.7328 19.0559 74.3508 19.1007 73.9463 19.2127C73.5418 19.3247 73.1822 19.4366 72.8676 19.5934L72.5979 18.3841C72.8901 18.2497 73.2946 18.1153 73.789 18.0034C74.2834 17.8914 74.8002 17.8242 75.3396 17.8242C75.9688 17.8242 76.5081 17.9138 76.9575 18.1153C77.407 18.3169 77.7441 18.6304 77.9913 19.1007C78.2385 19.571 78.3733 20.1981 78.3733 20.9819V23.8932C78.3733 24.2067 78.3958 24.6546 78.4182 25.2592H76.8677ZM75.8789 23.8932C76.2384 23.7364 76.5081 23.5125 76.7328 23.2661V21.9C76.2834 21.8553 75.9013 21.8329 75.6092 21.8329C74.9126 21.8329 74.4407 21.9448 74.171 22.1688C73.9013 22.3927 73.7665 22.6839 73.7665 23.0646C73.7665 23.4229 73.8564 23.6916 74.0586 23.8708C74.2609 24.0499 74.5081 24.1395 74.8452 24.1395C75.1822 24.1619 75.5193 24.0723 75.8789 23.8932Z" fill="white"/>
<path d="M79.7002 23.5126V14.8683L81.3632 14.7339V23.2215C81.3632 23.535 81.4081 23.7589 81.5205 23.8933C81.6328 24.0277 81.7901 24.0948 82.0373 24.0948C82.1497 24.0948 82.2845 24.0725 82.4868 24.0277L82.689 25.237C82.5317 25.3042 82.3295 25.3489 82.1047 25.3937C81.88 25.4385 81.6553 25.4609 81.453 25.4609C80.2845 25.3937 79.7002 24.7667 79.7002 23.5126Z" fill="white"/>
<path d="M83.8789 23.5126V14.8683L85.5418 14.7339V23.2215C85.5418 23.535 85.5868 23.7589 85.6991 23.8933C85.8115 24.0277 85.9688 24.0948 86.216 24.0948C86.3284 24.0948 86.4632 24.0725 86.6654 24.0277L86.8677 25.237C86.7104 25.3042 86.5081 25.3489 86.2834 25.3937C86.0587 25.4385 85.834 25.4609 85.6317 25.4609C84.4632 25.3937 83.8789 24.7667 83.8789 23.5126Z" fill="white"/>
<path d="M93.7454 21.8111H88.9364C89.0038 23.3339 89.7454 24.1177 91.1387 24.1177C91.4757 24.1177 91.8353 24.0729 92.1949 23.9833C92.5544 23.8938 92.8915 23.7818 93.2286 23.6474L93.5881 24.7896C92.7566 25.1927 91.8353 25.3942 90.824 25.3942C90.0375 25.3942 89.3858 25.2374 88.8465 24.9463C88.3072 24.6552 87.9027 24.2297 87.633 23.6698C87.3633 23.11 87.2285 22.4605 87.2285 21.6767C87.2285 20.8705 87.3634 20.1763 87.6555 19.594C87.9476 19.0117 88.3297 18.5638 88.8465 18.2503C89.3634 17.9368 89.9476 17.78 90.6218 17.78C91.3184 17.78 91.9027 17.9368 92.3521 18.2727C92.8241 18.5862 93.1611 19.0341 93.3859 19.5716C93.6106 20.1091 93.7229 20.7137 93.7229 21.3632V21.8111H93.7454ZM92.105 20.7585C92.0825 20.1763 91.9252 19.7284 91.6555 19.4372C91.3859 19.1461 91.0488 18.9893 90.5993 18.9893C90.1724 18.9893 89.8128 19.1461 89.5431 19.4372C89.251 19.7284 89.0712 20.1763 88.9813 20.7361H92.105V20.7585Z" fill="white"/>
<path d="M95.0039 19.7726C95.0039 19.3694 94.9815 18.7648 94.959 17.9362H96.532C96.5545 18.1377 96.577 18.3841 96.5995 18.6752C96.6219 18.9663 96.6444 19.1903 96.6444 19.3694C96.8466 19.0559 97.0264 18.7872 97.2287 18.5632C97.4085 18.3393 97.6332 18.1601 97.8804 18.0258C98.1276 17.8914 98.4197 17.8242 98.7343 17.8242C99.004 17.8242 99.2062 17.8466 99.4085 17.9138L99.2062 19.3694C99.0489 19.3247 98.8691 19.3023 98.6669 19.3023C98.2624 19.3023 97.9253 19.3918 97.6332 19.5934C97.341 19.7949 97.0264 20.1309 96.6894 20.5788V25.2816H95.0264V19.7726H95.0039Z" fill="white"/>
<path d="M100.352 28.26C100.105 28.2152 99.9024 28.1704 99.7451 28.1032L100.06 26.8939C100.172 26.9163 100.307 26.9611 100.487 26.9835C100.666 27.0059 100.824 27.0283 100.981 27.0283C101.723 27.0283 102.284 26.558 102.644 25.595L102.756 25.3263L100.06 17.9584H101.857L103.228 22.079C103.453 22.7733 103.588 23.3331 103.655 23.6915C103.79 23.154 103.925 22.6389 104.105 22.1014L105.475 17.936H107.161L104.464 25.3487C104.217 26.0429 103.925 26.6251 103.633 27.0506C103.341 27.4761 102.981 27.7897 102.599 28.0136C102.195 28.2152 101.723 28.3271 101.138 28.3271C100.869 28.3271 100.599 28.3047 100.352 28.26Z" fill="white"/>
<path d="M37.1602 6.08936H40.149L40.0591 6.80598H38.0366V8.19445H39.9467V8.86629H38.0366V10.4115H40.1714L40.104 11.1281H37.1602V6.08936Z" fill="white"/>
<path d="M42.2167 8.57516L40.6436 6.08936H41.6324L42.7111 7.90332L43.8347 6.08936H44.801L43.2279 8.53037L44.9133 11.1505H43.9021L42.6886 9.15742L41.4526 11.1505H40.4863L42.2167 8.57516Z" fill="white"/>
<path d="M45.5645 6.08936H46.9352C47.5869 6.08936 48.0813 6.22372 48.4184 6.49246C48.7555 6.76119 48.9353 7.1419 48.9353 7.63459C48.9353 7.9705 48.8679 8.26164 48.7106 8.50798C48.5532 8.75432 48.351 8.95587 48.0589 9.09024C47.7892 9.2246 47.4746 9.29179 47.115 9.29179C46.9128 9.29179 46.6881 9.26939 46.4409 9.2246V11.1505H45.5645V6.08936ZM47.7667 8.35121C47.9465 8.17206 48.0364 7.94811 48.0364 7.63459C48.0364 7.32106 47.9465 7.09711 47.7442 6.96275C47.5645 6.82838 47.2723 6.76119 46.9128 6.76119H46.4409V8.55277C46.6656 8.59755 46.8229 8.59755 46.9352 8.59755C47.3173 8.59755 47.5869 8.50798 47.7667 8.35121Z" fill="white"/>
<path d="M49.8105 6.08936H50.687V10.4115H52.7993L52.7319 11.1505H49.833V6.08936H49.8105Z" fill="white"/>
<path d="M54.1246 10.9044C53.7426 10.7029 53.4729 10.3893 53.2707 10.0086C53.0684 9.62793 52.9785 9.18004 52.9785 8.66496C52.9785 8.12749 53.0909 7.6572 53.2931 7.2541C53.4954 6.851 53.81 6.53747 54.192 6.33592C54.5965 6.11197 55.0459 6 55.5853 6C56.1021 6 56.5291 6.11197 56.9111 6.31352C57.2707 6.51508 57.5628 6.8286 57.7651 7.20931C57.9673 7.59002 58.0572 8.03791 58.0572 8.53059C58.0572 9.06806 57.9449 9.53835 57.7426 9.94146C57.5404 10.3446 57.2257 10.6581 56.8437 10.8596C56.4617 11.0836 55.9898 11.1956 55.4729 11.1956C54.9336 11.2179 54.4841 11.106 54.1246 10.9044ZM56.3943 10.2774C56.6415 10.1206 56.8212 9.89667 56.9561 9.60554C57.0684 9.31441 57.1359 8.97849 57.1359 8.62017C57.1359 8.26186 57.0909 7.92594 56.9786 7.6572C56.8662 7.36607 56.7089 7.14213 56.4617 6.98536C56.2145 6.80621 55.9224 6.73902 55.5403 6.73902C55.1808 6.73902 54.8886 6.8286 54.6414 6.98536C54.3943 7.16452 54.2145 7.38847 54.0796 7.6796C53.9448 7.97073 53.8999 8.28425 53.8999 8.64257C53.8999 9.00088 53.9673 9.3368 54.0796 9.62793C54.192 9.91906 54.3718 10.143 54.619 10.3222C54.8662 10.5013 55.1583 10.5685 55.5179 10.5685C55.8549 10.5237 56.1471 10.4565 56.3943 10.2774Z" fill="white"/>
<path d="M59.0254 6.08936H60.6209C61.2052 6.08936 61.6322 6.20133 61.9468 6.42527C62.2614 6.64922 62.3962 6.98514 62.3962 7.41064C62.3962 7.67937 62.3513 7.92572 62.2389 8.12727C62.1266 8.32882 61.9917 8.50798 61.8344 8.61995C61.6771 8.75432 61.5198 8.8439 61.34 8.91108L62.9131 11.1505H61.8794L60.5535 9.13503H59.9018V11.1505H59.0254V6.08936ZM60.3962 8.48558C60.5985 8.48558 60.8007 8.44079 60.958 8.35121C61.1153 8.26164 61.2501 8.14966 61.34 7.9929C61.4299 7.83614 61.4749 7.65698 61.4749 7.47782C61.4749 7.23148 61.385 7.02993 61.2277 6.91796C61.0704 6.80598 60.8232 6.7388 60.531 6.7388H59.9018V8.46319H60.3962V8.48558Z" fill="white"/>
<path d="M63.5879 6.08936H66.5767L66.4868 6.80598H64.4643V8.19445H66.3745V8.86629H64.4643V10.4115H66.5992L66.5318 11.1281H63.5879V6.08936Z" fill="white"/>
<path d="M69.834 6.08936H70.7104V11.1505H69.834V6.08936Z" fill="white"/>
<path d="M73.0476 6.80641H71.4746L71.542 6.06738H75.4971L75.4072 6.80641H73.9016V11.151H73.0252V6.80641H73.0476Z" fill="white"/>
<path d="M79.317 10.9044C78.9349 10.7029 78.6653 10.3893 78.463 10.0086C78.2608 9.62793 78.1709 9.18004 78.1709 8.66496C78.1709 8.12749 78.2833 7.6572 78.4855 7.2541C78.6878 6.851 79.0024 6.53747 79.3844 6.33592C79.7889 6.11197 80.2383 6 80.7777 6C81.2945 6 81.7215 6.11197 82.1035 6.31352C82.4631 6.51508 82.7552 6.8286 82.9574 7.20931C83.1597 7.59002 83.2496 8.03791 83.2496 8.53059C83.2496 9.06806 83.1372 9.53835 82.935 9.94146C82.7327 10.3446 82.4181 10.6581 82.0361 10.8596C81.6541 11.0836 81.1821 11.1956 80.6653 11.1956C80.126 11.2179 79.6765 11.106 79.317 10.9044ZM81.5867 10.2774C81.8338 10.1206 82.0136 9.89667 82.1485 9.60554C82.2608 9.31441 82.3282 8.97849 82.3282 8.62017C82.3282 8.26186 82.2833 7.92594 82.1709 7.6572C82.0586 7.36607 81.9013 7.14213 81.6541 6.98536C81.4069 6.80621 81.1147 6.73902 80.7327 6.73902C80.3732 6.73902 80.081 6.8286 79.8338 6.98536C79.5866 7.16452 79.4069 7.38847 79.272 7.6796C79.1372 7.97073 79.0922 8.28425 79.0922 8.64257C79.0922 9.00088 79.1597 9.3368 79.272 9.62793C79.3844 9.91906 79.5642 10.143 79.8114 10.3222C80.0585 10.5013 80.3507 10.5685 80.7102 10.5685C81.0248 10.5237 81.3395 10.4565 81.5867 10.2774Z" fill="white"/>
<path d="M84.2178 6.08936H85.229L87.7459 10.0084C87.7234 9.62771 87.7234 9.29179 87.7234 8.97826V6.08936H88.5324V11.1505H87.5661L85.0043 7.1643C85.0268 7.61219 85.0492 8.01529 85.0492 8.37361V11.1505H84.2402V6.08936H84.2178Z" fill="white"/>
</svg>
