<svg width="360" height="110" viewBox="0 0 360 110" fill="none" xmlns="http://www.w3.org/2000/svg">
<g clip-path="url(#clip0_680_4625)">
<rect x="0.333008" width="359.333" height="110" rx="12" fill="#F5F5F5"/>
<path d="M0.333008 12C0.333008 5.37258 5.70559 0 12.333 0H160.333V110H12.333C5.70559 110 0.333008 104.627 0.333008 98V12Z" fill="#009FA6" fill-opacity="0.1"/>
<path d="M141.147 78.2455V33.1533H10.333V78.2455H141.147Z" fill="#006FBA"/>
<path d="M75.7384 77.0721C111.343 77.0721 140.207 67.5035 140.207 55.6976C140.207 43.8948 111.343 34.3262 75.7384 34.3262C40.134 34.3262 11.2695 43.8948 11.2695 55.6976C11.2695 67.5035 40.134 77.0721 75.7384 77.0721Z" fill="#FFE91B"/>
<path d="M40.1653 64.5754C40.4734 64.5754 40.5947 64.454 40.4329 64.2704C40.3022 64.1273 40.0844 63.1502 40.0844 62.1109V49.9689C40.0844 48.9296 40.3022 47.9525 40.4329 47.8093C40.5947 47.6258 40.4734 47.5044 40.1653 47.5044H29.184C28.8791 47.5044 28.7577 47.6258 28.9195 47.8093C29.0471 47.9525 29.2649 48.9296 29.2649 49.9689V62.1109C29.2649 63.1502 29.0471 64.1273 28.9195 64.2704C28.7577 64.454 28.8791 64.5754 29.184 64.5754H40.1653Z" fill="#006BB6"/>
<path d="M56.7013 53.5972L60.6967 48.1765C60.8617 48.0116 60.7776 47.7876 60.7776 47.6849C60.7776 47.5853 60.7776 47.5044 60.8617 47.5044H71.6998C71.843 47.5044 71.7807 47.604 71.7185 47.6849L67.2563 53.9208C67.054 54.1853 67.0945 54.4311 67.2967 54.6956L73.4299 64.3918C73.4922 64.4758 73.5544 64.5754 73.4113 64.5754H60.1677C60.0868 64.5754 60.0868 64.4945 60.0868 64.3918C60.0868 64.2922 60.2891 63.4147 60.1273 63.2529L56.7044 58.0158V62.1109C56.7044 63.1502 56.9222 64.1273 57.0498 64.2704C57.2147 64.454 57.0902 64.5754 56.7853 64.5754H46.1307C45.8258 64.5754 45.7013 64.454 45.8662 64.2704C45.9938 64.1273 46.2116 63.1502 46.2116 62.1109V49.9689C46.2116 48.9296 45.9938 47.9525 45.8662 47.8093C45.7013 47.6258 45.8258 47.5044 46.1307 47.5044H56.7853C57.0902 47.5044 57.2147 47.6258 57.0498 47.8093C56.9222 47.9525 56.7044 48.9296 56.7044 49.9689L56.7013 53.5972Z" fill="#006BB6"/>
<path d="M87.4483 58.2374C87.4483 58.169 87.4732 57.9325 87.7532 57.9325H91.9696C92.4053 57.9325 93.9736 57.8796 94.1074 58.0134C94.2412 58.1472 94.4092 58.0632 94.4092 57.808V53.7161C94.4092 53.4609 94.2412 53.3769 94.1074 53.5107C93.9736 53.6476 92.4053 53.5916 91.9696 53.5916H87.7532C87.4732 53.5916 87.4483 53.3551 87.4483 53.2867V52.4589C87.4483 52.3905 87.4763 52.1509 87.7564 52.1509H93.8149C94.8449 52.1509 95.8095 52.3687 95.9527 52.4932C96.1331 52.655 96.2545 52.5336 96.2545 52.2318V47.502H77.164C76.8622 47.502 76.7408 47.6544 76.9026 47.8349C77.0271 47.978 77.2449 48.9427 77.2449 49.9727V61.9871C77.2449 63.0171 77.0271 63.9817 76.9026 64.1248C76.7408 64.3053 76.8591 64.4267 77.164 64.4267H96.2545V59.4012C96.2545 59.0994 96.1331 58.978 95.9527 59.1367C95.8095 59.2643 94.8418 59.4821 93.8149 59.4821H87.7532C87.4732 59.4821 87.4483 59.2425 87.4483 59.1741V58.2374Z" fill="#006BB6"/>
<path d="M126.504 64.426C126.504 64.426 120.162 49.3589 120.072 49.1069C119.982 48.858 119.888 48.4254 120.05 48.0396C120.209 47.6537 120.072 47.5635 119.798 47.5635H104.958C104.684 47.5635 104.547 47.6537 104.706 48.0396C104.865 48.4254 104.775 48.858 104.684 49.1069C104.594 49.3589 98.9805 64.426 98.9805 64.426H108.104C108.322 64.426 108.365 64.3233 108.297 64.177C108.229 64.0277 108.229 63.6885 108.331 63.4364L108.82 61.8121C108.978 61.3578 109.206 61.2893 109.595 61.2893H113.606C113.991 61.2893 114.219 61.3578 114.377 61.8121L114.866 63.4364C114.969 63.6885 114.969 64.0277 114.9 64.177C114.832 64.3233 114.878 64.426 115.093 64.426H126.504ZM110.326 57.9598C110.186 57.9473 110.167 57.8011 110.208 57.6984L111.194 55.3584C111.234 55.2899 111.259 55.2215 111.343 55.2215C111.427 55.2215 111.452 55.2899 111.49 55.3584L112.479 57.6984C112.52 57.8011 112.504 57.9473 112.361 57.9598H110.326Z" fill="#006BB6"/>
<path d="M146.253 34.7372C146.851 34.7372 147.383 34.6967 147.383 33.981C147.383 33.4054 146.863 33.2996 146.372 33.2996H145.413V34.7372H146.253ZM145.413 37.3479H144.71V32.7021H146.477C147.576 32.7021 148.117 33.1066 148.117 34.0246C148.117 34.8554 147.598 35.2164 146.916 35.3035L148.235 37.3479H147.448L146.222 35.3346H145.413V37.3479ZM146.266 38.381C148.086 38.381 149.524 36.9527 149.524 35.0141C149.524 33.1066 148.086 31.669 146.266 31.669C144.424 31.669 142.983 33.1066 142.983 35.0141C142.983 36.9527 144.424 38.381 146.266 38.381ZM142.174 35.0141C142.174 32.7021 144.05 31 146.266 31C148.46 31 150.333 32.7021 150.333 35.0141C150.333 37.3479 148.46 39.0501 146.266 39.0501C144.05 39.0501 142.174 37.3479 142.174 35.0141Z" fill="#006BB6"/>
<path d="M177.933 47V45.3H181.213V34.74H177.933V33.04H186.733V34.74H183.453V45.3H186.733V47H177.933ZM193.805 40.58L192.125 42.68V47H189.885V33.04H192.125V39.72H192.225L193.925 37.4L197.345 33.04H199.925L195.325 38.92L200.105 47H197.545L193.805 40.58ZM202.037 47V33.04H210.777V34.92H204.277V38.98H210.537V40.86H204.277V45.12H210.777V47H202.037ZM221.55 47L220.49 43.28H216.05L214.99 47H212.71L216.79 33.04H219.85L223.93 47H221.55ZM218.35 35.3H218.19L216.47 41.42H220.07L218.35 35.3Z" fill="black"/>
<path d="M180.221 80L176.909 68.832H178.333L179.917 74.416L181.117 78.64H181.197L182.397 74.416L183.981 68.832H185.357L182.045 80H180.221ZM191.239 69.92C190.865 69.92 190.604 69.8453 190.455 69.696C190.305 69.536 190.231 69.3387 190.231 69.104V68.848C190.231 68.6133 190.305 68.4213 190.455 68.272C190.604 68.112 190.865 68.032 191.239 68.032C191.612 68.032 191.873 68.112 192.023 68.272C192.172 68.4213 192.247 68.6133 192.247 68.848V69.104C192.247 69.3387 192.172 69.536 192.023 69.696C191.873 69.8453 191.612 69.92 191.239 69.92ZM187.623 78.912H190.599V72.832H187.623V71.744H191.879V78.912H194.663V80H187.623V78.912ZM200.417 80.192C199.553 80.192 198.806 80.048 198.177 79.76C197.558 79.4613 197.03 79.0667 196.593 78.576L197.457 77.824C197.851 78.24 198.283 78.56 198.753 78.784C199.222 79.008 199.787 79.12 200.449 79.12C201.089 79.12 201.611 79.008 202.017 78.784C202.433 78.5493 202.641 78.1867 202.641 77.696C202.641 77.4827 202.598 77.3067 202.513 77.168C202.438 77.0187 202.331 76.9013 202.193 76.816C202.054 76.7307 201.899 76.6667 201.729 76.624C201.558 76.5707 201.377 76.528 201.185 76.496L199.889 76.304C199.601 76.2613 199.286 76.2027 198.945 76.128C198.614 76.0533 198.31 75.936 198.033 75.776C197.755 75.6053 197.521 75.3813 197.329 75.104C197.147 74.8267 197.057 74.464 197.057 74.016C197.057 73.6 197.137 73.2427 197.297 72.944C197.467 72.6347 197.702 72.3787 198.001 72.176C198.299 71.9627 198.651 71.808 199.057 71.712C199.462 71.6053 199.905 71.552 200.385 71.552C201.131 71.552 201.777 71.6693 202.321 71.904C202.875 72.1387 203.35 72.464 203.745 72.88L202.913 73.664C202.817 73.5467 202.694 73.4293 202.545 73.312C202.406 73.184 202.23 73.072 202.017 72.976C201.814 72.8693 201.574 72.784 201.297 72.72C201.019 72.656 200.699 72.624 200.337 72.624C199.686 72.624 199.185 72.736 198.833 72.96C198.491 73.184 198.321 73.5093 198.321 73.936C198.321 74.1493 198.358 74.3307 198.433 74.48C198.518 74.6187 198.63 74.7307 198.769 74.816C198.907 74.9013 199.062 74.9707 199.233 75.024C199.414 75.0667 199.595 75.104 199.777 75.136L201.073 75.328C201.371 75.3707 201.686 75.4293 202.017 75.504C202.347 75.5787 202.651 75.7013 202.929 75.872C203.206 76.032 203.435 76.2507 203.617 76.528C203.809 76.8053 203.905 77.168 203.905 77.616C203.905 78.4373 203.585 79.072 202.945 79.52C202.315 79.968 201.473 80.192 200.417 80.192ZM210.426 69.92C210.053 69.92 209.792 69.8453 209.642 69.696C209.493 69.536 209.418 69.3387 209.418 69.104V68.848C209.418 68.6133 209.493 68.4213 209.642 68.272C209.792 68.112 210.053 68.032 210.426 68.032C210.8 68.032 211.061 68.112 211.21 68.272C211.36 68.4213 211.434 68.6133 211.434 68.848V69.104C211.434 69.3387 211.36 69.536 211.21 69.696C211.061 69.8453 210.8 69.92 210.426 69.92ZM206.81 78.912H209.786V72.832H206.81V71.744H211.066V78.912H213.85V80H206.81V78.912ZM219.908 80C219.279 80 218.815 79.824 218.516 79.472C218.228 79.12 218.084 78.6667 218.084 78.112V72.832H215.332V71.744H217.38C217.657 71.744 217.849 71.6907 217.956 71.584C218.073 71.4667 218.132 71.2693 218.132 70.992V68.832H219.364V71.744H223.124V72.832H219.364V78.912H223.124V80H219.908ZM239.096 80C238.466 80 238.002 79.824 237.704 79.472C237.416 79.12 237.272 78.6667 237.272 78.112V72.832H234.52V71.744H236.568C236.845 71.744 237.037 71.6907 237.144 71.584C237.261 71.4667 237.32 71.2693 237.32 70.992V68.832H238.552V71.744H242.312V72.832H238.552V78.912H242.312V80H239.096ZM245.057 68.16H246.337V73.088H246.401C246.487 72.8853 246.593 72.6933 246.721 72.512C246.849 72.32 247.004 72.1547 247.185 72.016C247.377 71.8773 247.601 71.7653 247.857 71.68C248.113 71.5947 248.412 71.552 248.753 71.552C249.617 71.552 250.311 71.8293 250.833 72.384C251.356 72.928 251.617 73.7013 251.617 74.704V80H250.337V74.928C250.337 74.1707 250.172 73.6107 249.841 73.248C249.511 72.8747 249.025 72.688 248.385 72.688C248.129 72.688 247.879 72.72 247.633 72.784C247.388 72.848 247.169 72.944 246.977 73.072C246.785 73.2 246.631 73.3653 246.513 73.568C246.396 73.7707 246.337 74.0053 246.337 74.272V80H245.057V68.16ZM258.027 80.192C257.43 80.192 256.891 80.0907 256.411 79.888C255.942 79.6853 255.536 79.3973 255.195 79.024C254.864 78.64 254.608 78.1867 254.427 77.664C254.246 77.1307 254.155 76.5387 254.155 75.888C254.155 75.2267 254.246 74.6293 254.427 74.096C254.619 73.5627 254.88 73.1093 255.211 72.736C255.542 72.352 255.936 72.0587 256.395 71.856C256.864 71.6533 257.382 71.552 257.947 71.552C258.502 71.552 259.003 71.6533 259.451 71.856C259.91 72.0587 260.299 72.3413 260.619 72.704C260.939 73.056 261.184 73.4773 261.355 73.968C261.526 74.4587 261.611 74.9973 261.611 75.584V76.192H255.499V76.576C255.499 76.9387 255.558 77.2747 255.675 77.584C255.792 77.8933 255.958 78.16 256.171 78.384C256.395 78.608 256.662 78.784 256.971 78.912C257.291 79.0293 257.643 79.088 258.027 79.088C258.582 79.088 259.062 78.96 259.467 78.704C259.872 78.448 260.182 78.096 260.395 77.648L261.339 78.288C261.094 78.8427 260.683 79.3013 260.107 79.664C259.542 80.016 258.848 80.192 258.027 80.192ZM257.947 72.608C257.595 72.608 257.27 72.672 256.971 72.8C256.672 72.928 256.411 73.104 256.187 73.328C255.974 73.552 255.803 73.8187 255.675 74.128C255.558 74.4267 255.499 74.7573 255.499 75.12V75.232H260.235V75.056C260.235 74.6933 260.176 74.3627 260.059 74.064C259.952 73.7653 259.798 73.5093 259.595 73.296C259.403 73.072 259.163 72.9013 258.875 72.784C258.598 72.6667 258.288 72.608 257.947 72.608ZM277.167 80.192C276.303 80.192 275.556 80.048 274.927 79.76C274.308 79.4613 273.78 79.0667 273.343 78.576L274.207 77.824C274.601 78.24 275.033 78.56 275.503 78.784C275.972 79.008 276.537 79.12 277.199 79.12C277.839 79.12 278.361 79.008 278.767 78.784C279.183 78.5493 279.391 78.1867 279.391 77.696C279.391 77.4827 279.348 77.3067 279.263 77.168C279.188 77.0187 279.081 76.9013 278.943 76.816C278.804 76.7307 278.649 76.6667 278.479 76.624C278.308 76.5707 278.127 76.528 277.935 76.496L276.639 76.304C276.351 76.2613 276.036 76.2027 275.695 76.128C275.364 76.0533 275.06 75.936 274.783 75.776C274.505 75.6053 274.271 75.3813 274.079 75.104C273.897 74.8267 273.807 74.464 273.807 74.016C273.807 73.6 273.887 73.2427 274.047 72.944C274.217 72.6347 274.452 72.3787 274.751 72.176C275.049 71.9627 275.401 71.808 275.807 71.712C276.212 71.6053 276.655 71.552 277.135 71.552C277.881 71.552 278.527 71.6693 279.071 71.904C279.625 72.1387 280.1 72.464 280.495 72.88L279.663 73.664C279.567 73.5467 279.444 73.4293 279.295 73.312C279.156 73.184 278.98 73.072 278.767 72.976C278.564 72.8693 278.324 72.784 278.047 72.72C277.769 72.656 277.449 72.624 277.087 72.624C276.436 72.624 275.935 72.736 275.583 72.96C275.241 73.184 275.071 73.5093 275.071 73.936C275.071 74.1493 275.108 74.3307 275.183 74.48C275.268 74.6187 275.38 74.7307 275.519 74.816C275.657 74.9013 275.812 74.9707 275.983 75.024C276.164 75.0667 276.345 75.104 276.527 75.136L277.823 75.328C278.121 75.3707 278.436 75.4293 278.767 75.504C279.097 75.5787 279.401 75.7013 279.679 75.872C279.956 76.032 280.185 76.2507 280.367 76.528C280.559 76.8053 280.655 77.168 280.655 77.616C280.655 78.4373 280.335 79.072 279.695 79.52C279.065 79.968 278.223 80.192 277.167 80.192ZM287.064 80C286.435 80 285.971 79.824 285.672 79.472C285.384 79.12 285.24 78.6667 285.24 78.112V72.832H282.488V71.744H284.536C284.814 71.744 285.006 71.6907 285.112 71.584C285.23 71.4667 285.288 71.2693 285.288 70.992V68.832H286.52V71.744H290.28V72.832H286.52V78.912H290.28V80H287.064ZM296.258 80.192C295.682 80.192 295.159 80.0907 294.69 79.888C294.231 79.6853 293.837 79.3973 293.506 79.024C293.186 78.64 292.941 78.1867 292.77 77.664C292.599 77.1307 292.514 76.5333 292.514 75.872C292.514 75.2213 292.599 74.6293 292.77 74.096C292.941 73.5627 293.186 73.1093 293.506 72.736C293.837 72.352 294.231 72.0587 294.69 71.856C295.159 71.6533 295.682 71.552 296.258 71.552C296.834 71.552 297.351 71.6533 297.81 71.856C298.279 72.0587 298.674 72.352 298.994 72.736C299.325 73.1093 299.575 73.5627 299.746 74.096C299.917 74.6293 300.002 75.2213 300.002 75.872C300.002 76.5333 299.917 77.1307 299.746 77.664C299.575 78.1867 299.325 78.64 298.994 79.024C298.674 79.3973 298.279 79.6853 297.81 79.888C297.351 80.0907 296.834 80.192 296.258 80.192ZM296.258 79.088C296.973 79.088 297.549 78.8747 297.986 78.448C298.423 78.0213 298.642 77.36 298.642 76.464V75.28C298.642 74.384 298.423 73.7227 297.986 73.296C297.549 72.8693 296.973 72.656 296.258 72.656C295.543 72.656 294.967 72.8693 294.53 73.296C294.093 73.7227 293.874 74.384 293.874 75.28V76.464C293.874 77.36 294.093 78.0213 294.53 78.448C294.967 78.8747 295.543 79.088 296.258 79.088ZM302.284 78.912H304.7V72.832H302.284V71.744H305.98V73.824H306.06C306.23 73.1733 306.55 72.6667 307.02 72.304C307.5 71.9307 308.108 71.744 308.844 71.744H309.996V73.024H308.444C307.708 73.024 307.11 73.2373 306.652 73.664C306.204 74.0907 305.98 74.6507 305.98 75.344V78.912H309.18V80H302.284V78.912ZM315.59 80.192C314.992 80.192 314.454 80.0907 313.974 79.888C313.504 79.6853 313.099 79.3973 312.758 79.024C312.427 78.64 312.171 78.1867 311.99 77.664C311.808 77.1307 311.718 76.5387 311.718 75.888C311.718 75.2267 311.808 74.6293 311.99 74.096C312.182 73.5627 312.443 73.1093 312.774 72.736C313.104 72.352 313.499 72.0587 313.958 71.856C314.427 71.6533 314.944 71.552 315.51 71.552C316.064 71.552 316.566 71.6533 317.014 71.856C317.472 72.0587 317.862 72.3413 318.182 72.704C318.502 73.056 318.747 73.4773 318.918 73.968C319.088 74.4587 319.174 74.9973 319.174 75.584V76.192H313.062V76.576C313.062 76.9387 313.12 77.2747 313.238 77.584C313.355 77.8933 313.52 78.16 313.734 78.384C313.958 78.608 314.224 78.784 314.534 78.912C314.854 79.0293 315.206 79.088 315.59 79.088C316.144 79.088 316.624 78.96 317.03 78.704C317.435 78.448 317.744 78.096 317.958 77.648L318.902 78.288C318.656 78.8427 318.246 79.3013 317.67 79.664C317.104 80.016 316.411 80.192 315.59 80.192ZM315.51 72.608C315.158 72.608 314.832 72.672 314.534 72.8C314.235 72.928 313.974 73.104 313.75 73.328C313.536 73.552 313.366 73.8187 313.238 74.128C313.12 74.4267 313.062 74.7573 313.062 75.12V75.232H317.798V75.056C317.798 74.6933 317.739 74.3627 317.622 74.064C317.515 73.7653 317.36 73.5093 317.158 73.296C316.966 73.072 316.726 72.9013 316.438 72.784C316.16 72.6667 315.851 72.608 315.51 72.608Z" fill="#0090FF"/>
<path fill-rule="evenodd" clip-rule="evenodd" d="M340.813 75.0839L335.622 69.8549C335.237 69.4678 335.237 68.8418 335.622 68.4548C335.805 68.2694 336.055 68.1652 336.315 68.1652C336.576 68.1652 336.826 68.2694 337.009 68.4548L342.894 74.3828C343.278 74.7703 343.278 75.3953 342.894 75.7828L337.009 81.7108C336.826 81.8959 336.576 82 336.315 82C336.055 82 335.805 81.8959 335.622 81.7108C335.237 81.3234 335.237 80.698 335.622 80.3107L340.813 75.0839Z" fill="#0090FF"/>
</g>
<defs>
<clipPath id="clip0_680_4625">
<rect x="0.333008" width="359.333" height="110" rx="12" fill="white"/>
</clipPath>
</defs>
</svg>
