<svg width="44" height="54" viewBox="0 0 44 54" fill="none" xmlns="http://www.w3.org/2000/svg">
<g clip-path="url(#clip0_102_3065)">
<path fill-rule="evenodd" clip-rule="evenodd" d="M0 21.6C0 9.6714 9.648 0 21.546 0C33.444 0 43.092 9.6714 43.092 21.6C43.092 33.5286 33.444 43.2 21.546 43.2C9.648 43.2 0 33.5286 0 21.6Z" fill="#007565"/>
<mask id="mask0_102_3065" style="mask-type:luminance" maskUnits="userSpaceOnUse" x="0" y="0" width="44" height="44">
<path fill-rule="evenodd" clip-rule="evenodd" d="M0 21.6C0 9.6714 9.648 0 21.546 0C33.444 0 43.092 9.6714 43.092 21.6C43.092 33.5286 33.444 43.2 21.546 43.2C9.648 43.2 0 33.5286 0 21.6Z" fill="white"/>
</mask>
<g mask="url(#mask0_102_3065)">
<path fill-rule="evenodd" clip-rule="evenodd" d="M21.5459 10.0801C18.4265 10.0801 18.0359 10.0945 16.8083 10.1503C15.5843 10.2043 14.7509 10.4005 14.0183 10.6849C13.2623 10.9783 12.6233 11.3725 11.9843 12.0133C11.3992 12.5893 10.9465 13.2859 10.6577 14.0545C10.3733 14.7871 10.1789 15.6241 10.1231 16.8499C10.0691 18.0793 10.0547 18.4699 10.0547 21.6019C10.0547 24.7285 10.0691 25.1209 10.1249 26.3485C10.1789 27.5761 10.3733 28.4131 10.6577 29.1457C10.9511 29.9017 11.3435 30.5461 11.9825 31.1869C12.6215 31.8259 13.2623 32.2219 14.0165 32.5153C14.7491 32.7997 15.5843 32.9941 16.8065 33.0499C18.0341 33.1057 18.4265 33.1219 21.5459 33.1219C24.6671 33.1219 25.0559 33.1057 26.2817 33.0499C27.5057 32.9959 28.3427 32.7997 29.0717 32.5153C29.8277 32.2219 30.4685 31.8259 31.1057 31.1869C31.7465 30.5461 32.1389 29.9035 32.4341 29.1457C32.7167 28.4131 32.9093 27.5761 32.9669 26.3503C33.0209 25.1209 33.0371 24.7303 33.0371 21.6001C33.0371 18.4717 33.0227 18.0793 32.9669 16.8499C32.9093 15.6241 32.7149 14.7871 32.4341 14.0545C32.1453 13.2858 31.6926 12.5893 31.1075 12.0133C30.5345 11.4274 29.8403 10.974 29.0735 10.6849C28.3391 10.4005 27.5039 10.2061 26.2817 10.1503C25.0559 10.0945 24.6653 10.0801 21.5423 10.0801H21.5459ZM20.5163 12.1555H21.5459C24.6149 12.1555 24.9785 12.1663 26.1899 12.2221C27.3113 12.2743 27.9179 12.4615 28.3229 12.6181C28.8593 12.8287 29.2409 13.0771 29.6441 13.4821C30.0473 13.8835 30.2957 14.2687 30.5045 14.8051C30.6611 15.2119 30.8483 15.8203 30.9005 16.9435C30.9545 18.1585 30.9671 18.5239 30.9671 21.5983C30.9671 24.6727 30.9545 25.0363 30.9005 26.2513C30.8483 27.3745 30.6611 27.9847 30.5045 28.3897C30.3202 28.8894 30.0261 29.3415 29.6441 29.7127C29.2739 30.0955 28.8224 30.3902 28.3229 30.5749C27.9197 30.7333 27.3113 30.9205 26.1899 30.9709C24.9785 31.0267 24.6149 31.0393 21.5459 31.0393C18.4787 31.0393 18.1151 31.0267 16.9019 30.9709C15.7823 30.9205 15.1739 30.7315 14.7689 30.5749C14.2695 30.3899 13.818 30.0953 13.4477 29.7127C13.0662 29.3407 12.7729 28.888 12.5891 28.3879C12.4307 27.9829 12.2435 27.3727 12.1931 26.2495C12.1391 25.0363 12.1265 24.6709 12.1265 21.5947C12.1265 18.5167 12.1373 18.1567 12.1931 16.9417C12.2435 15.8185 12.4307 15.2083 12.5891 14.8015C12.7961 14.2651 13.0463 13.8799 13.4477 13.4767C13.8181 13.0942 14.2696 12.7996 14.7689 12.6145C15.1739 12.4561 15.7823 12.2689 16.9037 12.2185C17.9639 12.1699 18.3743 12.1573 20.5163 12.1555ZM27.4121 14.0689C27.2624 14.063 27.113 14.0874 26.9729 14.1406C26.8328 14.1939 26.705 14.2749 26.597 14.3788C26.489 14.4827 26.4031 14.6073 26.3445 14.7452C26.2859 14.8831 26.2557 15.0315 26.2559 15.1813C26.256 15.3312 26.2864 15.4794 26.3452 15.6173C26.4041 15.7551 26.4901 15.8796 26.5983 15.9833C26.7064 16.087 26.8344 16.1678 26.9746 16.2208C27.1147 16.2739 27.2642 16.298 27.4139 16.2919C27.7009 16.2801 27.9723 16.1577 28.1711 15.9504C28.37 15.743 28.4809 15.4668 28.4807 15.1795C28.4804 14.8922 28.3691 14.6162 28.1699 14.4092C27.9707 14.2021 27.6991 14.0802 27.4121 14.0689ZM21.5477 15.6835C20.7715 15.6842 20.0031 15.8378 19.2863 16.1355C18.5694 16.4333 17.9183 16.8693 17.3701 17.4188C16.8218 17.9682 16.3871 18.6202 16.0909 19.3377C15.7947 20.0551 15.6427 20.8239 15.6437 21.6001C15.6427 22.3759 15.7946 23.1443 16.0906 23.8614C16.3866 24.5785 16.821 25.2303 17.3689 25.7795C17.9168 26.3287 18.5675 26.7647 19.2839 27.0624C20.0003 27.3602 20.7683 27.5139 21.5441 27.5149C24.8039 27.5149 27.4445 24.8689 27.4445 21.6001C27.4457 20.8241 27.294 20.0555 26.9981 19.3382C26.7022 18.6209 26.2678 17.9689 25.7199 17.4195C25.172 16.8701 24.5212 16.434 23.8047 16.1361C23.0882 15.8382 22.32 15.6844 21.5441 15.6835H21.5477ZM21.5477 17.7607C22.0512 17.7614 22.5496 17.8613 23.0145 18.0546C23.4794 18.2479 23.9016 18.5309 24.2572 18.8874C24.6127 19.244 24.8945 19.667 25.0865 20.1325C25.2785 20.5979 25.377 21.0966 25.3763 21.6001C25.377 22.1037 25.2785 22.6026 25.0863 23.0681C24.8942 23.5337 24.6122 23.9568 24.2565 24.3133C23.9008 24.6699 23.4783 24.9529 23.0132 25.1461C22.5481 25.3393 22.0495 25.439 21.5459 25.4395C21.0424 25.4388 20.544 25.3389 20.0791 25.1456C19.6142 24.9522 19.1919 24.6692 18.8364 24.3127C18.4809 23.9562 18.1991 23.5331 18.0071 23.0677C17.815 22.6023 17.7166 22.1036 17.7173 21.6001C17.7166 21.0966 17.815 20.5979 18.0071 20.1325C18.1991 19.667 18.4809 19.244 18.8364 18.8874C19.1919 18.5309 19.6142 18.2479 20.0791 18.0546C20.544 17.8613 21.0442 17.7614 21.5477 17.7607Z" fill="white"/>
</g>
</g>
<defs>
<clipPath id="clip0_102_3065">
<rect width="43.2" height="43.2" fill="white"/>
</clipPath>
</defs>
</svg>
