<svg width="360" height="110" viewBox="0 0 360 110" fill="none" xmlns="http://www.w3.org/2000/svg">
<g clip-path="url(#clip0_680_4657)">
<rect x="0.333008" width="359.333" height="110" rx="12" fill="#F5F5F5"/>
<path d="M0.333008 12C0.333008 5.37258 5.70559 0 12.333 0H160.333V110H12.333C5.70559 110 0.333008 104.627 0.333008 98V12Z" fill="#009FA6" fill-opacity="0.1"/>
<g clip-path="url(#clip1_680_4657)">
<path d="M142.11 39.5161C138.112 39.5161 134.888 42.7419 134.888 46.7419C134.888 50.7419 138.112 53.9677 142.11 53.9677C146.108 53.9677 149.333 50.7419 149.333 46.7419C149.333 42.6129 146.108 39.5161 142.11 39.5161Z" fill="url(#paint0_linear_680_4657)"/>
<path d="M142.497 56.0322C142.239 56.9354 142.11 57.7096 141.853 58.2258L141.724 58.4838C141.595 59.129 141.079 59.5161 140.434 59.5161H140.047C139.789 59.5161 139.531 59.3871 139.273 59.129C139.144 58.8709 139.015 58.6129 139.015 58.3548L139.402 55.7741C139.402 55.6451 139.531 55.387 139.66 55.258C135.92 54.3548 133.211 51 133.211 47C133.211 46.3548 133.34 45.8387 133.34 45.1935H122.765C122.12 45.1935 121.604 44.8064 121.475 44.1612L120.959 41.9677C120.701 41.1935 120.056 40.5483 119.153 40.5483H116.058C115.413 40.5483 115.026 41.0645 115.026 41.5806C115.026 42.2258 115.542 42.6129 116.058 42.6129H117.735C118.38 42.6129 118.896 43 119.024 43.6451L123.152 60.4193C123.41 61.1935 124.054 61.8387 124.957 61.8387H141.853C142.755 61.8387 143.4 61.3225 143.658 60.4193L145.077 54.7419C144.174 55.129 143.271 55.258 142.368 55.3871C142.626 55.7741 142.626 55.9032 142.497 56.0322ZM123.539 51.387C123.41 50.7419 123.152 50.0967 123.023 49.5806L122.894 49.0645C122.765 48.8064 122.894 48.5483 123.023 48.2903C123.152 48.0322 123.539 47.9032 123.796 47.9032H124.957C125.602 47.9032 126.118 48.2903 126.118 48.9354L126.505 51.258C126.505 51.5161 126.505 51.7741 126.247 52.0322C126.118 52.2903 125.731 52.4193 125.473 52.4193H124.828C124.183 52.2903 123.667 51.9032 123.539 51.387ZM127.537 59.129C127.408 59.3871 127.021 59.5161 126.763 59.5161H126.634C125.989 59.5161 125.473 59.129 125.344 58.4838L125.215 58.2258C125.086 57.5806 124.828 56.8064 124.57 55.9032C124.441 55.6451 124.57 55.3871 124.699 55.129C124.828 54.8709 125.215 54.7419 125.473 54.7419H126.118C126.763 54.7419 127.279 55.129 127.408 55.7741L127.795 58.3548C127.795 58.6129 127.795 59 127.537 59.129ZM132.309 58.6129C132.309 59.129 131.922 59.5161 131.406 59.5161C130.89 59.5161 130.374 59.129 130.374 58.6129L129.987 55.9032C129.987 55.6451 129.987 55.3871 130.245 55.129C130.374 54.8709 130.761 54.7419 131.019 54.7419H131.406C132.051 54.7419 132.567 55.258 132.567 55.9032V58.6129H132.309ZM132.309 51.258C132.309 51.9032 131.793 52.4193 131.148 52.4193H130.245C129.6 52.4193 129.084 52.0322 128.955 51.387L128.697 48.9354C128.697 48.6774 128.697 48.4193 128.955 48.1612C129.213 47.9032 129.471 47.7741 129.729 47.7741H131.277C131.922 47.7741 132.309 48.2903 132.309 48.9354V51.258ZM137.21 55.9032L136.823 58.6129C136.694 59.129 136.307 59.5161 135.791 59.5161C135.275 59.5161 134.888 59.129 134.888 58.6129V55.9032C134.888 55.258 135.404 54.7419 136.049 54.7419H136.436C136.694 54.7419 136.952 54.8709 137.21 55.129C137.21 55.3871 137.21 55.6451 137.21 55.9032Z" fill="url(#paint1_linear_680_4657)"/>
<path d="M142.11 40.5483L143.916 44.1612L148.043 44.8064L145.077 47.6451L145.722 51.6451L142.11 49.8387L138.499 51.6451L139.144 47.6451L136.307 44.8064L140.305 44.1612L142.11 40.5483Z" fill="white"/>
<path d="M126.118 70.0966C127.827 70.0966 129.213 68.6524 129.213 66.8708C129.213 65.0893 127.827 63.645 126.118 63.645C124.408 63.645 123.022 65.0893 123.022 66.8708C123.022 68.6524 124.408 70.0966 126.118 70.0966Z" fill="url(#paint2_linear_680_4657)"/>
<path d="M141.079 70.0966C142.788 70.0966 144.174 68.6524 144.174 66.8708C144.174 65.0893 142.788 63.645 141.079 63.645C139.369 63.645 137.983 65.0893 137.983 66.8708C137.983 68.6524 139.369 70.0966 141.079 70.0966Z" fill="url(#paint3_linear_680_4657)"/>
<path d="M46.4132 63.7741C44.9946 64.8064 42.802 65.1935 39.8357 65.1935H35.5796C34.9347 65.1935 34.4188 65.1935 33.645 65.1935C33.0002 65.1935 32.3553 65.0645 31.7104 64.9354C31.0656 64.8064 30.4207 64.5483 29.9048 64.4193C29.26 64.1612 28.7441 63.7741 28.3572 63.3871C27.9703 63 27.5833 62.3548 27.3254 61.7096C27.0674 61.0645 26.9385 60.2903 26.9385 59.258V44.5483H30.8076V59.129C30.8076 60.6774 32.2263 61.4516 35.1927 61.4516H40.4805C43.3179 61.4516 44.7366 60.6774 44.7366 59.129V44.5483H48.6058V59.3871C48.4768 61.3225 47.8319 62.8709 46.4132 63.7741Z" fill="#0F0E0E"/>
<path d="M77.7531 65.4517V51.9033L69.3699 64.2904C69.112 64.6775 68.7251 65.0646 68.3382 65.3227C67.9512 65.5807 67.5643 65.7098 67.0484 65.7098C66.1456 65.7098 65.3718 65.3227 64.7269 64.4194L56.3438 51.7743V65.4517H52.4746V46.742C52.4746 45.9678 52.7326 45.4517 53.1195 45.0646C53.5064 44.6775 54.0223 44.4194 54.6671 44.4194C55.5699 44.4194 56.3438 44.8065 56.8597 45.4517L67.3064 60.4194L77.6241 45.5807C78.14 44.8065 78.7849 44.4194 79.6877 44.4194C80.3326 44.4194 80.8484 44.6775 81.2354 45.0646C81.6223 45.4517 81.8802 46.0969 81.8802 46.871V65.3227H77.7531V65.4517Z" fill="#0F0E0E"/>
<path d="M85.4922 65.3225V44.5483H89.3613V65.3225H85.4922Z" fill="#0F0E0E"/>
<path d="M115.671 65.4516L112.447 59.7741H100.323L97.2279 65.4516H92.585L104.192 45.9677C104.708 45.0645 105.482 44.5483 106.385 44.5483C107.288 44.5483 108.062 45.0645 108.577 45.9677L119.927 65.4516H115.671ZM106.385 49.7096L102.645 55.9032H110.125L106.385 49.7096Z" fill="#0F0E0E"/>
<path d="M23.0695 56.0322C23.0695 62.3548 20.748 65.0645 16.6209 65.9677C12.6227 66.7419 11.333 66.7419 11.333 66.7419V62.4838C12.8807 62.3548 15.3311 62.0967 16.8788 61.5806C18.2975 61.0645 19.3293 59.6451 19.3293 56.0322L19.4582 48.4193V44.5483H23.3274L23.0695 56.0322Z" fill="#0F0E0E"/>
</g>
<path d="M186.193 33.04V43.26C186.193 43.86 186.086 44.4067 185.873 44.9C185.673 45.3933 185.38 45.8133 184.993 46.16C184.62 46.5067 184.166 46.7733 183.633 46.96C183.1 47.1467 182.506 47.24 181.853 47.24C180.626 47.24 179.646 46.9333 178.913 46.32C178.193 45.7067 177.726 44.86 177.513 43.78L179.633 43.34C179.753 43.9133 179.98 44.3933 180.313 44.78C180.646 45.1667 181.166 45.36 181.873 45.36C182.526 45.36 183.033 45.1667 183.393 44.78C183.766 44.38 183.953 43.7733 183.953 42.96V34.92H179.093V33.04H186.193ZM191.945 33.04V41.62C191.945 42.1933 191.959 42.7133 191.985 43.18C192.025 43.6467 192.125 44.0467 192.285 44.38C192.445 44.7 192.685 44.9467 193.005 45.12C193.325 45.2933 193.765 45.38 194.325 45.38C194.885 45.38 195.325 45.2933 195.645 45.12C195.965 44.9467 196.205 44.7 196.365 44.38C196.525 44.0467 196.619 43.6467 196.645 43.18C196.685 42.7133 196.705 42.1933 196.705 41.62V33.04H198.945V41.22C198.945 42.22 198.885 43.1 198.765 43.86C198.659 44.6067 198.439 45.2333 198.105 45.74C197.772 46.2333 197.299 46.6067 196.685 46.86C196.085 47.1133 195.299 47.24 194.325 47.24C193.352 47.24 192.559 47.1133 191.945 46.86C191.345 46.6067 190.879 46.2333 190.545 45.74C190.212 45.2333 189.985 44.6067 189.865 43.86C189.759 43.1 189.705 42.22 189.705 41.22V33.04H191.945ZM209.217 40.32L209.277 36.12H209.117L206.317 43.3L203.517 36.12H203.357L203.417 40.32V47H201.437V33.04H204.177L206.317 38.58H206.457L208.617 33.04H211.197V47H209.217V40.32ZM213.91 47V45.3H217.19V34.74H213.91V33.04H222.71V34.74H219.43V45.3H222.71V47H213.91ZM233.542 47L232.482 43.28H228.042L226.982 47H224.702L228.782 33.04H231.842L235.922 47H233.542ZM230.342 35.3H230.182L228.462 41.42H232.062L230.342 35.3Z" fill="black"/>
<path d="M180.221 80L176.909 68.832H178.333L179.917 74.416L181.117 78.64H181.197L182.397 74.416L183.981 68.832H185.357L182.045 80H180.221ZM191.239 69.92C190.865 69.92 190.604 69.8453 190.455 69.696C190.305 69.536 190.231 69.3387 190.231 69.104V68.848C190.231 68.6133 190.305 68.4213 190.455 68.272C190.604 68.112 190.865 68.032 191.239 68.032C191.612 68.032 191.873 68.112 192.023 68.272C192.172 68.4213 192.247 68.6133 192.247 68.848V69.104C192.247 69.3387 192.172 69.536 192.023 69.696C191.873 69.8453 191.612 69.92 191.239 69.92ZM187.623 78.912H190.599V72.832H187.623V71.744H191.879V78.912H194.663V80H187.623V78.912ZM200.417 80.192C199.553 80.192 198.806 80.048 198.177 79.76C197.558 79.4613 197.03 79.0667 196.593 78.576L197.457 77.824C197.851 78.24 198.283 78.56 198.753 78.784C199.222 79.008 199.787 79.12 200.449 79.12C201.089 79.12 201.611 79.008 202.017 78.784C202.433 78.5493 202.641 78.1867 202.641 77.696C202.641 77.4827 202.598 77.3067 202.513 77.168C202.438 77.0187 202.331 76.9013 202.193 76.816C202.054 76.7307 201.899 76.6667 201.729 76.624C201.558 76.5707 201.377 76.528 201.185 76.496L199.889 76.304C199.601 76.2613 199.286 76.2027 198.945 76.128C198.614 76.0533 198.31 75.936 198.033 75.776C197.755 75.6053 197.521 75.3813 197.329 75.104C197.147 74.8267 197.057 74.464 197.057 74.016C197.057 73.6 197.137 73.2427 197.297 72.944C197.467 72.6347 197.702 72.3787 198.001 72.176C198.299 71.9627 198.651 71.808 199.057 71.712C199.462 71.6053 199.905 71.552 200.385 71.552C201.131 71.552 201.777 71.6693 202.321 71.904C202.875 72.1387 203.35 72.464 203.745 72.88L202.913 73.664C202.817 73.5467 202.694 73.4293 202.545 73.312C202.406 73.184 202.23 73.072 202.017 72.976C201.814 72.8693 201.574 72.784 201.297 72.72C201.019 72.656 200.699 72.624 200.337 72.624C199.686 72.624 199.185 72.736 198.833 72.96C198.491 73.184 198.321 73.5093 198.321 73.936C198.321 74.1493 198.358 74.3307 198.433 74.48C198.518 74.6187 198.63 74.7307 198.769 74.816C198.907 74.9013 199.062 74.9707 199.233 75.024C199.414 75.0667 199.595 75.104 199.777 75.136L201.073 75.328C201.371 75.3707 201.686 75.4293 202.017 75.504C202.347 75.5787 202.651 75.7013 202.929 75.872C203.206 76.032 203.435 76.2507 203.617 76.528C203.809 76.8053 203.905 77.168 203.905 77.616C203.905 78.4373 203.585 79.072 202.945 79.52C202.315 79.968 201.473 80.192 200.417 80.192ZM210.426 69.92C210.053 69.92 209.792 69.8453 209.642 69.696C209.493 69.536 209.418 69.3387 209.418 69.104V68.848C209.418 68.6133 209.493 68.4213 209.642 68.272C209.792 68.112 210.053 68.032 210.426 68.032C210.8 68.032 211.061 68.112 211.21 68.272C211.36 68.4213 211.434 68.6133 211.434 68.848V69.104C211.434 69.3387 211.36 69.536 211.21 69.696C211.061 69.8453 210.8 69.92 210.426 69.92ZM206.81 78.912H209.786V72.832H206.81V71.744H211.066V78.912H213.85V80H206.81V78.912ZM219.908 80C219.279 80 218.815 79.824 218.516 79.472C218.228 79.12 218.084 78.6667 218.084 78.112V72.832H215.332V71.744H217.38C217.657 71.744 217.849 71.6907 217.956 71.584C218.073 71.4667 218.132 71.2693 218.132 70.992V68.832H219.364V71.744H223.124V72.832H219.364V78.912H223.124V80H219.908ZM239.096 80C238.466 80 238.002 79.824 237.704 79.472C237.416 79.12 237.272 78.6667 237.272 78.112V72.832H234.52V71.744H236.568C236.845 71.744 237.037 71.6907 237.144 71.584C237.261 71.4667 237.32 71.2693 237.32 70.992V68.832H238.552V71.744H242.312V72.832H238.552V78.912H242.312V80H239.096ZM245.057 68.16H246.337V73.088H246.401C246.487 72.8853 246.593 72.6933 246.721 72.512C246.849 72.32 247.004 72.1547 247.185 72.016C247.377 71.8773 247.601 71.7653 247.857 71.68C248.113 71.5947 248.412 71.552 248.753 71.552C249.617 71.552 250.311 71.8293 250.833 72.384C251.356 72.928 251.617 73.7013 251.617 74.704V80H250.337V74.928C250.337 74.1707 250.172 73.6107 249.841 73.248C249.511 72.8747 249.025 72.688 248.385 72.688C248.129 72.688 247.879 72.72 247.633 72.784C247.388 72.848 247.169 72.944 246.977 73.072C246.785 73.2 246.631 73.3653 246.513 73.568C246.396 73.7707 246.337 74.0053 246.337 74.272V80H245.057V68.16ZM258.027 80.192C257.43 80.192 256.891 80.0907 256.411 79.888C255.942 79.6853 255.536 79.3973 255.195 79.024C254.864 78.64 254.608 78.1867 254.427 77.664C254.246 77.1307 254.155 76.5387 254.155 75.888C254.155 75.2267 254.246 74.6293 254.427 74.096C254.619 73.5627 254.88 73.1093 255.211 72.736C255.542 72.352 255.936 72.0587 256.395 71.856C256.864 71.6533 257.382 71.552 257.947 71.552C258.502 71.552 259.003 71.6533 259.451 71.856C259.91 72.0587 260.299 72.3413 260.619 72.704C260.939 73.056 261.184 73.4773 261.355 73.968C261.526 74.4587 261.611 74.9973 261.611 75.584V76.192H255.499V76.576C255.499 76.9387 255.558 77.2747 255.675 77.584C255.792 77.8933 255.958 78.16 256.171 78.384C256.395 78.608 256.662 78.784 256.971 78.912C257.291 79.0293 257.643 79.088 258.027 79.088C258.582 79.088 259.062 78.96 259.467 78.704C259.872 78.448 260.182 78.096 260.395 77.648L261.339 78.288C261.094 78.8427 260.683 79.3013 260.107 79.664C259.542 80.016 258.848 80.192 258.027 80.192ZM257.947 72.608C257.595 72.608 257.27 72.672 256.971 72.8C256.672 72.928 256.411 73.104 256.187 73.328C255.974 73.552 255.803 73.8187 255.675 74.128C255.558 74.4267 255.499 74.7573 255.499 75.12V75.232H260.235V75.056C260.235 74.6933 260.176 74.3627 260.059 74.064C259.952 73.7653 259.798 73.5093 259.595 73.296C259.403 73.072 259.163 72.9013 258.875 72.784C258.598 72.6667 258.288 72.608 257.947 72.608ZM277.167 80.192C276.303 80.192 275.556 80.048 274.927 79.76C274.308 79.4613 273.78 79.0667 273.343 78.576L274.207 77.824C274.601 78.24 275.033 78.56 275.503 78.784C275.972 79.008 276.537 79.12 277.199 79.12C277.839 79.12 278.361 79.008 278.767 78.784C279.183 78.5493 279.391 78.1867 279.391 77.696C279.391 77.4827 279.348 77.3067 279.263 77.168C279.188 77.0187 279.081 76.9013 278.943 76.816C278.804 76.7307 278.649 76.6667 278.479 76.624C278.308 76.5707 278.127 76.528 277.935 76.496L276.639 76.304C276.351 76.2613 276.036 76.2027 275.695 76.128C275.364 76.0533 275.06 75.936 274.783 75.776C274.505 75.6053 274.271 75.3813 274.079 75.104C273.897 74.8267 273.807 74.464 273.807 74.016C273.807 73.6 273.887 73.2427 274.047 72.944C274.217 72.6347 274.452 72.3787 274.751 72.176C275.049 71.9627 275.401 71.808 275.807 71.712C276.212 71.6053 276.655 71.552 277.135 71.552C277.881 71.552 278.527 71.6693 279.071 71.904C279.625 72.1387 280.1 72.464 280.495 72.88L279.663 73.664C279.567 73.5467 279.444 73.4293 279.295 73.312C279.156 73.184 278.98 73.072 278.767 72.976C278.564 72.8693 278.324 72.784 278.047 72.72C277.769 72.656 277.449 72.624 277.087 72.624C276.436 72.624 275.935 72.736 275.583 72.96C275.241 73.184 275.071 73.5093 275.071 73.936C275.071 74.1493 275.108 74.3307 275.183 74.48C275.268 74.6187 275.38 74.7307 275.519 74.816C275.657 74.9013 275.812 74.9707 275.983 75.024C276.164 75.0667 276.345 75.104 276.527 75.136L277.823 75.328C278.121 75.3707 278.436 75.4293 278.767 75.504C279.097 75.5787 279.401 75.7013 279.679 75.872C279.956 76.032 280.185 76.2507 280.367 76.528C280.559 76.8053 280.655 77.168 280.655 77.616C280.655 78.4373 280.335 79.072 279.695 79.52C279.065 79.968 278.223 80.192 277.167 80.192ZM287.064 80C286.435 80 285.971 79.824 285.672 79.472C285.384 79.12 285.24 78.6667 285.24 78.112V72.832H282.488V71.744H284.536C284.814 71.744 285.006 71.6907 285.112 71.584C285.23 71.4667 285.288 71.2693 285.288 70.992V68.832H286.52V71.744H290.28V72.832H286.52V78.912H290.28V80H287.064ZM296.258 80.192C295.682 80.192 295.159 80.0907 294.69 79.888C294.231 79.6853 293.837 79.3973 293.506 79.024C293.186 78.64 292.941 78.1867 292.77 77.664C292.599 77.1307 292.514 76.5333 292.514 75.872C292.514 75.2213 292.599 74.6293 292.77 74.096C292.941 73.5627 293.186 73.1093 293.506 72.736C293.837 72.352 294.231 72.0587 294.69 71.856C295.159 71.6533 295.682 71.552 296.258 71.552C296.834 71.552 297.351 71.6533 297.81 71.856C298.279 72.0587 298.674 72.352 298.994 72.736C299.325 73.1093 299.575 73.5627 299.746 74.096C299.917 74.6293 300.002 75.2213 300.002 75.872C300.002 76.5333 299.917 77.1307 299.746 77.664C299.575 78.1867 299.325 78.64 298.994 79.024C298.674 79.3973 298.279 79.6853 297.81 79.888C297.351 80.0907 296.834 80.192 296.258 80.192ZM296.258 79.088C296.973 79.088 297.549 78.8747 297.986 78.448C298.423 78.0213 298.642 77.36 298.642 76.464V75.28C298.642 74.384 298.423 73.7227 297.986 73.296C297.549 72.8693 296.973 72.656 296.258 72.656C295.543 72.656 294.967 72.8693 294.53 73.296C294.093 73.7227 293.874 74.384 293.874 75.28V76.464C293.874 77.36 294.093 78.0213 294.53 78.448C294.967 78.8747 295.543 79.088 296.258 79.088ZM302.284 78.912H304.7V72.832H302.284V71.744H305.98V73.824H306.06C306.23 73.1733 306.55 72.6667 307.02 72.304C307.5 71.9307 308.108 71.744 308.844 71.744H309.996V73.024H308.444C307.708 73.024 307.11 73.2373 306.652 73.664C306.204 74.0907 305.98 74.6507 305.98 75.344V78.912H309.18V80H302.284V78.912ZM315.59 80.192C314.992 80.192 314.454 80.0907 313.974 79.888C313.504 79.6853 313.099 79.3973 312.758 79.024C312.427 78.64 312.171 78.1867 311.99 77.664C311.808 77.1307 311.718 76.5387 311.718 75.888C311.718 75.2267 311.808 74.6293 311.99 74.096C312.182 73.5627 312.443 73.1093 312.774 72.736C313.104 72.352 313.499 72.0587 313.958 71.856C314.427 71.6533 314.944 71.552 315.51 71.552C316.064 71.552 316.566 71.6533 317.014 71.856C317.472 72.0587 317.862 72.3413 318.182 72.704C318.502 73.056 318.747 73.4773 318.918 73.968C319.088 74.4587 319.174 74.9973 319.174 75.584V76.192H313.062V76.576C313.062 76.9387 313.12 77.2747 313.238 77.584C313.355 77.8933 313.52 78.16 313.734 78.384C313.958 78.608 314.224 78.784 314.534 78.912C314.854 79.0293 315.206 79.088 315.59 79.088C316.144 79.088 316.624 78.96 317.03 78.704C317.435 78.448 317.744 78.096 317.958 77.648L318.902 78.288C318.656 78.8427 318.246 79.3013 317.67 79.664C317.104 80.016 316.411 80.192 315.59 80.192ZM315.51 72.608C315.158 72.608 314.832 72.672 314.534 72.8C314.235 72.928 313.974 73.104 313.75 73.328C313.536 73.552 313.366 73.8187 313.238 74.128C313.12 74.4267 313.062 74.7573 313.062 75.12V75.232H317.798V75.056C317.798 74.6933 317.739 74.3627 317.622 74.064C317.515 73.7653 317.36 73.5093 317.158 73.296C316.966 73.072 316.726 72.9013 316.438 72.784C316.16 72.6667 315.851 72.608 315.51 72.608Z" fill="#0090FF"/>
<path fill-rule="evenodd" clip-rule="evenodd" d="M340.813 75.0839L335.622 69.8549C335.237 69.4678 335.237 68.8418 335.622 68.4548C335.805 68.2694 336.055 68.1652 336.315 68.1652C336.576 68.1652 336.826 68.2694 337.009 68.4548L342.894 74.3828C343.278 74.7703 343.278 75.3953 342.894 75.7828L337.009 81.7108C336.826 81.8959 336.576 82 336.315 82C336.055 82 335.805 81.8959 335.622 81.7108C335.237 81.3234 335.237 80.698 335.622 80.3107L340.813 75.0839Z" fill="#0090FF"/>
</g>
<defs>
<linearGradient id="paint0_linear_680_4657" x1="134.945" y1="46.6513" x2="149.333" y2="46.6513" gradientUnits="userSpaceOnUse">
<stop stop-color="#EB712A"/>
<stop offset="0.2311" stop-color="#EF8528"/>
<stop offset="0.4715" stop-color="#F29426"/>
<stop offset="0.6242" stop-color="#F39A24"/>
</linearGradient>
<linearGradient id="paint1_linear_680_4657" x1="115.134" y1="51.371" x2="145.288" y2="51.371" gradientUnits="userSpaceOnUse">
<stop stop-color="#343434"/>
<stop offset="0.5455" stop-color="#696968"/>
<stop offset="1" stop-color="#696968"/>
</linearGradient>
<linearGradient id="paint2_linear_680_4657" x1="123.03" y1="66.8773" x2="129.237" y2="66.8773" gradientUnits="userSpaceOnUse">
<stop stop-color="#343434"/>
<stop offset="0.5455" stop-color="#696968"/>
<stop offset="1" stop-color="#696968"/>
</linearGradient>
<linearGradient id="paint3_linear_680_4657" x1="137.941" y1="66.8773" x2="144.145" y2="66.8773" gradientUnits="userSpaceOnUse">
<stop stop-color="#343434"/>
<stop offset="0.5455" stop-color="#696968"/>
<stop offset="1" stop-color="#696968"/>
</linearGradient>
<clipPath id="clip0_680_4657">
<rect x="0.333008" width="359.333" height="110" rx="12" fill="white"/>
</clipPath>
<clipPath id="clip1_680_4657">
<rect width="138" height="40" fill="white" transform="translate(11.333 35)"/>
</clipPath>
</defs>
</svg>
