<svg width="44" height="54" viewBox="0 0 44 54" fill="none" xmlns="http://www.w3.org/2000/svg">
<g clip-path="url(#clip0_102_3074)">
<path fill-rule="evenodd" clip-rule="evenodd" d="M0.600586 21.6C0.600586 9.6714 10.272 0 22.2006 0C34.1292 0 43.8006 9.6714 43.8006 21.6C43.8006 33.5286 34.1292 43.2 22.2006 43.2C10.272 43.2 0.600586 33.5286 0.600586 21.6Z" fill="#007565"/>
<path fill-rule="evenodd" clip-rule="evenodd" d="M14.5991 14.1696C15.9671 14.1696 16.8005 13.1742 16.8005 11.9448C16.7735 10.6848 15.9689 9.71997 14.6531 9.71997C13.3391 9.71997 12.4805 10.6866 12.4805 11.9448C12.4805 13.1742 13.3121 14.1696 14.5991 14.1696ZM12.5885 15.9264V30.24H16.6673V15.9264H12.5885Z" fill="white"/>
<path d="M19.0797 20.889C19.0797 19.1772 19.0203 17.7444 18.9609 16.5096H22.9209L23.1315 18.4176H23.2215C23.8209 17.5212 25.2915 16.2 27.7503 16.2C30.7509 16.2 33.0009 18.081 33.0009 22.1238V30.24H28.4397V22.6296C28.4397 20.862 27.7809 19.6542 26.1303 19.6542C24.8703 19.6542 24.1215 20.4678 23.7903 21.2562C23.6715 21.5352 23.6409 21.9276 23.6409 22.3218V30.24H19.0797V20.889Z" fill="white"/>
</g>
<defs>
<clipPath id="clip0_102_3074">
<rect width="43.2" height="43.2" fill="white" transform="translate(0.600586)"/>
</clipPath>
</defs>
</svg>
