<svg width="360" height="110" viewBox="0 0 360 110" fill="none" xmlns="http://www.w3.org/2000/svg">
<rect width="359.333" height="110" rx="12" fill="#F5F5F5"/>
<path d="M0 12C0 5.37258 5.37258 0 12 0H160V110H12C5.37258 110 0 104.627 0 98V12Z" fill="#009FA6" fill-opacity="0.1"/>
<g clip-path="url(#clip0_680_4648)">
<path d="M55.0577 33.8992L50.5867 41.6938C54.2822 44.8674 56.8235 49.7675 56.8235 55.2773C56.8235 65.2979 48.6025 73.5369 38.4483 73.5369C28.3523 73.5369 20.1277 65.2979 20.1277 54.9982C20.1277 53.775 20.2369 52.5481 20.459 51.38L12.0742 56.2801C12.0742 70.7526 24.2673 82 38.4483 82C53.2919 82 65.3211 69.9188 65.3211 55.1671C65.3211 46.5351 61.1815 38.9646 55.0577 33.8992ZM42.202 37.2418L46.7275 29.3371C44.1898 28.3894 41.9289 28 39.6643 28C37.9531 28 36.464 28.2241 35.3609 28.4445L29.6229 38.465C31.72 37.2418 34.4252 36.5733 37.3487 36.5733C39.0563 36.5733 40.6 36.7937 42.202 37.2418ZM84.399 64.0086C82.5203 64.0086 80.8128 64.6257 79.4984 65.7607L79.1198 64.4163H75.803V81.3572H80.0264V72.1521C80.0264 70.1906 81.3261 68.2071 83.8128 68.2071C85.757 68.2071 86.9148 69.5882 86.9148 71.9023V81.3572H91.1381V71.5864C91.1345 66.9839 88.4913 64.0086 84.399 64.0086ZM139.881 64.0086C137.999 64.0086 136.295 64.6257 134.981 65.7607L134.602 64.4163H131.282V81.3572H135.505V72.1521C135.505 70.1906 136.805 68.2071 139.292 68.2071C141.236 68.2071 142.393 69.5882 142.393 71.9023V81.3572H146.613V71.5864C146.617 66.9839 143.974 64.0086 139.881 64.0086ZM120.432 64.0086C115.699 64.0086 111.989 67.9022 111.989 72.8684C111.989 77.8382 115.695 81.7319 120.432 81.7319C125.165 81.7319 128.875 77.8382 128.875 72.8684C128.875 67.9022 125.165 64.0086 120.432 64.0086ZM120.432 77.537C118.022 77.537 116.274 75.5755 116.274 72.8721C116.274 70.1686 118.022 68.2071 120.432 68.2071C122.842 68.2071 124.59 70.1686 124.59 72.8721C124.59 75.5755 122.842 77.537 120.432 77.537ZM101.984 64.0086C97.2511 64.0086 93.5447 67.9022 93.5447 72.8684C93.5447 77.8382 97.2511 81.7319 101.984 81.7319C106.717 81.7319 110.427 77.8382 110.427 72.8684C110.427 67.9022 106.717 64.0086 101.984 64.0086ZM101.984 77.537C99.5739 77.537 97.8263 75.5755 97.8263 72.8721C97.8263 70.1686 99.5739 68.2071 101.984 68.2071C104.394 68.2071 106.142 70.1686 106.142 72.8721C106.142 75.5755 104.394 77.537 101.984 77.537ZM142.772 36.1472V41.1979C142.772 43.6957 140.759 45.7306 138.279 45.7306H116.646V41.4219C116.646 38.9021 115.546 36.5255 113.631 34.902C111.72 33.2821 109.193 32.6062 106.699 33.0507C103.251 33.6641 100.524 36.4117 99.9161 39.8939C99.4756 42.41 100.146 44.9593 101.751 46.8877C102.542 47.8409 103.531 48.6072 104.647 49.1328C105.764 49.6583 106.981 49.9301 108.214 49.9291H112.419C112.218 51.4255 111.508 52.8048 110.409 53.8301C109.218 54.948 107.652 55.5689 106.025 55.5675H105.709V59.766H106.025C108.756 59.766 111.352 58.7155 113.333 56.8091C115.233 54.9798 116.384 52.5481 116.591 49.9254H138.272C143.045 49.9254 146.926 46.0098 146.926 41.1942V36.1472H142.772ZM112.484 41.4219V45.727H108.217C107.593 45.7275 106.976 45.5896 106.41 45.323C105.845 45.0564 105.344 44.6676 104.944 44.1842C104.118 43.1924 103.79 41.9252 104.019 40.6175C104.318 38.8984 105.72 37.4843 107.423 37.183C108.72 36.9516 109.976 37.2822 110.959 38.116C111.927 38.9425 112.484 40.1473 112.484 41.4219ZM86.0992 54.8329C91.9537 54.8329 96.7159 50.0283 96.7159 44.1218V36.1692H92.5544V44.1254C92.5544 47.7142 89.66 50.6344 86.1029 50.6344C82.5458 50.6344 79.6514 47.7142 79.6514 44.1254V36.1692H75.4899V44.1254C75.4826 50.0283 80.2448 54.8329 86.0992 54.8329ZM86.0992 32.8486C87.3517 32.8486 88.3711 31.8201 88.3711 30.5566C88.3711 29.293 87.3517 28.2645 86.0992 28.2645C84.8468 28.2645 83.8274 29.293 83.8274 30.5566C83.8274 31.8201 84.8468 32.8486 86.0992 32.8486ZM138.574 32.8486C139.827 32.8486 140.846 31.8201 140.846 30.5566C140.846 29.293 139.827 28.2645 138.574 28.2645C137.322 28.2645 136.302 29.293 136.302 30.5566C136.302 31.8201 137.322 32.8486 138.574 32.8486Z" fill="#F2E009"/>
</g>
<path d="M179.58 36.26H179.4V47H177.44V33.04H180.32L184.42 43.78H184.6V33.04H186.56V47H183.68L179.58 36.26ZM193.992 47.24C193.112 47.24 192.346 47.08 191.692 46.76C191.052 46.4267 190.519 45.9533 190.092 45.34C189.679 44.7267 189.372 43.9733 189.172 43.08C188.972 42.1867 188.872 41.1667 188.872 40.02C188.872 38.8867 188.972 37.8733 189.172 36.98C189.372 36.0733 189.679 35.3133 190.092 34.7C190.519 34.0867 191.052 33.62 191.692 33.3C192.346 32.9667 193.112 32.8 193.992 32.8C194.872 32.8 195.632 32.9667 196.272 33.3C196.926 33.62 197.459 34.0867 197.872 34.7C198.299 35.3133 198.612 36.0733 198.812 36.98C199.012 37.8733 199.112 38.8867 199.112 40.02C199.112 41.1667 199.012 42.1867 198.812 43.08C198.612 43.9733 198.299 44.7267 197.872 45.34C197.459 45.9533 196.926 46.4267 196.272 46.76C195.632 47.08 194.872 47.24 193.992 47.24ZM193.992 45.38C194.992 45.38 195.699 45.0067 196.112 44.26C196.526 43.5 196.732 42.4733 196.732 41.18V38.84C196.732 37.56 196.526 36.5467 196.112 35.8C195.699 35.04 194.992 34.66 193.992 34.66C192.992 34.66 192.286 35.04 191.872 35.8C191.459 36.5467 191.252 37.56 191.252 38.84V41.2C191.252 42.48 191.459 43.5 191.872 44.26C192.286 45.0067 192.992 45.38 193.992 45.38ZM205.984 47.24C205.104 47.24 204.338 47.08 203.684 46.76C203.044 46.4267 202.511 45.9533 202.084 45.34C201.671 44.7267 201.364 43.9733 201.164 43.08C200.964 42.1867 200.864 41.1667 200.864 40.02C200.864 38.8867 200.964 37.8733 201.164 36.98C201.364 36.0733 201.671 35.3133 202.084 34.7C202.511 34.0867 203.044 33.62 203.684 33.3C204.338 32.9667 205.104 32.8 205.984 32.8C206.864 32.8 207.624 32.9667 208.264 33.3C208.918 33.62 209.451 34.0867 209.864 34.7C210.291 35.3133 210.604 36.0733 210.804 36.98C211.004 37.8733 211.104 38.8867 211.104 40.02C211.104 41.1667 211.004 42.1867 210.804 43.08C210.604 43.9733 210.291 44.7267 209.864 45.34C209.451 45.9533 208.918 46.4267 208.264 46.76C207.624 47.08 206.864 47.24 205.984 47.24ZM205.984 45.38C206.984 45.38 207.691 45.0067 208.104 44.26C208.518 43.5 208.724 42.4733 208.724 41.18V38.84C208.724 37.56 208.518 36.5467 208.104 35.8C207.691 35.04 206.984 34.66 205.984 34.66C204.984 34.66 204.278 35.04 203.864 35.8C203.451 36.5467 203.244 37.56 203.244 38.84V41.2C203.244 42.48 203.451 43.5 203.864 44.26C204.278 45.0067 204.984 45.38 205.984 45.38ZM215.557 36.26H215.377V47H213.417V33.04H216.297L220.397 43.78H220.577V33.04H222.537V47H219.657L215.557 36.26Z" fill="black"/>
<path d="M179.888 80L176.576 68.832H178L179.584 74.416L180.784 78.64H180.864L182.064 74.416L183.648 68.832H185.024L181.712 80H179.888ZM190.906 69.92C190.532 69.92 190.271 69.8453 190.122 69.696C189.972 69.536 189.898 69.3387 189.898 69.104V68.848C189.898 68.6133 189.972 68.4213 190.122 68.272C190.271 68.112 190.532 68.032 190.906 68.032C191.279 68.032 191.54 68.112 191.69 68.272C191.839 68.4213 191.914 68.6133 191.914 68.848V69.104C191.914 69.3387 191.839 69.536 191.69 69.696C191.54 69.8453 191.279 69.92 190.906 69.92ZM187.29 78.912H190.266V72.832H187.29V71.744H191.546V78.912H194.33V80H187.29V78.912ZM200.084 80.192C199.22 80.192 198.473 80.048 197.844 79.76C197.225 79.4613 196.697 79.0667 196.26 78.576L197.124 77.824C197.518 78.24 197.95 78.56 198.42 78.784C198.889 79.008 199.454 79.12 200.116 79.12C200.756 79.12 201.278 79.008 201.684 78.784C202.1 78.5493 202.308 78.1867 202.308 77.696C202.308 77.4827 202.265 77.3067 202.18 77.168C202.105 77.0187 201.998 76.9013 201.86 76.816C201.721 76.7307 201.566 76.6667 201.396 76.624C201.225 76.5707 201.044 76.528 200.852 76.496L199.556 76.304C199.268 76.2613 198.953 76.2027 198.612 76.128C198.281 76.0533 197.977 75.936 197.7 75.776C197.422 75.6053 197.188 75.3813 196.996 75.104C196.814 74.8267 196.724 74.464 196.724 74.016C196.724 73.6 196.804 73.2427 196.964 72.944C197.134 72.6347 197.369 72.3787 197.668 72.176C197.966 71.9627 198.318 71.808 198.724 71.712C199.129 71.6053 199.572 71.552 200.052 71.552C200.798 71.552 201.444 71.6693 201.988 71.904C202.542 72.1387 203.017 72.464 203.411 72.88L202.58 73.664C202.484 73.5467 202.361 73.4293 202.212 73.312C202.073 73.184 201.897 73.072 201.684 72.976C201.481 72.8693 201.241 72.784 200.964 72.72C200.686 72.656 200.366 72.624 200.004 72.624C199.353 72.624 198.852 72.736 198.5 72.96C198.158 73.184 197.988 73.5093 197.988 73.936C197.988 74.1493 198.025 74.3307 198.1 74.48C198.185 74.6187 198.297 74.7307 198.436 74.816C198.574 74.9013 198.729 74.9707 198.9 75.024C199.081 75.0667 199.262 75.104 199.444 75.136L200.74 75.328C201.038 75.3707 201.353 75.4293 201.684 75.504C202.014 75.5787 202.318 75.7013 202.596 75.872C202.873 76.032 203.102 76.2507 203.284 76.528C203.476 76.8053 203.572 77.168 203.572 77.616C203.572 78.4373 203.252 79.072 202.612 79.52C201.982 79.968 201.14 80.192 200.084 80.192ZM210.093 69.92C209.72 69.92 209.459 69.8453 209.309 69.696C209.16 69.536 209.085 69.3387 209.085 69.104V68.848C209.085 68.6133 209.16 68.4213 209.309 68.272C209.459 68.112 209.72 68.032 210.093 68.032C210.467 68.032 210.728 68.112 210.877 68.272C211.027 68.4213 211.101 68.6133 211.101 68.848V69.104C211.101 69.3387 211.027 69.536 210.877 69.696C210.728 69.8453 210.467 69.92 210.093 69.92ZM206.477 78.912H209.453V72.832H206.477V71.744H210.733V78.912H213.517V80H206.477V78.912ZM219.575 80C218.946 80 218.482 79.824 218.183 79.472C217.895 79.12 217.751 78.6667 217.751 78.112V72.832H214.999V71.744H217.047C217.324 71.744 217.516 71.6907 217.623 71.584C217.74 71.4667 217.799 71.2693 217.799 70.992V68.832H219.031V71.744H222.791V72.832H219.031V78.912H222.791V80H219.575ZM238.763 80C238.133 80 237.669 79.824 237.371 79.472C237.083 79.12 236.939 78.6667 236.939 78.112V72.832H234.187V71.744H236.235C236.512 71.744 236.704 71.6907 236.811 71.584C236.928 71.4667 236.987 71.2693 236.987 70.992V68.832H238.219V71.744H241.979V72.832H238.219V78.912H241.979V80H238.763ZM244.724 68.16H246.004V73.088H246.068C246.154 72.8853 246.26 72.6933 246.388 72.512C246.516 72.32 246.671 72.1547 246.852 72.016C247.044 71.8773 247.268 71.7653 247.524 71.68C247.78 71.5947 248.079 71.552 248.42 71.552C249.284 71.552 249.978 71.8293 250.5 72.384C251.023 72.928 251.284 73.7013 251.284 74.704V80H250.004V74.928C250.004 74.1707 249.839 73.6107 249.508 73.248C249.178 72.8747 248.692 72.688 248.052 72.688C247.796 72.688 247.546 72.72 247.3 72.784C247.055 72.848 246.836 72.944 246.644 73.072C246.452 73.2 246.298 73.3653 246.18 73.568C246.063 73.7707 246.004 74.0053 246.004 74.272V80H244.724V68.16ZM257.694 80.192C257.097 80.192 256.558 80.0907 256.078 79.888C255.609 79.6853 255.203 79.3973 254.862 79.024C254.531 78.64 254.275 78.1867 254.094 77.664C253.913 77.1307 253.822 76.5387 253.822 75.888C253.822 75.2267 253.913 74.6293 254.094 74.096C254.286 73.5627 254.547 73.1093 254.878 72.736C255.209 72.352 255.603 72.0587 256.062 71.856C256.531 71.6533 257.049 71.552 257.614 71.552C258.169 71.552 258.67 71.6533 259.118 71.856C259.577 72.0587 259.966 72.3413 260.286 72.704C260.606 73.056 260.851 73.4773 261.022 73.968C261.193 74.4587 261.278 74.9973 261.278 75.584V76.192H255.166V76.576C255.166 76.9387 255.225 77.2747 255.342 77.584C255.459 77.8933 255.625 78.16 255.838 78.384C256.062 78.608 256.329 78.784 256.638 78.912C256.958 79.0293 257.31 79.088 257.694 79.088C258.249 79.088 258.729 78.96 259.134 78.704C259.539 78.448 259.849 78.096 260.062 77.648L261.006 78.288C260.761 78.8427 260.35 79.3013 259.774 79.664C259.209 80.016 258.515 80.192 257.694 80.192ZM257.614 72.608C257.262 72.608 256.937 72.672 256.638 72.8C256.339 72.928 256.078 73.104 255.854 73.328C255.641 73.552 255.47 73.8187 255.342 74.128C255.225 74.4267 255.166 74.7573 255.166 75.12V75.232H259.902V75.056C259.902 74.6933 259.843 74.3627 259.726 74.064C259.619 73.7653 259.465 73.5093 259.262 73.296C259.07 73.072 258.83 72.9013 258.542 72.784C258.265 72.6667 257.955 72.608 257.614 72.608ZM276.834 80.192C275.97 80.192 275.223 80.048 274.594 79.76C273.975 79.4613 273.447 79.0667 273.01 78.576L273.874 77.824C274.268 78.24 274.7 78.56 275.17 78.784C275.639 79.008 276.204 79.12 276.866 79.12C277.506 79.12 278.028 79.008 278.434 78.784C278.85 78.5493 279.058 78.1867 279.058 77.696C279.058 77.4827 279.015 77.3067 278.93 77.168C278.855 77.0187 278.748 76.9013 278.61 76.816C278.471 76.7307 278.316 76.6667 278.146 76.624C277.975 76.5707 277.794 76.528 277.602 76.496L276.306 76.304C276.018 76.2613 275.703 76.2027 275.362 76.128C275.031 76.0533 274.727 75.936 274.45 75.776C274.172 75.6053 273.938 75.3813 273.746 75.104C273.564 74.8267 273.474 74.464 273.474 74.016C273.474 73.6 273.554 73.2427 273.714 72.944C273.884 72.6347 274.119 72.3787 274.418 72.176C274.716 71.9627 275.068 71.808 275.474 71.712C275.879 71.6053 276.322 71.552 276.802 71.552C277.548 71.552 278.194 71.6693 278.738 71.904C279.292 72.1387 279.767 72.464 280.161 72.88L279.33 73.664C279.234 73.5467 279.111 73.4293 278.962 73.312C278.823 73.184 278.647 73.072 278.434 72.976C278.231 72.8693 277.991 72.784 277.714 72.72C277.436 72.656 277.116 72.624 276.754 72.624C276.103 72.624 275.602 72.736 275.25 72.96C274.908 73.184 274.738 73.5093 274.738 73.936C274.738 74.1493 274.775 74.3307 274.85 74.48C274.935 74.6187 275.047 74.7307 275.186 74.816C275.324 74.9013 275.479 74.9707 275.65 75.024C275.831 75.0667 276.012 75.104 276.194 75.136L277.49 75.328C277.788 75.3707 278.103 75.4293 278.434 75.504C278.764 75.5787 279.068 75.7013 279.346 75.872C279.623 76.032 279.852 76.2507 280.034 76.528C280.226 76.8053 280.322 77.168 280.322 77.616C280.322 78.4373 280.002 79.072 279.362 79.52C278.732 79.968 277.89 80.192 276.834 80.192ZM286.731 80C286.102 80 285.638 79.824 285.339 79.472C285.051 79.12 284.907 78.6667 284.907 78.112V72.832H282.155V71.744H284.203C284.481 71.744 284.673 71.6907 284.779 71.584C284.897 71.4667 284.955 71.2693 284.955 70.992V68.832H286.187V71.744H289.947V72.832H286.187V78.912H289.947V80H286.731ZM295.925 80.192C295.349 80.192 294.826 80.0907 294.357 79.888C293.898 79.6853 293.504 79.3973 293.173 79.024C292.853 78.64 292.608 78.1867 292.437 77.664C292.266 77.1307 292.181 76.5333 292.181 75.872C292.181 75.2213 292.266 74.6293 292.437 74.096C292.608 73.5627 292.853 73.1093 293.173 72.736C293.504 72.352 293.898 72.0587 294.357 71.856C294.826 71.6533 295.349 71.552 295.925 71.552C296.501 71.552 297.018 71.6533 297.477 71.856C297.946 72.0587 298.341 72.352 298.661 72.736C298.992 73.1093 299.242 73.5627 299.413 74.096C299.584 74.6293 299.669 75.2213 299.669 75.872C299.669 76.5333 299.584 77.1307 299.413 77.664C299.242 78.1867 298.992 78.64 298.661 79.024C298.341 79.3973 297.946 79.6853 297.477 79.888C297.018 80.0907 296.501 80.192 295.925 80.192ZM295.925 79.088C296.64 79.088 297.216 78.8747 297.653 78.448C298.09 78.0213 298.309 77.36 298.309 76.464V75.28C298.309 74.384 298.09 73.7227 297.653 73.296C297.216 72.8693 296.64 72.656 295.925 72.656C295.21 72.656 294.634 72.8693 294.197 73.296C293.76 73.7227 293.541 74.384 293.541 75.28V76.464C293.541 77.36 293.76 78.0213 294.197 78.448C294.634 78.8747 295.21 79.088 295.925 79.088ZM301.951 78.912H304.367V72.832H301.951V71.744H305.647V73.824H305.727C305.897 73.1733 306.217 72.6667 306.687 72.304C307.167 71.9307 307.775 71.744 308.511 71.744H309.663V73.024H308.111C307.375 73.024 306.777 73.2373 306.319 73.664C305.871 74.0907 305.647 74.6507 305.647 75.344V78.912H308.847V80H301.951V78.912ZM315.257 80.192C314.659 80.192 314.121 80.0907 313.641 79.888C313.171 79.6853 312.766 79.3973 312.424 79.024C312.094 78.64 311.838 78.1867 311.657 77.664C311.475 77.1307 311.385 76.5387 311.385 75.888C311.385 75.2267 311.475 74.6293 311.657 74.096C311.849 73.5627 312.11 73.1093 312.441 72.736C312.771 72.352 313.166 72.0587 313.625 71.856C314.094 71.6533 314.611 71.552 315.177 71.552C315.731 71.552 316.233 71.6533 316.681 71.856C317.139 72.0587 317.529 72.3413 317.849 72.704C318.169 73.056 318.414 73.4773 318.585 73.968C318.755 74.4587 318.841 74.9973 318.841 75.584V76.192H312.729V76.576C312.729 76.9387 312.787 77.2747 312.905 77.584C313.022 77.8933 313.187 78.16 313.401 78.384C313.625 78.608 313.891 78.784 314.201 78.912C314.521 79.0293 314.873 79.088 315.257 79.088C315.811 79.088 316.291 78.96 316.697 78.704C317.102 78.448 317.411 78.096 317.625 77.648L318.569 78.288C318.323 78.8427 317.913 79.3013 317.337 79.664C316.771 80.016 316.078 80.192 315.257 80.192ZM315.177 72.608C314.825 72.608 314.499 72.672 314.201 72.8C313.902 72.928 313.641 73.104 313.417 73.328C313.203 73.552 313.033 73.8187 312.905 74.128C312.787 74.4267 312.729 74.7573 312.729 75.12V75.232H317.465V75.056C317.465 74.6933 317.406 74.3627 317.289 74.064C317.182 73.7653 317.027 73.5093 316.825 73.296C316.633 73.072 316.393 72.9013 316.105 72.784C315.827 72.6667 315.518 72.608 315.177 72.608Z" fill="#0090FF"/>
<path fill-rule="evenodd" clip-rule="evenodd" d="M340.48 75.0839L335.289 69.8549C334.904 69.4678 334.904 68.8418 335.289 68.4548C335.472 68.2694 335.722 68.1652 335.982 68.1652C336.243 68.1652 336.493 68.2694 336.676 68.4548L342.561 74.3828C342.945 74.7703 342.945 75.3953 342.561 75.7828L336.676 81.7108C336.493 81.8959 336.243 82 335.982 82C335.722 82 335.472 81.8959 335.289 81.7108C334.904 81.3234 334.904 80.698 335.289 80.3107L340.48 75.0839Z" fill="#0090FF"/>
<defs>
<clipPath id="clip0_680_4648">
<rect width="141" height="54" fill="white" transform="translate(9 28)"/>
</clipPath>
</defs>
</svg>
