<svg width="44" height="54" viewBox="0 0 44 54" fill="none" xmlns="http://www.w3.org/2000/svg">
<g clip-path="url(#clip0_102_3058)">
<path fill-rule="evenodd" clip-rule="evenodd" d="M0.400391 21.8232C0.400391 10.0188 9.94759 0.449951 21.7232 0.449951C33.4988 0.449951 43.046 10.0206 43.046 21.825C43.046 33.633 33.4988 43.2018 21.7232 43.2018C9.94759 43.2018 0.400391 33.6294 0.400391 21.8232Z" fill="#007565"/>
<path fill-rule="evenodd" clip-rule="evenodd" d="M22.1494 18.8911L22.1944 19.6309L21.4492 19.5409C18.7348 19.1935 16.3624 18.0163 14.35 16.0381L13.3654 15.0571L13.1116 15.7825C12.5752 17.3971 12.9172 19.1035 14.0368 20.2501C14.6326 20.8837 14.4994 20.9755 13.4698 20.5975C13.1116 20.4769 12.7984 20.3869 12.7678 20.4319C12.6634 20.5363 13.0216 21.9097 13.306 22.4533C13.693 23.2093 14.4832 23.9473 15.349 24.3865L16.0798 24.7339L15.2158 24.7483C14.3788 24.7483 14.35 24.7627 14.4382 25.0813C14.737 26.0623 15.9142 27.1027 17.2282 27.5563L18.1534 27.8731L17.347 28.3555C16.1297 29.057 14.7556 29.4414 13.351 29.4733C12.6796 29.4877 12.127 29.5489 12.127 29.5939C12.127 29.7451 13.9468 30.5893 15.007 30.9223C18.1822 31.9033 21.955 31.4803 24.79 29.8063C26.8024 28.6129 28.8166 26.2423 29.758 23.9491C30.262 22.7251 30.7714 20.4931 30.7714 19.4203C30.7714 18.7255 30.8146 18.6355 31.6498 17.8039C32.143 17.3215 32.6038 16.7941 32.6938 16.6429C32.8432 16.3549 32.8288 16.3549 32.0674 16.6123C30.8002 17.0659 30.622 17.0047 31.2484 16.3243C31.7092 15.8419 32.2618 14.9671 32.2618 14.7097C32.2618 14.6647 32.0386 14.7403 31.7848 14.8771C31.5148 15.0265 30.9208 15.2551 30.4708 15.3901L29.6662 15.6457L28.9354 15.1489C28.534 14.8771 27.967 14.5729 27.6682 14.4829C26.9086 14.2723 25.744 14.3029 25.0582 14.5441C23.1934 15.2227 22.0162 16.9741 22.1494 18.8911Z" fill="white"/>
</g>
<defs>
<clipPath id="clip0_102_3058">
<rect width="43.2" height="43.2" fill="white" transform="translate(0.400391)"/>
</clipPath>
</defs>
</svg>
